<?xml version="1.0" encoding="UTF-8" standalone="no"?>
<svg
   width="32"
   height="32"
   viewBox="0 0 32 32"
   fill="none"
   version="1.1"
   id="svg2"
   sodipodi:docname="raif.svg"
   inkscape:version="1.4 (86a8ad7, 2024-10-11)"
   xmlns:inkscape="http://www.inkscape.org/namespaces/inkscape"
   xmlns:sodipodi="http://sodipodi.sourceforge.net/DTD/sodipodi-0.dtd"
   xmlns="http://www.w3.org/2000/svg"
   xmlns:svg="http://www.w3.org/2000/svg">
  <defs
     id="defs2" />
  <sodipodi:namedview
     id="namedview2"
     pagecolor="#ffffff"
     bordercolor="#000000"
     borderopacity="0.25"
     inkscape:showpageshadow="2"
     inkscape:pageopacity="0.0"
     inkscape:pagecheckerboard="0"
     inkscape:deskcolor="#d1d1d1"
     inkscape:zoom="11.313709"
     inkscape:cx="32.350135"
     inkscape:cy="19.401242"
     inkscape:window-width="1920"
     inkscape:window-height="986"
     inkscape:window-x="-11"
     inkscape:window-y="-11"
     inkscape:window-maximized="1"
     inkscape:current-layer="svg2" />
  <path
     d="M32 25.952C32 29.84 29.84 32 25.952 32H6.048C2.16 32 0 29.84 0 25.952V6.048C0 2.16 2.16 0 6.048 0H25.96C29.84 0 32 2.16 32 6.048V25.952Z"
     fill="#FEE600"
     id="path1" />
  <path
     d="M20.575 14.4398V11.3838L21.679 10.2798V12.9278L22.639 13.8878L26.503 10.0238L27.455 10.9758C27.447 10.2558 27.303 8.16783 25.535 6.43183C23.631 4.59183 21.567 5.42383 20.863 6.12783L17.007 9.98383L17.991 10.9678L15.999 12.9758L14.007 10.9838L14.991 9.99983L11.135 6.14383C10.431 5.43983 8.36697 4.60783 6.46297 6.44783C4.69497 8.18383 4.55097 10.2718 4.54297 10.9918L5.49497 10.0398L9.35897 13.9038L10.319 12.9438V10.2958L11.423 11.3998V14.4558L12.975 15.9998L5.32697 23.6478L8.35097 26.6638L15.999 19.0238L23.647 26.6718L26.671 23.6558L19.023 15.9998L20.575 14.4398Z"
     fill="#2B2D33"
     id="path2" />
</svg>
