<?xml version="1.0" encoding="utf-8"?>
<!-- Generator: Adobe Illustrator 23.0.1, SVG Export Plug-In . SVG Version: 6.00 Build 0)  -->
<svg version="1.1" id="Layer_1" xmlns="http://www.w3.org/2000/svg" xmlns:xlink="http://www.w3.org/1999/xlink" x="0px" y="0px"
	 viewBox="0 0 1000 1000" enable-background="new 0 0 1000 1000" xml:space="preserve">
<g>
	<polygon fill-rule="evenodd" clip-rule="evenodd" fill="#D0D2D3" points="205.2,205.2 794.8,205.2 794.8,794.8 205.2,794.8 	"/>
	<polygon fill-rule="evenodd" clip-rule="evenodd" fill="#D0D2D3" points="222.2,222.2 777.7,222.2 777.7,777.7 222.2,777.7 	"/>
	<path fill-rule="evenodd" clip-rule="evenodd" fill="#FFFFFF" d="M251.7,665.5l72.5,73.9l169.8-172.3l175.5,175.8l73.5-72.8
		L569.2,496.4l33.4-32.3v-68.9l20.9-17.7v54l26.9,22.1l80.7-80.7l25.9,19.9C772.4,336.3,684,208,610.9,279.1l-85.3,84.5l17.4,20.9
		l-43.3,42.2l-41.9-41.2l22.1-19.9l-93.4-90.2c-70.3-57.9-142.4,30.2-144.9,116.1l25.5-21.3l78.5,84.5l28.1-23.5v-51.8l17.4,13.1
		v67.8l34.1,34.1L251.7,665.5L251.7,665.5z"/>
</g>
</svg>
