<?xml version="1.0" encoding="utf-8" standalone="no"?>
<!DOCTYPE svg PUBLIC "-//W3C//DTD SVG 1.1//EN"
  "http://www.w3.org/Graphics/SVG/1.1/DTD/svg11.dtd">
<svg xmlns:xlink="http://www.w3.org/1999/xlink" width="432pt" height="432pt" viewBox="0 0 432 432" xmlns="http://www.w3.org/2000/svg" version="1.1">
 <metadata>
  <rdf:RDF xmlns:dc="http://purl.org/dc/elements/1.1/" xmlns:cc="http://creativecommons.org/ns#" xmlns:rdf="http://www.w3.org/1999/02/22-rdf-syntax-ns#">
   <cc:Work>
    <dc:type rdf:resource="http://purl.org/dc/dcmitype/StillImage"/>
    <dc:date>2025-04-20T13:46:45.747377</dc:date>
    <dc:format>image/svg+xml</dc:format>
    <dc:creator>
     <cc:Agent>
      <dc:title>Matplotlib v3.10.1, https://matplotlib.org/</dc:title>
     </cc:Agent>
    </dc:creator>
   </cc:Work>
  </rdf:RDF>
 </metadata>
 <defs>
  <style type="text/css">*{stroke-linejoin: round; stroke-linecap: butt}</style>
 </defs>
 <g id="figure_1">
  <g id="patch_1">
   <path d="M 0 432 
L 432 432 
L 432 0 
L 0 0 
z
" style="fill: #ffffff"/>
  </g>
  <g id="axes_1">
   <g id="PatchCollection_1">
    <path d="M 227.166831 198.91196 
L 227.768142 198.64143 
L 261.0045 183.798543 
L 261.798312 183.411267 
L 261.983144 183.295326 
L 262.571138 182.838003 
L 263.309257 152.359158 
L 253.261309 149.593477 
L 253.424752 148.965463 
L 253.55349 148.388172 
L 253.744376 147.599128 
L 253.673752 147.31008 
L 253.620481 147.092691 
L 252.999396 144.557282 
L 253.328301 144.38015 
L 253.436052 144.322179 
L 255.368723 143.281124 
L 256.935763 142.43733 
L 257.259018 142.264223 
L 257.767106 141.989668 
L 259.227202 141.203039 
L 260.437492 140.551675 
L 262.582437 139.397899 
L 263.387548 138.968756 
L 263.736632 138.788403 
L 264.300008 138.47037 
L 265.122876 138.027539 
L 266.680231 137.190186 
L 268.598373 136.157182 
L 269.293311 135.783594 
L 269.970088 135.418862 
L 270.260655 135.262664 
L 271.214278 134.749785 
L 271.778864 134.445439 
L 272.408021 134.102447 
L 272.732084 133.931755 
L 273.534773 133.500197 
L 273.853993 133.32709 
L 274.356431 133.054145 
L 275.63008 132.36977 
L 275.83388 132.26188 
L 278.536148 130.806979 
L 279.405426 130.332748 
L 280.057182 129.988145 
L 279.754912 129.402803 
L 279.368298 128.626641 
L 278.789586 127.448711 
L 277.806907 125.450336 
L 277.649113 125.129082 
L 275.759624 121.275648 
L 275.302386 120.354559 
L 275.096971 119.935883 
L 273.703463 117.101765 
L 271.586768 112.729816 
L 271.161814 111.886022 
L 270.777621 111.329665 
L 270.354282 110.847382 
L 269.793327 110.45125 
L 269.118567 109.807937 
L 269.02938 109.761239 
L 268.761413 109.270904 
L 290.067599 100.636506 
L 291.475232 99.94569 
L 292.099142 99.642955 
L 278.175765 81.076262 
L 277.835156 80.618938 
L 276.89364 79.355662 
L 276.562718 78.912026 
L 276.389185 78.679339 
L 275.63008 77.660828 
L 274.425037 76.044092 
L 274.063039 75.558588 
L 272.923373 74.030419 
L 272.016564 72.813037 
L 271.835767 72.570687 
L 271.736894 72.438643 
L 271.599682 72.254265 
L 271.188853 71.703544 
L 271.552061 70.99743 
L 280.317885 64.278477 
L 280.417969 63.710848 
L 281.2933 59.768848 
L 281.312671 59.276903 
L 281.275947 58.854201 
L 281.215009 58.528116 
L 281.114118 58.181098 
L 281.005962 57.912179 
L 280.838079 57.59012 
L 280.660108 57.28819 
L 280.479714 57.01605 
L 270.622652 44.143358 
L 266.948601 39.124876 
L 263.701522 34.738434 
L 223.816842 63.42019 
L 169.832427 93.001296 
L 156.849355 99.090624 
L 160.577483 111.757198 
L 160.757876 112.718544 
L 169.053144 129.290082 
L 169.208516 129.969626 
L 169.44783 132.279594 
L 170.219445 132.206325 
L 171.042717 132.084748 
L 171.762676 131.978469 
L 173.616247 131.705524 
L 180.627776 134.294072 
L 189.49772 138.262642 
L 191.898121 139.161186 
L 193.550718 139.780344 
L 197.158584 140.492899 
L 203.31496 141.09676 
L 204.912672 140.953444 
L 205.332782 142.337492 
L 208.976566 154.336599 
L 212.565061 166.154549 
L 213.104223 167.434733 
L 218.291641 179.749458 
L 225.292677 196.372526 
L 226.413779 199.245291 
L 227.166831 198.91196 
" clip-path="url(#pd2ad49debf)" style="fill: #ffffff; stroke: #000000"/>
    <path d="M 192.957074 340.141208 
L 193.119307 339.32962 
L 193.493412 339.396447 
L 193.638291 339.156513 
L 193.792856 338.784535 
L 194.15445 338.099355 
L 194.78845 337.404513 
L 195.610511 336.48745 
L 196.314327 337.090505 
L 196.440643 337.040586 
L 197.704607 335.741079 
L 197.782898 335.620307 
L 197.913653 335.132388 
L 198.60617 335.318377 
L 200.483552 333.196009 
L 200.615921 333.087314 
L 201.855671 331.758821 
L 202.397254 331.278148 
L 203.852911 329.986692 
L 203.228194 328.828891 
L 203.168062 328.897328 
L 202.638989 328.08413 
L 201.830246 327.630027 
L 201.874235 327.555953 
L 202.2326 326.954508 
L 202.494513 326.514898 
L 203.202365 325.326501 
L 203.841612 324.238747 
L 203.271375 323.918298 
L 203.566784 323.430379 
L 203.199541 323.223456 
L 204.234683 321.482728 
L 204.538971 321.663081 
L 205.65402 319.781452 
L 206.020456 319.163904 
L 206.225467 318.878882 
L 207.140751 317.93364 
L 209.275607 315.390985 
L 209.55447 315.564092 
L 210.376935 313.953797 
L 210.535535 313.567327 
L 210.658623 313.268617 
L 214.032825 308.205047 
L 219.073345 306.127767 
L 219.633089 305.081881 
L 220.250543 305.055311 
L 220.660161 304.963525 
L 221.02014 304.790418 
L 222.797438 303.433745 
L 223.263151 303.101219 
L 223.598514 302.879804 
L 223.24378 302.282385 
L 223.074687 301.852436 
L 222.98671 301.381425 
L 222.995588 300.707517 
L 223.017381 299.484498 
L 222.979446 298.737322 
L 223.045227 295.775185 
L 221.167845 295.708358 
L 221.216676 291.277634 
L 220.26386 253.650693 
L 220.190008 252.826222 
L 220.124227 252.035568 
L 219.378843 229.633154 
L 201.456949 237.123438 
L 194.915976 236.631493 
L 154.129734 233.563077 
L 147.207796 233.103338 
L 143.323084 232.845691 
L 138.473854 236.823923 
L 116.425109 238.938239 
L 108.757788 241.343214 
L 101.231311 238.968835 
L 90.251936 236.652426 
L 82.201632 234.473698 
L 77.222857 232.968878 
L 77.569115 237.761919 
L 77.766055 255.205432 
L 76.603789 265.795532 
L 72.535859 278.712507 
L 68.645901 290.029656 
L 59.367954 309.841911 
L 58.959144 310.673628 
L 52.986389 325.316034 
L 52.441577 326.650968 
L 50.259504 332.00117 
L 42.704374 343.692712 
L 29.651485 354.685386 
L 29.454545 354.911632 
L 33.059183 357.012261 
L 40.618753 362.030743 
L 43.2395 363.508993 
L 44.735514 363.936526 
L 46.70168 362.891445 
L 48.790126 361.74089 
L 51.242184 360.828658 
L 53.352826 360.701445 
L 56.798863 361.318188 
L 59.089091 362.112868 
L 73.520557 366.395445 
L 77.360472 366.180471 
L 80.862605 364.643445 
L 87.498012 360.709496 
L 89.280153 357.574254 
L 91.922289 350.65804 
L 93.704026 349.551768 
L 95.854218 349.490576 
L 99.836188 349.108131 
L 101.681689 348.459988 
L 103.63938 347.586403 
L 105.107951 346.6943 
L 105.592632 345.906866 
L 106.367879 346.175786 
L 106.618493 346.25308 
L 107.417147 346.507506 
L 107.776319 346.654043 
L 110.623063 347.769977 
L 113.554152 348.919727 
L 114.672025 349.354506 
L 115.79797 349.789286 
L 117.041756 350.275595 
L 117.433213 350.430988 
L 119.511167 351.253849 
L 120.281975 351.558999 
L 120.814276 351.770753 
L 121.003952 351.525183 
L 121.215016 351.325507 
L 121.436169 351.162062 
L 121.711804 350.993786 
L 121.999545 350.876235 
L 122.318765 350.79733 
L 122.615788 350.771565 
L 122.920076 350.783643 
L 123.200957 350.834367 
L 123.476591 350.914882 
L 123.754647 351.040485 
L 123.995575 351.192657 
L 124.25426 351.400385 
L 124.447567 351.648371 
L 124.60415 351.884279 
L 124.745398 352.162055 
L 124.867274 352.554161 
L 124.908841 352.873805 
L 124.889874 353.177345 
L 125.368098 353.219213 
L 125.814036 353.261885 
L 126.212355 353.270742 
L 126.58202 353.237731 
L 126.947245 353.133062 
L 127.302786 353.005044 
L 127.735003 352.716801 
L 132.764627 356.334327 
L 134.832895 354.355275 
L 136.691713 352.173327 
L 136.581943 352.062216 
L 137.401583 351.051757 
L 137.903617 350.439845 
L 138.459325 349.676565 
L 139.353221 348.428587 
L 140.058651 347.006697 
L 148.124291 338.286149 
L 149.658643 336.65009 
L 150.333806 336.371509 
L 151.028341 336.02127 
L 152.455345 335.129167 
L 153.28467 334.73384 
L 154.271385 334.373939 
L 155.250836 334.095358 
L 157.326771 333.712108 
L 158.172642 333.621126 
L 164.194631 334.673454 
L 168.084589 335.427877 
L 176.387525 336.744292 
L 186.270011 338.716097 
L 189.58489 339.191939 
L 189.604261 339.71609 
L 192.340024 340.01802 
L 192.957074 340.141208 
" clip-path="url(#pd2ad49debf)" style="fill: #ffffff; stroke: #000000"/>
    <path d="M 227.166831 198.91196 
L 226.413779 199.245291 
L 234.643669 218.91262 
L 235.943954 222.019683 
L 237.845146 221.116307 
L 261.997269 209.638935 
L 302.030057 190.614919 
L 326.908192 172.106196 
L 339.394073 162.803526 
L 318.573375 135.042859 
L 306.91924 119.492247 
L 302.215696 113.212904 
L 292.099142 99.642955 
L 291.475232 99.94569 
L 290.067599 100.636506 
L 268.761413 109.270904 
L 269.02938 109.761239 
L 269.118567 109.807937 
L 269.793327 110.45125 
L 270.354282 110.847382 
L 270.777621 111.329665 
L 271.161814 111.886022 
L 271.586768 112.729816 
L 273.703463 117.101765 
L 275.096971 119.935883 
L 275.302386 120.354559 
L 275.759624 121.275648 
L 277.649113 125.129082 
L 277.806907 125.450336 
L 278.789586 127.448711 
L 279.368298 128.626641 
L 279.754912 129.402803 
L 280.057182 129.988145 
L 279.405426 130.332748 
L 278.536148 130.806979 
L 275.83388 132.26188 
L 275.63008 132.36977 
L 274.356431 133.054145 
L 273.853993 133.32709 
L 273.534773 133.500197 
L 272.732084 133.931755 
L 272.408021 134.102447 
L 271.778864 134.445439 
L 271.214278 134.749785 
L 270.260655 135.262664 
L 269.970088 135.418862 
L 269.293311 135.783594 
L 268.598373 136.157182 
L 266.680231 137.190186 
L 265.122876 138.027539 
L 264.300008 138.47037 
L 263.736632 138.788403 
L 263.387548 138.968756 
L 262.582437 139.397899 
L 260.437492 140.551675 
L 259.227202 141.203039 
L 257.767106 141.989668 
L 257.259018 142.264223 
L 256.935763 142.43733 
L 255.368723 143.281124 
L 253.436052 144.322179 
L 253.328301 144.38015 
L 252.999396 144.557282 
L 253.620481 147.092691 
L 253.673752 147.31008 
L 253.744376 147.599128 
L 253.55349 148.388172 
L 253.424752 148.965463 
L 253.261309 149.593477 
L 263.309257 152.359158 
L 262.571138 182.838003 
L 261.983144 183.295326 
L 261.798312 183.411267 
L 261.0045 183.798543 
L 227.768142 198.64143 
L 227.166831 198.91196 
" clip-path="url(#pd2ad49debf)" style="fill: #ffffff; stroke: #000000"/>
    <path d="M 217.394113 365.531523 
L 217.321875 365.783534 
L 216.774238 367.768221 
L 216.436051 369.246471 
L 216.154767 370.665141 
L 216.062754 371.406681 
L 216.122078 372.078174 
L 215.902539 372.074953 
L 215.71811 372.070928 
L 215.477989 373.567696 
L 215.467497 374.125663 
L 215.348445 374.569299 
L 214.677317 376.302781 
L 213.253542 380.786645 
L 212.566272 382.86634 
L 211.20061 387.618319 
L 211.397953 387.999958 
L 210.853544 389.95244 
L 210.397516 391.278518 
L 210.033501 392.958055 
L 210.592034 393.12311 
L 210.045205 395.138393 
L 209.249375 396.520025 
L 221.798212 397.261566 
L 231.07051 396.46447 
L 231.941402 396.432264 
L 233.507232 396.375099 
L 235.932654 396.286533 
L 237.192583 396.240639 
L 240.830716 396.009562 
L 244.954741 395.892011 
L 245.819177 395.867051 
L 246.3313 395.852558 
L 250.154266 395.735812 
L 251.827444 395.69636 
L 252.398084 395.688308 
L 254.852967 395.610209 
L 259.058109 395.490242 
L 260.555737 395.447569 
L 263.86093 395.353367 
L 265.384385 395.309889 
L 268.149609 395.230985 
L 270.038694 395.177845 
L 271.477805 395.173819 
L 271.94594 395.191533 
L 272.267985 395.20683 
L 272.560972 395.269632 
L 272.867681 395.349341 
L 274.44925 395.31472 
L 277.793993 394.960455 
L 279.776301 394.732599 
L 285.182047 394.612632 
L 285.989983 394.735819 
L 287.380667 394.681069 
L 288.797985 394.596529 
L 290.036121 394.528897 
L 292.901428 394.40893 
L 293.376424 394.400073 
L 295.600468 394.362231 
L 297.337409 394.332441 
L 297.557352 394.326805 
L 300.676501 394.251926 
L 303.145509 394.195566 
L 304.861465 394.152088 
L 305.546314 394.13518 
L 305.721864 394.131154 
L 306.460387 394.113441 
L 307.120215 394.097338 
L 307.566558 394.086871 
L 307.696909 394.08365 
L 306.251341 346.087219 
L 305.60927 343.066307 
L 304.575741 299.322664 
L 304.551527 296.794502 
L 304.587445 295.758277 
L 304.528928 287.750284 
L 304.409069 282.156927 
L 304.139488 270.933981 
L 304.015594 265.103106 
L 303.868293 259.251296 
L 303.817847 257.204612 
L 303.415494 241.638703 
L 303.30976 239.071894 
L 303.292406 235.055015 
L 303.088606 226.242679 
L 303.031704 224.111455 
L 302.938077 220.599403 
L 302.866242 217.919873 
L 302.705624 212.721038 
L 302.465099 204.200166 
L 302.277442 198.69457 
L 302.19915 193.801691 
L 302.187043 193.41039 
L 302.030057 190.614919 
L 261.997269 209.638935 
L 237.845146 221.116307 
L 235.943954 222.019683 
L 219.378843 229.633154 
L 220.124227 252.035568 
L 220.190008 252.826222 
L 220.26386 253.650693 
L 221.216676 291.277634 
L 221.167845 295.708358 
L 223.045227 295.775185 
L 222.979446 298.737322 
L 223.017381 299.484498 
L 222.995588 300.707517 
L 222.98671 301.381425 
L 223.074687 301.852436 
L 223.24378 302.282385 
L 223.598514 302.879804 
L 223.263151 303.101219 
L 222.797438 303.433745 
L 221.02014 304.790418 
L 220.660161 304.963525 
L 220.250543 305.055311 
L 219.633089 305.081881 
L 219.073345 306.127767 
L 214.032825 308.205047 
L 210.658623 313.268617 
L 210.535535 313.567327 
L 210.376935 313.953797 
L 209.55447 315.564092 
L 209.275607 315.390985 
L 207.140751 317.93364 
L 206.225467 318.878882 
L 206.020456 319.163904 
L 205.65402 319.781452 
L 204.538971 321.663081 
L 204.234683 321.482728 
L 203.199541 323.223456 
L 203.566784 323.430379 
L 203.271375 323.918298 
L 203.841612 324.238747 
L 203.202365 325.326501 
L 202.494513 326.514898 
L 202.2326 326.954508 
L 201.874235 327.555953 
L 201.830246 327.630027 
L 202.638989 328.08413 
L 203.168062 328.897328 
L 203.228194 328.828891 
L 203.852911 329.986692 
L 202.397254 331.278148 
L 201.855671 331.758821 
L 200.615921 333.087314 
L 200.483552 333.196009 
L 198.60617 335.318377 
L 197.913653 335.132388 
L 197.782898 335.620307 
L 197.704607 335.741079 
L 196.440643 337.040586 
L 196.314327 337.090505 
L 195.610511 336.48745 
L 194.78845 337.404513 
L 194.15445 338.099355 
L 193.792856 338.784535 
L 193.638291 339.156513 
L 193.493412 339.396447 
L 193.119307 339.32962 
L 192.957074 340.141208 
L 193.577757 340.265201 
L 194.512008 340.105781 
L 198.217537 340.521237 
L 201.108269 341.447962 
L 202.425907 341.998682 
L 202.561909 341.751502 
L 203.895286 342.238616 
L 205.834413 342.993039 
L 206.907491 343.310267 
L 207.018875 342.751495 
L 208.888185 343.123473 
L 209.041136 343.181443 
L 209.189648 343.807043 
L 209.166241 345.003491 
L 209.997584 344.620241 
L 210.29259 345.162105 
L 211.774882 344.34166 
L 212.956519 346.623447 
L 212.792268 346.721675 
L 212.721241 347.236164 
L 212.168761 347.559028 
L 212.432288 348.051778 
L 212.046481 348.266753 
L 213.043285 350.06062 
L 213.104627 350.026804 
L 213.321744 350.294113 
L 213.540073 350.816654 
L 214.957795 350.222455 
L 215.323424 350.069477 
L 216.273818 349.486551 
L 216.603934 349.297341 
L 216.869076 349.280433 
L 217.139868 349.540495 
L 217.616074 349.64919 
L 217.718983 349.705551 
L 217.797274 349.943874 
L 217.959507 351.606503 
L 218.227071 357.670066 
L 218.340069 357.666845 
L 218.42401 360.818191 
L 218.319487 362.347166 
L 218.23837 362.996919 
L 218.027306 363.170026 
L 217.394113 365.531523 
" clip-path="url(#pd2ad49debf)" style="fill: #ffffff; stroke: #000000"/>
    <path d="M 77.222857 232.968878 
L 82.201632 234.473698 
L 90.251936 236.652426 
L 101.231311 238.968835 
L 108.757788 241.343214 
L 116.425109 238.938239 
L 138.473854 236.823923 
L 143.323084 232.845691 
L 147.207796 233.103338 
L 154.129734 233.563077 
L 194.915976 236.631493 
L 201.456949 237.123438 
L 219.378843 229.633154 
L 235.943954 222.019683 
L 234.643669 218.91262 
L 226.413779 199.245291 
L 225.292677 196.372526 
L 218.291641 179.749458 
L 213.104223 167.434733 
L 212.565061 166.154549 
L 208.976566 154.336599 
L 205.332782 142.337492 
L 204.912672 140.953444 
L 203.31496 141.09676 
L 197.158584 140.492899 
L 193.550718 139.780344 
L 191.898121 139.161186 
L 189.49772 138.262642 
L 180.627776 134.294072 
L 173.616247 131.705524 
L 171.762676 131.978469 
L 171.042717 132.084748 
L 170.219445 132.206325 
L 169.44783 132.279594 
L 169.208516 129.969626 
L 169.053144 129.290082 
L 160.757876 112.718544 
L 160.577483 111.757198 
L 156.849355 99.090624 
L 139.052162 107.438389 
L 119.163698 133.947053 
L 112.136026 159.134471 
L 105.354125 183.443473 
L 100.282934 193.643882 
L 90.320138 213.68641 
L 78.750348 225.246712 
L 77.430289 225.573602 
L 70.873174 226.332856 
L 75.031098 228.774062 
L 77.222857 232.968878 
" clip-path="url(#pd2ad49debf)" style="fill: #ffffff; stroke: #000000"/>
    <path d="M 304.587445 295.758277 
L 309.008897 295.722851 
L 311.554985 295.286461 
L 314.152326 294.647174 
L 318.897841 291.91692 
L 331.817957 282.110228 
L 361.77374 260.220693 
L 365.590249 257.616042 
L 389.365039 240.31021 
L 392.064482 238.551769 
L 392.274335 235.60654 
L 393.84743 234.241011 
L 394.610166 233.585621 
L 395.663066 232.720893 
L 396.614671 232.034908 
L 396.69377 231.977742 
L 398.611508 230.612213 
L 400.518754 229.194349 
L 401.823074 228.199187 
L 402.545455 227.680672 
L 401.896523 226.621904 
L 400.448534 224.252356 
L 399.701536 223.014844 
L 398.98198 221.845771 
L 398.932342 221.765256 
L 397.759584 219.799892 
L 396.986354 218.483476 
L 394.995167 215.144531 
L 394.374888 214.123605 
L 393.727975 213.070472 
L 390.400989 207.606744 
L 389.885234 206.915927 
L 389.231056 206.044758 
L 388.728214 205.301607 
L 387.477972 203.256534 
L 385.619961 200.241258 
L 384.915337 199.084261 
L 384.027092 197.625335 
L 383.469366 196.744504 
L 382.838998 195.734044 
L 380.411154 191.757422 
L 380.083056 191.189794 
L 377.834799 187.441029 
L 377.49863 186.880646 
L 377.08659 186.166481 
L 376.247983 184.748617 
L 376.025619 184.432999 
L 372.489991 177.573951 
L 374.72937 175.797796 
L 353.209699 155.373629 
L 351.455404 153.554801 
L 339.394073 162.803526 
L 326.908192 172.106196 
L 302.030057 190.614919 
L 302.187043 193.41039 
L 302.19915 193.801691 
L 302.277442 198.69457 
L 302.465099 204.200166 
L 302.705624 212.721038 
L 302.866242 217.919873 
L 302.938077 220.599403 
L 303.031704 224.111455 
L 303.088606 226.242679 
L 303.292406 235.055015 
L 303.30976 239.071894 
L 303.415494 241.638703 
L 303.817847 257.204612 
L 303.868293 259.251296 
L 304.015594 265.103106 
L 304.139488 270.933981 
L 304.409069 282.156927 
L 304.528928 287.750284 
L 304.587445 295.758277 
" clip-path="url(#pd2ad49debf)" style="fill: #ffffff; stroke: #000000"/>
   </g>
   <g id="text_1">
    <!-- 1 -->
    <g transform="translate(226.842544 117.349736) scale(0.13 -0.13)">
     <defs>
      <path id="DejaVuSans-31" d="M 794 531 
L 1825 531 
L 1825 4091 
L 703 3866 
L 703 4441 
L 1819 4666 
L 2450 4666 
L 2450 531 
L 3481 531 
L 3481 0 
L 794 0 
L 794 531 
z
" transform="scale(0.015625)"/>
     </defs>
     <use xlink:href="#DejaVuSans-31"/>
    </g>
   </g>
   <g id="text_2">
    <!-- 2 -->
    <g transform="translate(130.819588 298.150853) scale(0.13 -0.13)">
     <defs>
      <path id="DejaVuSans-32" d="M 1228 531 
L 3431 531 
L 3431 0 
L 469 0 
L 469 531 
Q 828 903 1448 1529 
Q 2069 2156 2228 2338 
Q 2531 2678 2651 2914 
Q 2772 3150 2772 3378 
Q 2772 3750 2511 3984 
Q 2250 4219 1831 4219 
Q 1534 4219 1204 4116 
Q 875 4013 500 3803 
L 500 4441 
Q 881 4594 1212 4672 
Q 1544 4750 1819 4750 
Q 2544 4750 2975 4387 
Q 3406 4025 3406 3419 
Q 3406 3131 3298 2873 
Q 3191 2616 2906 2266 
Q 2828 2175 2409 1742 
Q 1991 1309 1228 531 
z
" transform="scale(0.015625)"/>
     </defs>
     <use xlink:href="#DejaVuSans-32"/>
    </g>
   </g>
   <g id="text_3">
    <!-- 3 -->
    <g transform="translate(281.247767 166.046149) scale(0.13 -0.13)">
     <defs>
      <path id="DejaVuSans-33" d="M 2597 2516 
Q 3050 2419 3304 2112 
Q 3559 1806 3559 1356 
Q 3559 666 3084 287 
Q 2609 -91 1734 -91 
Q 1441 -91 1130 -33 
Q 819 25 488 141 
L 488 750 
Q 750 597 1062 519 
Q 1375 441 1716 441 
Q 2309 441 2620 675 
Q 2931 909 2931 1356 
Q 2931 1769 2642 2001 
Q 2353 2234 1838 2234 
L 1294 2234 
L 1294 2753 
L 1863 2753 
Q 2328 2753 2575 2939 
Q 2822 3125 2822 3475 
Q 2822 3834 2567 4026 
Q 2313 4219 1838 4219 
Q 1578 4219 1281 4162 
Q 984 4106 628 3988 
L 628 4550 
Q 988 4650 1302 4700 
Q 1616 4750 1894 4750 
Q 2613 4750 3031 4423 
Q 3450 4097 3450 3541 
Q 3450 3153 3228 2886 
Q 3006 2619 2597 2516 
z
" transform="scale(0.015625)"/>
     </defs>
     <use xlink:href="#DejaVuSans-33"/>
    </g>
   </g>
   <g id="text_4">
    <!-- 4 -->
    <g transform="translate(257.123251 309.035838) scale(0.13 -0.13)">
     <defs>
      <path id="DejaVuSans-34" d="M 2419 4116 
L 825 1625 
L 2419 1625 
L 2419 4116 
z
M 2253 4666 
L 3047 4666 
L 3047 1625 
L 3713 1625 
L 3713 1100 
L 3047 1100 
L 3047 0 
L 2419 0 
L 2419 1100 
L 313 1100 
L 313 1709 
L 2253 4666 
z
" transform="scale(0.015625)"/>
     </defs>
     <use xlink:href="#DejaVuSans-34"/>
    </g>
   </g>
   <g id="text_5">
    <!-- 5 -->
    <g transform="translate(153.677484 188.80312) scale(0.13 -0.13)">
     <defs>
      <path id="DejaVuSans-35" d="M 691 4666 
L 3169 4666 
L 3169 4134 
L 1269 4134 
L 1269 2991 
Q 1406 3038 1543 3061 
Q 1681 3084 1819 3084 
Q 2600 3084 3056 2656 
Q 3513 2228 3513 1497 
Q 3513 744 3044 326 
Q 2575 -91 1722 -91 
Q 1428 -91 1123 -41 
Q 819 9 494 109 
L 494 744 
Q 775 591 1075 516 
Q 1375 441 1709 441 
Q 2250 441 2565 725 
Q 2881 1009 2881 1497 
Q 2881 1984 2565 2268 
Q 2250 2553 1709 2553 
Q 1456 2553 1204 2497 
Q 953 2441 691 2322 
L 691 4666 
z
" transform="scale(0.015625)"/>
     </defs>
     <use xlink:href="#DejaVuSans-35"/>
    </g>
   </g>
   <g id="text_6">
    <!-- 6 -->
    <g transform="translate(338.687103 226.412424) scale(0.13 -0.13)">
     <defs>
      <path id="DejaVuSans-36" d="M 2113 2584 
Q 1688 2584 1439 2293 
Q 1191 2003 1191 1497 
Q 1191 994 1439 701 
Q 1688 409 2113 409 
Q 2538 409 2786 701 
Q 3034 994 3034 1497 
Q 3034 2003 2786 2293 
Q 2538 2584 2113 2584 
z
M 3366 4563 
L 3366 3988 
Q 3128 4100 2886 4159 
Q 2644 4219 2406 4219 
Q 1781 4219 1451 3797 
Q 1122 3375 1075 2522 
Q 1259 2794 1537 2939 
Q 1816 3084 2150 3084 
Q 2853 3084 3261 2657 
Q 3669 2231 3669 1497 
Q 3669 778 3244 343 
Q 2819 -91 2113 -91 
Q 1303 -91 875 529 
Q 447 1150 447 2328 
Q 447 3434 972 4092 
Q 1497 4750 2381 4750 
Q 2619 4750 2861 4703 
Q 3103 4656 3366 4563 
z
" transform="scale(0.015625)"/>
     </defs>
     <use xlink:href="#DejaVuSans-36"/>
    </g>
   </g>
  </g>
 </g>
 <defs>
  <clipPath id="pd2ad49debf">
   <rect x="10.8" y="16.612277" width="410.4" height="398.775445"/>
  </clipPath>
 </defs>
</svg>
