<?xml version="1.0" encoding="utf-8" standalone="no"?>
<!DOCTYPE svg PUBLIC "-//W3C//DTD SVG 1.1//EN"
  "http://www.w3.org/Graphics/SVG/1.1/DTD/svg11.dtd">
<svg xmlns:xlink="http://www.w3.org/1999/xlink" width="432pt" height="432pt" viewBox="0 0 432 432" xmlns="http://www.w3.org/2000/svg" version="1.1">
 <metadata>
  <rdf:RDF xmlns:dc="http://purl.org/dc/elements/1.1/" xmlns:cc="http://creativecommons.org/ns#" xmlns:rdf="http://www.w3.org/1999/02/22-rdf-syntax-ns#">
   <cc:Work>
    <dc:type rdf:resource="http://purl.org/dc/dcmitype/StillImage"/>
    <dc:date>2025-04-20T13:46:45.822375</dc:date>
    <dc:format>image/svg+xml</dc:format>
    <dc:creator>
     <cc:Agent>
      <dc:title>Matplotlib v3.10.1, https://matplotlib.org/</dc:title>
     </cc:Agent>
    </dc:creator>
   </cc:Work>
  </rdf:RDF>
 </metadata>
 <defs>
  <style type="text/css">*{stroke-linejoin: round; stroke-linecap: butt}</style>
 </defs>
 <g id="figure_1">
  <g id="patch_1">
   <path d="M 0 432 
L 432 432 
L 432 0 
L 0 0 
z
" style="fill: #ffffff"/>
  </g>
  <g id="axes_1">
   <g id="PatchCollection_1">
    <path d="M 336.536784 182.086197 
L 318.914841 171.593591 
L 317.291346 170.600012 
L 297.18638 158.601495 
L 287.048938 166.754313 
L 285.888225 167.318627 
L 284.709528 167.59087 
L 281.262287 167.407589 
L 280.457788 167.466539 
L 279.59477 167.671793 
L 278.99616 168.051754 
L 277.084367 169.590891 
L 273.461033 172.474629 
L 272.110806 173.910336 
L 270.98499 175.046467 
L 269.440416 176.034152 
L 266.810828 177.634919 
L 264.624694 178.451111 
L 262.088253 178.646719 
L 259.876887 178.293018 
L 258.595647 177.514339 
L 256.045516 175.581307 
L 254.219354 175.048611 
L 252.166632 174.991269 
L 249.686831 175.459655 
L 247.82604 176.433942 
L 243.990643 179.603321 
L 240.185579 182.485451 
L 238.653353 183.1816 
L 237.196825 183.65481 
L 235.795863 183.674638 
L 234.615287 183.440445 
L 233.119031 182.74376 
L 232.301647 182.017065 
L 230.581785 180.257132 
L 229.647363 179.572774 
L 228.608251 179.087238 
L 227.600279 178.922177 
L 226.252467 179.057763 
L 224.501735 179.540619 
L 222.268894 180.533663 
L 218.543286 182.393275 
L 214.66816 184.920632 
L 208.700048 188.681657 
L 206.914151 189.528397 
L 205.667539 189.946407 
L 204.080284 190.100214 
L 202.554769 189.993032 
L 201.32829 189.796888 
L 200.325149 189.33922 
L 199.499711 188.559469 
L 197.885881 186.602857 
L 196.771071 185.864372 
L 195.189721 185.220206 
L 188.795334 183.065843 
L 185.346752 181.395408 
L 182.279346 180.366458 
L 178.570113 179.610823 
L 175.19374 179.337509 
L 173.2951 178.800526 
L 172.348062 181.965617 
L 172.786684 182.091556 
L 174.61741 182.631755 
L 179.375418 183.986003 
L 180.052411 184.211621 
L 180.815034 184.519234 
L 181.334187 184.795229 
L 181.901927 185.154825 
L 182.73488 185.765764 
L 183.260207 186.245404 
L 183.76916 186.747553 
L 184.142016 187.195575 
L 184.565606 187.738989 
L 185.119387 188.632889 
L 190.173747 196.718718 
L 191.751607 199.3345 
L 193.591728 202.296482 
L 195.100601 204.726839 
L 197.686165 208.891405 
L 200.780146 213.874308 
L 203.364637 218.069957 
L 204.14954 219.349713 
L 204.741708 220.304707 
L 207.207282 224.282776 
L 207.620403 224.927477 
L 207.82495 225.249024 
L 208.059026 225.622554 
L 209.135718 227.36373 
L 209.338386 227.583989 
L 209.61219 227.766735 
L 209.920353 227.873381 
L 215.277239 224.781709 
L 226.6927 218.23609 
L 226.791753 218.403294 
L 227.021801 218.798796 
L 227.107701 218.946172 
L 227.616385 219.820243 
L 228.439406 221.234513 
L 228.568523 221.456916 
L 228.962317 222.133236 
L 229.011709 222.21791 
L 229.240147 222.610197 
L 229.42322 222.922097 
L 230.722176 225.157383 
L 231.295284 226.143996 
L 231.726391 226.886233 
L 232.185414 227.676702 
L 233.188824 229.40448 
L 234.804802 232.186931 
L 235.0676 232.63924 
L 237.0108 235.98547 
L 237.943611 237.591596 
L 238.283181 238.176275 
L 238.332036 238.260413 
L 238.642884 238.783998 
L 238.74811 238.961385 
L 238.795086 239.0407 
L 245.348387 235.250199 
L 259.055208 227.358371 
L 265.602066 223.560368 
L 266.272347 223.171832 
L 279.516924 215.531346 
L 286.337854 211.59347 
L 292.835051 207.775102 
L 293.250051 207.53287 
L 306.674211 199.687666 
L 313.456486 195.628674 
L 316.752061 193.721366 
L 319.080733 192.390699 
L 320.404654 191.49787 
L 323.502392 189.719181 
L 324.007318 189.428717 
L 336.536784 182.086197 
" clip-path="url(#pa1ede548aa)" style="fill: #ffffff; stroke: #000000"/>
    <path d="M 131.639377 230.692274 
L 130.770185 231.046512 
L 128.666998 231.984356 
L 126.800302 232.80698 
L 125.014405 233.599057 
L 124.25715 233.935073 
L 123.12516 234.437222 
L 121.493882 235.111398 
L 121.820298 235.42705 
L 121.969548 235.772713 
L 122.009545 236.026735 
L 122.108866 236.951718 
L 117.415014 239.029981 
L 116.25806 239.566964 
L 115.546707 238.89386 
L 106.066393 242.655957 
L 104.839377 239.220766 
L 98.932468 242.08414 
L 63.61664 259.203288 
L 64.918549 261.38659 
L 68.421624 265.177626 
L 72.567332 268.085481 
L 92.853492 279.326755 
L 95.984248 280.778002 
L 99.492423 281.80856 
L 103.693697 282.318747 
L 113.337488 282.632255 
L 120.922921 282.879846 
L 127.175306 283.083493 
L 134.828115 283.125294 
L 141.025739 277.77154 
L 142.47824 278.422673 
L 143.891013 279.076484 
L 145.372774 279.601677 
L 146.291626 279.742622 
L 147.998335 279.819257 
L 149.279843 279.782279 
L 150.547124 279.775312 
L 151.641533 279.983782 
L 155.165814 280.801582 
L 156.483293 281.071682 
L 158.218724 281.674582 
L 158.394817 281.698698 
L 158.60017 281.694411 
L 158.884711 281.654753 
L 159.713369 281.44146 
L 159.809738 281.397516 
L 160.178835 281.09151 
L 160.274667 281.029345 
L 161.058765 280.982185 
L 161.76448 280.92377 
L 161.829441 280.996118 
L 161.919367 281.019162 
L 162.301081 281.024522 
L 162.472074 280.934488 
L 162.524151 280.871787 
L 162.542136 280.704047 
L 162.538646 280.306401 
L 162.563879 280.192787 
L 162.646557 280.117224 
L 163.532124 279.445727 
L 163.849682 279.109711 
L 164.117849 279.080236 
L 163.987926 277.885154 
L 163.811833 277.904446 
L 163.987121 277.147204 
L 164.668945 274.810095 
L 165.957164 270.183037 
L 166.342905 268.625679 
L 166.844073 267.603161 
L 167.18257 267.095117 
L 167.427382 266.238195 
L 167.402149 266.157272 
L 167.312224 266.101537 
L 167.204044 266.043659 
L 167.10875 265.953626 
L 166.948494 265.536151 
L 166.916282 264.970765 
L 166.9595 264.776229 
L 167.054795 264.65029 
L 167.202434 264.490052 
L 167.551667 262.711363 
L 167.531803 262.628297 
L 167.477848 262.567203 
L 167.43624 262.466451 
L 167.427382 262.306214 
L 168.310533 258.978205 
L 168.676678 258.089664 
L 169.029401 257.520527 
L 170.038448 256.637345 
L 170.750069 256.324909 
L 170.944684 256.307224 
L 171.203724 256.339378 
L 171.811729 256.485682 
L 172.005539 256.620732 
L 172.408191 256.753102 
L 172.457046 256.628234 
L 172.978078 256.596616 
L 173.212422 256.776146 
L 173.592794 256.823842 
L 173.874114 256.598759 
L 174.222274 256.578931 
L 174.319447 256.600367 
L 174.440243 256.499616 
L 174.56426 256.630914 
L 174.432995 256.764356 
L 174.41152 256.857604 
L 174.971207 257.261146 
L 175.549684 257.762759 
L 175.876638 258.175946 
L 176.08897 258.661482 
L 176.339957 259.201144 
L 176.412166 259.541448 
L 176.479006 260.197939 
L 176.432835 260.730635 
L 176.301302 261.401596 
L 175.996091 262.182419 
L 175.489555 262.932694 
L 174.863028 263.630451 
L 174.019874 264.20334 
L 173.375093 264.415561 
L 172.754204 264.520063 
L 171.670532 264.484157 
L 171.504371 264.479334 
L 171.471622 264.602058 
L 169.504531 273.79883 
L 169.501041 273.894223 
L 169.533254 273.960676 
L 171.138226 274.907095 
L 171.075412 275.00999 
L 171.714287 275.400133 
L 171.777906 275.296166 
L 172.147272 275.544829 
L 171.727172 276.224901 
L 171.948631 276.361558 
L 172.373831 275.673448 
L 173.713858 276.422116 
L 173.665003 276.519652 
L 173.821501 276.612364 
L 173.541523 277.102723 
L 173.779088 277.238309 
L 174.059065 276.74795 
L 174.242406 276.851381 
L 174.31381 276.72437 
L 176.225335 277.816021 
L 176.17299 277.901767 
L 176.765426 278.265115 
L 176.83844 278.146678 
L 180.884022 280.45592 
L 181.013676 280.592577 
L 181.049646 280.732986 
L 182.356656 286.342369 
L 182.340281 286.410429 
L 182.30619 286.430258 
L 181.317813 285.812888 
L 181.21715 285.814496 
L 181.125345 285.886308 
L 178.05445 291.751321 
L 178.068946 291.829028 
L 178.112164 291.868685 
L 179.080677 292.401381 
L 179.148859 292.524105 
L 179.14188 292.632359 
L 178.99424 292.961408 
L 178.907804 293.046082 
L 178.846601 293.055193 
L 178.034854 292.582519 
L 177.96533 292.578768 
L 177.917817 292.601276 
L 177.621733 293.191314 
L 177.626028 293.22722 
L 177.657703 293.254016 
L 178.269735 293.573955 
L 178.285036 293.595391 
L 178.290404 293.625402 
L 178.223832 293.722402 
L 178.18142 293.714364 
L 178.139275 293.692927 
L 172.177606 290.251305 
L 172.047951 290.213791 
L 171.966884 290.222902 
L 171.880448 290.319902 
L 171.264927 291.362785 
L 171.248821 291.447459 
L 171.275664 291.533741 
L 187.371287 300.643696 
L 187.427122 300.719795 
L 187.457723 300.820547 
L 187.382025 301.027408 
L 186.707179 302.138888 
L 186.694563 302.287872 
L 186.745029 302.403092 
L 189.532188 304.574069 
L 189.583459 304.598721 
L 189.63473 304.599793 
L 189.703181 304.576213 
L 192.454638 302.641037 
L 192.654354 302.631927 
L 192.89004 302.73107 
L 196.868244 307.024255 
L 200.144224 309.52053 
L 202.701871 311.515727 
L 203.027751 311.401042 
L 203.103181 311.286357 
L 205.564192 312.507163 
L 208.95694 313.96377 
L 212.506454 315.351244 
L 214.984377 316.357685 
L 216.388291 316.955226 
L 220.005451 318.476142 
L 225.583527 320.953124 
L 228.028164 315.647603 
L 228.507857 315.868398 
L 228.648248 315.572575 
L 228.903798 315.047382 
L 228.972249 314.901078 
L 229.604682 313.551118 
L 229.736215 313.265477 
L 230.429045 311.795473 
L 230.839482 310.92944 
L 230.916254 310.77081 
L 231.515401 309.519994 
L 234.17747 303.96313 
L 235.079411 302.053142 
L 235.573599 300.997933 
L 236.491915 299.057399 
L 236.9198 298.153852 
L 237.292656 297.366063 
L 237.397346 297.148483 
L 237.780402 296.352119 
L 237.863617 296.17634 
L 238.064675 295.750826 
L 238.164264 295.539677 
L 238.509203 294.810302 
L 235.910754 292.43032 
L 235.60957 292.154326 
L 233.385318 290.130725 
L 232.666718 289.505317 
L 232.140049 289.015494 
L 231.854703 288.768439 
L 229.745342 286.862203 
L 229.094387 286.133363 
L 228.585703 285.417386 
L 227.84697 284.106011 
L 227.549544 283.599575 
L 227.189842 282.986493 
L 226.270721 281.389477 
L 225.71855 280.422693 
L 225.497091 280.032014 
L 224.914856 279.027716 
L 224.346043 278.025026 
L 223.802462 277.05985 
L 223.607847 276.652022 
L 223.579661 276.594143 
L 240.755198 266.543128 
L 251.119736 260.46 
L 251.022026 260.292795 
L 250.784998 259.891398 
L 247.369433 253.99691 
L 243.093534 246.639385 
L 242.469691 245.528977 
L 240.317649 241.696676 
L 239.914996 240.98445 
L 239.532208 240.307594 
L 239.312629 239.919058 
L 239.236393 239.784008 
L 238.957489 239.314014 
L 238.842599 239.12055 
L 238.795086 239.0407 
L 238.74811 238.961385 
L 238.642884 238.783998 
L 238.332036 238.260413 
L 238.283181 238.176275 
L 237.943611 237.591596 
L 237.0108 235.98547 
L 235.0676 232.63924 
L 234.804802 232.186931 
L 233.188824 229.40448 
L 232.185414 227.676702 
L 231.726391 226.886233 
L 231.295284 226.143996 
L 230.722176 225.157383 
L 229.42322 222.922097 
L 229.240147 222.610197 
L 229.011709 222.21791 
L 228.962317 222.133236 
L 228.568523 221.456916 
L 228.439406 221.234513 
L 227.616385 219.820243 
L 227.107701 218.946172 
L 227.021801 218.798796 
L 226.791753 218.403294 
L 226.6927 218.23609 
L 215.277239 224.781709 
L 209.920353 227.873381 
L 209.61219 227.766735 
L 209.338386 227.583989 
L 209.135718 227.36373 
L 208.059026 225.622554 
L 207.82495 225.249024 
L 207.620403 224.927477 
L 207.207282 224.282776 
L 204.741708 220.304707 
L 204.14954 219.349713 
L 203.364637 218.069957 
L 200.780146 213.874308 
L 197.686165 208.891405 
L 195.100601 204.726839 
L 193.591728 202.296482 
L 191.751607 199.3345 
L 190.173747 196.718718 
L 189.99497 196.822684 
L 189.695665 196.987209 
L 189.530041 197.078314 
L 187.368335 198.186043 
L 182.296258 200.832908 
L 181.461962 201.268068 
L 181.190575 201.40419 
L 179.981812 202.041924 
L 176.099439 204.090713 
L 174.245628 205.092867 
L 174.076782 205.175397 
L 173.229602 205.584833 
L 172.59368 205.836176 
L 171.758579 206.169512 
L 168.2904 207.77671 
L 161.283176 211.008791 
L 159.868256 211.692078 
L 154.718333 214.69854 
L 137.817674 222.513197 
L 139.816172 226.969835 
L 139.340774 227.166514 
L 138.548086 227.580774 
L 137.862771 227.879812 
L 137.679162 227.959663 
L 137.395426 228.067917 
L 136.51496 228.480033 
L 135.297071 229.050778 
L 135.038568 229.171358 
L 133.230659 230.018098 
L 131.639377 230.692274 
" clip-path="url(#pa1ede548aa)" style="fill: #ffffff; stroke: #000000"/>
    <path d="M 173.2951 178.800526 
L 170.717051 178.075438 
L 123.207301 164.367364 
L 118.130124 162.830371 
L 117.365353 165.506176 
L 117.208587 166.054949 
L 114.625976 165.325038 
L 114.428944 165.35612 
L 114.315128 165.520109 
L 113.792485 165.445082 
L 112.465612 165.043148 
L 107.64479 163.581718 
L 108.654374 159.949848 
L 104.193255 158.128286 
L 47.723954 141.489314 
L 47.205875 143.479688 
L 44.334159 146.72999 
L 43.695015 148.866668 
L 43.781183 151.053186 
L 44.343822 153.268643 
L 71.6313 161.452543 
L 71.149191 163.0651 
L 74.370141 164.031348 
L 63.20513 201.354886 
L 32.702876 192.206881 
L 31.05388 193.655449 
L 30.005374 195.123846 
L 29.454545 196.966845 
L 29.525412 198.770722 
L 30.401047 200.482958 
L 37.501954 203.897249 
L 42.533497 214.654595 
L 62.444117 257.237566 
L 63.61664 259.203288 
L 98.932468 242.08414 
L 104.839377 239.220766 
L 106.066393 242.655957 
L 115.546707 238.89386 
L 116.25806 239.566964 
L 117.415014 239.029981 
L 122.108866 236.951718 
L 122.009545 236.026735 
L 121.969548 235.772713 
L 121.820298 235.42705 
L 121.493882 235.111398 
L 123.12516 234.437222 
L 124.25715 233.935073 
L 125.014405 233.599057 
L 126.800302 232.80698 
L 128.666998 231.984356 
L 130.770185 231.046512 
L 131.639377 230.692274 
L 133.230659 230.018098 
L 135.038568 229.171358 
L 135.297071 229.050778 
L 136.51496 228.480033 
L 137.395426 228.067917 
L 137.679162 227.959663 
L 137.862771 227.879812 
L 138.548086 227.580774 
L 139.340774 227.166514 
L 139.816172 226.969835 
L 137.817674 222.513197 
L 154.718333 214.69854 
L 159.868256 211.692078 
L 161.283176 211.008791 
L 168.2904 207.77671 
L 171.758579 206.169512 
L 172.59368 205.836176 
L 173.229602 205.584833 
L 174.076782 205.175397 
L 174.245628 205.092867 
L 176.099439 204.090713 
L 179.981812 202.041924 
L 181.190575 201.40419 
L 181.461962 201.268068 
L 182.296258 200.832908 
L 187.368335 198.186043 
L 189.530041 197.078314 
L 189.695665 196.987209 
L 189.99497 196.822684 
L 190.173747 196.718718 
L 185.119387 188.632889 
L 184.565606 187.738989 
L 184.142016 187.195575 
L 183.76916 186.747553 
L 183.260207 186.245404 
L 182.73488 185.765764 
L 181.901927 185.154825 
L 181.334187 184.795229 
L 180.815034 184.519234 
L 180.052411 184.211621 
L 179.375418 183.986003 
L 174.61741 182.631755 
L 172.786684 182.091556 
L 172.348062 181.965617 
L 173.2951 178.800526 
" clip-path="url(#pa1ede548aa)" style="fill: #ffffff; stroke: #000000"/>
    <path d="M 176.758446 104.85603 
L 175.666722 104.237588 
L 174.995366 103.931047 
L 173.749829 103.481417 
L 172.09278 102.99213 
L 171.492291 102.934252 
L 169.002289 102.189871 
L 137.857939 92.106701 
L 132.269126 90.807652 
L 129.78315 90.22994 
L 122.297307 89.751907 
L 116.083308 90.24441 
L 108.473448 91.987729 
L 75.973771 102.28044 
L 69.768899 104.245627 
L 63.912724 107.016288 
L 61.908321 108.750496 
L 58.960369 111.300898 
L 55.872563 115.721094 
L 53.934195 120.405494 
L 52.01059 126.917351 
L 47.851729 140.997883 
L 47.723954 141.489314 
L 104.193255 158.128286 
L 108.654374 159.949848 
L 107.64479 163.581718 
L 112.465612 165.043148 
L 113.792485 165.445082 
L 114.315128 165.520109 
L 114.428944 165.35612 
L 114.625976 165.325038 
L 117.208587 166.054949 
L 117.365353 165.506176 
L 118.130124 162.830371 
L 123.207301 164.367364 
L 170.717051 178.075438 
L 173.2951 178.800526 
L 175.19374 179.337509 
L 178.570113 179.610823 
L 182.279346 180.366458 
L 185.346752 181.395408 
L 188.795334 183.065843 
L 195.189721 185.220206 
L 196.771071 185.864372 
L 197.885881 186.602857 
L 199.499711 188.559469 
L 200.325149 189.33922 
L 201.32829 189.796888 
L 202.554769 189.993032 
L 204.080284 190.100214 
L 205.667539 189.946407 
L 206.914151 189.528397 
L 208.700048 188.681657 
L 214.66816 184.920632 
L 218.543286 182.393275 
L 222.268894 180.533663 
L 224.501735 179.540619 
L 226.252467 179.057763 
L 227.600279 178.922177 
L 228.608251 179.087238 
L 229.647363 179.572774 
L 230.581785 180.257132 
L 232.301647 182.017065 
L 233.119031 182.74376 
L 234.615287 183.440445 
L 235.795863 183.674638 
L 237.196825 183.65481 
L 238.653353 183.1816 
L 240.185579 182.485451 
L 243.990643 179.603321 
L 247.82604 176.433942 
L 249.686831 175.459655 
L 252.166632 174.991269 
L 254.219354 175.048611 
L 256.045516 175.581307 
L 258.595647 177.514339 
L 259.876887 178.293018 
L 262.088253 178.646719 
L 264.624694 178.451111 
L 266.810828 177.634919 
L 269.440416 176.034152 
L 270.98499 175.046467 
L 272.110806 173.910336 
L 273.461033 172.474629 
L 277.084367 169.590891 
L 278.99616 168.051754 
L 279.59477 167.671793 
L 280.457788 167.466539 
L 281.262287 167.407589 
L 284.709528 167.59087 
L 285.888225 167.318627 
L 287.048938 166.754313 
L 297.18638 158.601495 
L 272.478562 140.661867 
L 266.619971 133.153214 
L 260.108278 129.425416 
L 237.227427 122.555034 
L 179.804377 100.281491 
L 176.758446 104.85603 
" clip-path="url(#pa1ede548aa)" style="fill: #ffffff; stroke: #000000"/>
    <path d="M 336.536784 182.086197 
L 324.007318 189.428717 
L 323.502392 189.719181 
L 320.404654 191.49787 
L 319.080733 192.390699 
L 316.752061 193.721366 
L 313.456486 195.628674 
L 306.674211 199.687666 
L 293.250051 207.53287 
L 292.835051 207.775102 
L 286.337854 211.59347 
L 279.516924 215.531346 
L 266.272347 223.171832 
L 265.602066 223.560368 
L 259.055208 227.358371 
L 245.348387 235.250199 
L 238.795086 239.0407 
L 238.842599 239.12055 
L 238.957489 239.314014 
L 239.236393 239.784008 
L 239.312629 239.919058 
L 239.532208 240.307594 
L 239.914996 240.98445 
L 240.317649 241.696676 
L 242.469691 245.528977 
L 243.093534 246.639385 
L 247.369433 253.99691 
L 250.784998 259.891398 
L 251.022026 260.292795 
L 251.119736 260.46 
L 240.755198 266.543128 
L 223.579661 276.594143 
L 223.607847 276.652022 
L 223.802462 277.05985 
L 224.346043 278.025026 
L 224.914856 279.027716 
L 225.497091 280.032014 
L 225.71855 280.422693 
L 226.270721 281.389477 
L 227.189842 282.986493 
L 227.549544 283.599575 
L 227.84697 284.106011 
L 228.585703 285.417386 
L 229.094387 286.133363 
L 229.745342 286.862203 
L 231.854703 288.768439 
L 232.140049 289.015494 
L 232.666718 289.505317 
L 233.385318 290.130725 
L 235.60957 292.154326 
L 235.910754 292.43032 
L 238.509203 294.810302 
L 238.164264 295.539677 
L 238.064675 295.750826 
L 237.863617 296.17634 
L 237.780402 296.352119 
L 237.397346 297.148483 
L 237.292656 297.366063 
L 236.9198 298.153852 
L 236.491915 299.057399 
L 235.573599 300.997933 
L 235.079411 302.053142 
L 234.17747 303.96313 
L 231.515401 309.519994 
L 230.916254 310.77081 
L 230.839482 310.92944 
L 230.429045 311.795473 
L 229.736215 313.265477 
L 229.604682 313.551118 
L 228.972249 314.901078 
L 228.903798 315.047382 
L 228.648248 315.572575 
L 228.507857 315.868398 
L 228.028164 315.647603 
L 225.583527 320.953124 
L 226.103754 321.918836 
L 226.905301 323.407597 
L 226.799806 323.489592 
L 228.042122 325.548027 
L 227.542028 326.343855 
L 232.533038 329.344422 
L 232.6286 329.491798 
L 233.710124 330.135963 
L 233.953058 330.167582 
L 241.328038 333.719601 
L 242.643905 334.454336 
L 242.800403 334.46559 
L 242.897576 334.411463 
L 243.093802 334.272662 
L 243.244931 334.249082 
L 244.622002 334.764092 
L 244.757025 334.863236 
L 244.827086 335.032584 
L 244.838092 335.209435 
L 244.850708 335.25981 
L 244.931507 335.327871 
L 246.821557 335.848777 
L 251.234358 342.248093 
L 255.595888 341.742728 
L 256.473938 341.525148 
L 264.169697 333.830535 
L 270.796549 320.490097 
L 274.169701 313.700637 
L 278.680749 297.520405 
L 283.355274 280.755494 
L 296.584281 263.111153 
L 308.422259 257.554825 
L 317.058077 253.501728 
L 352.96634 233.81235 
L 379.496026 214.721584 
L 383.834739 211.60526 
L 402.545455 190.070739 
L 382.825692 188.332243 
L 376.87825 187.807586 
L 340.792014 184.625881 
L 336.536784 182.086197 
" clip-path="url(#pa1ede548aa)" style="fill: #ffffff; stroke: #000000"/>
   </g>
   <g id="text_1">
    <!-- 1 -->
    <g transform="translate(253.165969 200.436743) scale(0.13 -0.13)">
     <defs>
      <path id="DejaVuSans-31" d="M 794 531 
L 1825 531 
L 1825 4091 
L 703 3866 
L 703 4441 
L 1819 4666 
L 2450 4666 
L 2450 531 
L 3481 531 
L 3481 0 
L 794 0 
L 794 531 
z
" transform="scale(0.015625)"/>
     </defs>
     <use xlink:href="#DejaVuSans-31"/>
    </g>
   </g>
   <g id="text_2">
    <!-- 2 -->
    <g transform="translate(167.987581 260.590967) scale(0.13 -0.13)">
     <defs>
      <path id="DejaVuSans-32" d="M 1228 531 
L 3431 531 
L 3431 0 
L 469 0 
L 469 531 
Q 828 903 1448 1529 
Q 2069 2156 2228 2338 
Q 2531 2678 2651 2914 
Q 2772 3150 2772 3378 
Q 2772 3750 2511 3984 
Q 2250 4219 1831 4219 
Q 1534 4219 1204 4116 
Q 875 4013 500 3803 
L 500 4441 
Q 881 4594 1212 4672 
Q 1544 4750 1819 4750 
Q 2544 4750 2975 4387 
Q 3406 4025 3406 3419 
Q 3406 3131 3298 2873 
Q 3191 2616 2906 2266 
Q 2828 2175 2409 1742 
Q 1991 1309 1228 531 
z
" transform="scale(0.015625)"/>
     </defs>
     <use xlink:href="#DejaVuSans-32"/>
    </g>
   </g>
   <g id="text_3">
    <!-- 3 -->
    <g transform="translate(98.828897 204.115877) scale(0.13 -0.13)">
     <defs>
      <path id="DejaVuSans-33" d="M 2597 2516 
Q 3050 2419 3304 2112 
Q 3559 1806 3559 1356 
Q 3559 666 3084 287 
Q 2609 -91 1734 -91 
Q 1441 -91 1130 -33 
Q 819 25 488 141 
L 488 750 
Q 750 597 1062 519 
Q 1375 441 1716 441 
Q 2309 441 2620 675 
Q 2931 909 2931 1356 
Q 2931 1769 2642 2001 
Q 2353 2234 1838 2234 
L 1294 2234 
L 1294 2753 
L 1863 2753 
Q 2328 2753 2575 2939 
Q 2822 3125 2822 3475 
Q 2822 3834 2567 4026 
Q 2313 4219 1838 4219 
Q 1578 4219 1281 4162 
Q 984 4106 628 3988 
L 628 4550 
Q 988 4650 1302 4700 
Q 1616 4750 1894 4750 
Q 2613 4750 3031 4423 
Q 3450 4097 3450 3541 
Q 3450 3153 3228 2886 
Q 3006 2619 2597 2516 
z
" transform="scale(0.015625)"/>
     </defs>
     <use xlink:href="#DejaVuSans-33"/>
    </g>
   </g>
   <g id="text_4">
    <!-- 4 -->
    <g transform="translate(163.439716 142.643561) scale(0.13 -0.13)">
     <defs>
      <path id="DejaVuSans-34" d="M 2419 4116 
L 825 1625 
L 2419 1625 
L 2419 4116 
z
M 2253 4666 
L 3047 4666 
L 3047 1625 
L 3713 1625 
L 3713 1100 
L 3047 1100 
L 3047 0 
L 2419 0 
L 2419 1100 
L 313 1100 
L 313 1709 
L 2253 4666 
z
" transform="scale(0.015625)"/>
     </defs>
     <use xlink:href="#DejaVuSans-34"/>
    </g>
   </g>
   <g id="text_5">
    <!-- 5 -->
    <g transform="translate(292.222584 251.740762) scale(0.13 -0.13)">
     <defs>
      <path id="DejaVuSans-35" d="M 691 4666 
L 3169 4666 
L 3169 4134 
L 1269 4134 
L 1269 2991 
Q 1406 3038 1543 3061 
Q 1681 3084 1819 3084 
Q 2600 3084 3056 2656 
Q 3513 2228 3513 1497 
Q 3513 744 3044 326 
Q 2575 -91 1722 -91 
Q 1428 -91 1123 -41 
Q 819 9 494 109 
L 494 744 
Q 775 591 1075 516 
Q 1375 441 1709 441 
Q 2250 441 2565 725 
Q 2881 1009 2881 1497 
Q 2881 1984 2565 2268 
Q 2250 2553 1709 2553 
Q 1456 2553 1204 2497 
Q 953 2441 691 2322 
L 691 4666 
z
" transform="scale(0.015625)"/>
     </defs>
     <use xlink:href="#DejaVuSans-35"/>
    </g>
   </g>
  </g>
 </g>
 <defs>
  <clipPath id="pa1ede548aa">
   <rect x="10.8" y="77.127098" width="410.4" height="277.745804"/>
  </clipPath>
 </defs>
</svg>
