<?xml version="1.0" encoding="utf-8" standalone="no"?>
<!DOCTYPE svg PUBLIC "-//W3C//DTD SVG 1.1//EN"
  "http://www.w3.org/Graphics/SVG/1.1/DTD/svg11.dtd">
<svg xmlns:xlink="http://www.w3.org/1999/xlink" width="432pt" height="432pt" viewBox="0 0 432 432" xmlns="http://www.w3.org/2000/svg" version="1.1">
 <metadata>
  <rdf:RDF xmlns:dc="http://purl.org/dc/elements/1.1/" xmlns:cc="http://creativecommons.org/ns#" xmlns:rdf="http://www.w3.org/1999/02/22-rdf-syntax-ns#">
   <cc:Work>
    <dc:type rdf:resource="http://purl.org/dc/dcmitype/StillImage"/>
    <dc:date>2025-04-20T13:46:45.920374</dc:date>
    <dc:format>image/svg+xml</dc:format>
    <dc:creator>
     <cc:Agent>
      <dc:title>Matplotlib v3.10.1, https://matplotlib.org/</dc:title>
     </cc:Agent>
    </dc:creator>
   </cc:Work>
  </rdf:RDF>
 </metadata>
 <defs>
  <style type="text/css">*{stroke-linejoin: round; stroke-linecap: butt}</style>
 </defs>
 <g id="figure_1">
  <g id="patch_1">
   <path d="M 0 432 
L 432 432 
L 432 0 
L 0 0 
z
" style="fill: #ffffff"/>
  </g>
  <g id="axes_1">
   <g id="PatchCollection_1">
    <path d="M 156.206629 56.121222 
L 133.852436 47.30989 
L 119.202864 41.518027 
L 118.259824 43.78338 
L 118.533112 43.872542 
L 118.980651 44.750839 
L 118.623993 45.217918 
L 118.311864 46.30784 
L 118.222699 47.931229 
L 117.932888 48.465126 
L 117.932888 49.577177 
L 118.289546 52.023862 
L 118.051989 52.668835 
L 118.995243 53.758757 
L 113.686259 58.397103 
L 106.898283 53.443146 
L 104.424642 55.39074 
L 103.141254 53.983273 
L 98.514898 57.485505 
L 93.273404 54.478067 
L 92.869321 53.770359 
L 92.679619 53.630493 
L 92.541527 53.532952 
L 92.360194 53.466779 
L 92.256544 53.552933 
L 92.164482 53.713854 
L 92.155791 53.929131 
L 92.083902 54.115834 
L 91.882397 54.377089 
L 91.804713 54.46045 
L 91.689583 54.506212 
L 91.565869 54.623949 
L 91.499666 54.710103 
L 91.473807 54.825046 
L 91.498056 54.981026 
L 91.58604 55.083508 
L 91.646449 55.146673 
L 91.643552 55.195443 
L 91.603315 55.247222 
L 91.519838 55.250015 
L 91.419085 55.212631 
L 91.229168 55.23562 
L 91.037749 55.297281 
L 90.951374 55.379138 
L 90.890966 55.471093 
L 90.834849 55.540059 
L 90.688066 55.547149 
L 90.618966 55.498379 
L 90.427654 55.34906 
L 90.339134 55.258824 
L 90.23484 55.172455 
L 90.134088 55.165365 
L 89.97003 55.19265 
L 89.880329 55.25689 
L 89.805971 55.430917 
L 89.787301 55.620412 
L 89.804576 55.798521 
L 89.781507 55.967821 
L 89.726893 56.06837 
L 89.618415 56.141418 
L 89.444807 56.229076 
L 89.226134 56.283647 
L 88.990079 56.232083 
L 88.82924 55.928289 
L 88.779991 55.84149 
L 88.670654 55.79272 
L 88.506596 55.887468 
L 88.356916 56.042588 
L 88.230304 56.097159 
L 88.048971 56.079756 
L 87.76989 56.108546 
L 87.709374 56.171711 
L 87.677077 56.298901 
L 87.761199 56.453162 
L 87.896394 56.597324 
L 87.884913 56.768988 
L 87.847573 56.840747 
L 87.746821 56.892525 
L 87.588557 56.872329 
L 87.459799 56.945163 
L 87.303574 57.090615 
L 87.243165 57.147979 
L 87.214409 57.254329 
L 87.220204 57.392046 
L 87.136726 57.449625 
L 86.963977 57.472614 
L 86.871915 57.667695 
L 86.779854 57.707872 
L 86.710754 57.662109 
L 86.66762 57.567362 
L 86.558177 57.455211 
L 86.469012 57.455211 
L 86.350985 57.515583 
L 86.293473 57.659102 
L 86.241648 57.917563 
L 86.123943 58.498297 
L 86.129415 58.695742 
L 86.235854 58.856662 
L 86.264717 58.960004 
L 86.240253 59.074948 
L 86.195618 59.159598 
L 86.143793 59.241455 
L 86.084779 59.281631 
L 85.992718 59.288721 
L 85.922223 59.337491 
L 85.873295 59.407962 
L 85.850226 59.468334 
L 85.838745 59.558785 
L 85.838745 59.708104 
L 85.815676 59.788457 
L 85.781234 59.858712 
L 85.700653 59.926174 
L 85.609987 59.963558 
L 85.552368 59.982249 
L 85.496251 60.026723 
L 85.467495 60.087095 
L 85.458804 60.151764 
L 85.480478 60.204831 
L 85.502045 60.262196 
L 85.558162 60.299579 
L 85.635845 60.273798 
L 85.697756 60.230613 
L 85.75956 60.233621 
L 85.827265 60.269501 
L 85.902909 60.370909 
L 85.989821 60.455988 
L 86.027267 60.520658 
L 86.017182 60.593921 
L 85.985529 60.649996 
L 85.982632 60.763435 
L 86.021903 60.879453 
L 86.094865 61.094945 
L 86.139501 61.321824 
L 86.169759 61.38499 
L 86.317937 61.491339 
L 86.427273 61.551711 
L 86.543799 61.646459 
L 86.592726 61.701031 
L 86.618693 61.735406 
L 86.640259 61.778591 
L 86.638865 61.863241 
L 86.644551 61.930703 
L 86.654637 61.991075 
L 86.681998 62.087112 
L 86.690582 62.133089 
L 86.733823 62.191957 
L 86.792729 62.288209 
L 86.848953 62.372859 
L 86.871915 62.44913 
L 86.871915 62.480713 
L 86.853245 62.522178 
L 86.841657 62.584054 
L 86.814404 62.677298 
L 86.810004 62.743471 
L 86.830176 62.822321 
L 86.873417 62.889783 
L 86.94241 62.970351 
L 87.034578 63.088087 
L 87.060437 63.139651 
L 87.100674 63.16844 
L 87.139623 63.234398 
L 87.164087 63.32356 
L 87.181254 63.376627 
L 87.187049 63.474168 
L 87.19134 63.52874 
L 87.172671 63.564619 
L 87.155396 63.652277 
L 87.12664 63.72554 
L 87.066231 63.807397 
L 87.010115 63.897848 
L 86.946702 63.979705 
L 86.886293 64.03578 
L 86.841657 64.077246 
L 86.78994 64.121719 
L 86.787043 64.238167 
L 86.817193 64.307133 
L 86.864726 64.33141 
L 86.938118 64.341508 
L 87.043162 64.393287 
L 87.103571 64.398873 
L 87.166877 64.430455 
L 87.192843 64.454948 
L 87.201426 64.500925 
L 87.192843 64.582782 
L 87.156791 64.650244 
L 87.07342 64.697726 
L 86.98844 64.723507 
L 86.906465 64.78388 
L 86.833073 64.795267 
L 86.772665 64.789466 
L 86.703565 64.753586 
L 86.677706 64.710617 
L 86.661826 64.634346 
L 86.628779 64.584286 
L 86.575452 64.568387 
L 86.520837 64.578485 
L 86.44884 64.664639 
L 86.389826 64.767981 
L 86.388432 64.841244 
L 86.401415 64.927398 
L 86.399912 65.033533 
L 86.374054 65.1141 
L 86.335212 65.210137 
L 86.306456 65.295002 
L 86.304954 65.371058 
L 86.317937 65.440024 
L 86.359676 65.491588 
L 86.421479 65.50319 
L 86.476201 65.468814 
L 86.539507 65.378148 
L 86.595624 65.2834 
L 86.684895 65.220235 
L 86.756785 65.175762 
L 86.82009 65.177266 
L 86.844554 65.200254 
L 86.894984 65.313694 
L 87.004321 65.422837 
L 87.028784 65.482994 
L 87.017304 65.536276 
L 86.971166 65.579246 
L 86.877709 65.641122 
L 86.775562 65.717178 
L 86.719445 65.753057 
L 86.624379 65.783136 
L 86.487682 65.810422 
L 86.424376 65.849309 
L 86.399912 65.886478 
L 86.394226 65.925365 
L 86.736613 66.353342 
L 86.78994 66.386213 
L 86.890585 66.413499 
L 87.000029 66.409202 
L 87.102176 66.381917 
L 87.19134 66.363225 
L 87.32954 66.402112 
L 87.414412 66.416507 
L 87.526646 66.413499 
L 87.620209 66.415003 
L 87.689309 66.437992 
L 87.757229 66.475805 
L 87.818818 66.537037 
L 87.870535 66.627487 
L 87.900793 66.745224 
L 87.913776 66.924837 
L 87.949721 67.032475 
L 87.958305 67.230565 
L 87.936523 67.28707 
L 87.890707 67.421564 
L 87.85047 67.469046 
L 87.777079 67.487737 
L 87.720962 67.464749 
L 87.635982 67.338203 
L 87.591454 67.283632 
L 87.525251 67.226268 
L 87.391343 67.213377 
L 87.336729 67.230565 
L 87.299282 67.301035 
L 87.352502 67.451643 
L 87.341021 67.506214 
L 87.323746 67.552192 
L 87.267629 67.614068 
L 87.228787 67.691628 
L 87.233079 67.842236 
L 87.240268 67.899815 
L 87.27632 68.019056 
L 87.296385 68.070619 
L 87.302179 68.164078 
L 87.284904 68.276013 
L 87.207221 68.382148 
L 87.155396 68.441231 
L 87.152499 68.469806 
L 87.205718 68.521584 
L 87.274818 68.59055 
L 87.287801 68.642114 
L 87.270526 68.70399 
L 87.188873 68.791218 
L 87.136726 68.841707 
L 87.087905 68.943115 
L 87.050351 69.040012 
L 87.086296 69.206519 
L 87.148207 69.271188 
L 87.267629 69.276774 
L 87.404326 69.292673 
L 87.467632 69.321462 
L 87.600037 69.353045 
L 87.64757 69.355838 
L 87.699288 69.384627 
L 87.71946 69.417499 
L 87.738237 69.490762 
L 87.798646 69.64889 
L 87.857659 69.724946 
L 87.882123 69.76233 
L 87.966996 69.779517 
L 88.105088 69.744927 
L 88.211634 69.696157 
L 88.358418 69.681762 
L 88.498012 69.699164 
L 88.541146 69.746431 
L 88.554773 69.831081 
L 88.424084 69.874695 
L 88.266571 69.918954 
L 88.182879 69.96622 
L 88.049615 70.073214 
L 87.995751 70.126926 
L 87.808732 70.201693 
L 87.706584 70.174407 
L 87.56699 70.129934 
L 87.42879 70.115539 
L 87.269131 70.160013 
L 87.162585 70.190091 
L 87.018698 70.223178 
L 86.848953 70.24187 
L 86.716548 70.285054 
L 86.463218 70.399783 
L 86.28049 70.450057 
L 86.149587 70.473046 
L 85.956773 70.485937 
L 85.831556 70.524824 
L 85.667498 70.618068 
L 85.576832 70.645353 
L 85.405585 70.665549 
L 85.276076 70.701429 
L 85.107726 70.80477 
L 84.896242 70.898229 
L 84.797099 70.925945 
L 84.588298 70.984383 
L 84.39763 71.058506 
L 84.2487 71.145089 
L 84.171017 71.18677 
L 84.03432 71.19257 
L 83.821334 71.165285 
L 83.697512 71.136495 
L 83.555128 71.097823 
L 83.393967 71.023056 
L 83.283128 70.975574 
L 83.130551 70.948289 
L 83.005442 70.947 
L 82.828401 70.962683 
L 82.497494 71.004364 
L 82.209615 71.005868 
L 81.950598 70.99577 
L 81.513145 70.958387 
L 81.103053 70.936902 
L 80.831161 70.909616 
L 80.55047 70.890924 
L 80.100141 70.903815 
L 79.820953 70.905319 
L 79.60507 70.870944 
L 79.393586 70.859342 
L 79.261181 70.860846 
L 79.108711 70.888131 
L 78.968365 70.871588 
L 78.82802 70.855045 
L 78.550333 70.860846 
L 78.390567 70.827759 
L 78.236595 70.79188 
L 78.088416 70.760297 
L 77.812125 70.730218 
L 77.678325 70.684241 
L 77.538086 70.626017 
L 77.340122 70.524824 
L 77.073917 70.365407 
L 76.822089 70.236069 
L 76.589038 70.119836 
L 76.242252 69.953329 
L 75.883878 69.770923 
L 75.630655 69.667367 
L 75.403291 69.528146 
L 75.104038 69.378827 
L 74.994594 69.332849 
L 74.859399 69.223707 
L 74.767767 69.174077 
L 74.712616 69.187827 
L 74.654997 69.252496 
L 74.56433 69.311364 
L 74.487076 69.3741 
L 74.375915 69.401815 
L 74.324091 69.332849 
L 74.318297 69.276774 
L 74.339863 69.19062 
L 74.352846 69.068587 
L 74.394585 68.935166 
L 74.413255 68.838914 
L 74.397482 68.762858 
L 74.355743 68.681001 
L 74.272266 68.639321 
L 74.098122 68.665103 
L 73.948549 68.696685 
L 73.770112 68.712584 
L 73.666463 68.751257 
L 73.542749 68.841707 
L 73.456374 68.952354 
L 73.372896 69.022609 
L 73.236199 69.06429 
L 73.050574 69.13476 
L 72.981474 69.174936 
L 72.896602 69.240894 
L 72.752715 69.357342 
L 72.644774 69.477871 
L 72.513871 69.637288 
L 72.418912 69.73354 
L 72.188651 69.943231 
L 72.110968 70.039483 
L 72.053349 70.105441 
L 72.007318 70.125637 
L 71.913755 70.155716 
L 71.827487 70.172903 
L 71.723838 70.138528 
L 71.64036 70.035186 
L 71.584243 69.912938 
L 71.551196 69.805299 
L 71.499371 69.640081 
L 71.434563 69.539747 
L 71.377051 69.479375 
L 71.320935 69.37453 
L 71.260526 69.30406 
L 71.161168 69.250992 
L 71.109451 69.235308 
L 71.028763 69.193628 
L 70.907946 69.173432 
L 70.811485 69.189331 
L 70.681977 69.189331 
L 70.477682 69.199429 
L 70.379826 69.19062 
L 70.286263 69.180737 
L 70.176926 69.13476 
L 70.12081 69.103177 
L 70.035937 69.082981 
L 69.958254 69.02841 
L 69.900635 68.98673 
L 69.8766 68.954073 
L 69.880463 68.90788 
L 69.959649 68.798738 
L 69.979821 68.693892 
L 69.955357 68.619125 
L 69.912223 68.52008 
L 69.855999 68.42963 
L 69.801384 68.346269 
L 69.748165 68.311893 
L 69.676168 68.299002 
L 69.625845 68.321991 
L 69.568226 68.350566 
L 69.473268 68.350566 
L 69.363932 68.35787 
L 69.283351 68.366464 
L 69.178307 68.389453 
L 69.007059 68.399551 
L 68.923582 68.469806 
L 68.857379 68.573148 
L 68.76961 68.683794 
L 68.650187 68.715377 
L 68.474648 68.734069 
L 68.350934 68.74696 
L 68.300504 68.782839 
L 68.153721 68.794441 
L 68.091917 68.754264 
L 68.063054 68.676704 
L 68.052217 68.561546 
L 67.999748 68.479904 
L 67.962409 68.461212 
L 67.876034 68.47131 
L 67.793951 68.54887 
L 67.73644 68.564554 
L 67.640086 68.5768 
L 67.478818 68.551663 
L 67.332142 68.545862 
L 67.176668 68.5001 
L 66.930634 68.382148 
L 66.861534 68.301795 
L 66.850053 68.215641 
L 66.880526 68.080072 
L 66.898981 68.023353 
L 66.893187 67.96298 
L 66.87162 67.889717 
L 66.805417 67.826552 
L 66.709064 67.813661 
L 66.596723 67.822255 
L 66.461528 67.789169 
L 66.31614 67.691628 
L 66.251439 67.661334 
L 66.192426 67.657037 
L 66.071501 67.694421 
L 66.001006 67.698718 
L 65.930512 67.678522 
L 65.684371 67.496976 
L 65.586623 67.438752 
L 65.484475 67.418771 
L 65.300996 67.425646 
L 65.175029 67.5552 
L 65.13329 67.669928 
L 65.005498 67.810868 
L 64.576951 68.240564 
L 61.529267 75.414757 
L 48.417163 90.432178 
L 46.142774 92.627062 
L 46.424859 93.00369 
L 49.815789 97.532893 
L 52.690939 105.092953 
L 59.552199 110.039176 
L 63.741209 112.762799 
L 65.076529 113.399608 
L 71.633171 116.11206 
L 80.494139 125.706941 
L 82.024741 128.414022 
L 90.479372 143.294156 
L 94.67718 144.985866 
L 98.021972 149.010822 
L 113.131208 143.346579 
L 115.504312 147.717869 
L 117.10058 152.783977 
L 117.322793 153.488677 
L 118.415406 156.955029 
L 118.433325 157.724399 
L 118.245768 158.864166 
L 118.080208 158.97825 
L 117.572368 159.236926 
L 116.939741 159.740959 
L 116.475785 160.39517 
L 116.134471 161.111042 
L 116.028354 161.764179 
L 115.997023 163.40626 
L 116.303465 167.464088 
L 116.322779 169.198768 
L 116.136295 170.142593 
L 115.871592 170.642759 
L 115.323193 171.192339 
L 107.801623 175.113094 
L 105.690326 175.943051 
L 106.008678 176.983128 
L 105.630346 177.534857 
L 105.583994 178.408213 
L 115.719658 175.633885 
L 124.451869 173.305151 
L 128.79689 171.889305 
L 130.642947 171.183745 
L 132.616796 170.294491 
L 135.77049 168.765635 
L 138.917103 166.91107 
L 141.624976 164.997422 
L 145.379001 162.156706 
L 146.635887 161.094499 
L 148.171317 159.644707 
L 150.356221 157.46164 
L 152.355499 155.253221 
L 154.059601 153.120858 
L 155.881731 150.617668 
L 163.394181 139.121384 
L 164.494197 137.52657 
L 165.903338 135.6589 
L 166.774167 134.680054 
L 167.906801 133.386456 
L 169.102527 132.159031 
L 170.177007 131.132919 
L 171.284319 130.162022 
L 173.683174 128.244507 
L 176.438794 126.351484 
L 179.545814 124.539674 
L 182.377294 123.248225 
L 185.312959 122.041855 
L 186.129602 121.772221 
L 189.557979 120.801754 
L 192.203404 120.222095 
L 194.916427 119.797556 
L 197.39994 119.608705 
L 200.207492 119.217897 
L 204.344463 118.335088 
L 207.7796 117.438744 
L 211.660129 116.104325 
L 214.973697 114.709319 
L 218.118593 113.192924 
L 220.581935 111.771063 
L 223.423178 109.958393 
L 225.596279 108.442213 
L 227.580321 106.838375 
L 233.334269 101.895375 
L 225.857978 89.93631 
L 224.432313 87.986353 
L 222.619089 85.856783 
L 220.444057 83.757291 
L 218.245312 81.955579 
L 216.357623 80.624383 
L 214.520686 79.513405 
L 212.435462 78.430573 
L 210.797026 77.702025 
L 204.458735 75.181862 
L 195.900669 71.777386 
L 156.206629 56.121222 
" clip-path="url(#pd129fe754f)" style="fill: #ffffff; stroke: #000000"/>
    <path d="M 264.191591 152.005154 
L 264.299318 151.935973 
L 264.383761 151.881402 
L 264.465629 151.827905 
L 264.539772 151.780209 
L 265.611247 153.382328 
L 266.642914 154.924719 
L 266.818132 155.132691 
L 268.067077 156.614711 
L 269.541777 157.810767 
L 271.026026 158.557148 
L 273.257282 159.226828 
L 275.747019 159.772327 
L 278.035679 160.222003 
L 279.089021 160.31761 
L 280.850957 160.31761 
L 282.153336 160.135849 
L 283.819563 159.609687 
L 290.425347 155.786473 
L 291.265381 156.917861 
L 294.307807 155.223142 
L 294.759638 154.99433 
L 295.156318 154.807627 
L 295.566195 154.643054 
L 295.957617 154.512426 
L 296.368782 154.398127 
L 296.790355 154.305313 
L 297.332208 154.210995 
L 297.706999 154.162654 
L 298.265913 154.1199 
L 298.757122 154.114743 
L 299.317216 154.137517 
L 299.887825 154.195311 
L 300.331931 154.265566 
L 300.772817 154.371916 
L 301.13956 154.469027 
L 301.513815 154.599225 
L 302.444193 154.969407 
L 322.814773 163.295613 
L 336.145549 168.745009 
L 337.705765 164.632395 
L 338.112316 163.640229 
L 338.879495 161.703163 
L 339.465662 159.83807 
L 340.719114 156.692485 
L 341.565157 155.160836 
L 341.983511 154.164588 
L 342.41356 153.103026 
L 344.472281 148.035629 
L 346.04709 144.152687 
L 348.00817 139.3184 
L 357.403159 116.194561 
L 358.636439 113.056711 
L 359.227327 111.756883 
L 359.937853 110.353713 
L 361.153321 108.319965 
L 362.10076 106.925603 
L 363.954435 104.471184 
L 359.934634 101.722852 
L 358.04673 101.496618 
L 355.841548 101.829202 
L 335.832669 104.235496 
L 327.465807 106.467763 
L 325.364918 105.249577 
L 301.560919 93.776497 
L 300.865522 93.828705 
L 295.417695 103.691931 
L 283.327388 97.67942 
L 283.320306 93.242601 
L 280.696019 92.346686 
L 279.661561 92.874567 
L 278.604679 92.777455 
L 273.119405 86.853246 
L 271.593953 85.126086 
L 265.908032 78.362037 
L 265.174438 67.737605 
L 265.12948 67.085972 
L 263.427309 67.198767 
L 263.118399 63.793862 
L 261.432966 62.466103 
L 261.246483 60.698551 
L 261.492731 60.683297 
L 261.641338 60.536556 
L 261.68018 60.089673 
L 261.574707 59.785664 
L 261.230817 59.107175 
L 261.166761 58.904573 
L 261.051845 55.471952 
L 260.7189 49.436022 
L 261.007853 49.370279 
L 261.072875 49.355454 
L 260.698835 48.915876 
L 259.843029 47.608528 
L 258.75106 45.991155 
L 257.637739 44.396126 
L 256.950711 43.470562 
L 256.348342 42.992956 
L 255.640928 42.489783 
L 256.01926 41.522753 
L 256.032243 40.698598 
L 255.936533 40.37117 
L 255.640177 39.466017 
L 255.54436 38.742839 
L 255.516999 37.915246 
L 255.521613 36.650868 
L 255.360666 36.065838 
L 255.14768 35.495632 
L 254.666236 34.44116 
L 253.998736 33.599172 
L 252.293454 32.280222 
L 250.693001 31.470891 
L 249.22034 30.511166 
L 248.653164 29.879299 
L 248.353374 29.454545 
L 248.12998 29.555954 
L 240.352612 35.54075 
L 225.295201 43.338216 
L 223.246244 44.821095 
L 222.944094 44.878459 
L 222.817483 44.902522 
L 222.554174 44.94764 
L 221.543215 45.115866 
L 221.461454 44.668553 
L 221.172287 44.736445 
L 220.879686 44.826251 
L 217.800027 44.678221 
L 216.241742 44.874592 
L 212.393724 45.403332 
L 211.48341 45.727537 
L 210.536186 46.454152 
L 209.62555 47.964531 
L 207.9384 48.523779 
L 205.877533 48.749584 
L 205.43772 49.125997 
L 206.16713 51.006559 
L 206.376467 51.211094 
L 205.128166 52.057164 
L 199.49804 50.009451 
L 194.033903 48.092365 
L 192.275723 47.860974 
L 179.758264 47.453623 
L 178.206953 47.403134 
L 173.61504 47.213423 
L 173.626306 47.293776 
L 173.497549 47.287761 
L 172.800221 47.257682 
L 172.377146 47.245221 
L 171.742909 47.222877 
L 171.340972 47.202036 
L 171.180348 47.192583 
L 170.634202 47.160571 
L 170.567356 47.1552 
L 170.021961 47.086233 
L 169.483541 46.991486 
L 169.010358 46.904043 
L 168.50445 46.809295 
L 168.079336 46.725075 
L 167.133399 46.496906 
L 166.505171 46.320302 
L 165.696039 46.080102 
L 164.394196 45.596695 
L 162.431077 44.773398 
L 160.958845 44.158934 
L 160.204864 46.474132 
L 158.424258 51.347307 
L 156.206629 56.121222 
L 195.900669 71.777386 
L 204.458735 75.181862 
L 210.797026 77.702025 
L 212.435462 78.430573 
L 214.520686 79.513405 
L 216.357623 80.624383 
L 218.245312 81.955579 
L 220.444057 83.757291 
L 222.619089 85.856783 
L 224.432313 87.986353 
L 225.857978 89.93631 
L 233.334269 101.895375 
L 227.580321 106.838375 
L 225.596279 108.442213 
L 223.423178 109.958393 
L 220.581935 111.771063 
L 218.118593 113.192924 
L 214.973697 114.709319 
L 211.660129 116.104325 
L 207.7796 117.438744 
L 204.344463 118.335088 
L 200.207492 119.217897 
L 197.39994 119.608705 
L 194.916427 119.797556 
L 192.203404 120.222095 
L 189.557979 120.801754 
L 186.129602 121.772221 
L 185.312959 122.041855 
L 182.377294 123.248225 
L 179.545814 124.539674 
L 176.438794 126.351484 
L 173.683174 128.244507 
L 171.284319 130.162022 
L 170.177007 131.132919 
L 169.102527 132.159031 
L 167.906801 133.386456 
L 166.774167 134.680054 
L 165.903338 135.6589 
L 164.494197 137.52657 
L 163.394181 139.121384 
L 155.881731 150.617668 
L 154.059601 153.120858 
L 152.355499 155.253221 
L 150.356221 157.46164 
L 148.171317 159.644707 
L 146.635887 161.094499 
L 145.379001 162.156706 
L 141.624976 164.997422 
L 138.917103 166.91107 
L 135.77049 168.765635 
L 132.616796 170.294491 
L 130.642947 171.183745 
L 128.79689 171.889305 
L 124.451869 173.305151 
L 115.719658 175.633885 
L 115.643477 176.239111 
L 115.295081 177.722419 
L 114.895934 178.749605 
L 114.518138 182.952241 
L 111.025705 189.579217 
L 114.068883 194.709779 
L 177.61864 162.13028 
L 178.804387 164.12514 
L 179.211475 164.810504 
L 179.506758 165.307017 
L 178.733678 165.644758 
L 178.895268 165.991737 
L 178.90911 166.0216 
L 179.000742 166.218616 
L 180.391106 169.481507 
L 187.176077 165.942966 
L 195.726203 169.711179 
L 199.931415 167.772824 
L 209.235523 189.154678 
L 211.918717 187.330191 
L 212.367865 187.021455 
L 212.623877 186.845495 
L 214.166497 185.672427 
L 216.657306 184.042163 
L 218.981267 182.493756 
L 223.600434 179.355476 
L 228.96414 175.721543 
L 237.489373 169.951594 
L 238.987785 168.945247 
L 239.656572 168.491059 
L 240.695751 167.802473 
L 247.577826 163.059066 
L 249.412939 161.841095 
L 250.53978 161.07903 
L 251.195262 160.628924 
L 260.165029 154.572369 
L 260.304409 154.47848 
L 262.509699 153.095506 
L 262.617211 153.028903 
L 263.097583 152.70255 
L 263.245869 152.608017 
L 264.191591 152.005154 
" clip-path="url(#pd129fe754f)" style="fill: #ffffff; stroke: #000000"/>
    <path d="M 353.793663 328.273049 
L 353.670271 328.14371 
L 353.401919 327.874076 
L 353.057601 327.517859 
L 352.062093 326.406452 
L 351.767775 326.077735 
L 351.118302 325.374754 
L 350.433206 324.645561 
L 349.941139 324.12477 
L 348.953356 323.064067 
L 348.757108 322.865763 
L 348.202057 322.285459 
L 348.049802 322.146668 
L 347.905164 322.024634 
L 347.829841 321.962328 
L 347.552906 321.75586 
L 347.23273 321.555192 
L 346.954185 321.431655 
L 346.675211 321.315207 
L 346.339262 321.216377 
L 345.837537 321.135594 
L 345.372724 321.116688 
L 343.18267 321.286632 
L 342.943611 321.330676 
L 342.810883 321.30468 
L 342.58309 321.194033 
L 342.536416 321.076726 
L 342.512166 321.015709 
L 342.573433 320.765842 
L 342.606588 320.652832 
L 342.530622 320.622323 
L 342.296069 320.503298 
L 341.963768 320.368803 
L 339.648819 320.615019 
L 339.268986 320.83803 
L 339.071987 320.822347 
L 338.649019 320.709337 
L 335.344571 321.024089 
L 335.216994 321.134735 
L 335.011305 321.201338 
L 334.779434 320.098095 
L 334.45443 318.552051 
L 333.942941 315.931125 
L 333.872232 315.696941 
L 333.805064 315.581138 
L 333.10559 314.938743 
L 332.619746 314.505396 
L 332.285084 314.568991 
L 331.032169 314.821007 
L 330.334197 314.944329 
L 330.087734 314.986869 
L 329.159502 315.164119 
L 328.646082 315.262304 
L 327.615273 315.459104 
L 326.711182 315.630338 
L 326.586073 315.657624 
L 326.504527 315.675456 
L 325.581123 311.096408 
L 325.433481 310.387196 
L 322.99514 311.648996 
L 322.648354 311.831617 
L 322.258005 312.037011 
L 320.36699 312.971169 
L 320.412162 313.040994 
L 320.622895 313.40602 
L 320.961419 314.109217 
L 320.988995 314.165936 
L 321.027515 314.24543 
L 321.075691 314.35178 
L 321.089962 314.383147 
L 321.148761 314.522584 
L 321.20402 314.663524 
L 321.255522 314.805753 
L 321.30327 314.949486 
L 321.347262 315.094078 
L 321.358421 315.134685 
L 321.387391 315.240175 
L 321.423765 315.386916 
L 321.686645 316.510999 
L 321.768298 316.840145 
L 322.127316 318.365993 
L 322.150922 318.466542 
L 322.580649 320.293177 
L 322.67314 320.686563 
L 322.732583 320.916235 
L 322.791489 321.170615 
L 323.001364 322.075983 
L 323.235487 323.085767 
L 323.302978 323.376885 
L 323.39064 323.755232 
L 323.455126 324.03346 
L 323.508023 324.261628 
L 323.756954 325.335651 
L 324.22091 327.337172 
L 324.432823 328.251349 
L 325.144099 331.320018 
L 325.230581 331.693208 
L 325.207619 331.748209 
L 324.616838 331.50006 
L 324.593662 331.555491 
L 324.549348 331.676235 
L 324.481428 331.86079 
L 324.43175 331.995929 
L 323.859638 333.399529 
L 324.126273 334.832777 
L 325.055042 335.867913 
L 325.226826 336.111765 
L 325.439812 336.350676 
L 325.51095 336.430384 
L 317.956225 343.122459 
L 317.607078 343.470298 
L 317.422741 343.652918 
L 315.427861 345.677213 
L 318.176614 347.988544 
L 324.911156 356.663878 
L 329.320985 369.271353 
L 329.598027 370.060489 
L 330.523256 372.70913 
L 331.53121 384.326588 
L 332.539058 391.100305 
L 334.217945 395.222157 
L 335.242102 396.841249 
L 337.530441 399.287075 
L 340.815468 402.021441 
L 345.232593 402.545455 
L 345.770476 398.10305 
L 345.83507 397.716324 
L 345.934964 397.351083 
L 346.88927 394.66162 
L 347.118779 394.020729 
L 348.643909 389.772546 
L 348.916875 389.086753 
L 349.564631 387.067829 
L 349.971826 385.806888 
L 349.993393 385.694093 
L 349.996933 385.546063 
L 349.973972 385.384498 
L 349.945216 385.211331 
L 349.787381 384.789585 
L 349.761415 384.720404 
L 349.543708 384.14096 
L 349.113766 383.005705 
L 348.908613 382.448819 
L 348.747881 382.012249 
L 348.394227 381.135885 
L 348.291865 380.867111 
L 348.07448 380.295831 
L 347.958277 379.983657 
L 347.857739 379.702637 
L 347.767931 379.404643 
L 347.639173 378.783733 
L 347.315885 377.225228 
L 347.162664 376.486367 
L 347.119101 376.273883 
L 346.740984 374.496448 
L 346.663944 374.133141 
L 346.609544 373.868019 
L 346.577677 373.610202 
L 346.557183 373.424788 
L 346.418662 372.691298 
L 346.221127 371.784856 
L 346.181427 371.59536 
L 346.160396 371.494167 
L 345.799017 369.770659 
L 345.730132 369.442157 
L 345.680346 369.185629 
L 345.625195 368.914061 
L 345.522726 368.410673 
L 345.480236 368.203131 
L 344.618421 364.381205 
L 344.565523 364.139072 
L 344.389555 363.375504 
L 343.705532 360.386328 
L 343.593084 359.908937 
L 343.052518 357.465689 
L 342.977195 357.142128 
L 342.929555 356.944683 
L 342.784595 356.491999 
L 342.61882 356.055429 
L 339.776718 349.512244 
L 339.287441 348.378278 
L 339.271453 348.253236 
L 339.316948 347.951805 
L 339.353 347.785943 
L 339.497101 347.756723 
L 339.960841 347.652522 
L 340.827378 347.460234 
L 341.096695 347.385681 
L 350.817225 345.397052 
L 351.354893 345.340761 
L 356.129642 344.366427 
L 356.652289 344.269746 
L 357.135665 344.240097 
L 357.598655 344.24246 
L 357.93793 344.29209 
L 358.210467 344.371798 
L 358.516158 344.49598 
L 359.024964 344.787314 
L 359.372286 345.014408 
L 362.67255 347.431014 
L 362.847552 347.504277 
L 363.045517 347.551544 
L 363.423848 347.544239 
L 364.06345 347.510078 
L 364.445859 347.477636 
L 364.539423 347.454003 
L 364.007226 345.629517 
L 363.665697 344.090133 
L 363.079423 342.098066 
L 362.506024 340.750971 
L 361.873074 339.34243 
L 359.374647 334.41232 
L 359.1593 334.096709 
L 353.95461 328.46899 
L 353.793663 328.273049 
" clip-path="url(#pd129fe754f)" style="fill: #ffffff; stroke: #000000"/>
    <path d="M 302.114682 246.162785 
L 305.191766 257.446799 
L 305.09155 257.474085 
L 305.211831 257.915597 
L 305.034253 257.957922 
L 304.869015 258.00261 
L 304.794765 258.025599 
L 304.813005 258.108959 
L 304.944874 258.617719 
L 304.971591 258.723424 
L 305.081035 259.109935 
L 305.106894 259.214995 
L 305.262153 259.764146 
L 305.284793 259.85653 
L 305.441126 260.408474 
L 305.471599 260.519335 
L 305.507221 260.649533 
L 305.537694 260.761039 
L 305.577501 260.906491 
L 305.606686 261.016923 
L 305.618275 261.060966 
L 305.736088 261.508494 
L 305.822784 261.48572 
L 306.013881 261.435231 
L 306.123003 261.406227 
L 306.158411 261.391402 
L 306.252082 261.780061 
L 306.374187 262.230597 
L 306.773978 263.681248 
L 306.844473 263.960121 
L 307.404996 266.069495 
L 308.533554 270.3209 
L 309.211461 272.792508 
L 309.668442 274.458222 
L 311.723837 281.849411 
L 311.676733 282.01957 
L 311.913968 282.805053 
L 312.451101 284.632548 
L 313.181691 287.411817 
L 313.226219 287.680806 
L 313.85831 290.102139 
L 314.105524 291.016101 
L 314.166469 291.092587 
L 314.627528 292.821896 
L 314.662829 292.954457 
L 314.903068 293.898068 
L 315.333761 295.828474 
L 315.439235 296.187484 
L 315.629688 296.790132 
L 315.863061 296.908298 
L 315.9298 297.174494 
L 316.299119 298.649209 
L 316.736786 300.172694 
L 317.352461 302.322889 
L 317.049023 302.522268 
L 316.938935 302.599398 
L 317.239691 303.223315 
L 317.484437 303.666761 
L 318.234448 305.323022 
L 318.56235 305.820609 
L 318.488743 305.940494 
L 318.502478 306.065105 
L 319.821488 308.397706 
L 319.608824 308.546166 
L 318.324363 309.27364 
L 318.41224 309.417803 
L 319.144654 310.633626 
L 320.392527 309.850936 
L 320.686523 310.478506 
L 321.085348 311.289126 
L 321.25563 311.190726 
L 321.272475 311.21307 
L 321.400052 311.38323 
L 321.708319 311.151194 
L 321.825917 311.16387 
L 321.933322 311.175257 
L 322.267662 311.479481 
L 322.392771 311.557901 
L 322.648354 311.831617 
L 322.99514 311.648996 
L 325.433481 310.387196 
L 325.581123 311.096408 
L 326.504527 315.675456 
L 326.586073 315.657624 
L 326.711182 315.630338 
L 327.615273 315.459104 
L 328.646082 315.262304 
L 329.159502 315.164119 
L 330.087734 314.986869 
L 330.334197 314.944329 
L 331.032169 314.821007 
L 332.285084 314.568991 
L 332.619746 314.505396 
L 333.10559 314.938743 
L 333.805064 315.581138 
L 333.872232 315.696941 
L 333.942941 315.931125 
L 334.45443 318.552051 
L 334.779434 320.098095 
L 335.011305 321.201338 
L 335.216994 321.134735 
L 335.344571 321.024089 
L 338.649019 320.709337 
L 339.071987 320.822347 
L 339.268986 320.83803 
L 339.648819 320.615019 
L 341.963768 320.368803 
L 342.296069 320.503298 
L 342.530622 320.622323 
L 342.606588 320.652832 
L 342.643392 320.587088 
L 342.730517 320.439488 
L 343.263787 319.712873 
L 343.722807 319.273725 
L 344.249853 318.999579 
L 344.802114 318.906765 
L 346.088185 318.75809 
L 346.67564 318.706097 
L 347.655375 318.602326 
L 347.916323 318.57461 
L 348.054308 318.55463 
L 348.221156 318.510156 
L 348.410644 318.433455 
L 348.604102 318.336129 
L 348.823418 318.188529 
L 349.027069 318.018155 
L 349.290271 317.808249 
L 349.370959 317.741646 
L 349.788347 317.392733 
L 350.232023 317.025129 
L 351.49202 315.982044 
L 352.300723 315.293027 
L 354.35923 313.586063 
L 355.719335 312.466062 
L 356.912272 311.514931 
L 357.267749 311.176331 
L 357.502945 310.952245 
L 358.153492 310.294382 
L 358.941593 309.347763 
L 360.315755 307.604704 
L 360.493011 307.388352 
L 360.540222 307.291671 
L 360.579386 307.176298 
L 360.615652 307.061999 
L 360.757822 306.441089 
L 360.872201 305.883989 
L 361.079822 305.082607 
L 361.247314 304.212474 
L 361.356329 303.727133 
L 361.448926 303.242007 
L 361.518992 302.850125 
L 361.642706 302.285076 
L 362.450014 298.4002 
L 362.867295 296.485478 
L 364.100253 292.756582 
L 365.184711 289.541172 
L 366.013908 287.101792 
L 366.970145 284.141835 
L 367.023901 283.921831 
L 367.036884 283.777454 
L 366.977656 282.878746 
L 366.68806 280.572786 
L 366.661128 280.410361 
L 366.57647 280.072836 
L 366.483443 279.81287 
L 366.411124 279.616499 
L 366.26198 279.212586 
L 366.170133 278.778593 
L 366.148888 278.48683 
L 366.159726 278.28208 
L 366.256508 277.796525 
L 366.297067 277.467163 
L 366.297174 277.031882 
L 365.849206 273.024114 
L 365.813154 272.714518 
L 365.734075 272.060737 
L 365.673238 271.546821 
L 365.647164 271.314356 
L 365.430745 269.547879 
L 365.167758 267.341823 
L 365.151985 267.207973 
L 365.039001 266.25276 
L 365.000481 265.927481 
L 364.676442 263.217177 
L 364.579337 262.494 
L 364.491246 261.778987 
L 364.313239 259.927 
L 364.271393 259.093391 
L 362.324476 260.651682 
L 360.770161 261.902525 
L 346.750534 273.124877 
L 345.637642 274.012198 
L 344.415413 274.986962 
L 342.592962 276.424937 
L 341.918917 275.542343 
L 338.724557 271.462816 
L 338.33968 270.972104 
L 328.545866 258.540374 
L 325.713743 254.980778 
L 323.729808 252.482959 
L 322.998681 251.610892 
L 323.054905 251.568137 
L 323.224328 251.445459 
L 323.27229 251.410009 
L 323.478302 251.261335 
L 323.83496 251.003088 
L 323.895154 250.959474 
L 324.431106 250.571029 
L 324.827034 250.284423 
L 324.987552 250.167975 
L 325.941214 249.47724 
L 326.343795 249.185477 
L 328.049185 247.942368 
L 328.229982 247.825276 
L 328.415285 247.814104 
L 328.684709 247.616015 
L 330.026896 246.622989 
L 329.744167 246.278803 
L 329.628607 246.130558 
L 329.258108 245.655315 
L 329.076775 245.422635 
L 328.981066 245.299957 
L 328.448332 244.595686 
L 327.275461 242.838662 
L 326.359246 241.596843 
L 326.182419 241.370178 
L 326.128341 241.308732 
L 326.048082 241.217422 
L 325.828229 241.369104 
L 325.487559 241.582878 
L 325.466636 241.462563 
L 325.454619 241.393167 
L 325.412665 241.097966 
L 325.393888 240.905033 
L 325.393995 240.751847 
L 325.476937 240.645497 
L 325.682197 240.431509 
L 325.776834 240.375649 
L 325.875011 240.342347 
L 326.009992 240.340628 
L 326.169758 240.332464 
L 326.672233 240.316565 
L 326.799488 240.309905 
L 327.046595 240.304104 
L 327.37836 240.291213 
L 327.529435 240.282405 
L 328.3023 240.265002 
L 328.387173 240.259846 
L 328.986752 240.219025 
L 329.110037 240.210646 
L 331.709217 240.036189 
L 331.793768 240.030603 
L 332.60848 239.975817 
L 333.655813 239.878706 
L 333.838219 239.862378 
L 333.816974 239.536668 
L 333.809141 239.416354 
L 333.737252 238.313326 
L 333.73017 238.207191 
L 333.702058 237.848181 
L 333.626198 237.75687 
L 333.538644 237.663412 
L 333.513321 237.590364 
L 333.391646 237.603469 
L 333.306559 237.611204 
L 333.201621 236.72152 
L 333.096255 235.300517 
L 332.919321 233.357435 
L 332.84432 232.76467 
L 314.452632 234.576481 
L 314.071404 234.6332 
L 313.916037 234.652107 
L 313.438991 234.785312 
L 313.286092 234.777363 
L 313.049178 235.195242 
L 301.619503 244.557658 
L 301.7459 244.753599 
L 302.114682 246.162785 
" clip-path="url(#pd129fe754f)" style="fill: #ffffff; stroke: #000000"/>
    <path d="M 336.145549 168.745009 
L 334.807976 172.322653 
L 333.43317 176.103971 
L 333.050868 176.920178 
L 332.800221 177.069067 
L 329.977754 184.66694 
L 329.419162 186.201811 
L 329.149308 186.943251 
L 322.371848 205.234306 
L 323.32712 205.628337 
L 329.21991 208.044084 
L 342.484913 213.452014 
L 357.328587 176.67031 
L 358.077954 176.912228 
L 359.203614 174.337064 
L 359.362737 173.946042 
L 359.800082 172.871588 
L 359.929698 172.557696 
L 360.125409 172.073644 
L 361.083363 169.696355 
L 361.305791 169.159451 
L 361.506223 168.666805 
L 362.149795 167.073065 
L 362.36761 166.537665 
L 362.720512 165.668391 
L 363.224275 164.425068 
L 363.796171 163.024261 
L 364.124073 162.226746 
L 364.804019 160.540407 
L 364.963892 160.151533 
L 365.61637 158.537812 
L 366.490524 156.372792 
L 366.808769 155.584731 
L 367.039781 155.018178 
L 367.198797 154.628014 
L 367.424658 154.073922 
L 367.514896 153.852629 
L 368.858478 150.557511 
L 368.91717 150.412918 
L 368.957621 150.313229 
L 369.181229 149.752047 
L 369.313206 149.429345 
L 369.522436 148.916289 
L 369.698297 148.488313 
L 370.159892 147.365304 
L 370.598203 146.2988 
L 370.940912 145.464976 
L 371.917107 143.089836 
L 372.379989 141.963604 
L 372.487179 141.702564 
L 372.595765 141.269646 
L 372.989011 141.17318 
L 373.234723 141.10851 
L 373.566165 141.023431 
L 374.333773 140.82663 
L 375.265225 140.582563 
L 376.333803 140.30584 
L 376.503226 140.262011 
L 376.653121 140.236014 
L 374.913288 133.155495 
L 374.572618 130.580545 
L 374.195896 130.468825 
L 372.746947 127.903973 
L 371.328471 126.994738 
L 370.981256 126.435919 
L 367.908356 110.953352 
L 365.382783 105.444229 
L 363.954435 104.471184 
L 362.10076 106.925603 
L 361.153321 108.319965 
L 359.937853 110.353713 
L 359.227327 111.756883 
L 358.636439 113.056711 
L 357.403159 116.194561 
L 348.00817 139.3184 
L 346.04709 144.152687 
L 344.472281 148.035629 
L 342.41356 153.103026 
L 341.983511 154.164588 
L 341.565157 155.160836 
L 340.719114 156.692485 
L 339.465662 159.83807 
L 338.879495 161.703163 
L 338.112316 163.640229 
L 337.705765 164.632395 
L 336.145549 168.745009 
" clip-path="url(#pd129fe754f)" style="fill: #ffffff; stroke: #000000"/>
    <path d="M 361.668779 230.374275 
L 361.793352 228.489202 
L 361.938955 227.525825 
L 362.276514 225.583817 
L 362.967833 223.632785 
L 363.704432 222.069983 
L 362.622012 221.651031 
L 355.461606 218.729962 
L 342.484913 213.452014 
L 329.21991 208.044084 
L 323.32712 205.628337 
L 322.371848 205.234306 
L 314.59051 226.220411 
L 314.427203 226.672665 
L 314.305098 227.130505 
L 314.249303 227.430003 
L 314.212178 227.736376 
L 314.187392 228.046401 
L 314.154237 228.63938 
L 314.124087 229.090346 
L 313.81625 232.381167 
L 313.745004 232.979088 
L 313.627942 233.718379 
L 313.438991 234.785312 
L 313.916037 234.652107 
L 314.071404 234.6332 
L 314.452632 234.576481 
L 332.84432 232.76467 
L 332.919321 233.357435 
L 333.096255 235.300517 
L 333.201621 236.72152 
L 333.306559 237.611204 
L 333.391646 237.603469 
L 333.513321 237.590364 
L 333.538644 237.663412 
L 333.626198 237.75687 
L 333.702058 237.848181 
L 333.73017 238.207191 
L 333.737252 238.313326 
L 333.809141 239.416354 
L 333.816974 239.536668 
L 333.838219 239.862378 
L 333.655813 239.878706 
L 332.60848 239.975817 
L 331.793768 240.030603 
L 331.709217 240.036189 
L 329.110037 240.210646 
L 328.986752 240.219025 
L 328.387173 240.259846 
L 328.3023 240.265002 
L 327.529435 240.282405 
L 327.37836 240.291213 
L 327.046595 240.304104 
L 326.799488 240.309905 
L 326.672233 240.316565 
L 326.169758 240.332464 
L 326.009992 240.340628 
L 325.875011 240.342347 
L 325.776834 240.375649 
L 325.682197 240.431509 
L 325.476937 240.645497 
L 325.393995 240.751847 
L 325.393888 240.905033 
L 325.412665 241.097966 
L 325.454619 241.393167 
L 325.466636 241.462563 
L 325.487559 241.582878 
L 325.828229 241.369104 
L 326.048082 241.217422 
L 326.128341 241.308732 
L 326.182419 241.370178 
L 326.359246 241.596843 
L 327.275461 242.838662 
L 328.448332 244.595686 
L 328.981066 245.299957 
L 329.076775 245.422635 
L 329.258108 245.655315 
L 329.628607 246.130558 
L 329.744167 246.278803 
L 330.026896 246.622989 
L 328.684709 247.616015 
L 328.415285 247.814104 
L 328.229982 247.825276 
L 328.049185 247.942368 
L 326.343795 249.185477 
L 325.941214 249.47724 
L 324.987552 250.167975 
L 324.827034 250.284423 
L 324.431106 250.571029 
L 323.895154 250.959474 
L 323.83496 251.003088 
L 323.478302 251.261335 
L 323.27229 251.410009 
L 323.224328 251.445459 
L 323.054905 251.568137 
L 322.998681 251.610892 
L 323.729808 252.482959 
L 325.713743 254.980778 
L 328.545866 258.540374 
L 338.33968 270.972104 
L 338.724557 271.462816 
L 341.918917 275.542343 
L 342.592962 276.424937 
L 344.415413 274.986962 
L 345.637642 274.012198 
L 346.750534 273.124877 
L 360.770161 261.902525 
L 362.324476 260.651682 
L 364.271393 259.093391 
L 364.283196 258.250974 
L 364.245856 257.738777 
L 363.809369 253.243519 
L 362.983069 244.848992 
L 362.07179 235.595073 
L 361.743137 231.906569 
L 361.686269 231.123664 
L 361.668779 230.374275 
" clip-path="url(#pd129fe754f)" style="fill: #ffffff; stroke: #000000"/>
    <path d="M 313.438991 234.785312 
L 313.627942 233.718379 
L 313.745004 232.979088 
L 313.81625 232.381167 
L 314.124087 229.090346 
L 314.154237 228.63938 
L 314.187392 228.046401 
L 314.212178 227.736376 
L 314.249303 227.430003 
L 314.305098 227.130505 
L 314.427203 226.672665 
L 314.59051 226.220411 
L 322.371848 205.234306 
L 329.149308 186.943251 
L 329.419162 186.201811 
L 329.977754 184.66694 
L 332.800221 177.069067 
L 333.050868 176.920178 
L 333.43317 176.103971 
L 334.807976 172.322653 
L 336.145549 168.745009 
L 322.814773 163.295613 
L 302.444193 154.969407 
L 301.513815 154.599225 
L 301.13956 154.469027 
L 300.772817 154.371916 
L 300.331931 154.265566 
L 299.887825 154.195311 
L 299.317216 154.137517 
L 298.757122 154.114743 
L 298.265913 154.1199 
L 297.706999 154.162654 
L 297.332208 154.210995 
L 296.790355 154.305313 
L 296.368782 154.398127 
L 295.957617 154.512426 
L 295.566195 154.643054 
L 295.156318 154.807627 
L 294.759638 154.99433 
L 294.307807 155.223142 
L 291.265381 156.917861 
L 290.425347 155.786473 
L 283.819563 159.609687 
L 282.153336 160.135849 
L 280.850957 160.31761 
L 279.089021 160.31761 
L 278.035679 160.222003 
L 275.747019 159.772327 
L 273.257282 159.226828 
L 271.026026 158.557148 
L 269.541777 157.810767 
L 268.067077 156.614711 
L 266.818132 155.132691 
L 266.642914 154.924719 
L 265.611247 153.382328 
L 264.539772 151.780209 
L 264.465629 151.827905 
L 264.383761 151.881402 
L 264.299318 151.935973 
L 264.191591 152.005154 
L 270.017535 161.40302 
L 271.772926 164.257916 
L 275.742512 170.594418 
L 279.085158 176.006216 
L 279.230868 176.251787 
L 280.422409 178.215494 
L 280.940228 179.228931 
L 281.005465 179.340651 
L 281.504292 180.217445 
L 281.734446 180.589346 
L 281.901938 180.876168 
L 282.451087 181.816771 
L 282.658494 182.059549 
L 282.928777 182.504928 
L 283.056032 182.714404 
L 283.312474 183.144529 
L 284.028579 184.308574 
L 284.42955 184.926046 
L 284.300256 185.115756 
L 284.815178 185.774694 
L 285.022799 186.107278 
L 285.199626 186.458554 
L 285.422483 186.913172 
L 285.675277 187.492186 
L 285.904679 188.081299 
L 286.120777 188.636465 
L 286.380437 189.322259 
L 286.56853 189.915238 
L 286.657158 190.19454 
L 286.939888 191.118385 
L 287.129697 191.738865 
L 287.330237 192.394365 
L 287.416289 192.675601 
L 287.585713 193.331316 
L 287.771016 194.202953 
L 287.912434 194.852223 
L 287.942907 195.011425 
L 287.948164 195.071582 
L 287.988937 195.486668 
L 288.093016 196.025721 
L 288.198275 196.571004 
L 288.362655 197.312443 
L 288.388192 197.350471 
L 288.414587 197.389788 
L 288.557186 198.009194 
L 288.704828 198.549536 
L 288.870495 199.156481 
L 289.045283 199.708209 
L 289.064382 199.768796 
L 289.203655 200.275407 
L 289.356232 200.830788 
L 289.300759 200.845183 
L 289.461491 201.459648 
L 289.653769 202.19636 
L 289.746367 202.181965 
L 289.786711 202.293901 
L 290.010748 203.011063 
L 290.168691 203.516814 
L 290.298521 203.471266 
L 290.52288 203.403374 
L 291.391992 206.49095 
L 291.52429 207.302644 
L 291.56399 207.928925 
L 291.841998 208.811305 
L 291.908094 208.850837 
L 291.975477 209.07922 
L 292.162926 209.456707 
L 292.25767 209.749115 
L 292.669264 211.309768 
L 293.831513 215.612737 
L 294.204802 216.923738 
L 294.563712 218.235168 
L 294.684959 219.052448 
L 295.026487 220.268701 
L 295.012324 220.477533 
L 295.052775 220.67906 
L 295.252993 221.500852 
L 295.51158 222.452842 
L 297.097012 228.288534 
L 297.430171 229.438614 
L 298.114838 231.801938 
L 298.162478 231.995086 
L 299.137814 235.842148 
L 299.203051 235.85289 
L 299.268181 235.863848 
L 301.013271 242.247831 
L 301.320035 243.370195 
L 301.545897 244.443574 
L 301.619503 244.557658 
L 313.049178 235.195242 
L 313.286092 234.777363 
L 313.438991 234.785312 
" clip-path="url(#pd129fe754f)" style="fill: #ffffff; stroke: #000000"/>
    <path d="M 385.857226 172.274097 
L 383.721036 171.062786 
L 383.901296 168.964369 
L 380.645883 156.084896 
L 376.653121 140.236014 
L 376.503226 140.262011 
L 376.333803 140.30584 
L 375.265225 140.582563 
L 374.333773 140.82663 
L 373.566165 141.023431 
L 373.234723 141.10851 
L 372.989011 141.17318 
L 372.595765 141.269646 
L 372.487179 141.702564 
L 372.379989 141.963604 
L 371.917107 143.089836 
L 370.940912 145.464976 
L 370.598203 146.2988 
L 370.159892 147.365304 
L 369.698297 148.488313 
L 369.522436 148.916289 
L 369.313206 149.429345 
L 369.181229 149.752047 
L 368.957621 150.313229 
L 368.91717 150.412918 
L 368.858478 150.557511 
L 367.514896 153.852629 
L 367.424658 154.073922 
L 367.198797 154.628014 
L 367.039781 155.018178 
L 366.808769 155.584731 
L 366.490524 156.372792 
L 365.61637 158.537812 
L 364.963892 160.151533 
L 364.804019 160.540407 
L 364.124073 162.226746 
L 363.796171 163.024261 
L 363.224275 164.425068 
L 362.720512 165.668391 
L 362.36761 166.537665 
L 362.149795 167.073065 
L 361.506223 168.666805 
L 361.305791 169.159451 
L 361.083363 169.696355 
L 360.125409 172.073644 
L 359.929698 172.557696 
L 359.800082 172.871588 
L 359.362737 173.946042 
L 359.203614 174.337064 
L 358.077954 176.912228 
L 357.328587 176.67031 
L 342.484913 213.452014 
L 355.461606 218.729962 
L 362.622012 221.651031 
L 363.704432 222.069983 
L 381.889786 181.166642 
L 383.983272 176.509604 
L 385.857226 172.274097 
" clip-path="url(#pd129fe754f)" style="fill: #ffffff; stroke: #000000"/>
   </g>
   <g id="text_1">
    <!-- 1 -->
    <g transform="translate(130.938348 105.386104) scale(0.13 -0.13)">
     <defs>
      <path id="DejaVuSans-31" d="M 794 531 
L 1825 531 
L 1825 4091 
L 703 3866 
L 703 4441 
L 1819 4666 
L 2450 4666 
L 2450 531 
L 3481 531 
L 3481 0 
L 794 0 
L 794 531 
z
" transform="scale(0.015625)"/>
     </defs>
     <use xlink:href="#DejaVuSans-31"/>
    </g>
   </g>
   <g id="text_2">
    <!-- 2 -->
    <g transform="translate(241.533211 123.241989) scale(0.13 -0.13)">
     <defs>
      <path id="DejaVuSans-32" d="M 1228 531 
L 3431 531 
L 3431 0 
L 469 0 
L 469 531 
Q 828 903 1448 1529 
Q 2069 2156 2228 2338 
Q 2531 2678 2651 2914 
Q 2772 3150 2772 3378 
Q 2772 3750 2511 3984 
Q 2250 4219 1831 4219 
Q 1534 4219 1204 4116 
Q 875 4013 500 3803 
L 500 4441 
Q 881 4594 1212 4672 
Q 1544 4750 1819 4750 
Q 2544 4750 2975 4387 
Q 3406 4025 3406 3419 
Q 3406 3131 3298 2873 
Q 3191 2616 2906 2266 
Q 2828 2175 2409 1742 
Q 1991 1309 1228 531 
z
" transform="scale(0.015625)"/>
     </defs>
     <use xlink:href="#DejaVuSans-32"/>
    </g>
   </g>
   <g id="text_3">
    <!-- 3 -->
    <g transform="translate(333.719718 355.440492) scale(0.13 -0.13)">
     <defs>
      <path id="DejaVuSans-33" d="M 2597 2516 
Q 3050 2419 3304 2112 
Q 3559 1806 3559 1356 
Q 3559 666 3084 287 
Q 2609 -91 1734 -91 
Q 1441 -91 1130 -33 
Q 819 25 488 141 
L 488 750 
Q 750 597 1062 519 
Q 1375 441 1716 441 
Q 2309 441 2620 675 
Q 2931 909 2931 1356 
Q 2931 1769 2642 2001 
Q 2353 2234 1838 2234 
L 1294 2234 
L 1294 2753 
L 1863 2753 
Q 2328 2753 2575 2939 
Q 2822 3125 2822 3475 
Q 2822 3834 2567 4026 
Q 2313 4219 1838 4219 
Q 1578 4219 1281 4162 
Q 984 4106 628 3988 
L 628 4550 
Q 988 4650 1302 4700 
Q 1616 4750 1894 4750 
Q 2613 4750 3031 4423 
Q 3450 4097 3450 3541 
Q 3450 3153 3228 2886 
Q 3006 2619 2597 2516 
z
" transform="scale(0.015625)"/>
     </defs>
     <use xlink:href="#DejaVuSans-33"/>
    </g>
   </g>
   <g id="text_4">
    <!-- 4 -->
    <g transform="translate(329.69691 283.897233) scale(0.13 -0.13)">
     <defs>
      <path id="DejaVuSans-34" d="M 2419 4116 
L 825 1625 
L 2419 1625 
L 2419 4116 
z
M 2253 4666 
L 3047 4666 
L 3047 1625 
L 3713 1625 
L 3713 1100 
L 3047 1100 
L 3047 0 
L 2419 0 
L 2419 1100 
L 313 1100 
L 313 1709 
L 2253 4666 
z
" transform="scale(0.015625)"/>
     </defs>
     <use xlink:href="#DejaVuSans-34"/>
    </g>
   </g>
   <g id="text_5">
    <!-- 5 -->
    <g transform="translate(346.605543 166.092974) scale(0.13 -0.13)">
     <defs>
      <path id="DejaVuSans-35" d="M 691 4666 
L 3169 4666 
L 3169 4134 
L 1269 4134 
L 1269 2991 
Q 1406 3038 1543 3061 
Q 1681 3084 1819 3084 
Q 2600 3084 3056 2656 
Q 3513 2228 3513 1497 
Q 3513 744 3044 326 
Q 2575 -91 1722 -91 
Q 1428 -91 1123 -41 
Q 819 9 494 109 
L 494 744 
Q 775 591 1075 516 
Q 1375 441 1709 441 
Q 2250 441 2565 725 
Q 2881 1009 2881 1497 
Q 2881 1984 2565 2268 
Q 2250 2553 1709 2553 
Q 1456 2553 1204 2497 
Q 953 2441 691 2322 
L 691 4666 
z
" transform="scale(0.015625)"/>
     </defs>
     <use xlink:href="#DejaVuSans-35"/>
    </g>
   </g>
   <g id="text_6">
    <!-- 6 -->
    <g transform="translate(337.360367 242.519192) scale(0.13 -0.13)">
     <defs>
      <path id="DejaVuSans-36" d="M 2113 2584 
Q 1688 2584 1439 2293 
Q 1191 2003 1191 1497 
Q 1191 994 1439 701 
Q 1688 409 2113 409 
Q 2538 409 2786 701 
Q 3034 994 3034 1497 
Q 3034 2003 2786 2293 
Q 2538 2584 2113 2584 
z
M 3366 4563 
L 3366 3988 
Q 3128 4100 2886 4159 
Q 2644 4219 2406 4219 
Q 1781 4219 1451 3797 
Q 1122 3375 1075 2522 
Q 1259 2794 1537 2939 
Q 1816 3084 2150 3084 
Q 2853 3084 3261 2657 
Q 3669 2231 3669 1497 
Q 3669 778 3244 343 
Q 2819 -91 2113 -91 
Q 1303 -91 875 529 
Q 447 1150 447 2328 
Q 447 3434 972 4092 
Q 1497 4750 2381 4750 
Q 2619 4750 2861 4703 
Q 3103 4656 3366 4563 
z
" transform="scale(0.015625)"/>
     </defs>
     <use xlink:href="#DejaVuSans-36"/>
    </g>
   </g>
   <g id="text_7">
    <!-- 7 -->
    <g transform="translate(300.652519 192.870685) scale(0.13 -0.13)">
     <defs>
      <path id="DejaVuSans-37" d="M 525 4666 
L 3525 4666 
L 3525 4397 
L 1831 0 
L 1172 0 
L 2766 4134 
L 525 4134 
L 525 4666 
z
" transform="scale(0.015625)"/>
     </defs>
     <use xlink:href="#DejaVuSans-37"/>
    </g>
   </g>
   <g id="text_8">
    <!-- 8 -->
    <g transform="translate(361.951583 188.860438) scale(0.13 -0.13)">
     <defs>
      <path id="DejaVuSans-38" d="M 2034 2216 
Q 1584 2216 1326 1975 
Q 1069 1734 1069 1313 
Q 1069 891 1326 650 
Q 1584 409 2034 409 
Q 2484 409 2743 651 
Q 3003 894 3003 1313 
Q 3003 1734 2745 1975 
Q 2488 2216 2034 2216 
z
M 1403 2484 
Q 997 2584 770 2862 
Q 544 3141 544 3541 
Q 544 4100 942 4425 
Q 1341 4750 2034 4750 
Q 2731 4750 3128 4425 
Q 3525 4100 3525 3541 
Q 3525 3141 3298 2862 
Q 3072 2584 2669 2484 
Q 3125 2378 3379 2068 
Q 3634 1759 3634 1313 
Q 3634 634 3220 271 
Q 2806 -91 2034 -91 
Q 1263 -91 848 271 
Q 434 634 434 1313 
Q 434 1759 690 2068 
Q 947 2378 1403 2484 
z
M 1172 3481 
Q 1172 3119 1398 2916 
Q 1625 2713 2034 2713 
Q 2441 2713 2670 2916 
Q 2900 3119 2900 3481 
Q 2900 3844 2670 4047 
Q 2441 4250 2034 4250 
Q 1625 4250 1398 4047 
Q 1172 3844 1172 3481 
z
" transform="scale(0.015625)"/>
     </defs>
     <use xlink:href="#DejaVuSans-38"/>
    </g>
   </g>
  </g>
 </g>
 <defs>
  <clipPath id="pd129fe754f">
   <rect x="29.157051" y="10.8" width="373.685898" height="410.4"/>
  </clipPath>
 </defs>
</svg>
