<?xml version="1.0" encoding="utf-8" standalone="no"?>
<!DOCTYPE svg PUBLIC "-//W3C//DTD SVG 1.1//EN"
  "http://www.w3.org/Graphics/SVG/1.1/DTD/svg11.dtd">
<svg xmlns:xlink="http://www.w3.org/1999/xlink" width="432pt" height="432pt" viewBox="0 0 432 432" xmlns="http://www.w3.org/2000/svg" version="1.1">
 <metadata>
  <rdf:RDF xmlns:dc="http://purl.org/dc/elements/1.1/" xmlns:cc="http://creativecommons.org/ns#" xmlns:rdf="http://www.w3.org/1999/02/22-rdf-syntax-ns#">
   <cc:Work>
    <dc:type rdf:resource="http://purl.org/dc/dcmitype/StillImage"/>
    <dc:date>2025-04-20T13:46:46.006542</dc:date>
    <dc:format>image/svg+xml</dc:format>
    <dc:creator>
     <cc:Agent>
      <dc:title>Matplotlib v3.10.1, https://matplotlib.org/</dc:title>
     </cc:Agent>
    </dc:creator>
   </cc:Work>
  </rdf:RDF>
 </metadata>
 <defs>
  <style type="text/css">*{stroke-linejoin: round; stroke-linecap: butt}</style>
 </defs>
 <g id="figure_1">
  <g id="patch_1">
   <path d="M 0 432 
L 432 432 
L 432 0 
L 0 0 
z
" style="fill: #ffffff"/>
  </g>
  <g id="axes_1">
   <g id="PatchCollection_1">
    <path d="M 242.975208 361.438059 
L 247.068519 341.247055 
L 248.947153 332.182123 
L 249.301674 331.121329 
L 249.501125 330.545855 
L 249.729241 329.981434 
L 251.421376 326.774527 
L 264.322111 302.770746 
L 264.562488 302.333441 
L 259.970118 300.237415 
L 258.500919 299.578002 
L 254.670261 297.858833 
L 253.880402 297.504429 
L 253.351297 297.267123 
L 251.194641 296.299248 
L 250.976023 296.201148 
L 250.852208 296.145535 
L 250.600952 296.037763 
L 250.405301 295.952444 
L 250.0772 295.805294 
L 245.523857 293.76868 
L 245.383637 293.705813 
L 245.165882 293.604259 
L 244.769226 293.421876 
L 244.372915 293.238111 
L 243.609305 292.867817 
L 243.1137 292.63742 
L 242.251487 292.24502 
L 241.670922 291.986989 
L 240.706825 291.679563 
L 240.424659 291.59148 
L 237.620781 290.706852 
L 237.557752 290.687163 
L 235.099416 289.924814 
L 234.720201 289.806334 
L 234.47568 289.729996 
L 234.214926 289.648476 
L 232.471677 289.10409 
L 231.42141 288.776283 
L 231.154786 288.693036 
L 230.557297 288.504781 
L 229.346262 288.12827 
L 228.461081 287.851586 
L 228.023153 287.710999 
L 227.431537 287.511345 
L 226.907267 287.264022 
L 226.681913 287.752105 
L 226.434457 288.292691 
L 226.32014 288.536905 
L 225.563264 290.177319 
L 224.960595 291.453656 
L 224.900846 291.588371 
L 224.555132 292.338284 
L 224.471207 292.520322 
L 224.316309 292.861254 
L 224.048131 293.451237 
L 222.124944 297.681285 
L 220.785258 300.56833 
L 219.236797 303.90546 
L 218.711318 305.033266 
L 218.388916 305.724802 
L 218.188257 306.154509 
L 218.074458 306.400795 
L 217.550015 307.5362 
L 216.892433 308.957961 
L 216.17044 310.514091 
L 215.992575 310.896819 
L 215.889827 311.115472 
L 203.133456 308.238099 
L 200.974555 307.404594 
L 199.440081 306.599413 
L 197.523629 305.329293 
L 166.838124 284.15418 
L 165.29208 283.086823 
L 163.899553 282.39805 
L 161.916791 281.600123 
L 159.733541 280.842956 
L 158.820213 280.561782 
L 157.758895 280.289589 
L 156.507451 280.122059 
L 154.585473 280.262991 
L 154.8445 280.578017 
L 163.220903 289.626024 
L 163.567481 290.13345 
L 167.588438 298.059869 
L 168.607103 300.324461 
L 169.529929 302.490263 
L 170.473477 305.693024 
L 171.023131 308.167979 
L 171.879646 311.10131 
L 171.729065 311.139306 
L 171.113618 311.191465 
L 170.084246 311.246387 
L 169.475361 311.258132 
L 169.156758 311.182139 
L 168.87511 311.064349 
L 163.563682 307.179033 
L 163.004703 306.813921 
L 162.185833 306.345527 
L 161.693855 306.145873 
L 161.255237 306.017721 
L 160.709208 305.937928 
L 159.964075 305.934129 
L 159.186132 305.981797 
L 158.344986 306.137237 
L 150.660529 307.70373 
L 149.795207 307.794231 
L 134.151034 310.991465 
L 133.717596 311.111327 
L 132.322996 311.42048 
L 131.576654 311.58801 
L 131.344739 311.634988 
L 131.286717 311.901654 
L 131.213499 312.386283 
L 131.239229 312.587319 
L 132.02667 314.410461 
L 136.600735 324.930315 
L 136.867533 325.632214 
L 137.100829 326.36002 
L 137.177501 326.677464 
L 137.298726 327.197671 
L 138.16871 331.12582 
L 138.349683 331.893349 
L 139.450546 336.699218 
L 139.733749 337.926851 
L 139.818882 338.316142 
L 141.205883 344.46087 
L 141.274266 344.794548 
L 141.43918 345.603874 
L 141.52794 346.040489 
L 141.608065 346.452924 
L 141.718929 346.981075 
L 142.30053 349.752058 
L 142.334376 349.914752 
L 142.398269 350.219415 
L 142.716181 351.676754 
L 142.939117 352.856028 
L 142.9721 353.154128 
L 143.023387 353.568635 
L 143.110938 353.994887 
L 143.234926 354.578997 
L 143.843465 357.43668 
L 143.913575 357.778304 
L 144.160169 358.966213 
L 144.680467 361.471911 
L 144.887688 362.470183 
L 145.032225 362.949284 
L 145.19403 363.401097 
L 145.381048 363.902997 
L 145.730906 364.821476 
L 145.895647 365.2536 
L 146.464815 366.66258 
L 146.723496 367.364479 
L 147.053669 368.259816 
L 147.745616 370.08503 
L 148.095992 371.016636 
L 148.137782 371.127862 
L 148.391801 371.805927 
L 148.43808 372.084338 
L 148.475035 372.344096 
L 148.469336 372.582092 
L 148.434626 372.763439 
L 147.779289 374.790726 
L 146.736793 378.036665 
L 146.297484 379.139255 
L 143.842947 385.969301 
L 143.473575 386.999698 
L 141.93772 391.323701 
L 141.776951 391.91092 
L 141.672995 392.532681 
L 140.807328 399.67499 
L 158.18698 401.728529 
L 165.02511 402.545455 
L 178.09335 398.743039 
L 187.26462 393.44667 
L 199.766455 381.799702 
L 201.699139 380.701948 
L 204.087883 379.840118 
L 206.489578 379.351344 
L 208.893518 379.223192 
L 212.333219 379.655316 
L 215.329639 380.584504 
L 218.820627 382.090893 
L 222.29901 383.886401 
L 227.240548 387.774827 
L 233.496905 382.291584 
L 239.929572 375.693661 
L 240.203622 374.947203 
L 240.379242 374.325787 
L 242.011801 366.437019 
L 242.975208 361.438059 
" clip-path="url(#p0aff9ac9e8)" style="fill: #ffffff; stroke: #000000"/>
    <path d="M 192.382469 234.831247 
L 192.466911 234.653699 
L 193.265404 233.09446 
L 193.310993 233.005341 
L 194.645498 230.399816 
L 194.788826 230.120024 
L 195.657947 228.351459 
L 195.869313 227.942478 
L 196.208119 227.28652 
L 196.698543 226.26994 
L 196.800772 226.061996 
L 196.94151 225.77564 
L 197.063598 225.412601 
L 197.954822 222.762171 
L 199.511227 218.13385 
L 199.839328 217.158376 
L 199.983692 216.729015 
L 200.182279 216.138342 
L 200.358935 215.627807 
L 200.514524 215.150432 
L 200.974037 213.788775 
L 202.367946 209.689988 
L 202.850081 208.274445 
L 202.942467 207.926604 
L 202.991855 207.821941 
L 212.753533 211.168397 
L 217.445023 201.970822 
L 224.062809 188.697948 
L 242.565427 198.010204 
L 242.675945 197.873416 
L 242.971581 197.311413 
L 243.51381 196.232657 
L 243.536432 196.187407 
L 245.750592 191.782229 
L 246.001848 191.282402 
L 246.174877 190.938016 
L 247.190953 188.916601 
L 248.365897 186.578433 
L 248.679492 185.952873 
L 249.248833 184.821958 
L 249.34191 184.636811 
L 249.555175 184.212287 
L 249.689351 183.94562 
L 249.960983 183.40607 
L 250.101549 183.125586 
L 250.272679 182.784999 
L 250.732192 181.87101 
L 252.445049 178.458923 
L 253.717043 175.933536 
L 253.844138 175.680687 
L 253.96519 175.440963 
L 254.187435 174.998131 
L 254.747969 173.882761 
L 255.917215 171.557374 
L 256.213714 170.968773 
L 256.419208 170.558756 
L 256.653196 170.093126 
L 257.173667 169.048568 
L 257.610558 168.18881 
L 257.790668 167.831297 
L 257.961971 167.489674 
L 258.01982 167.373957 
L 260.665346 162.02612 
L 260.151264 162.190196 
L 259.751845 162.27897 
L 259.666194 162.230956 
L 258.978392 161.844773 
L 259.02398 161.343219 
L 258.870809 161.118004 
L 258.465519 160.75531 
L 258.230668 160.760836 
L 257.989601 160.997106 
L 257.737136 161.210577 
L 257.168659 161.315585 
L 256.467733 161.043738 
L 256.029287 160.463773 
L 255.88216 159.8655 
L 255.563557 159.562219 
L 254.564232 159.476554 
L 254.014232 159.511096 
L 253.331266 159.746329 
L 252.428644 159.690716 
L 252.054091 159.846502 
L 251.411015 160.576726 
L 250.779162 160.884498 
L 250.134704 161.077244 
L 249.428252 161.125948 
L 248.951643 160.842356 
L 248.905882 160.728712 
L 248.949053 160.587779 
L 249.109304 160.435793 
L 249.326714 160.341148 
L 249.435332 159.995034 
L 249.258676 159.64063 
L 248.897075 159.179836 
L 248.509571 158.945639 
L 248.070952 158.749784 
L 247.458441 158.610579 
L 247.145364 158.424741 
L 246.940733 158.163947 
L 246.940733 157.931132 
L 247.136212 157.732859 
L 247.593653 157.707643 
L 247.836102 157.545986 
L 248.011894 157.284846 
L 248.105144 156.592273 
L 247.899995 155.868612 
L 247.333245 155.273794 
L 246.671345 154.716972 
L 246.505741 154.410237 
L 246.510576 154.00471 
L 246.693794 153.479322 
L 246.7083 153.271723 
L 246.67169 153.076904 
L 246.606934 152.788476 
L 246.215631 152.182604 
L 244.773198 150.932864 
L 244.370843 150.655835 
L 243.813072 150.385369 
L 243.185883 150.053418 
L 242.98436 149.871725 
L 242.860372 149.743574 
L 242.823245 149.570517 
L 242.914595 149.290033 
L 242.868489 149.00955 
L 242.500498 148.419222 
L 241.436589 147.740812 
L 238.386291 146.888653 
L 236.460169 146.182954 
L 236.205114 146.06931 
L 234.544236 145.328378 
L 234.321645 145.198499 
L 233.048961 144.457222 
L 232.735021 144.274148 
L 231.87747 143.373285 
L 231.353373 143.029934 
L 230.203467 142.412318 
L 230.114535 142.36465 
L 227.165775 141.353597 
L 225.555838 141.389176 
L 224.907408 141.403338 
L 224.175917 141.419573 
L 223.449952 141.02959 
L 222.35047 140.055843 
L 222.127362 139.680369 
L 221.741757 139.135291 
L 221.169654 138.335637 
L 220.856577 137.599196 
L 220.675258 137.11215 
L 220.534002 136.987452 
L 220.479779 136.938056 
L 220.446797 136.846174 
L 220.477535 136.580544 
L 220.48496 136.351874 
L 220.48496 136.141166 
L 220.452668 135.578127 
L 220.265133 135.247211 
L 219.827378 134.965001 
L 219.531051 134.636158 
L 219.371145 134.328387 
L 219.262354 134.226487 
L 219.109529 134.099371 
L 218.764505 134.154984 
L 218.53518 134.159475 
L 218.116075 134.03685 
L 217.254552 133.939786 
L 216.585228 133.937368 
L 215.73303 133.951185 
L 214.88774 133.928041 
L 214.067834 133.847212 
L 213.065055 133.749803 
L 212.004428 133.490736 
L 209.623627 132.360167 
L 209.48358 132.300063 
L 209.363219 132.3011 
L 209.157034 132.343932 
L 208.778337 132.495573 
L 208.398604 132.626488 
L 207.850849 132.885555 
L 207.712011 132.905244 
L 207.608918 132.923897 
L 207.440896 132.891427 
L 207.356454 132.854467 
L 207.259232 132.782619 
L 207.180488 132.650668 
L 207.105198 132.507317 
L 207.050802 132.367075 
L 207.009012 132.193673 
L 207.019892 131.411981 
L 206.96964 131.275885 
L 206.941838 131.154641 
L 206.87121 131.076921 
L 206.74964 131.013363 
L 206.55986 130.941515 
L 206.295826 130.817854 
L 206.003989 130.622344 
L 205.82457 130.548424 
L 205.399594 130.334262 
L 205.142466 130.113191 
L 205.081163 129.958096 
L 205.07063 129.767077 
L 205.062514 129.653779 
L 205.065449 129.576404 
L 205.008118 129.538753 
L 204.939217 129.522518 
L 204.739594 129.521827 
L 204.555512 129.500066 
L 204.357443 129.355333 
L 204.246234 129.194366 
L 203.690363 128.552225 
L 202.887899 127.931846 
L 202.535968 127.631328 
L 200.503127 125.970189 
L 196.485623 125.207495 
L 192.869957 123.622004 
L 191.517665 123.101797 
L 190.053992 123.232367 
L 188.930679 123.817514 
L 188.4798 124.743247 
L 188.309879 125.937028 
L 188.737446 127.941172 
L 188.662501 128.661379 
L 188.285012 129.476922 
L 184.983286 127.706975 
L 181.773601 126.348082 
L 179.162267 125.339101 
L 176.756082 124.608878 
L 173.604764 123.855165 
L 170.253304 123.263455 
L 168.477417 123.007497 
L 167.259647 122.865528 
L 167.287794 124.070363 
L 167.379317 125.329084 
L 167.90825 131.259304 
L 169.374858 146.137359 
L 170.704701 159.633721 
L 171.407182 166.861004 
L 171.467276 167.684493 
L 171.44828 169.038896 
L 171.515627 170.379136 
L 171.802111 173.356682 
L 171.943885 174.506249 
L 172.100164 175.668942 
L 172.621671 180.026452 
L 172.683665 180.549422 
L 172.865502 182.085172 
L 172.890886 182.300371 
L 173.314136 185.847173 
L 173.66244 188.68724 
L 173.704402 189.060988 
L 173.802315 189.887239 
L 173.929583 190.938361 
L 173.987605 191.436115 
L 174.708562 197.879634 
L 174.70839 198.579461 
L 174.643115 199.108994 
L 174.487354 199.88965 
L 174.469913 200.218838 
L 174.504104 200.687922 
L 174.651922 201.385676 
L 174.891953 202.035071 
L 175.008343 202.350788 
L 175.15806 202.768749 
L 175.294308 203.311409 
L 175.337652 203.572548 
L 175.803727 207.279972 
L 175.899049 208.724876 
L 175.878154 208.957 
L 175.791639 209.310713 
L 174.252676 214.069604 
L 172.91817 217.991536 
L 171.172849 223.161134 
L 169.188532 229.156294 
L 168.516962 232.234703 
L 167.217685 238.480639 
L 167.018579 239.389101 
L 166.905816 240.019153 
L 168.634215 240.434351 
L 177.152393 242.51656 
L 185.371481 244.856455 
L 188.444745 245.555245 
L 188.485672 245.399114 
L 188.658356 244.832966 
L 188.74418 244.555937 
L 189.120978 243.257147 
L 189.378968 242.381845 
L 189.454949 242.12416 
L 189.614337 241.689963 
L 189.906001 241.365611 
L 190.062453 241.040223 
L 190.2044 240.621916 
L 190.741966 239.038152 
L 191.063332 238.091348 
L 191.506268 236.732799 
L 191.618167 236.433663 
L 191.646833 236.354561 
L 192.382469 234.831247 
" clip-path="url(#p0aff9ac9e8)" style="fill: #ffffff; stroke: #000000"/>
    <path d="M 279.562203 190.657187 
L 280.118074 189.704856 
L 280.380727 189.237153 
L 280.581732 188.89173 
L 280.893427 188.35667 
L 281.967352 186.512458 
L 283.012438 184.827139 
L 283.081339 184.579817 
L 283.527038 183.769454 
L 283.771904 183.155638 
L 283.600947 181.882755 
L 283.484212 180.845795 
L 283.473678 180.268594 
L 284.80283 180.955294 
L 285.247493 181.325588 
L 285.5471 181.809525 
L 285.113835 178.19122 
L 285.063756 177.709355 
L 284.851009 175.885868 
L 284.770884 175.02611 
L 284.345735 166.829226 
L 284.265609 165.2275 
L 284.207932 164.001939 
L 284.065295 161.213686 
L 284.005546 160.191925 
L 281.017933 160.310059 
L 281.02225 160.69037 
L 280.819346 161.346328 
L 280.285751 162.121112 
L 279.712093 162.705913 
L 279.586379 163.107294 
L 279.265359 163.346672 
L 278.456159 163.46377 
L 277.46236 163.449953 
L 276.578734 163.833373 
L 275.146317 164.989158 
L 273.734449 165.531817 
L 272.24401 165.138035 
L 271.512346 164.711783 
L 270.94715 164.522491 
L 270.171278 164.588467 
L 269.855093 164.898657 
L 269.651326 165.176722 
L 269.381593 165.271023 
L 269.058327 165.176722 
L 268.619191 164.810229 
L 268.063838 163.797103 
L 267.533696 162.920075 
L 266.481703 163.151508 
L 265.248045 163.167743 
L 264.496177 163.22232 
L 263.919239 162.824738 
L 263.458344 162.831646 
L 262.952724 163.127328 
L 262.482159 163.146327 
L 261.778815 162.588469 
L 260.665346 162.02612 
L 258.01982 167.373957 
L 257.961971 167.489674 
L 257.790668 167.831297 
L 257.610558 168.18881 
L 257.173667 169.048568 
L 256.653196 170.093126 
L 256.419208 170.558756 
L 256.213714 170.968773 
L 255.917215 171.557374 
L 254.747969 173.882761 
L 254.187435 174.998131 
L 253.96519 175.440963 
L 253.844138 175.680687 
L 253.717043 175.933536 
L 252.445049 178.458923 
L 250.732192 181.87101 
L 250.272679 182.784999 
L 250.101549 183.125586 
L 249.960983 183.40607 
L 249.689351 183.94562 
L 249.555175 184.212287 
L 249.34191 184.636811 
L 249.248833 184.821958 
L 248.679492 185.952873 
L 248.365897 186.578433 
L 247.190953 188.916601 
L 246.174877 190.938016 
L 246.001848 191.282402 
L 245.750592 191.782229 
L 243.536432 196.187407 
L 243.51381 196.232657 
L 242.971581 197.311413 
L 242.675945 197.873416 
L 242.565427 198.010204 
L 224.062809 188.697948 
L 217.445023 201.970822 
L 212.753533 211.168397 
L 202.991855 207.821941 
L 202.942467 207.926604 
L 202.850081 208.274445 
L 202.367946 209.689988 
L 200.974037 213.788775 
L 200.514524 215.150432 
L 200.358935 215.627807 
L 200.182279 216.138342 
L 199.983692 216.729015 
L 199.839328 217.158376 
L 199.511227 218.13385 
L 197.954822 222.762171 
L 197.063598 225.412601 
L 196.94151 225.77564 
L 196.800772 226.061996 
L 196.698543 226.26994 
L 196.208119 227.28652 
L 195.869313 227.942478 
L 195.657947 228.351459 
L 194.788826 230.120024 
L 194.645498 230.399816 
L 193.310993 233.005341 
L 193.265404 233.09446 
L 192.466911 234.653699 
L 192.382469 234.831247 
L 191.646833 236.354561 
L 191.618167 236.433663 
L 191.506268 236.732799 
L 191.063332 238.091348 
L 190.741966 239.038152 
L 190.2044 240.621916 
L 190.062453 241.040223 
L 189.906001 241.365611 
L 189.614337 241.689963 
L 189.454949 242.12416 
L 189.378968 242.381845 
L 189.120978 243.257147 
L 188.74418 244.555937 
L 188.658356 244.832966 
L 188.485672 245.399114 
L 188.444745 245.555245 
L 185.371481 244.856455 
L 177.152393 242.51656 
L 168.634215 240.434351 
L 166.905816 240.019153 
L 166.75679 240.799118 
L 166.581342 241.579428 
L 166.311782 242.978391 
L 165.977638 244.266818 
L 165.793556 245.162499 
L 165.564749 246.160772 
L 165.506382 246.344537 
L 165.443352 246.530029 
L 165.367371 246.685469 
L 165.082096 247.03331 
L 162.870527 249.835726 
L 161.60216 251.357659 
L 160.555174 252.415344 
L 160.17665 252.77562 
L 159.604546 253.320006 
L 157.684641 254.849193 
L 158.31632 254.959038 
L 182.178891 261.831917 
L 182.823522 261.936235 
L 183.635829 261.965596 
L 184.05079 261.884076 
L 184.480947 261.795648 
L 184.960664 261.617409 
L 185.318121 261.448152 
L 185.662281 261.259551 
L 186.045986 260.941071 
L 186.368733 260.619828 
L 186.479942 260.487876 
L 186.624479 260.316892 
L 186.865028 259.959379 
L 187.19451 259.430537 
L 187.383082 259.497204 
L 187.703066 259.613266 
L 188.007336 259.651608 
L 188.359612 259.64539 
L 192.171448 252.0941 
L 194.535153 247.373897 
L 195.254556 247.636418 
L 212.937787 252.325534 
L 213.246719 251.241942 
L 213.346013 250.93348 
L 218.14405 235.921056 
L 218.421899 235.154562 
L 218.666593 234.538673 
L 218.933563 233.945928 
L 219.012307 233.771144 
L 219.195871 233.371144 
L 219.394458 232.994633 
L 219.613076 232.578053 
L 219.716342 232.381507 
L 220.016467 231.782199 
L 220.343877 231.128313 
L 221.913406 227.994291 
L 221.933264 227.954568 
L 221.948115 227.962513 
L 222.410219 228.194982 
L 222.685823 228.335224 
L 229.877784 231.996361 
L 230.932368 231.580817 
L 230.899213 231.48479 
L 231.008695 231.230904 
L 231.094691 231.274773 
L 235.343592 229.856466 
L 238.875161 228.639887 
L 239.046809 228.499645 
L 239.098097 228.416053 
L 240.200169 228.012599 
L 244.653182 226.464759 
L 245.817421 226.078576 
L 248.307012 225.177713 
L 250.895206 224.215365 
L 251.238158 224.090322 
L 253.486509 223.177369 
L 254.41676 222.820893 
L 256.353934 222.045073 
L 256.815865 221.873053 
L 257.467058 221.605004 
L 258.277984 221.256818 
L 258.80778 221.000169 
L 259.256759 220.749046 
L 259.858564 220.348701 
L 260.384906 219.954919 
L 260.960464 219.498961 
L 261.410134 219.092744 
L 261.766382 218.741103 
L 262.174781 218.307598 
L 262.629977 217.824351 
L 263.000039 217.624697 
L 263.181358 217.529705 
L 263.368375 217.485491 
L 263.595801 217.492745 
L 266.369976 212.876168 
L 266.515894 212.634027 
L 266.686507 212.35078 
L 268.793775 208.873408 
L 275.723083 197.148028 
L 279.562203 190.657187 
" clip-path="url(#p0aff9ac9e8)" style="fill: #ffffff; stroke: #000000"/>
    <path d="M 280.893427 188.35667 
L 280.581732 188.89173 
L 280.380727 189.237153 
L 280.118074 189.704856 
L 279.562203 190.657187 
L 275.723083 197.148028 
L 268.793775 208.873408 
L 266.686507 212.35078 
L 266.515894 212.634027 
L 266.369976 212.876168 
L 263.595801 217.492745 
L 263.368375 217.485491 
L 263.181358 217.529705 
L 263.000039 217.624697 
L 262.629977 217.824351 
L 262.174781 218.307598 
L 261.766382 218.741103 
L 261.410134 219.092744 
L 260.960464 219.498961 
L 260.384906 219.954919 
L 259.858564 220.348701 
L 259.256759 220.749046 
L 258.80778 221.000169 
L 258.277984 221.256818 
L 257.467058 221.605004 
L 256.815865 221.873053 
L 256.353934 222.045073 
L 254.41676 222.820893 
L 253.486509 223.177369 
L 251.238158 224.090322 
L 250.895206 224.215365 
L 248.307012 225.177713 
L 245.817421 226.078576 
L 244.653182 226.464759 
L 240.200169 228.012599 
L 239.098097 228.416053 
L 239.046809 228.499645 
L 238.875161 228.639887 
L 235.343592 229.856466 
L 231.094691 231.274773 
L 231.008695 231.230904 
L 230.899213 231.48479 
L 230.932368 231.580817 
L 229.877784 231.996361 
L 222.685823 228.335224 
L 222.410219 228.194982 
L 221.948115 227.962513 
L 221.933264 227.954568 
L 221.913406 227.994291 
L 220.343877 231.128313 
L 220.016467 231.782199 
L 219.716342 232.381507 
L 219.613076 232.578053 
L 219.394458 232.994633 
L 219.195871 233.371144 
L 219.012307 233.771144 
L 218.933563 233.945928 
L 218.666593 234.538673 
L 218.421899 235.154562 
L 218.14405 235.921056 
L 213.346013 250.93348 
L 213.246719 251.241942 
L 212.937787 252.325534 
L 195.254556 247.636418 
L 194.535153 247.373897 
L 192.171448 252.0941 
L 188.359612 259.64539 
L 188.007336 259.651608 
L 187.703066 259.613266 
L 187.383082 259.497204 
L 187.19451 259.430537 
L 186.865028 259.959379 
L 186.624479 260.316892 
L 186.479942 260.487876 
L 186.368733 260.619828 
L 186.045986 260.941071 
L 185.662281 261.259551 
L 185.318121 261.448152 
L 184.960664 261.617409 
L 184.480947 261.795648 
L 184.05079 261.884076 
L 183.635829 261.965596 
L 182.823522 261.936235 
L 182.178891 261.831917 
L 158.31632 254.959038 
L 157.684641 254.849193 
L 155.495693 256.649883 
L 152.182742 259.394268 
L 150.881219 260.502039 
L 148.853386 262.179067 
L 148.139336 262.770085 
L 147.467594 263.331052 
L 147.337735 263.438133 
L 146.91414 263.775611 
L 146.586385 264.049532 
L 146.233418 264.286837 
L 145.922068 264.443314 
L 145.617107 264.56663 
L 145.348583 264.638132 
L 145.126511 264.670257 
L 144.706542 264.714816 
L 143.129761 264.881656 
L 142.184313 264.965248 
L 140.114518 265.204281 
L 139.225711 265.353503 
L 138.377485 265.794263 
L 137.638741 266.500307 
L 136.7805 267.668527 
L 136.64028 267.905833 
L 136.581049 268.011532 
L 136.52769 268.193225 
L 136.429087 268.594952 
L 136.468113 268.693052 
L 136.543231 268.881653 
L 136.90984 269.059545 
L 137.123451 269.101341 
L 137.508192 269.03053 
L 141.032854 268.7573 
L 141.780923 268.787697 
L 142.588395 268.917576 
L 143.12907 269.076471 
L 143.578049 269.26369 
L 144.026338 269.462308 
L 144.541629 269.784933 
L 144.987327 270.116885 
L 145.108552 270.217057 
L 145.34133 270.413258 
L 145.586369 270.636401 
L 146.479666 271.569388 
L 146.795506 271.888213 
L 148.385239 273.593566 
L 149.177169 274.430871 
L 150.27976 275.603236 
L 151.325018 276.73346 
L 151.798692 277.261957 
L 153.400858 279.04883 
L 153.955002 279.621541 
L 154.386886 280.055046 
L 154.585473 280.262991 
L 156.507451 280.122059 
L 157.758895 280.289589 
L 158.820213 280.561782 
L 159.733541 280.842956 
L 161.916791 281.600123 
L 163.899553 282.39805 
L 165.29208 283.086823 
L 166.838124 284.15418 
L 197.523629 305.329293 
L 199.440081 306.599413 
L 200.974555 307.404594 
L 203.133456 308.238099 
L 215.889827 311.115472 
L 215.992575 310.896819 
L 216.17044 310.514091 
L 216.892433 308.957961 
L 217.550015 307.5362 
L 218.074458 306.400795 
L 218.188257 306.154509 
L 218.388916 305.724802 
L 218.711318 305.033266 
L 219.236797 303.90546 
L 220.785258 300.56833 
L 222.124944 297.681285 
L 224.048131 293.451237 
L 224.316309 292.861254 
L 224.471207 292.520322 
L 224.555132 292.338284 
L 224.900846 291.588371 
L 224.960595 291.453656 
L 225.563264 290.177319 
L 226.32014 288.536905 
L 226.434457 288.292691 
L 226.681913 287.752105 
L 226.907267 287.264022 
L 227.431537 287.511345 
L 228.023153 287.710999 
L 228.461081 287.851586 
L 229.346262 288.12827 
L 230.557297 288.504781 
L 231.154786 288.693036 
L 231.42141 288.776283 
L 232.471677 289.10409 
L 234.214926 289.648476 
L 234.47568 289.729996 
L 234.720201 289.806334 
L 235.099416 289.924814 
L 237.557752 290.687163 
L 237.620781 290.706852 
L 240.424659 291.59148 
L 240.706825 291.679563 
L 241.670922 291.986989 
L 242.251487 292.24502 
L 243.1137 292.63742 
L 243.609305 292.867817 
L 244.372915 293.238111 
L 244.769226 293.421876 
L 245.165882 293.604259 
L 245.383637 293.705813 
L 245.523857 293.76868 
L 250.0772 295.805294 
L 250.405301 295.952444 
L 250.600952 296.037763 
L 250.852208 296.145535 
L 250.976023 296.201148 
L 251.194641 296.299248 
L 253.351297 297.267123 
L 253.880402 297.504429 
L 254.670261 297.858833 
L 258.500919 299.578002 
L 259.970118 300.237415 
L 264.562488 302.333441 
L 264.788359 301.86332 
L 275.033554 282.599431 
L 285.439863 262.81499 
L 293.367115 247.901358 
L 295.918527 243.59048 
L 300.786501 234.506894 
L 298.594272 222.820202 
L 298.163252 220.558373 
L 297.068778 214.813645 
L 293.91038 198.23991 
L 292.67016 191.732488 
L 291.125498 183.79018 
L 290.847303 181.933532 
L 290.700004 179.749768 
L 290.77374 178.228526 
L 290.937272 176.756334 
L 291.444619 174.40055 
L 292.285937 170.364283 
L 292.575356 167.761867 
L 292.540647 165.668605 
L 292.494367 164.003321 
L 292.310977 161.112477 
L 292.2179 161.159454 
L 291.721432 161.209195 
L 291.203724 161.014377 
L 290.990459 160.899696 
L 290.793426 160.519386 
L 290.545796 160.527676 
L 290.341338 160.684152 
L 290.014274 160.726639 
L 288.875593 160.615068 
L 288.518999 159.945293 
L 287.951385 159.400216 
L 287.68856 159.311096 
L 287.354761 159.367746 
L 286.715483 159.804706 
L 286.134918 160.006433 
L 285.53484 160.140457 
L 284.963772 160.159801 
L 284.005546 160.191925 
L 284.065295 161.213686 
L 284.207932 164.001939 
L 284.265609 165.2275 
L 284.345735 166.829226 
L 284.770884 175.02611 
L 284.851009 175.885868 
L 285.063756 177.709355 
L 285.113835 178.19122 
L 285.5471 181.809525 
L 285.247493 181.325588 
L 284.80283 180.955294 
L 283.473678 180.268594 
L 283.484212 180.845795 
L 283.600947 181.882755 
L 283.771904 183.155638 
L 283.527038 183.769454 
L 283.081339 184.579817 
L 283.012438 184.827139 
L 281.967352 186.512458 
L 280.893427 188.35667 
" clip-path="url(#p0aff9ac9e8)" style="fill: #ffffff; stroke: #000000"/>
    <path d="M 215.847347 59.81618 
L 202.761666 91.926001 
L 191.995483 118.548778 
L 190.053992 123.232367 
L 191.517665 123.101797 
L 192.869957 123.622004 
L 196.485623 125.207495 
L 200.503127 125.970189 
L 202.535968 127.631328 
L 202.887899 127.931846 
L 203.690363 128.552225 
L 204.246234 129.194366 
L 204.357443 129.355333 
L 204.555512 129.500066 
L 204.739594 129.521827 
L 204.939217 129.522518 
L 205.008118 129.538753 
L 205.065449 129.576404 
L 205.062514 129.653779 
L 205.07063 129.767077 
L 205.081163 129.958096 
L 205.142466 130.113191 
L 205.399594 130.334262 
L 205.82457 130.548424 
L 206.003989 130.622344 
L 206.295826 130.817854 
L 206.55986 130.941515 
L 206.74964 131.013363 
L 206.87121 131.076921 
L 206.941838 131.154641 
L 206.96964 131.275885 
L 207.019892 131.411981 
L 207.009012 132.193673 
L 207.050802 132.367075 
L 207.105198 132.507317 
L 207.180488 132.650668 
L 207.259232 132.782619 
L 207.356454 132.854467 
L 207.440896 132.891427 
L 207.608918 132.923897 
L 207.712011 132.905244 
L 207.850849 132.885555 
L 208.398604 132.626488 
L 208.778337 132.495573 
L 209.157034 132.343932 
L 209.363219 132.3011 
L 209.48358 132.300063 
L 209.623627 132.360167 
L 212.004428 133.490736 
L 213.065055 133.749803 
L 214.067834 133.847212 
L 214.88774 133.928041 
L 215.73303 133.951185 
L 216.585228 133.937368 
L 217.254552 133.939786 
L 218.116075 134.03685 
L 218.53518 134.159475 
L 218.764505 134.154984 
L 219.109529 134.099371 
L 219.262354 134.226487 
L 219.371145 134.328387 
L 219.531051 134.636158 
L 219.827378 134.965001 
L 220.265133 135.247211 
L 220.452668 135.578127 
L 220.48496 136.141166 
L 220.48496 136.351874 
L 220.477535 136.580544 
L 220.446797 136.846174 
L 220.479779 136.938056 
L 220.534002 136.987452 
L 220.675258 137.11215 
L 220.856577 137.599196 
L 221.169654 138.335637 
L 221.741757 139.135291 
L 222.127362 139.680369 
L 222.35047 140.055843 
L 223.449952 141.02959 
L 224.175917 141.419573 
L 224.907408 141.403338 
L 225.555838 141.389176 
L 227.165775 141.353597 
L 230.114535 142.36465 
L 230.203467 142.412318 
L 231.353373 143.029934 
L 231.87747 143.373285 
L 233.976795 138.669661 
L 234.225115 138.22303 
L 234.402116 137.737365 
L 235.101834 136.007142 
L 235.586386 134.809215 
L 235.662885 134.621305 
L 236.031739 133.708352 
L 236.108929 133.517334 
L 236.222901 133.235123 
L 236.431331 132.720098 
L 237.293372 130.588493 
L 237.623717 129.771913 
L 238.636684 127.267252 
L 238.950797 126.490396 
L 239.297029 125.634438 
L 239.351425 125.500414 
L 239.511331 125.111813 
L 239.653104 124.767081 
L 240.17133 123.511814 
L 240.543465 122.59368 
L 241.188614 121.001626 
L 241.408269 120.463112 
L 242.262021 118.365704 
L 243.059132 116.415447 
L 243.11819 116.270715 
L 243.28224 115.868642 
L 244.077798 113.918039 
L 244.152225 113.73082 
L 244.986463 111.696279 
L 245.120984 111.360528 
L 245.938818 109.356039 
L 246.634736 107.649996 
L 246.842993 107.139461 
L 247.007044 106.737388 
L 247.296463 106.038253 
L 247.529414 105.456906 
L 247.636651 105.193694 
L 247.687248 105.070032 
L 247.79293 104.810965 
L 248.047295 104.184368 
L 248.159885 103.911138 
L 248.31012 103.535318 
L 248.695207 102.598877 
L 249.419272 100.824094 
L 250.039728 99.303197 
L 251.159413 96.552249 
L 251.249382 96.332215 
L 251.459712 95.81788 
L 251.533448 95.63757 
L 251.581109 95.521162 
L 251.658471 95.331525 
L 251.692318 95.249314 
L 252.219869 93.958814 
L 253.400857 91.064516 
L 253.676289 90.389905 
L 253.822207 90.032738 
L 253.964499 89.68317 
L 254.097294 89.326003 
L 254.217137 89.02963 
L 254.316776 88.782652 
L 254.377042 88.633775 
L 255.854703 85.01098 
L 256.175205 84.225488 
L 256.905315 82.435507 
L 257.726775 80.422037 
L 258.025864 79.688359 
L 258.353965 78.884214 
L 258.58139 78.318757 
L 258.783086 77.816858 
L 260.567952 74.680418 
L 254.981956 72.525325 
L 257.397638 67.59234 
L 259.758407 62.723605 
L 250.082899 58.000638 
L 239.358159 52.769554 
L 230.912855 48.524652 
L 222.037566 43.865243 
L 215.847347 59.81618 
" clip-path="url(#p0aff9ac9e8)" style="fill: #ffffff; stroke: #000000"/>
    <path d="M 215.847347 59.81618 
L 222.037566 43.865243 
L 207.429844 36.713607 
L 208.793188 34.136062 
L 207.3138 33.209292 
L 208.5611 30.747463 
L 206.188416 29.454545 
L 203.172482 36.264212 
L 199.803237 43.751599 
L 170.535816 109.514243 
L 169.350337 112.026849 
L 168.237731 115.163634 
L 167.694466 118.285912 
L 167.460133 119.834788 
L 167.259647 122.865528 
L 168.477417 123.007497 
L 170.253304 123.263455 
L 173.604764 123.855165 
L 176.756082 124.608878 
L 179.162267 125.339101 
L 181.773601 126.348082 
L 184.983286 127.706975 
L 188.285012 129.476922 
L 188.662501 128.661379 
L 188.737446 127.941172 
L 188.309879 125.937028 
L 188.4798 124.743247 
L 188.930679 123.817514 
L 190.053992 123.232367 
L 191.995483 118.548778 
L 202.761666 91.926001 
L 215.847347 59.81618 
" clip-path="url(#p0aff9ac9e8)" style="fill: #ffffff; stroke: #000000"/>
    <path d="M 292.2179 161.159454 
L 292.310977 161.112477 
L 292.10082 157.815761 
L 291.927272 154.820599 
L 292.10082 142.424408 
L 292.181809 131.50939 
L 292.909155 98.695253 
L 293.08184 95.219953 
L 292.898104 93.619264 
L 292.308214 92.253807 
L 291.564116 90.945 
L 290.575153 89.654845 
L 289.37914 88.659337 
L 288.076409 87.877645 
L 286.726189 87.266591 
L 280.828325 84.736023 
L 271.325674 80.658997 
L 271.014324 79.031019 
L 260.567952 74.680418 
L 258.783086 77.816858 
L 258.58139 78.318757 
L 258.353965 78.884214 
L 258.025864 79.688359 
L 257.726775 80.422037 
L 256.905315 82.435507 
L 256.175205 84.225488 
L 255.854703 85.01098 
L 254.377042 88.633775 
L 254.316776 88.782652 
L 254.217137 89.02963 
L 254.097294 89.326003 
L 253.964499 89.68317 
L 253.822207 90.032738 
L 253.676289 90.389905 
L 253.400857 91.064516 
L 252.219869 93.958814 
L 251.692318 95.249314 
L 251.658471 95.331525 
L 251.581109 95.521162 
L 251.533448 95.63757 
L 251.459712 95.81788 
L 251.249382 96.332215 
L 251.159413 96.552249 
L 250.039728 99.303197 
L 249.419272 100.824094 
L 248.695207 102.598877 
L 248.31012 103.535318 
L 248.159885 103.911138 
L 248.047295 104.184368 
L 247.79293 104.810965 
L 247.687248 105.070032 
L 247.636651 105.193694 
L 247.529414 105.456906 
L 247.296463 106.038253 
L 247.007044 106.737388 
L 246.842993 107.139461 
L 246.634736 107.649996 
L 245.938818 109.356039 
L 245.120984 111.360528 
L 244.986463 111.696279 
L 244.152225 113.73082 
L 244.077798 113.918039 
L 243.28224 115.868642 
L 243.11819 116.270715 
L 243.059132 116.415447 
L 242.262021 118.365704 
L 241.408269 120.463112 
L 241.188614 121.001626 
L 240.543465 122.59368 
L 240.17133 123.511814 
L 239.653104 124.767081 
L 239.511331 125.111813 
L 239.351425 125.500414 
L 239.297029 125.634438 
L 238.950797 126.490396 
L 238.636684 127.267252 
L 237.623717 129.771913 
L 237.293372 130.588493 
L 236.431331 132.720098 
L 236.222901 133.235123 
L 236.108929 133.517334 
L 236.031739 133.708352 
L 235.662885 134.621305 
L 235.586386 134.809215 
L 235.101834 136.007142 
L 234.402116 137.737365 
L 234.225115 138.22303 
L 233.976795 138.669661 
L 231.87747 143.373285 
L 232.735021 144.274148 
L 233.048961 144.457222 
L 234.321645 145.198499 
L 234.544236 145.328378 
L 236.205114 146.06931 
L 236.460169 146.182954 
L 238.386291 146.888653 
L 241.436589 147.740812 
L 242.500498 148.419222 
L 242.868489 149.00955 
L 242.914595 149.290033 
L 242.823245 149.570517 
L 242.860372 149.743574 
L 242.98436 149.871725 
L 243.185883 150.053418 
L 243.813072 150.385369 
L 244.370843 150.655835 
L 244.773198 150.932864 
L 246.215631 152.182604 
L 246.606934 152.788476 
L 246.67169 153.076904 
L 246.7083 153.271723 
L 246.693794 153.479322 
L 246.510576 154.00471 
L 246.505741 154.410237 
L 246.671345 154.716972 
L 247.333245 155.273794 
L 247.899995 155.868612 
L 248.105144 156.592273 
L 248.011894 157.284846 
L 247.836102 157.545986 
L 247.593653 157.707643 
L 247.136212 157.732859 
L 246.940733 157.931132 
L 246.940733 158.163947 
L 247.145364 158.424741 
L 247.458441 158.610579 
L 248.070952 158.749784 
L 248.509571 158.945639 
L 248.897075 159.179836 
L 249.258676 159.64063 
L 249.435332 159.995034 
L 249.326714 160.341148 
L 249.109304 160.435793 
L 248.949053 160.587779 
L 248.905882 160.728712 
L 248.951643 160.842356 
L 249.428252 161.125948 
L 250.134704 161.077244 
L 250.779162 160.884498 
L 251.411015 160.576726 
L 252.054091 159.846502 
L 252.428644 159.690716 
L 253.331266 159.746329 
L 254.014232 159.511096 
L 254.564232 159.476554 
L 255.563557 159.562219 
L 255.88216 159.8655 
L 256.029287 160.463773 
L 256.467733 161.043738 
L 257.168659 161.315585 
L 257.737136 161.210577 
L 257.989601 160.997106 
L 258.230668 160.760836 
L 258.465519 160.75531 
L 258.870809 161.118004 
L 259.02398 161.343219 
L 258.978392 161.844773 
L 259.666194 162.230956 
L 259.751845 162.27897 
L 260.151264 162.190196 
L 260.665346 162.02612 
L 261.778815 162.588469 
L 262.482159 163.146327 
L 262.952724 163.127328 
L 263.458344 162.831646 
L 263.919239 162.824738 
L 264.496177 163.22232 
L 265.248045 163.167743 
L 266.481703 163.151508 
L 267.533696 162.920075 
L 268.063838 163.797103 
L 268.619191 164.810229 
L 269.058327 165.176722 
L 269.381593 165.271023 
L 269.651326 165.176722 
L 269.855093 164.898657 
L 270.171278 164.588467 
L 270.94715 164.522491 
L 271.512346 164.711783 
L 272.24401 165.138035 
L 273.734449 165.531817 
L 275.146317 164.989158 
L 276.578734 163.833373 
L 277.46236 163.449953 
L 278.456159 163.46377 
L 279.265359 163.346672 
L 279.586379 163.107294 
L 279.712093 162.705913 
L 280.285751 162.121112 
L 280.819346 161.346328 
L 281.02225 160.69037 
L 281.017933 160.310059 
L 284.005546 160.191925 
L 284.963772 160.159801 
L 285.53484 160.140457 
L 286.134918 160.006433 
L 286.715483 159.804706 
L 287.354761 159.367746 
L 287.68856 159.311096 
L 287.951385 159.400216 
L 288.518999 159.945293 
L 288.875593 160.615068 
L 290.014274 160.726639 
L 290.341338 160.684152 
L 290.545796 160.527676 
L 290.793426 160.519386 
L 290.990459 160.899696 
L 291.203724 161.014377 
L 291.721432 161.209195 
L 292.2179 161.159454 
" clip-path="url(#p0aff9ac9e8)" style="fill: #ffffff; stroke: #000000"/>
   </g>
   <g id="text_1">
    <!-- 1 -->
    <g transform="translate(189.602387 346.081551) scale(0.13 -0.13)">
     <defs>
      <path id="DejaVuSans-31" d="M 794 531 
L 1825 531 
L 1825 4091 
L 703 3866 
L 703 4441 
L 1819 4666 
L 2450 4666 
L 2450 531 
L 3481 531 
L 3481 0 
L 794 0 
L 794 531 
z
" transform="scale(0.015625)"/>
     </defs>
     <use xlink:href="#DejaVuSans-31"/>
    </g>
   </g>
   <g id="text_2">
    <!-- 2 -->
    <g transform="translate(199.084587 178.981538) scale(0.13 -0.13)">
     <defs>
      <path id="DejaVuSans-32" d="M 1228 531 
L 3431 531 
L 3431 0 
L 469 0 
L 469 531 
Q 828 903 1448 1529 
Q 2069 2156 2228 2338 
Q 2531 2678 2651 2914 
Q 2772 3150 2772 3378 
Q 2772 3750 2511 3984 
Q 2250 4219 1831 4219 
Q 1534 4219 1204 4116 
Q 875 4013 500 3803 
L 500 4441 
Q 881 4594 1212 4672 
Q 1544 4750 1819 4750 
Q 2544 4750 2975 4387 
Q 3406 4025 3406 3419 
Q 3406 3131 3298 2873 
Q 3191 2616 2906 2266 
Q 2828 2175 2409 1742 
Q 1991 1309 1228 531 
z
" transform="scale(0.015625)"/>
     </defs>
     <use xlink:href="#DejaVuSans-32"/>
    </g>
   </g>
   <g id="text_3">
    <!-- 3 -->
    <g transform="translate(228.172631 215.784952) scale(0.13 -0.13)">
     <defs>
      <path id="DejaVuSans-33" d="M 2597 2516 
Q 3050 2419 3304 2112 
Q 3559 1806 3559 1356 
Q 3559 666 3084 287 
Q 2609 -91 1734 -91 
Q 1441 -91 1130 -33 
Q 819 25 488 141 
L 488 750 
Q 750 597 1062 519 
Q 1375 441 1716 441 
Q 2309 441 2620 675 
Q 2931 909 2931 1356 
Q 2931 1769 2642 2001 
Q 2353 2234 1838 2234 
L 1294 2234 
L 1294 2753 
L 1863 2753 
Q 2328 2753 2575 2939 
Q 2822 3125 2822 3475 
Q 2822 3834 2567 4026 
Q 2313 4219 1838 4219 
Q 1578 4219 1281 4162 
Q 984 4106 628 3988 
L 628 4550 
Q 988 4650 1302 4700 
Q 1616 4750 1894 4750 
Q 2613 4750 3031 4423 
Q 3450 4097 3450 3541 
Q 3450 3153 3228 2886 
Q 3006 2619 2597 2516 
z
" transform="scale(0.015625)"/>
     </defs>
     <use xlink:href="#DejaVuSans-33"/>
    </g>
   </g>
   <g id="text_4">
    <!-- 4 -->
    <g transform="translate(232.794114 260.184345) scale(0.13 -0.13)">
     <defs>
      <path id="DejaVuSans-34" d="M 2419 4116 
L 825 1625 
L 2419 1625 
L 2419 4116 
z
M 2253 4666 
L 3047 4666 
L 3047 1625 
L 3713 1625 
L 3713 1100 
L 3047 1100 
L 3047 0 
L 2419 0 
L 2419 1100 
L 313 1100 
L 313 1709 
L 2253 4666 
z
" transform="scale(0.015625)"/>
     </defs>
     <use xlink:href="#DejaVuSans-34"/>
    </g>
   </g>
   <g id="text_5">
    <!-- 5 -->
    <g transform="translate(222.648827 97.580504) scale(0.13 -0.13)">
     <defs>
      <path id="DejaVuSans-35" d="M 691 4666 
L 3169 4666 
L 3169 4134 
L 1269 4134 
L 1269 2991 
Q 1406 3038 1543 3061 
Q 1681 3084 1819 3084 
Q 2600 3084 3056 2656 
Q 3513 2228 3513 1497 
Q 3513 744 3044 326 
Q 2575 -91 1722 -91 
Q 1428 -91 1123 -41 
Q 819 9 494 109 
L 494 744 
Q 775 591 1075 516 
Q 1375 441 1709 441 
Q 2250 441 2565 725 
Q 2881 1009 2881 1497 
Q 2881 1984 2565 2268 
Q 2250 2553 1709 2553 
Q 1456 2553 1204 2497 
Q 953 2441 691 2322 
L 691 4666 
z
" transform="scale(0.015625)"/>
     </defs>
     <use xlink:href="#DejaVuSans-35"/>
    </g>
   </g>
   <g id="text_6">
    <!-- 6 -->
    <g transform="translate(190.369209 86.141758) scale(0.13 -0.13)">
     <defs>
      <path id="DejaVuSans-36" d="M 2113 2584 
Q 1688 2584 1439 2293 
Q 1191 2003 1191 1497 
Q 1191 994 1439 701 
Q 1688 409 2113 409 
Q 2538 409 2786 701 
Q 3034 994 3034 1497 
Q 3034 2003 2786 2293 
Q 2538 2584 2113 2584 
z
M 3366 4563 
L 3366 3988 
Q 3128 4100 2886 4159 
Q 2644 4219 2406 4219 
Q 1781 4219 1451 3797 
Q 1122 3375 1075 2522 
Q 1259 2794 1537 2939 
Q 1816 3084 2150 3084 
Q 2853 3084 3261 2657 
Q 3669 2231 3669 1497 
Q 3669 778 3244 343 
Q 2819 -91 2113 -91 
Q 1303 -91 875 529 
Q 447 1150 447 2328 
Q 447 3434 972 4092 
Q 1497 4750 2381 4750 
Q 2619 4750 2861 4703 
Q 3103 4656 3366 4563 
z
" transform="scale(0.015625)"/>
     </defs>
     <use xlink:href="#DejaVuSans-36"/>
    </g>
   </g>
   <g id="text_7">
    <!-- 7 -->
    <g transform="translate(263.361225 127.450889) scale(0.13 -0.13)">
     <defs>
      <path id="DejaVuSans-37" d="M 525 4666 
L 3525 4666 
L 3525 4397 
L 1831 0 
L 1172 0 
L 2766 4134 
L 525 4134 
L 525 4666 
z
" transform="scale(0.015625)"/>
     </defs>
     <use xlink:href="#DejaVuSans-37"/>
    </g>
   </g>
  </g>
 </g>
 <defs>
  <clipPath id="p0aff9ac9e8">
   <rect x="122.734849" y="10.8" width="186.530302" height="410.4"/>
  </clipPath>
 </defs>
</svg>
