<?xml version="1.0" encoding="utf-8" standalone="no"?>
<!DOCTYPE svg PUBLIC "-//W3C//DTD SVG 1.1//EN"
  "http://www.w3.org/Graphics/SVG/1.1/DTD/svg11.dtd">
<svg xmlns:xlink="http://www.w3.org/1999/xlink" width="432pt" height="432pt" viewBox="0 0 432 432" xmlns="http://www.w3.org/2000/svg" version="1.1">
 <metadata>
  <rdf:RDF xmlns:dc="http://purl.org/dc/elements/1.1/" xmlns:cc="http://creativecommons.org/ns#" xmlns:rdf="http://www.w3.org/1999/02/22-rdf-syntax-ns#">
   <cc:Work>
    <dc:type rdf:resource="http://purl.org/dc/dcmitype/StillImage"/>
    <dc:date>2025-04-20T13:46:46.081940</dc:date>
    <dc:format>image/svg+xml</dc:format>
    <dc:creator>
     <cc:Agent>
      <dc:title>Matplotlib v3.10.1, https://matplotlib.org/</dc:title>
     </cc:Agent>
    </dc:creator>
   </cc:Work>
  </rdf:RDF>
 </metadata>
 <defs>
  <style type="text/css">*{stroke-linejoin: round; stroke-linecap: butt}</style>
 </defs>
 <g id="figure_1">
  <g id="patch_1">
   <path d="M 0 432 
L 432 432 
L 432 0 
L 0 0 
z
" style="fill: #ffffff"/>
  </g>
  <g id="axes_1">
   <g id="PatchCollection_1">
    <path d="M 245.422239 189.036782 
L 246.027464 188.947732 
L 247.701326 188.988711 
L 249.476652 189.132923 
L 262.635548 190.002533 
L 262.682225 189.078548 
L 262.823444 185.948032 
L 262.869726 185.634389 
L 262.969213 185.361725 
L 263.091642 185.136738 
L 263.252838 184.927512 
L 263.456162 184.738774 
L 264.663249 183.839613 
L 264.86776 183.75214 
L 265.078797 183.698947 
L 265.348182 183.702493 
L 265.606886 183.765142 
L 270.605925 185.942122 
L 271.176142 186.244732 
L 278.249164 172.278572 
L 285.668906 157.608293 
L 295.109426 161.992591 
L 303.542226 165.550229 
L 312.420243 168.929373 
L 316.261048 169.607094 
L 322.801631 169.521196 
L 328.226305 168.302876 
L 334.85253 166.638521 
L 340.654382 166.385952 
L 341.606721 158.661912 
L 343.173581 150.773169 
L 343.582207 150.174253 
L 347.44734 144.373835 
L 348.294654 142.113323 
L 350.119427 131.849013 
L 351.859548 120.164643 
L 348.782592 119.27415 
L 348.761429 113.103744 
L 342.611276 112.740848 
L 343.00131 112.064704 
L 343.26931 111.078463 
L 342.995574 110.997689 
L 343.173977 110.175756 
L 343.397475 109.526799 
L 343.664288 108.571292 
L 343.567571 108.384525 
L 344.236878 106.058999 
L 344.573708 105.041237 
L 345.271497 102.84692 
L 345.600415 101.998588 
L 345.658761 101.781481 
L 345.663904 101.508423 
L 345.781586 100.775933 
L 345.871975 100.777904 
L 345.97957 100.77948 
L 345.950496 100.450864 
L 345.995591 100.087969 
L 346.133448 99.393699 
L 346.299192 98.670272 
L 346.567588 97.699005 
L 346.602991 97.575675 
L 346.913318 96.420005 
L 347.01676 96.33529 
L 347.056515 96.017313 
L 347.107741 95.269062 
L 347.066602 93.726855 
L 347.011222 93.728431 
L 346.88009 90.761041 
L 346.80058 89.947382 
L 346.762209 89.830751 
L 346.711774 89.80317 
L 346.478386 89.749977 
L 346.345672 89.622707 
L 346.215727 89.630982 
L 346.053938 89.723577 
L 345.588152 90.00885 
L 345.408958 90.083714 
L 344.714136 90.374504 
L 344.607134 90.118783 
L 344.500725 89.987967 
L 344.470661 90.004516 
L 343.98213 89.126632 
L 344.171213 89.021427 
L 344.042059 88.780285 
L 344.312828 88.622282 
L 344.347639 88.370501 
L 344.428137 88.32243 
L 343.84902 87.205767 
L 343.122552 87.607277 
L 342.977971 87.3421 
L 342.570532 87.529655 
L 342.582004 86.944136 
L 342.509218 86.63798 
L 342.434257 86.60961 
L 341.518113 86.427571 
L 341.463524 86.701024 
L 340.937611 86.545778 
L 339.98725 86.176578 
L 339.333765 85.938194 
L 339.267111 86.059159 
L 338.62134 85.789647 
L 337.2046 85.336126 
L 335.388529 85.13281 
L 334.930655 85.210827 
L 334.62646 85.150147 
L 334.324046 85.089862 
L 332.983255 84.942103 
L 332.973761 84.685594 
L 331.349147 84.452726 
L 326.505766 83.487763 
L 322.436518 82.843534 
L 320.53006 82.474334 
L 317.578698 81.959346 
L 317.164139 82.003871 
L 316.146728 82.191426 
L 315.666701 82.327758 
L 315.183115 82.503886 
L 314.776665 82.697352 
L 314.077294 83.13393 
L 313.736904 83.30533 
L 313.406008 83.441662 
L 312.654026 84.242317 
L 308.701077 88.509985 
L 308.355347 89.20583 
L 307.917251 89.816567 
L 307.6449 90.190101 
L 307.398854 90.489559 
L 306.997151 90.984058 
L 307.050949 91.038433 
L 306.139947 92.106237 
L 305.126294 93.074746 
L 302.661288 91.304399 
L 302.449459 91.445459 
L 302.27521 91.508109 
L 302.096213 91.559332 
L 301.915042 91.575487 
L 301.719827 91.571153 
L 301.501273 91.55027 
L 301.266897 91.52978 
L 301.276193 91.381233 
L 301.255821 91.224806 
L 301.19609 91.032917 
L 301.126865 90.896979 
L 301.050124 90.78153 
L 300.955384 90.660171 
L 300.828603 90.558513 
L 300.710525 90.484042 
L 300.574251 90.422575 
L 300.439163 90.383172 
L 300.301504 90.358349 
L 300.152373 90.352438 
L 300.006803 90.365047 
L 299.850354 90.403661 
L 299.709333 90.461189 
L 299.574245 90.54354 
L 299.465858 90.623526 
L 299.362416 90.721244 
L 299.269457 90.841421 
L 299.008577 90.737793 
L 298.630806 90.588458 
L 297.612407 90.185766 
L 297.420554 90.10972 
L 296.810978 89.87173 
L 296.259155 89.658957 
L 295.711288 89.446185 
L 294.274769 88.883519 
L 292.879587 88.337403 
L 292.703558 88.26569 
L 292.312139 88.141179 
L 292.189314 88.103353 
L 291.809367 87.971749 
L 291.571827 88.357104 
L 290.852084 88.793682 
L 289.892624 89.221197 
L 288.988149 89.538386 
L 287.036595 89.725547 
L 285.982792 89.755493 
L 285.109567 90.296881 
L 283.814663 93.681542 
L 282.94124 95.215869 
L 279.689244 97.141068 
L 277.972857 97.893258 
L 276.090924 97.998463 
L 269.0181 95.902652 
L 267.895665 95.513751 
L 266.206771 95.211929 
L 265.17235 95.274185 
L 263.970603 95.720613 
L 262.947061 96.283673 
L 261.983448 96.795115 
L 261.250255 96.585889 
L 259.965833 95.862462 
L 256.260907 93.406514 
L 254.494284 92.378507 
L 250.54529 96.91017 
L 246.7478 101.305107 
L 242.887217 107.786792 
L 241.719686 111.074129 
L 241.051763 112.877574 
L 239.184664 121.193832 
L 238.203646 126.727891 
L 238.266937 133.021233 
L 237.539085 136.721506 
L 235.577049 142.4774 
L 231.747913 148.961449 
L 229.859058 151.119122 
L 217.500602 157.346661 
L 211.811487 161.424016 
L 209.596285 161.360578 
L 206.527834 159.744294 
L 201.300748 162.232158 
L 202.283546 169.190611 
L 225.580157 172.504742 
L 236.622545 180.447859 
L 237.256251 180.526664 
L 238.67853 181.640174 
L 242.02131 184.983069 
L 243.120208 186.124161 
L 243.597861 186.651364 
L 244.502139 187.313717 
L 245.422239 187.974888 
L 245.422239 189.036782 
" clip-path="url(#pac5af25c65)" style="fill: #ffffff; stroke: #000000"/>
    <path d="M 278.274877 245.301747 
L 278.701105 246.727324 
L 279.986516 246.755694 
L 281.379522 246.768696 
L 283.313077 247.917669 
L 290.629377 252.266111 
L 292.057787 253.048247 
L 302.255629 258.631953 
L 303.511965 258.534629 
L 304.982701 257.942806 
L 306.066568 254.101866 
L 306.82389 251.210128 
L 309.153018 243.861592 
L 308.824495 243.42462 
L 308.84546 243.268193 
L 309.791668 242.832009 
L 314.974055 247.008263 
L 315.910967 247.673768 
L 325.958492 258.040918 
L 327.253594 259.526386 
L 328.238568 260.924381 
L 329.064127 262.351534 
L 329.795539 264.024951 
L 330.432805 266.02462 
L 330.838266 268.255581 
L 330.968607 269.76272 
L 330.954169 270.791515 
L 331.454567 270.829736 
L 332.694487 261.156461 
L 332.748878 260.040981 
L 332.811181 255.266205 
L 333.673132 256.219742 
L 334.110041 256.672475 
L 334.204385 255.159031 
L 334.819697 245.119314 
L 335.965669 232.172888 
L 336.517491 223.132021 
L 337.17513 215.641242 
L 338.002864 208.766321 
L 339.409517 196.37665 
L 339.955011 189.797641 
L 340.527997 185.066602 
L 342.140743 180.357234 
L 344.581026 176.623468 
L 348.16728 173.250628 
L 352.283997 170.514135 
L 352.962996 165.656221 
L 340.654382 166.385952 
L 334.85253 166.638521 
L 328.226305 168.302876 
L 322.801631 169.521196 
L 316.261048 169.607094 
L 312.420243 168.929373 
L 303.542226 165.550229 
L 295.109426 161.992591 
L 285.668906 157.608293 
L 278.249164 172.278572 
L 271.176142 186.244732 
L 270.605925 185.942122 
L 265.606886 183.765142 
L 265.348182 183.702493 
L 265.078797 183.698947 
L 264.86776 183.75214 
L 264.663249 183.839613 
L 263.456162 184.738774 
L 263.252838 184.927512 
L 263.091642 185.136738 
L 262.969213 185.361725 
L 262.869726 185.634389 
L 262.823444 185.948032 
L 262.682225 189.078548 
L 262.635548 190.002533 
L 249.476652 189.132923 
L 247.701326 188.988711 
L 246.027464 188.947732 
L 245.422239 189.036782 
L 245.422239 187.974888 
L 244.502139 187.313717 
L 243.597861 186.651364 
L 243.120208 186.124161 
L 242.02131 184.983069 
L 238.67853 181.640174 
L 237.256251 180.526664 
L 236.622545 180.447859 
L 225.580157 172.504742 
L 202.283546 169.190611 
L 201.300748 162.232158 
L 206.527834 159.744294 
L 191.840647 148.728188 
L 183.529485 144.574787 
L 161.899616 147.02443 
L 153.908273 145.746218 
L 140.482762 149.367293 
L 124.073651 152.775202 
L 108.149708 150.966634 
L 91.829996 148.609586 
L 91.484464 149.301492 
L 91.640912 151.060412 
L 93.756035 153.174742 
L 93.977951 153.390666 
L 98.496964 157.905781 
L 98.722835 158.129586 
L 100.391555 159.797881 
L 92.658125 167.678349 
L 92.378258 167.963622 
L 91.530746 168.827321 
L 91.720818 169.003844 
L 87.740772 173.100899 
L 91.987433 177.356352 
L 92.067932 177.512779 
L 92.103732 177.676299 
L 92.094831 177.856762 
L 92.037671 178.025798 
L 91.914253 178.186165 
L 91.74831 178.3091 
L 91.555667 178.413123 
L 90.183824 179.007704 
L 89.791021 179.224023 
L 89.445093 179.491565 
L 89.169182 179.786688 
L 88.953397 180.097573 
L 84.643246 188.077335 
L 79.067661 198.67814 
L 79.037004 198.81723 
L 79.048872 198.963019 
L 79.100691 199.099745 
L 79.184355 199.219922 
L 79.302433 199.337735 
L 79.645987 199.577696 
L 80.071227 199.844843 
L 80.469766 200.066679 
L 80.908059 200.285756 
L 84.480666 201.80905 
L 89.18006 203.858366 
L 92.435023 205.396239 
L 95.584962 206.724492 
L 99.348037 208.749772 
L 99.270109 209.533091 
L 99.371178 210.166287 
L 99.721456 210.717919 
L 100.262599 211.100122 
L 100.737285 211.834582 
L 101.249155 212.368089 
L 101.713359 212.444924 
L 102.367239 212.48866 
L 102.883262 212.288497 
L 104.172827 212.091879 
L 104.69597 212.237274 
L 104.957839 212.507574 
L 105.820779 212.794423 
L 106.101833 213.210905 
L 106.324737 213.515879 
L 106.550213 213.844889 
L 106.749186 213.945365 
L 107.009077 214.099428 
L 106.938072 214.280679 
L 107.982183 214.743656 
L 108.451134 215.094337 
L 108.914744 215.534461 
L 109.255331 215.997439 
L 109.596117 216.236611 
L 109.72804 216.4813 
L 109.967361 217.007321 
L 110.312695 217.510883 
L 110.677412 217.828072 
L 111.073973 218.185057 
L 111.449766 218.563319 
L 112.027895 219.367521 
L 112.519788 220.185514 
L 112.845146 220.756848 
L 113.13332 221.153629 
L 113.473512 221.352217 
L 113.829724 221.493277 
L 114.139259 221.737966 
L 114.470551 221.950344 
L 114.632142 222.01457 
L 114.900735 222.08116 
L 115.122058 222.289993 
L 115.186338 222.563839 
L 115.207106 222.839655 
L 115.21739 223.142265 
L 115.437724 223.512647 
L 116.007545 223.976019 
L 116.192871 224.182487 
L 116.234406 224.396442 
L 116.251217 224.889365 
L 116.362769 225.565903 
L 116.593387 226.245594 
L 116.735002 226.595092 
L 116.901538 227.026154 
L 117.094972 227.419783 
L 117.402529 227.849663 
L 117.73125 228.129419 
L 117.99114 228.406812 
L 118.341815 228.54669 
L 118.763692 228.654259 
L 119.330942 228.71612 
L 120.107647 228.759857 
L 120.72019 228.751582 
L 121.239378 228.690903 
L 122.013117 228.606582 
L 122.521427 228.448184 
L 123.150584 228.208224 
L 123.412452 228.208224 
L 123.631006 228.285453 
L 124.596795 228.889885 
L 125.435605 229.246476 
L 125.810013 229.217712 
L 126.029951 229.068771 
L 126.585532 227.529322 
L 126.926713 227.093532 
L 127.318922 226.730242 
L 127.696693 226.447728 
L 128.220233 226.163637 
L 129.161892 225.792861 
L 130.293623 225.470549 
L 130.781956 225.404354 
L 131.192757 225.37559 
L 132.087343 225.301119 
L 132.606333 225.145086 
L 133.17121 225.094651 
L 134.261208 225.084407 
L 135.313232 225.086377 
L 136.464346 225.111594 
L 137.693981 225.20616 
L 138.515979 225.17976 
L 139.235326 225.041064 
L 139.950125 224.757367 
L 140.91532 224.497312 
L 144.712217 224.09265 
L 145.607198 223.888152 
L 147.94839 222.89403 
L 148.931188 222.318362 
L 149.955521 222.032301 
L 150.541561 222.008266 
L 151.493703 221.518101 
L 152.417561 221.203276 
L 153.355659 220.741087 
L 153.922712 220.250921 
L 154.398584 219.929004 
L 154.888698 219.683922 
L 155.292972 219.527495 
L 155.669359 219.51922 
L 156.061964 219.499519 
L 156.318492 219.560986 
L 156.49294 219.802129 
L 156.846976 220.382131 
L 157.242153 220.782459 
L 157.921547 221.151659 
L 158.753435 221.456239 
L 159.655932 221.689895 
L 160.58513 221.948374 
L 161.40614 222.348702 
L 161.976752 222.778976 
L 162.30033 223.191124 
L 162.586328 223.693504 
L 162.893094 224.271142 
L 163.282535 224.94374 
L 163.760188 225.569055 
L 164.207777 226.043065 
L 165.033929 226.696356 
L 165.897067 227.184157 
L 166.857713 227.706238 
L 167.655186 228.10499 
L 168.437232 228.471038 
L 168.883832 228.722425 
L 169.1726 228.980904 
L 169.414492 229.185402 
L 170.67874 229.967539 
L 172.211778 230.915165 
L 173.107155 231.427001 
L 173.652055 231.757981 
L 174.117841 231.991637 
L 174.465747 232.160673 
L 174.687069 232.334831 
L 175.245617 232.692998 
L 175.696766 232.938475 
L 176.685498 233.358504 
L 177.039733 233.45701 
L 177.682141 233.604769 
L 178.570991 233.880191 
L 179.445403 234.166252 
L 180.02808 234.336076 
L 180.577332 234.413699 
L 181.215983 234.580765 
L 181.643794 234.736404 
L 181.936319 234.907016 
L 182.550246 235.254545 
L 183.139846 235.555184 
L 184.333287 236.044956 
L 185.135111 236.305799 
L 185.804221 236.34796 
L 186.701377 236.377511 
L 187.231839 236.420066 
L 187.762301 236.483504 
L 188.398974 236.63205 
L 190.181421 236.971699 
L 191.242542 237.205354 
L 192.664228 237.396456 
L 193.788838 237.523725 
L 196.377658 237.990643 
L 197.69333 237.990643 
L 200.877881 238.30468 
L 202.48865 238.264095 
L 203.703056 238.115943 
L 204.550173 238.183321 
L 205.949706 238.186473 
L 207.040693 238.225087 
L 208.961194 238.372452 
L 210.529637 238.80903 
L 212.510661 238.80903 
L 213.205285 238.903201 
L 216.803011 239.029289 
L 217.209263 239.05096 
L 218.250606 239.106517 
L 220.314304 239.216844 
L 221.987771 239.09115 
L 225.290598 239.218814 
L 228.956758 239.391002 
L 232.670782 239.591166 
L 234.386377 237.185259 
L 261.375058 238.020589 
L 262.413434 238.051717 
L 265.131804 238.13328 
L 267.838504 238.20972 
L 268.885385 238.408308 
L 270.259602 238.791693 
L 271.006244 238.908324 
L 271.72124 238.969791 
L 272.401426 238.971367 
L 275.151046 238.967427 
L 276.146304 238.953636 
L 276.503901 238.972943 
L 276.748167 239.099819 
L 276.942393 239.337021 
L 277.032781 239.641601 
L 277.053153 239.993464 
L 276.997377 240.524214 
L 276.91945 240.982857 
L 276.833808 241.293347 
L 276.718697 241.611324 
L 276.554337 241.97619 
L 276.343299 242.339873 
L 275.919642 242.902145 
L 276.150854 243.29144 
L 276.336377 243.920301 
L 276.495792 244.625603 
L 276.664899 245.001107 
L 276.991246 245.223337 
L 277.383653 245.356517 
L 278.274877 245.301747 
" clip-path="url(#pac5af25c65)" style="fill: #ffffff; stroke: #000000"/>
    <path d="M 224.47216 290.379207 
L 222.133737 292.301647 
L 219.556389 294.349386 
L 217.230426 296.078361 
L 216.163371 296.815185 
L 214.387649 298.020896 
L 212.514814 299.201785 
L 209.398895 301.074184 
L 208.369221 301.556863 
L 207.349437 302.027326 
L 206.077673 302.563592 
L 204.670822 303.129804 
L 203.170418 303.733054 
L 202.177137 304.184211 
L 201.066174 304.709444 
L 197.847208 306.304845 
L 196.123306 307.12993 
L 194.438763 307.985748 
L 192.829774 308.760792 
L 191.819682 309.222982 
L 190.730079 309.6635 
L 189.980075 309.902278 
L 189.263694 310.102836 
L 187.816297 310.387715 
L 184.154686 311.076468 
L 181.286592 311.565451 
L 180.509293 311.701389 
L 179.260869 311.786892 
L 175.258473 317.250421 
L 170.986692 322.994494 
L 171.130285 323.158802 
L 171.732939 323.817215 
L 171.79623 323.892079 
L 173.074323 325.402765 
L 174.82275 327.469812 
L 175.069587 327.761389 
L 176.274301 329.080973 
L 177.089575 329.991561 
L 177.392583 330.330421 
L 177.750575 330.737054 
L 177.907815 330.922245 
L 179.034602 332.250103 
L 179.838404 333.191819 
L 180.345922 333.798221 
L 182.259303 336.069372 
L 182.554796 336.478763 
L 183.039173 336.141085 
L 183.118683 336.073707 
L 184.408247 334.907791 
L 185.745676 333.005052 
L 186.281676 332.274533 
L 187.430812 331.1823 
L 187.620884 331.023115 
L 187.871875 330.859989 
L 188.152137 330.713412 
L 188.288412 330.664947 
L 188.417368 330.658249 
L 188.543358 330.712624 
L 188.634142 330.811524 
L 189.008352 331.555046 
L 189.081731 331.700835 
L 189.200996 331.947099 
L 189.391859 332.327332 
L 191.325415 336.180093 
L 192.99631 339.510379 
L 193.897621 341.305943 
L 193.989789 341.489558 
L 194.064552 341.638893 
L 194.85174 343.207894 
L 195.694901 344.884464 
L 196.178092 345.851003 
L 196.420182 346.331712 
L 196.636165 346.763955 
L 196.783317 347.056715 
L 198.900813 351.276706 
L 199.5363 352.543491 
L 199.577241 352.625054 
L 199.832187 353.142012 
L 200.055883 353.53249 
L 200.135393 353.670792 
L 206.294447 349.9453 
L 210.501353 347.354597 
L 213.088987 345.749739 
L 214.233969 345.046013 
L 215.853638 344.005004 
L 219.945038 341.136513 
L 224.537232 337.872423 
L 226.131584 336.749063 
L 229.193706 334.558293 
L 230.958154 333.282839 
L 234.264937 337.178548 
L 244.60024 349.459076 
L 258.026938 365.322458 
L 258.668556 366.077013 
L 260.337869 365.246805 
L 261.154131 364.859086 
L 261.324821 364.777917 
L 262.623681 367.170033 
L 265.986239 365.575027 
L 279.673223 359.201698 
L 290.017625 354.154652 
L 290.720754 353.813034 
L 292.173096 352.01747 
L 292.286032 351.807061 
L 292.586073 351.520212 
L 292.748455 351.336203 
L 293.00973 351.097425 
L 293.101701 351.009558 
L 292.809571 350.843674 
L 290.82202 349.715191 
L 290.489344 349.53 
L 289.928621 349.268762 
L 288.670109 348.622958 
L 288.058753 348.309315 
L 285.181166 346.833304 
L 284.548844 346.418791 
L 284.09631 346.020039 
L 283.658609 345.621288 
L 282.57138 345.55982 
L 282.216157 345.482985 
L 253.35741 315.742493 
L 255.228069 314.146304 
L 257.631168 311.997301 
L 259.55345 310.195038 
L 259.834504 309.93183 
L 261.673913 308.257624 
L 264.415819 305.884816 
L 266.082561 304.383192 
L 266.319113 304.060093 
L 266.400403 303.759453 
L 266.446883 303.4399 
L 266.457761 302.874083 
L 266.479122 289.199107 
L 266.464288 286.831814 
L 266.48466 286.065832 
L 266.493362 284.906616 
L 266.506416 283.449123 
L 266.517888 282.730818 
L 266.535491 281.33834 
L 266.559818 276.722355 
L 266.557247 275.387798 
L 266.556456 275.030419 
L 266.560016 272.002743 
L 266.561203 271.122889 
L 266.56239 270.031838 
L 266.562983 269.59723 
L 266.563576 269.116128 
L 266.568719 268.123583 
L 266.571092 267.651149 
L 266.57307 265.825638 
L 266.568917 265.205445 
L 266.564763 265.165255 
L 266.487033 264.956817 
L 265.757401 264.283037 
L 261.099542 259.719458 
L 255.153504 265.476534 
L 252.587232 267.863133 
L 251.536988 268.82258 
L 250.241095 269.935696 
L 248.521544 271.421953 
L 245.117451 274.240402 
L 242.857944 276.217612 
L 242.248961 276.72866 
L 241.294051 277.435144 
L 240.255477 278.175514 
L 239.049972 279.032515 
L 237.940788 279.843021 
L 236.878678 280.605062 
L 233.746936 282.880153 
L 232.520267 283.80729 
L 224.47216 290.379207 
" clip-path="url(#pac5af25c65)" style="fill: #ffffff; stroke: #000000"/>
    <path d="M 283.658609 345.621288 
L 284.09631 346.020039 
L 284.548844 346.418791 
L 285.181166 346.833304 
L 288.058753 348.309315 
L 288.670109 348.622958 
L 289.928621 349.268762 
L 290.489344 349.53 
L 290.82202 349.715191 
L 292.809571 350.843674 
L 293.101701 351.009558 
L 293.248062 350.870073 
L 293.520611 350.563129 
L 294.748664 348.946057 
L 298.679857 344.323769 
L 300.522826 342.227564 
L 306.231917 335.447997 
L 309.070343 332.006203 
L 314.847868 325.315292 
L 315.329476 324.844828 
L 315.753727 324.202175 
L 316.12062 323.811698 
L 316.281222 323.811698 
L 316.505314 323.896019 
L 317.320192 323.94409 
L 317.580082 323.987433 
L 317.758288 323.906264 
L 317.823161 323.695067 
L 317.871817 323.451561 
L 318.04211 323.070146 
L 318.460823 322.438527 
L 318.770952 321.900685 
L 319.10165 321.32147 
L 319.349673 320.907746 
L 319.763244 320.555883 
L 319.9905 320.121275 
L 320.42464 319.397454 
L 320.714198 318.797356 
L 321.086234 318.073141 
L 321.499606 317.36981 
L 321.892409 316.728734 
L 322.429991 316.025008 
L 322.967376 315.342559 
L 323.316468 314.588004 
L 323.865917 313.375594 
L 324.097129 312.869274 
L 324.638864 311.445668 
L 325.299469 309.912129 
L 325.460269 309.547657 
L 325.798879 308.785222 
L 326.20078 306.828502 
L 326.234206 306.746545 
L 327.388287 303.929277 
L 328.812741 300.16005 
L 330.163619 295.99601 
L 331.011725 292.700004 
L 331.202786 291.902501 
L 331.351125 291.191289 
L 331.382771 290.639656 
L 331.38554 290.49899 
L 331.487598 290.060048 
L 331.616356 289.797234 
L 331.985029 289.32086 
L 332.458529 289.042285 
L 333.071665 288.821238 
L 333.464864 288.522568 
L 333.977327 288.135243 
L 334.088483 287.781016 
L 334.611824 285.752978 
L 334.829586 285.416482 
L 335.285879 284.726547 
L 335.561592 284.386899 
L 336.086318 284.083501 
L 336.48189 283.787589 
L 336.733474 283.497982 
L 336.811995 283.077559 
L 336.918206 282.291876 
L 337.14566 280.607426 
L 337.289846 279.374527 
L 337.512552 276.899272 
L 337.790639 274.367672 
L 337.850569 273.396404 
L 337.93265 271.660337 
L 337.995348 269.246155 
L 337.984667 267.006526 
L 338.029565 265.821304 
L 338.461529 263.96703 
L 338.489219 263.80351 
L 338.483484 263.636838 
L 338.472803 263.541091 
L 338.454409 263.494596 
L 338.436015 263.448495 
L 338.383997 263.358658 
L 338.313585 263.286946 
L 338.227746 263.229024 
L 337.909707 263.136429 
L 337.628257 263.064716 
L 336.73288 262.829878 
L 336.064562 262.556426 
L 335.762543 262.202199 
L 335.511948 261.953176 
L 335.006209 261.118635 
L 334.74889 260.924775 
L 334.49157 260.805386 
L 334.202407 260.823905 
L 333.8547 260.826663 
L 334.077011 257.812384 
L 334.110041 256.672475 
L 333.673132 256.219742 
L 332.811181 255.266205 
L 332.748878 260.040981 
L 332.694487 261.156461 
L 331.454567 270.829736 
L 330.954169 270.791515 
L 330.968607 269.76272 
L 330.838266 268.255581 
L 330.432805 266.02462 
L 329.795539 264.024951 
L 329.064127 262.351534 
L 328.238568 260.924381 
L 327.253594 259.526386 
L 325.958492 258.040918 
L 315.910967 247.673768 
L 314.974055 247.008263 
L 309.791668 242.832009 
L 308.84546 243.268193 
L 308.824495 243.42462 
L 309.153018 243.861592 
L 306.82389 251.210128 
L 306.066568 254.101866 
L 304.982701 257.942806 
L 303.511965 258.534629 
L 302.255629 258.631953 
L 292.057787 253.048247 
L 290.629377 252.266111 
L 283.313077 247.917669 
L 281.379522 246.768696 
L 279.986516 246.755694 
L 278.701105 246.727324 
L 278.274877 245.301747 
L 277.383653 245.356517 
L 276.991246 245.223337 
L 276.664899 245.001107 
L 276.495792 244.625603 
L 276.336377 243.920301 
L 276.150854 243.29144 
L 275.919642 242.902145 
L 275.532179 243.395068 
L 274.48154 244.784789 
L 274.397086 244.894721 
L 274.210178 244.56453 
L 272.529789 247.242707 
L 269.887567 250.597816 
L 261.099542 259.719458 
L 265.757401 264.283037 
L 266.487033 264.956817 
L 266.564763 265.165255 
L 266.568917 265.205445 
L 266.57307 265.825638 
L 266.571092 267.651149 
L 266.568719 268.123583 
L 266.563576 269.116128 
L 266.562983 269.59723 
L 266.56239 270.031838 
L 266.561203 271.122889 
L 266.560016 272.002743 
L 266.556456 275.030419 
L 266.557247 275.387798 
L 266.559818 276.722355 
L 266.535491 281.33834 
L 266.517888 282.730818 
L 266.506416 283.449123 
L 266.493362 284.906616 
L 266.48466 286.065832 
L 266.464288 286.831814 
L 266.479122 289.199107 
L 266.457761 302.874083 
L 266.446883 303.4399 
L 266.400403 303.759453 
L 266.319113 304.060093 
L 266.082561 304.383192 
L 264.415819 305.884816 
L 261.673913 308.257624 
L 259.834504 309.93183 
L 259.55345 310.195038 
L 257.631168 311.997301 
L 255.228069 314.146304 
L 253.35741 315.742493 
L 282.216157 345.482985 
L 282.57138 345.55982 
L 283.658609 345.621288 
" clip-path="url(#pac5af25c65)" style="fill: #ffffff; stroke: #000000"/>
    <path d="M 224.47216 290.379207 
L 232.520267 283.80729 
L 233.746936 282.880153 
L 236.878678 280.605062 
L 237.940788 279.843021 
L 239.049972 279.032515 
L 240.255477 278.175514 
L 241.294051 277.435144 
L 242.248961 276.72866 
L 242.857944 276.217612 
L 245.117451 274.240402 
L 248.521544 271.421953 
L 250.241095 269.935696 
L 251.536988 268.82258 
L 252.587232 267.863133 
L 255.153504 265.476534 
L 261.099542 259.719458 
L 269.887567 250.597816 
L 272.529789 247.242707 
L 274.210178 244.56453 
L 274.397086 244.894721 
L 274.48154 244.784789 
L 275.532179 243.395068 
L 275.919642 242.902145 
L 276.343299 242.339873 
L 276.554337 241.97619 
L 276.718697 241.611324 
L 276.833808 241.293347 
L 276.91945 240.982857 
L 276.997377 240.524214 
L 277.053153 239.993464 
L 277.032781 239.641601 
L 276.942393 239.337021 
L 276.748167 239.099819 
L 276.503901 238.972943 
L 276.146304 238.953636 
L 275.151046 238.967427 
L 272.401426 238.971367 
L 271.72124 238.969791 
L 271.006244 238.908324 
L 270.259602 238.791693 
L 268.885385 238.408308 
L 267.838504 238.20972 
L 265.131804 238.13328 
L 262.413434 238.051717 
L 261.375058 238.020589 
L 234.386377 237.185259 
L 232.670782 239.591166 
L 218.63174 258.51611 
L 211.726242 267.850131 
L 197.169593 287.468556 
L 187.890862 300.158867 
L 179.260869 311.786892 
L 180.509293 311.701389 
L 181.286592 311.565451 
L 184.154686 311.076468 
L 187.816297 310.387715 
L 189.263694 310.102836 
L 189.980075 309.902278 
L 190.730079 309.6635 
L 191.819682 309.222982 
L 192.829774 308.760792 
L 194.438763 307.985748 
L 196.123306 307.12993 
L 197.847208 306.304845 
L 201.066174 304.709444 
L 202.177137 304.184211 
L 203.170418 303.733054 
L 204.670822 303.129804 
L 206.077673 302.563592 
L 207.349437 302.027326 
L 208.369221 301.556863 
L 209.398895 301.074184 
L 212.514814 299.201785 
L 214.387649 298.020896 
L 216.163371 296.815185 
L 217.230426 296.078361 
L 219.556389 294.349386 
L 222.133737 292.301647 
L 224.47216 290.379207 
" clip-path="url(#pac5af25c65)" style="fill: #ffffff; stroke: #000000"/>
    <path d="M 278.075113 35.047708 
L 277.905412 32.702086 
L 276.831237 30.649224 
L 274.793449 29.454545 
L 275.287518 34.751008 
L 269.298758 36.730188 
L 257.89007 40.220053 
L 235.98251 41.716948 
L 236.023056 42.648419 
L 235.639153 42.925812 
L 235.495561 42.999888 
L 232.418407 43.222905 
L 231.621132 43.518029 
L 223.478484 44.759596 
L 222.042756 43.856495 
L 219.693059 43.828519 
L 219.257139 43.353721 
L 212.319204 44.078724 
L 203.454637 42.326896 
L 202.510407 41.505751 
L 201.088523 40.520299 
L 199.19413 39.705458 
L 198.918812 39.741708 
L 185.921508 33.840026 
L 185.088631 33.522049 
L 184.478461 33.421573 
L 183.470544 33.357741 
L 182.908239 33.548449 
L 182.414961 33.972418 
L 181.772948 34.98427 
L 180.653677 37.553696 
L 169.847248 60.961445 
L 169.486486 62.079289 
L 169.497166 63.88628 
L 169.783561 64.728703 
L 170.843891 65.562062 
L 184.255754 73.472476 
L 185.757147 73.821975 
L 186.067474 74.282982 
L 186.345956 74.640755 
L 186.502405 74.744383 
L 186.834092 74.717984 
L 187.581723 76.541918 
L 187.324601 76.694405 
L 187.197425 76.930031 
L 187.154901 77.144774 
L 187.301064 77.561257 
L 187.381761 77.906815 
L 187.236586 80.772547 
L 187.00043 81.832864 
L 186.804226 82.214673 
L 186.417357 82.830926 
L 186.447223 83.241892 
L 182.14973 88.670746 
L 180.380139 88.87091 
L 178.263237 92.024674 
L 177.474664 93.092083 
L 175.790912 95.481441 
L 175.364684 96.138278 
L 175.243045 96.325439 
L 173.853204 99.421675 
L 173.513803 99.814516 
L 172.739471 100.220754 
L 172.213756 100.624234 
L 171.895321 100.997769 
L 171.455049 101.473355 
L 171.108924 101.852799 
L 170.865647 101.942243 
L 170.648281 102.048629 
L 170.295035 102.287407 
L 170.087557 102.477721 
L 169.935856 102.694039 
L 169.848632 102.829977 
L 169.763386 102.84298 
L 169.633045 102.697192 
L 169.606938 102.604596 
L 169.58083 102.511607 
L 169.450489 102.476932 
L 169.39234 102.618387 
L 169.477388 102.820521 
L 169.432886 102.988769 
L 169.028612 103.360727 
L 168.520302 103.866259 
L 168.017728 104.484088 
L 167.673185 104.934062 
L 166.969462 105.789093 
L 166.598812 106.145684 
L 166.011783 106.638214 
L 165.596432 106.986924 
L 165.041445 107.454236 
L 164.848999 107.722566 
L 164.768698 107.893178 
L 164.671783 108.098858 
L 164.599789 108.270653 
L 164.522257 108.38689 
L 164.184439 108.66901 
L 163.722411 109.071702 
L 163.139733 109.678104 
L 161.909109 110.972865 
L 161.454993 111.423234 
L 160.527377 112.335792 
L 160.122905 112.694353 
L 159.412853 113.201855 
L 158.585713 113.725119 
L 157.987212 114.127416 
L 157.425698 114.571875 
L 156.65552 115.249595 
L 156.186371 115.714149 
L 155.458124 116.435606 
L 154.768246 117.071953 
L 154.152341 117.619252 
L 153.472946 118.477435 
L 152.931408 118.889189 
L 152.407078 119.169734 
L 151.878594 119.224897 
L 150.477281 119.906558 
L 149.781074 120.749768 
L 149.478066 121.73325 
L 148.978459 122.378661 
L 147.954917 123.023677 
L 146.962823 124.287704 
L 146.066259 125.861039 
L 145.69007 126.168772 
L 145.395963 127.383152 
L 144.790738 128.66097 
L 144.445601 130.257158 
L 144.455095 130.630693 
L 144.188282 131.687463 
L 144.275901 132.50979 
L 144.250584 133.045662 
L 144.290141 133.848288 
L 144.131715 134.610329 
L 143.87756 135.445265 
L 143.67839 135.927155 
L 143.529457 136.404318 
L 143.51126 136.462633 
L 143.244052 137.15966 
L 142.658408 138.024936 
L 142.268374 138.831896 
L 142.144757 139.091163 
L 141.926006 139.549412 
L 141.440244 140.060855 
L 140.881499 140.368981 
L 139.514996 141.060886 
L 136.829261 142.086135 
L 133.353964 142.891913 
L 130.824678 143.370651 
L 128.138943 143.909281 
L 125.25285 144.539719 
L 120.126239 145.609886 
L 118.880979 145.710756 
L 117.672705 145.704058 
L 115.064502 145.825811 
L 112.513459 145.973176 
L 109.986744 145.961355 
L 107.212005 145.695783 
L 104.908788 145.380959 
L 104.19399 145.225713 
L 101.705645 144.512531 
L 99.686646 143.650408 
L 96.655181 143.484918 
L 95.363046 143.475856 
L 94.76771 143.469157 
L 94.133608 143.4136 
L 93.802515 143.516046 
L 93.210542 145.044463 
L 92.537476 146.7825 
L 92.187791 147.685602 
L 91.829996 148.609586 
L 108.149708 150.966634 
L 124.073651 152.775202 
L 140.482762 149.367293 
L 153.908273 145.746218 
L 161.899616 147.02443 
L 183.529485 144.574787 
L 191.840647 148.728188 
L 206.527834 159.744294 
L 209.596285 161.360578 
L 211.811487 161.424016 
L 217.500602 157.346661 
L 229.859058 151.119122 
L 231.747913 148.961449 
L 235.577049 142.4774 
L 237.539085 136.721506 
L 238.266937 133.021233 
L 238.203646 126.727891 
L 239.184664 121.193832 
L 241.051763 112.877574 
L 241.719686 111.074129 
L 242.887217 107.786792 
L 246.7478 101.305107 
L 250.54529 96.91017 
L 254.494284 92.378507 
L 254.590803 92.267786 
L 260.987991 86.888185 
L 264.690741 81.166571 
L 265.76017 78.548285 
L 266.027181 77.894994 
L 268.954413 70.729285 
L 269.15477 70.322259 
L 273.701868 60.626525 
L 275.608327 55.088132 
L 277.602009 48.766814 
L 278.171632 43.584225 
L 278.075113 35.047708 
" clip-path="url(#pac5af25c65)" style="fill: #ffffff; stroke: #000000"/>
    <path d="M 262.623681 367.170033 
L 261.324821 364.777917 
L 261.154131 364.859086 
L 260.337869 365.246805 
L 258.668556 366.077013 
L 258.026938 365.322458 
L 244.60024 349.459076 
L 234.264937 337.178548 
L 230.958154 333.282839 
L 229.193706 334.558293 
L 226.131584 336.749063 
L 224.537232 337.872423 
L 219.945038 341.136513 
L 215.853638 344.005004 
L 214.233969 345.046013 
L 213.088987 345.749739 
L 210.501353 347.354597 
L 206.294447 349.9453 
L 200.135393 353.670792 
L 200.055883 353.53249 
L 199.832187 353.142012 
L 199.577241 352.625054 
L 199.5363 352.543491 
L 198.900813 351.276706 
L 196.783317 347.056715 
L 196.636165 346.763955 
L 196.420182 346.331712 
L 196.178092 345.851003 
L 195.694901 344.884464 
L 194.85174 343.207894 
L 194.064552 341.638893 
L 193.989789 341.489558 
L 193.897621 341.305943 
L 192.99631 339.510379 
L 191.325415 336.180093 
L 189.391859 332.327332 
L 189.200996 331.947099 
L 189.081731 331.700835 
L 189.008352 331.555046 
L 188.634142 330.811524 
L 188.543358 330.712624 
L 188.417368 330.658249 
L 188.288412 330.664947 
L 188.152137 330.713412 
L 187.871875 330.859989 
L 187.620884 331.023115 
L 187.430812 331.1823 
L 186.281676 332.274533 
L 185.745676 333.005052 
L 184.408247 334.907791 
L 183.118683 336.073707 
L 183.039173 336.141085 
L 182.554796 336.478763 
L 182.259303 336.069372 
L 180.345922 333.798221 
L 179.838404 333.191819 
L 179.034602 332.250103 
L 177.907815 330.922245 
L 177.750575 330.737054 
L 177.392583 330.330421 
L 177.089575 329.991561 
L 176.274301 329.080973 
L 175.069587 327.761389 
L 174.82275 327.469812 
L 173.074323 325.402765 
L 171.79623 323.892079 
L 171.732939 323.817215 
L 171.130285 323.158802 
L 170.986692 322.994494 
L 167.287502 328.044298 
L 164.810431 331.48885 
L 162.898039 334.344338 
L 158.600546 340.717272 
L 154.209106 347.130791 
L 153.034851 348.810513 
L 149.685544 353.80476 
L 148.368883 355.733898 
L 145.047266 360.61506 
L 143.915337 362.420869 
L 142.326918 364.918584 
L 139.271917 370.153185 
L 136.701491 375.56549 
L 135.66173 377.72198 
L 133.866032 380.990798 
L 133.34902 381.784361 
L 132.511396 383.131133 
L 129.690178 388.76094 
L 128.932855 390.317726 
L 122.932426 401.348017 
L 126.909505 401.121454 
L 131.832595 401.631714 
L 139.450518 401.993034 
L 150.633532 402.545455 
L 160.628248 401.844093 
L 173.996994 399.655293 
L 186.962455 397.232837 
L 191.855876 396.432575 
L 198.654768 395.320641 
L 209.010245 392.43048 
L 217.519391 389.115955 
L 229.339078 383.315142 
L 250.17721 373.074474 
L 262.623681 367.170033 
" clip-path="url(#pac5af25c65)" style="fill: #ffffff; stroke: #000000"/>
   </g>
   <g id="text_1">
    <!-- 1 -->
    <g transform="translate(283.047371 138.392751) scale(0.13 -0.13)">
     <defs>
      <path id="DejaVuSans-31" d="M 794 531 
L 1825 531 
L 1825 4091 
L 703 3866 
L 703 4441 
L 1819 4666 
L 2450 4666 
L 2450 531 
L 3481 531 
L 3481 0 
L 794 0 
L 794 531 
z
" transform="scale(0.015625)"/>
     </defs>
     <use xlink:href="#DejaVuSans-31"/>
    </g>
   </g>
   <g id="text_2">
    <!-- 2 -->
    <g transform="translate(213.091672 202.339365) scale(0.13 -0.13)">
     <defs>
      <path id="DejaVuSans-32" d="M 1228 531 
L 3431 531 
L 3431 0 
L 469 0 
L 469 531 
Q 828 903 1448 1529 
Q 2069 2156 2228 2338 
Q 2531 2678 2651 2914 
Q 2772 3150 2772 3378 
Q 2772 3750 2511 3984 
Q 2250 4219 1831 4219 
Q 1534 4219 1204 4116 
Q 875 4013 500 3803 
L 500 4441 
Q 881 4594 1212 4672 
Q 1544 4750 1819 4750 
Q 2544 4750 2975 4387 
Q 3406 4025 3406 3419 
Q 3406 3131 3298 2873 
Q 3191 2616 2906 2266 
Q 2828 2175 2409 1742 
Q 1991 1309 1228 531 
z
" transform="scale(0.015625)"/>
     </defs>
     <use xlink:href="#DejaVuSans-32"/>
    </g>
   </g>
   <g id="text_3">
    <!-- 3 -->
    <g transform="translate(230.948719 322.868665) scale(0.13 -0.13)">
     <defs>
      <path id="DejaVuSans-33" d="M 2597 2516 
Q 3050 2419 3304 2112 
Q 3559 1806 3559 1356 
Q 3559 666 3084 287 
Q 2609 -91 1734 -91 
Q 1441 -91 1130 -33 
Q 819 25 488 141 
L 488 750 
Q 750 597 1062 519 
Q 1375 441 1716 441 
Q 2309 441 2620 675 
Q 2931 909 2931 1356 
Q 2931 1769 2642 2001 
Q 2353 2234 1838 2234 
L 1294 2234 
L 1294 2753 
L 1863 2753 
Q 2328 2753 2575 2939 
Q 2822 3125 2822 3475 
Q 2822 3834 2567 4026 
Q 2313 4219 1838 4219 
Q 1578 4219 1281 4162 
Q 984 4106 628 3988 
L 628 4550 
Q 988 4650 1302 4700 
Q 1616 4750 1894 4750 
Q 2613 4750 3031 4423 
Q 3450 4097 3450 3541 
Q 3450 3153 3228 2886 
Q 3006 2619 2597 2516 
z
" transform="scale(0.015625)"/>
     </defs>
     <use xlink:href="#DejaVuSans-33"/>
    </g>
   </g>
   <g id="text_4">
    <!-- 4 -->
    <g transform="translate(291.733427 297.042463) scale(0.13 -0.13)">
     <defs>
      <path id="DejaVuSans-34" d="M 2419 4116 
L 825 1625 
L 2419 1625 
L 2419 4116 
z
M 2253 4666 
L 3047 4666 
L 3047 1625 
L 3713 1625 
L 3713 1100 
L 3047 1100 
L 3047 0 
L 2419 0 
L 2419 1100 
L 313 1100 
L 313 1709 
L 2253 4666 
z
" transform="scale(0.015625)"/>
     </defs>
     <use xlink:href="#DejaVuSans-34"/>
    </g>
   </g>
   <g id="text_5">
    <!-- 5 -->
    <g transform="translate(225.92652 272.135748) scale(0.13 -0.13)">
     <defs>
      <path id="DejaVuSans-35" d="M 691 4666 
L 3169 4666 
L 3169 4134 
L 1269 4134 
L 1269 2991 
Q 1406 3038 1543 3061 
Q 1681 3084 1819 3084 
Q 2600 3084 3056 2656 
Q 3513 2228 3513 1497 
Q 3513 744 3044 326 
Q 2575 -91 1722 -91 
Q 1428 -91 1123 -41 
Q 819 9 494 109 
L 494 744 
Q 775 591 1075 516 
Q 1375 441 1709 441 
Q 2250 441 2565 725 
Q 2881 1009 2881 1497 
Q 2881 1984 2565 2268 
Q 2250 2553 1709 2553 
Q 1456 2553 1204 2497 
Q 953 2441 691 2322 
L 691 4666 
z
" transform="scale(0.015625)"/>
     </defs>
     <use xlink:href="#DejaVuSans-35"/>
    </g>
   </g>
   <g id="text_6">
    <!-- 6 -->
    <g transform="translate(204.178576 99.604889) scale(0.13 -0.13)">
     <defs>
      <path id="DejaVuSans-36" d="M 2113 2584 
Q 1688 2584 1439 2293 
Q 1191 2003 1191 1497 
Q 1191 994 1439 701 
Q 1688 409 2113 409 
Q 2538 409 2786 701 
Q 3034 994 3034 1497 
Q 3034 2003 2786 2293 
Q 2538 2584 2113 2584 
z
M 3366 4563 
L 3366 3988 
Q 3128 4100 2886 4159 
Q 2644 4219 2406 4219 
Q 1781 4219 1451 3797 
Q 1122 3375 1075 2522 
Q 1259 2794 1537 2939 
Q 1816 3084 2150 3084 
Q 2853 3084 3261 2657 
Q 3669 2231 3669 1497 
Q 3669 778 3244 343 
Q 2819 -91 2113 -91 
Q 1303 -91 875 529 
Q 447 1150 447 2328 
Q 447 3434 972 4092 
Q 1497 4750 2381 4750 
Q 2619 4750 2861 4703 
Q 3103 4656 3366 4563 
z
" transform="scale(0.015625)"/>
     </defs>
     <use xlink:href="#DejaVuSans-36"/>
    </g>
   </g>
   <g id="text_7">
    <!-- 7 -->
    <g transform="translate(184.432104 372.052676) scale(0.13 -0.13)">
     <defs>
      <path id="DejaVuSans-37" d="M 525 4666 
L 3525 4666 
L 3525 4397 
L 1831 0 
L 1172 0 
L 2766 4134 
L 525 4134 
L 525 4666 
z
" transform="scale(0.015625)"/>
     </defs>
     <use xlink:href="#DejaVuSans-37"/>
    </g>
   </g>
  </g>
 </g>
 <defs>
  <clipPath id="pac5af25c65">
   <rect x="65.340705" y="10.8" width="301.31859" height="410.4"/>
  </clipPath>
 </defs>
</svg>
