<?xml version="1.0" encoding="utf-8" standalone="no"?>
<!DOCTYPE svg PUBLIC "-//W3C//DTD SVG 1.1//EN"
  "http://www.w3.org/Graphics/SVG/1.1/DTD/svg11.dtd">
<svg xmlns:xlink="http://www.w3.org/1999/xlink" width="432pt" height="432pt" viewBox="0 0 432 432" xmlns="http://www.w3.org/2000/svg" version="1.1">
 <metadata>
  <rdf:RDF xmlns:dc="http://purl.org/dc/elements/1.1/" xmlns:cc="http://creativecommons.org/ns#" xmlns:rdf="http://www.w3.org/1999/02/22-rdf-syntax-ns#">
   <cc:Work>
    <dc:type rdf:resource="http://purl.org/dc/dcmitype/StillImage"/>
    <dc:date>2025-04-20T13:46:46.268473</dc:date>
    <dc:format>image/svg+xml</dc:format>
    <dc:creator>
     <cc:Agent>
      <dc:title>Matplotlib v3.10.1, https://matplotlib.org/</dc:title>
     </cc:Agent>
    </dc:creator>
   </cc:Work>
  </rdf:RDF>
 </metadata>
 <defs>
  <style type="text/css">*{stroke-linejoin: round; stroke-linecap: butt}</style>
 </defs>
 <g id="figure_1">
  <g id="patch_1">
   <path d="M 0 432 
L 432 432 
L 432 0 
L 0 0 
z
" style="fill: #ffffff"/>
  </g>
  <g id="axes_1">
   <g id="PatchCollection_1">
    <path d="M 165.422937 310.266731 
L 165.222397 310.543811 
L 166.534282 311.593668 
L 168.004481 311.884614 
L 168.481752 312.952958 
L 179.023591 322.771184 
L 181.140893 323.969633 
L 181.700287 324.229151 
L 182.5071 324.512933 
L 188.9901 325.664008 
L 189.502849 326.058716 
L 196.343191 327.044097 
L 196.945276 327.130526 
L 198.262977 327.078299 
L 198.647772 326.894349 
L 203.593221 326.527373 
L 206.956918 328.146181 
L 208.752238 328.044268 
L 208.639522 327.50975 
L 207.974506 325.932308 
L 217.723259 325.871761 
L 220.751598 325.760605 
L 224.878253 324.824909 
L 227.787943 324.560538 
L 228.404685 324.531652 
L 231.188282 324.368962 
L 237.186682 324.082176 
L 237.014059 321.634667 
L 236.757568 317.999571 
L 236.408252 313.560733 
L 237.714786 312.681423 
L 238.236027 313.58962 
L 239.771483 313.606952 
L 240.112773 313.450502 
L 240.41591 313.320396 
L 241.812942 312.487536 
L 242.241474 312.911823 
L 242.469583 312.737348 
L 242.88939 313.095774 
L 243.094234 313.102013 
L 246.156888 312.871151 
L 246.356498 312.863294 
L 246.861337 312.843189 
L 248.333049 312.784722 
L 248.940019 312.760688 
L 250.492692 312.698987 
L 251.890422 312.643524 
L 264.354025 331.34659 
L 264.26655 331.769722 
L 264.289 331.990647 
L 266.904162 336.245304 
L 267.338626 336.666125 
L 267.589418 336.540872 
L 270.230752 340.506663 
L 272.576394 344.492789 
L 273.05192 346.239392 
L 275.593101 344.868778 
L 313.547723 337.816738 
L 310.233347 326.111867 
L 328.384653 294.302119 
L 336.894687 290.750216 
L 377.083166 291.667194 
L 397.224865 294.08258 
L 399.658796 294.294493 
L 399.030539 292.509298 
L 396.959301 289.856117 
L 395.314851 287.474008 
L 392.423656 284.448074 
L 391.462134 283.285675 
L 390.237143 280.845099 
L 390.005428 277.264772 
L 390.69522 275.373043 
L 392.521599 273.88619 
L 394.797099 273.075746 
L 399.423476 273.146692 
L 400.75374 272.787342 
L 401.844728 272.065638 
L 402.455188 271.168534 
L 402.514164 270.115673 
L 402.545455 268.927854 
L 401.894281 267.71993 
L 400.411635 265.311014 
L 394.715092 267.021566 
L 391.919631 267.233016 
L 390.063938 267.251504 
L 387.201708 266.545514 
L 384.679255 265.421477 
L 376.797246 257.508614 
L 364.129148 244.976199 
L 360.43498 240.706521 
L 354.319792 235.887997 
L 348.828557 232.816999 
L 343.487146 230.470479 
L 334.47646 228.398266 
L 319.546589 227.863978 
L 300.93011 227.29988 
L 288.225487 226.750802 
L 284.90576 225.677375 
L 281.334312 223.208375 
L 281.24044 223.69367 
L 281.099224 224.460669 
L 280.899382 225.388508 
L 280.705938 226.047355 
L 280.426182 226.867967 
L 280.037782 227.795344 
L 279.388819 228.897427 
L 279.323911 228.997259 
L 278.989251 229.511442 
L 278.783826 229.819258 
L 278.506048 230.198944 
L 278.053553 230.754261 
L 277.531382 231.314431 
L 277.173574 231.636575 
L 276.871484 231.914349 
L 276.525774 232.19582 
L 275.316718 233.179815 
L 274.092308 234.159651 
L 273.518141 234.617677 
L 273.272817 234.813875 
L 272.578371 235.368961 
L 268.918169 238.294601 
L 268.143345 238.913931 
L 266.097815 240.5436 
L 265.749894 240.826921 
L 265.174098 241.287258 
L 265.113843 241.335326 
L 264.592602 241.751987 
L 263.916769 242.292283 
L 263.86896 242.330644 
L 260.492352 245.029582 
L 259.303187 245.980068 
L 258.544299 246.586688 
L 257.028734 247.798309 
L 256.002886 248.618459 
L 254.977504 249.438147 
L 254.750559 249.619555 
L 254.009352 250.212078 
L 252.554623 251.37517 
L 252.470057 251.442649 
L 252.235551 251.630066 
L 251.418618 252.283135 
L 250.085679 253.348706 
L 249.962959 253.197109 
L 249.871995 253.048747 
L 249.648656 252.569922 
L 249.483711 252.06429 
L 249.464285 252.010445 
L 248.31025 247.986881 
L 247.840888 246.192905 
L 247.599054 245.52181 
L 247.362687 244.731702 
L 246.89065 242.622284 
L 246.532726 241.259527 
L 246.462351 240.873139 
L 246.407098 240.495302 
L 246.373132 240.112149 
L 246.349518 239.620845 
L 246.392209 238.63685 
L 246.391394 238.385421 
L 246.378134 238.23313 
L 246.370922 238.151555 
L 246.298569 237.921617 
L 246.170265 237.68983 
L 246.023583 237.498716 
L 245.798499 237.314997 
L 245.528165 237.119261 
L 245.146744 236.915437 
L 243.764484 236.309048 
L 243.583021 236.214993 
L 243.310012 236.073564 
L 243.14088 235.950392 
L 242.953484 235.767366 
L 242.12806 235.510852 
L 241.105934 235.220368 
L 240.588881 235.040116 
L 240.331111 234.70064 
L 240.087182 234.027234 
L 239.833716 233.50219 
L 239.262223 233.11095 
L 238.49403 232.833176 
L 238.094579 232.803365 
L 238.119821 232.416052 
L 238.302796 231.906954 
L 238.65502 231.262435 
L 239.101931 230.536109 
L 239.187777 230.063524 
L 239.106235 229.582156 
L 238.839857 229.062197 
L 238.582086 228.361753 
L 238.509036 227.880617 
L 238.487981 227.429292 
L 238.659091 226.257418 
L 238.763898 225.784371 
L 238.986539 225.304852 
L 239.166374 224.9767 
L 239.351559 224.443799 
L 239.396111 224.066655 
L 239.363308 223.588061 
L 239.246171 222.995307 
L 239.147181 222.46541 
L 239.159511 221.924883 
L 239.283627 221.463159 
L 239.624917 220.82927 
L 239.799401 220.418155 
L 239.865704 220.092314 
L 239.81999 219.815002 
L 236.227952 220.956834 
L 233.596622 221.999757 
L 232.354065 222.478813 
L 231.055092 222.93037 
L 227.038129 224.514051 
L 226.791758 223.270077 
L 226.835379 222.720999 
L 226.785244 222.045283 
L 226.865855 221.899232 
L 226.861551 221.446058 
L 226.682182 219.252983 
L 226.540036 217.00098 
L 226.338915 213.856495 
L 226.316813 213.631872 
L 225.730199 211.815942 
L 224.876276 209.197425 
L 223.827513 205.906196 
L 223.487502 204.844784 
L 222.314739 201.112629 
L 221.721727 199.320501 
L 221.367176 198.24638 
L 220.552803 195.587653 
L 220.09868 194.187228 
L 219.361428 191.913733 
L 219.340839 191.850414 
L 218.402117 188.95574 
L 218.246943 188.693449 
L 218.052219 188.472755 
L 217.983705 187.412269 
L 217.986031 187.120167 
L 217.990801 186.506152 
L 217.999292 186.18863 
L 218.001502 185.872264 
L 217.994058 185.498817 
L 217.964396 185.107807 
L 217.921705 184.833037 
L 217.853424 184.373393 
L 217.681034 183.109082 
L 217.648696 182.832464 
L 217.630666 182.57387 
L 217.609147 182.390613 
L 217.598329 182.031495 
L 217.58437 181.276513 
L 217.58088 180.242602 
L 217.605541 179.737663 
L 217.630666 179.377389 
L 217.764903 178.807513 
L 213.070593 176.191076 
L 207.504564 172.748481 
L 207.743955 174.77771 
L 208.222971 176.137693 
L 210.283158 179.623966 
L 210.628171 180.629452 
L 210.474858 181.94183 
L 209.67328 183.189965 
L 208.953825 182.926519 
L 208.053606 182.56532 
L 207.704173 182.06639 
L 206.94924 182.234857 
L 206.733462 182.155129 
L 206.889451 181.899309 
L 206.652385 181.762271 
L 206.496397 181.793469 
L 206.22176 182.136411 
L 205.441818 182.741413 
L 205.32375 183.42152 
L 204.018147 184.601482 
L 202.787106 185.110349 
L 201.663897 185.334741 
L 201.264445 185.908776 
L 200.89012 188.254141 
L 200.116343 189.676289 
L 199.816812 191.69743 
L 199.816812 192.346109 
L 199.46738 192.770396 
L 199.092938 192.770396 
L 198.793407 192.396025 
L 197.795128 191.94054 
L 197.251786 191.976359 
L 196.846518 192.208839 
L 196.571997 192.745438 
L 195.972937 194.916327 
L 195.373876 195.614922 
L 195.19916 196.28879 
L 194.924639 196.762762 
L 194.550197 196.78772 
L 194.150862 196.338706 
L 193.551801 196.388622 
L 192.877945 195.63988 
L 192.054266 196.28879 
L 192.578415 197.786043 
L 192.350539 198.943126 
L 192.118359 199.375039 
L 191.750199 199.780608 
L 191.645392 199.944453 
L 191.444503 200.042668 
L 191.077739 200.250189 
L 191.010853 200.666619 
L 190.469256 201.759921 
L 190.36189 202.176351 
L 190.240101 202.354062 
L 190.035606 202.49318 
L 189.67361 202.583537 
L 189.494474 202.594399 
L 189.379082 202.644315 
L 189.238681 202.744147 
L 189.112006 202.795681 
L 188.976606 202.828265 
L 188.828062 202.8144 
L 188.701969 202.71295 
L 188.550401 202.674126 
L 188.380686 202.719189 
L 188.212135 202.812782 
L 188.123032 202.948434 
L 188.168514 203.090325 
L 188.285185 203.226208 
L 188.472348 203.394675 
L 188.720697 203.72352 
L 188.911 204.135328 
L 188.965439 204.411485 
L 189.271135 204.704742 
L 189.360354 204.924743 
L 189.246125 205.178945 
L 189.146321 205.366131 
L 188.829924 205.679493 
L 188.597279 205.884011 
L 188.361958 205.991469 
L 188.098023 206.033759 
L 187.762898 206.060104 
L 187.499078 206.214705 
L 187.376009 206.858762 
L 187.238749 207.769731 
L 186.875008 209.259589 
L 186.776948 209.785095 
L 186.899901 210.207996 
L 187.232467 210.527597 
L 187.779881 210.92554 
L 187.97507 211.226423 
L 188.091741 211.593168 
L 187.999963 212.018842 
L 187.736143 212.510377 
L 187.186985 212.98458 
L 183.692542 207.05704 
L 182.943775 208.155195 
L 171.561971 216.241839 
L 165.09735 219.311912 
L 155.612533 205.834094 
L 147.949791 194.7541 
L 136.50308 178.697744 
L 135.302632 176.998747 
L 132.134939 172.305937 
L 128.38098 167.285437 
L 120.543522 181.854246 
L 118.683991 184.386565 
L 117.897768 184.823332 
L 114.328529 183.076729 
L 113.219627 180.871176 
L 112.485167 180.460292 
L 111.896111 180.1809 
L 111.396971 180.041089 
L 111.077433 180.071131 
L 110.847813 180.170732 
L 110.717997 180.330417 
L 110.558286 180.570061 
L 110.558286 180.779663 
L 110.658091 181.118907 
L 110.887711 181.597964 
L 111.237144 182.206663 
L 111.646599 182.57595 
L 112.215648 183.015027 
L 112.714788 183.194587 
L 112.994427 183.324461 
L 113.243939 183.513957 
L 113.533582 183.803517 
L 113.653278 184.052867 
L 113.693293 184.412217 
L 113.628385 184.701314 
L 113.338742 185.361548 
L 113.140412 185.796003 
L 112.88206 186.302559 
L 112.743287 186.626552 
L 112.712694 186.894389 
L 112.754221 187.143738 
L 112.850885 187.312436 
L 113.073992 187.424979 
L 113.515552 187.568025 
L 113.780418 187.61979 
L 113.995033 187.562479 
L 114.207787 187.42105 
L 114.451599 187.210062 
L 114.597234 187.07857 
L 115.099398 186.74464 
L 115.430801 186.646426 
L 115.864451 186.602518 
L 116.12385 186.627245 
L 116.406398 186.707434 
L 116.681617 186.765208 
L 117.038029 186.771447 
L 117.276955 186.716678 
L 117.842864 186.589346 
L 118.276979 186.541047 
L 118.606404 186.698884 
L 118.714003 186.833149 
L 118.764486 186.937603 
L 118.949555 187.204285 
L 119.127413 187.392164 
L 119.28154 187.55832 
L 119.304688 187.756829 
L 119.16417 188.02559 
L 118.869409 188.179729 
L 118.42308 188.270087 
L 118.043171 188.43786 
L 117.689667 188.642147 
L 117.468189 188.838807 
L 117.356403 189.091623 
L 117.342561 189.229355 
L 117.44632 189.442654 
L 117.755854 189.732213 
L 118.065388 190.011605 
L 119.083675 191.4289 
L 119.303408 191.848103 
L 119.503948 192.257369 
L 119.62632 192.723022 
L 119.85245 193.065733 
L 120.266442 193.237897 
L 120.677991 193.409831 
L 120.96996 193.704474 
L 121.027424 193.963992 
L 120.956234 194.265338 
L 120.825837 194.434036 
L 120.637045 194.569456 
L 120.321346 194.676221 
L 119.849891 194.873806 
L 119.289799 195.250719 
L 118.921522 195.558304 
L 118.674686 195.849019 
L 118.490663 196.191268 
L 118.343167 196.529127 
L 118.252319 196.966817 
L 118.168334 197.207847 
L 117.992803 197.571357 
L 117.734102 197.966526 
L 117.354658 198.325876 
L 116.855519 198.914702 
L 116.788284 199.18693 
L 116.772232 199.485502 
L 116.915425 199.705965 
L 117.231473 199.794936 
L 117.745851 199.84231 
L 117.99036 199.864726 
L 118.589305 199.705041 
L 119.577813 199.245858 
L 120.186761 199.056131 
L 120.546198 199.126152 
L 120.775818 199.245858 
L 120.925641 199.485502 
L 121.025446 199.794936 
L 121.165266 200.004537 
L 121.584608 200.244181 
L 122.113759 200.453782 
L 122.513094 200.683258 
L 122.762722 200.992692 
L 122.87253 201.332168 
L 122.812624 201.551706 
L 122.483083 201.711392 
L 122.243459 201.731497 
L 121.828536 201.416517 
L 121.502252 201.297273 
L 121.247506 201.280865 
L 121.023003 201.352735 
L 120.767676 201.458807 
L 120.599939 201.615488 
L 120.466517 201.93925 
L 120.29087 202.587235 
L 120.087422 203.272195 
L 119.80976 204.053984 
L 119.625738 204.727158 
L 119.60573 205.366131 
L 119.67564 205.675565 
L 119.77591 205.811678 
L 119.894443 205.908506 
L 120.021351 205.948948 
L 120.34368 205.898338 
L 120.934831 205.860208 
L 121.136185 205.792267 
L 121.384185 205.605774 
L 121.562623 205.036592 
L 121.873553 204.463943 
L 122.106896 204.369426 
L 122.98292 204.330371 
L 123.183693 204.539048 
L 123.331539 205.039596 
L 123.472173 205.586363 
L 123.891515 207.249771 
L 123.874532 207.384499 
L 123.744716 207.577924 
L 123.561392 207.723975 
L 123.082958 208.011455 
L 122.976406 208.17114 
L 122.923363 208.408242 
L 122.827979 208.913642 
L 122.824257 209.203202 
L 122.882767 209.350409 
L 123.016421 209.434064 
L 123.44251 209.507552 
L 123.843939 209.580346 
L 124.20861 209.367972 
L 124.404381 208.997529 
L 124.664013 207.909311 
L 124.900031 207.601264 
L 125.083355 207.507671 
L 125.301576 207.540256 
L 125.59308 207.866097 
L 125.737785 208.11198 
L 125.80153 208.702192 
L 125.601804 209.111689 
L 125.491996 209.471039 
L 125.502 209.860431 
L 125.541898 210.219781 
L 125.471988 210.549089 
L 125.272379 210.72888 
L 124.833029 210.888565 
L 124.4936 211.118272 
L 124.174062 211.387726 
L 123.854641 211.787055 
L 123.605013 212.146405 
L 123.415291 212.416091 
L 123.245577 212.485881 
L 123.075862 212.416091 
L 123.035847 212.186384 
L 123.085866 211.857077 
L 122.95605 211.687223 
L 122.756324 211.757244 
L 122.576606 211.896825 
L 122.44679 212.106657 
L 122.207166 212.366175 
L 121.927643 212.585713 
L 121.658124 212.775441 
L 121.358594 213.015085 
L 121.219472 213.099896 
L 121.02975 213.29956 
L 120.816996 213.544288 
L 120.647282 213.863659 
L 120.560505 214.188114 
L 120.377065 214.401644 
L 120.146281 214.647527 
L 119.862338 214.894103 
L 119.615734 215.097465 
L 119.409843 215.320933 
L 119.327255 215.44711 
L 119.312249 215.778266 
L 119.362151 216.297532 
L 119.481963 216.527239 
L 119.681573 216.656882 
L 119.961212 216.756946 
L 121.50865 217.086254 
L 121.947999 217.266044 
L 122.297432 217.465709 
L 122.487154 217.705352 
L 122.507162 217.974807 
L 122.509023 218.268295 
L 122.412824 218.532897 
L 122.153309 218.855503 
L 121.898097 218.983298 
L 121.598567 219.043151 
L 121.277168 219.217395 
L 120.922501 219.470211 
L 120.737548 219.62643 
L 120.463376 219.906053 
L 120.16466 220.328953 
L 120.102893 220.420929 
L 119.993666 220.495803 
L 119.845122 220.578534 
L 119.565599 220.578534 
L 119.076347 220.438723 
L 118.577207 220.368701 
L 118.217771 220.1591 
L 117.774117 219.972839 
L 117.458999 219.86954 
L 117.329184 219.729729 
L 117.507273 219.554329 
L 117.690365 219.408278 
L 117.568808 219.070882 
L 117.11422 218.893402 
L 115.921449 218.519031 
L 115.791633 218.661385 
L 115.771626 218.931071 
L 115.78163 219.090756 
L 115.661818 219.540001 
L 115.661818 219.769708 
L 115.751618 219.959435 
L 115.951344 220.1591 
L 116.170961 220.358764 
L 116.310781 220.658261 
L 116.410585 221.017842 
L 116.350679 221.477024 
L 116.161073 222.066312 
L 115.831532 222.495452 
L 115.521998 222.695348 
L 115.21258 222.845096 
L 114.923054 223.15453 
L 114.753223 223.454027 
L 114.573505 223.863524 
L 114.523602 224.222874 
L 114.583508 224.692224 
L 114.813129 225.091784 
L 115.012855 225.341365 
L 115.222468 225.391281 
L 115.422193 225.241533 
L 115.821528 224.782119 
L 115.981355 224.782119 
L 116.131062 224.941805 
L 116.061153 225.101721 
L 115.562013 225.940359 
L 115.512111 226.200107 
L 115.661818 226.409709 
L 115.911446 226.559457 
L 116.270882 226.619542 
L 116.530397 226.729311 
L 116.720119 226.978891 
L 117.227401 229.075831 
L 117.25276 229.237365 
L 117.219957 229.364235 
L 117.059548 229.495265 
L 116.819924 229.575224 
L 116.330788 229.62514 
L 115.94134 229.724972 
L 115.562013 229.934574 
L 115.052753 230.274281 
L 114.693317 230.533798 
L 114.164166 230.993211 
L 113.754827 231.442457 
L 113.478445 231.878761 
L 113.3755 232.111703 
L 113.155883 232.341409 
L 112.976165 232.710696 
L 113.006059 233.110256 
L 113.115868 233.3499 
L 113.325597 233.509585 
L 113.655022 233.649397 
L 113.934545 233.649397 
L 114.134271 233.3499 
L 114.40379 233.240131 
L 114.693317 233.28011 
L 115.542005 233.63946 
L 115.71172 233.919083 
L 115.931337 234.21881 
L 115.981355 234.608202 
L 115.901442 234.907699 
L 115.447784 235.576945 
L 115.130805 236.106611 
L 114.895601 236.853504 
L 114.828134 237.267623 
L 114.824412 237.498023 
L 114.833136 237.664872 
L 114.834416 237.831953 
L 114.758341 237.939642 
L 114.633411 238.003655 
L 114.5243 238.014516 
L 114.376338 237.956281 
L 114.10426 237.604095 
L 113.918958 237.371615 
L 113.74366 237.015038 
L 113.515203 236.775394 
L 113.373057 236.644365 
L 113.213811 236.630499 
L 113.114007 236.728714 
L 113.03863 236.926298 
L 112.948015 237.252833 
L 112.94057 237.481384 
L 112.990472 238.952524 
L 113.092254 239.408008 
L 113.026067 239.961014 
L 112.991752 240.317591 
L 112.855422 240.415806 
L 112.692221 240.4886 
L 112.352676 240.519798 
L 112.075363 240.528348 
L 111.927285 240.594672 
L 111.917863 240.750198 
L 112.06757 240.899946 
L 112.496916 241.119716 
L 112.605794 241.171249 
L 112.642901 241.276859 
L 112.568338 241.517658 
L 112.406999 241.658856 
L 112.11375 242.062807 
L 112.02709 242.323711 
L 111.962065 242.478544 
L 111.692546 242.828188 
L 111.642528 242.977936 
L 111.76234 243.197706 
L 111.822246 243.487265 
L 111.782347 243.79693 
L 111.782347 244.116532 
L 111.816081 244.336533 
L 111.818523 244.538508 
L 111.706738 244.810736 
L 111.544119 245.108846 
L 110.482676 247.90831 
L 110.091833 248.555371 
L 109.865237 248.819279 
L 108.747843 249.788715 
L 108.629776 249.929451 
L 108.56417 250.175796 
L 108.625705 250.467898 
L 108.834503 250.81916 
L 110.377172 253.153201 
L 110.75173 253.613076 
L 110.844439 253.809274 
L 110.902484 254.017721 
L 111.011827 254.386776 
L 111.078596 254.663164 
L 111.046724 255.011421 
L 110.999846 255.218481 
L 111.044514 255.425309 
L 111.192011 255.576444 
L 111.571455 255.686445 
L 111.801075 255.756466 
L 112.000801 255.976004 
L 112.150508 256.455523 
L 112.100605 256.655418 
L 111.850977 256.695398 
L 111.591462 256.745314 
L 111.421748 256.944978 
L 111.380802 257.076701 
L 111.452457 257.247941 
L 111.677773 257.434434 
L 111.872497 257.596199 
L 111.999289 257.769288 
L 112.02709 257.954162 
L 111.945548 258.083343 
L 111.761991 258.200045 
L 111.520971 258.190802 
L 111.250521 258.081957 
L 111.002521 257.824981 
L 110.661697 257.582102 
L 110.252009 257.52872 
L 109.997379 257.775989 
L 109.886989 258.092587 
L 109.97807 258.262672 
L 110.120099 258.429983 
L 110.405904 258.518492 
L 110.622729 258.682568 
L 110.682635 258.983451 
L 110.64704 259.236498 
L 110.642736 259.536226 
L 110.563869 259.805219 
L 110.436962 260.084842 
L 110.231769 260.315704 
L 110.171863 260.593247 
L 110.252358 260.889739 
L 110.46232 261.099803 
L 110.608072 261.3339 
L 110.791629 261.694637 
L 111.088251 262.105058 
L 111.675447 262.708674 
L 111.977885 262.846174 
L 112.302309 262.908107 
L 112.617775 263.056931 
L 112.723629 263.221238 
L 112.744683 263.467584 
L 112.703737 263.734728 
L 112.575783 263.993783 
L 114.078901 264.205233 
L 114.702855 264.854605 
L 115.526534 264.829647 
L 116.125595 265.753789 
L 117.223912 266.00337 
L 117.673149 266.702889 
L 125.335891 271.223765 
L 128.780432 272.022885 
L 127.532408 284.638032 
L 157.087269 281.88733 
L 160.263803 281.591762 
L 166.629084 281.109008 
L 166.741103 281.891721 
L 166.805313 282.114957 
L 167.271184 283.768428 
L 167.408445 284.661604 
L 167.689247 286.597934 
L 167.745431 289.227312 
L 167.695529 291.176121 
L 167.745431 292.02562 
L 168.257134 293.112451 
L 168.481752 293.949471 
L 168.482683 294.220774 
L 168.444296 294.336552 
L 168.364964 294.462035 
L 167.820343 294.91128 
L 167.408445 295.685905 
L 167.233729 296.16057 
L 167.321087 296.497966 
L 167.64551 296.754018 
L 167.683199 296.952296 
L 167.658073 297.191246 
L 167.408445 297.366184 
L 167.158817 297.515932 
L 166.722026 298.190724 
L 166.84684 298.315514 
L 167.470794 298.477973 
L 167.321087 298.740495 
L 167.221166 299.127576 
L 167.34598 299.977306 
L 166.360147 300.289513 
L 166.135412 300.301992 
L 165.399091 301.926346 
L 165.474002 302.70097 
L 165.09956 303.038366 
L 165.137016 303.488074 
L 165.336742 303.900344 
L 165.26183 305.199781 
L 165.4241 306.136864 
L 165.74864 306.980354 
L 165.761086 307.761218 
L 165.885784 308.735738 
L 165.829367 308.983239 
L 165.422937 310.266731 
" clip-path="url(#p36194f9ab1)" style="fill: #ffffff; stroke: #000000"/>
    <path d="M 174.119436 116.061318 
L 173.914593 116.159764 
L 172.222799 116.916594 
L 171.143326 117.399579 
L 170.388859 117.736975 
L 169.016021 119.332442 
L 163.833739 115.234929 
L 160.879033 118.684226 
L 163.100559 123.57046 
L 164.348583 124.642502 
L 157.110069 133.967113 
L 155.523896 132.67068 
L 133.318752 170.102232 
L 132.134939 172.305937 
L 135.302632 176.998747 
L 136.50308 178.697744 
L 147.949791 194.7541 
L 155.612533 205.834094 
L 165.09735 219.311912 
L 171.561971 216.241839 
L 182.943775 208.155195 
L 183.692542 207.05704 
L 187.186985 212.98458 
L 187.736143 212.510377 
L 187.999963 212.018842 
L 188.091741 211.593168 
L 187.97507 211.226423 
L 187.779881 210.92554 
L 187.232467 210.527597 
L 186.899901 210.207996 
L 186.776948 209.785095 
L 186.875008 209.259589 
L 187.238749 207.769731 
L 187.376009 206.858762 
L 187.499078 206.214705 
L 187.762898 206.060104 
L 188.098023 206.033759 
L 188.361958 205.991469 
L 188.597279 205.884011 
L 188.829924 205.679493 
L 189.146321 205.366131 
L 189.246125 205.178945 
L 189.360354 204.924743 
L 189.271135 204.704742 
L 188.965439 204.411485 
L 188.911 204.135328 
L 188.720697 203.72352 
L 188.472348 203.394675 
L 188.285185 203.226208 
L 188.168514 203.090325 
L 188.123032 202.948434 
L 188.212135 202.812782 
L 188.380686 202.719189 
L 188.550401 202.674126 
L 188.701969 202.71295 
L 188.828062 202.8144 
L 188.976606 202.828265 
L 189.112006 202.795681 
L 189.238681 202.744147 
L 189.379082 202.644315 
L 189.494474 202.594399 
L 189.67361 202.583537 
L 190.035606 202.49318 
L 190.240101 202.354062 
L 190.36189 202.176351 
L 190.469256 201.759921 
L 191.010853 200.666619 
L 191.077739 200.250189 
L 191.444503 200.042668 
L 191.645392 199.944453 
L 191.750199 199.780608 
L 192.118359 199.375039 
L 192.350539 198.943126 
L 192.578415 197.786043 
L 192.054266 196.28879 
L 192.877945 195.63988 
L 193.551801 196.388622 
L 194.150862 196.338706 
L 194.550197 196.78772 
L 194.924639 196.762762 
L 195.19916 196.28879 
L 195.373876 195.614922 
L 195.972937 194.916327 
L 196.571997 192.745438 
L 196.846518 192.208839 
L 197.251786 191.976359 
L 197.795128 191.94054 
L 198.793407 192.396025 
L 199.092938 192.770396 
L 199.46738 192.770396 
L 199.816812 192.346109 
L 199.816812 191.69743 
L 200.116343 189.676289 
L 200.89012 188.254141 
L 201.264445 185.908776 
L 201.663897 185.334741 
L 202.787106 185.110349 
L 204.018147 184.601482 
L 205.32375 183.42152 
L 205.441818 182.741413 
L 206.22176 182.136411 
L 206.496397 181.793469 
L 206.652385 181.762271 
L 206.889451 181.899309 
L 206.733462 182.155129 
L 206.94924 182.234857 
L 207.704173 182.06639 
L 208.053606 182.56532 
L 208.953825 182.926519 
L 209.67328 183.189965 
L 210.474858 181.94183 
L 210.628171 180.629452 
L 210.283158 179.623966 
L 208.222971 176.137693 
L 207.743955 174.77771 
L 207.504564 172.748481 
L 202.88598 169.098363 
L 198.57065 165.885475 
L 191.531978 160.585121 
L 187.750451 157.243051 
L 190.5052 154.406382 
L 203.896008 145.319566 
L 203.914387 145.256015 
L 203.742114 145.019838 
L 203.057091 144.091999 
L 202.828052 143.780485 
L 200.644679 140.79661 
L 199.308949 139.096688 
L 197.788265 137.107207 
L 196.967377 136.15025 
L 195.994805 135.022284 
L 195.272792 134.253206 
L 194.896838 133.876986 
L 194.715258 133.694423 
L 194.577649 133.556229 
L 194.088048 133.093118 
L 192.823971 131.921013 
L 192.682756 131.798765 
L 192.111496 131.303763 
L 191.209648 130.54832 
L 188.394878 128.132009 
L 188.079062 127.874802 
L 187.936916 127.75371 
L 187.542234 127.417469 
L 187.110445 127.055115 
L 186.909323 126.886417 
L 186.728558 126.73482 
L 185.717949 125.896876 
L 184.356278 124.729855 
L 183.617049 124.11792 
L 183.493165 124.002836 
L 182.855486 123.461384 
L 174.280543 116.196507 
L 174.119436 116.061318 
" clip-path="url(#p36194f9ab1)" style="fill: #ffffff; stroke: #000000"/>
    <path d="M 113.219627 180.871176 
L 114.328529 183.076729 
L 117.897768 184.823332 
L 118.683991 184.386565 
L 120.543522 181.854246 
L 128.38098 167.285437 
L 132.134939 172.305937 
L 133.318752 170.102232 
L 155.523896 132.67068 
L 148.562811 127.401986 
L 141.965582 122.517138 
L 137.48519 119.457232 
L 133.516617 116.191423 
L 124.209541 109.005118 
L 124.080074 109.5468 
L 124.141259 109.809553 
L 124.203492 110.245626 
L 124.63214 111.109222 
L 124.902823 111.681408 
L 125.484435 113.272485 
L 125.563767 113.601562 
L 125.604014 113.881647 
L 125.611808 114.240072 
L 125.541433 114.62438 
L 125.195723 116.245961 
L 125.007978 117.126658 
L 124.831168 117.8925 
L 124.580493 118.681453 
L 124.305739 119.445216 
L 124.110899 119.866036 
L 123.841613 120.34463 
L 123.31188 121.19644 
L 122.730617 121.974762 
L 122.381999 122.369931 
L 120.461864 124.545674 
L 117.614174 127.772197 
L 116.685455 128.763587 
L 116.540401 128.918419 
L 116.255876 129.125248 
L 116.101749 129.217685 
L 115.84363 129.324912 
L 115.394625 129.474661 
L 115.356006 129.732561 
L 115.281908 129.930608 
L 115.195597 130.201449 
L 115.188385 130.244432 
L 115.181173 130.494706 
L 114.977492 131.024834 
L 113.380036 132.869882 
L 112.905789 132.495973 
L 110.334831 135.08907 
L 110.260035 138.218303 
L 110.802796 139.776796 
L 112.111889 141.370877 
L 112.614285 142.094198 
L 112.804589 142.761133 
L 114.904791 145.756332 
L 114.134155 146.34562 
L 110.232234 140.929257 
L 100.650404 127.260326 
L 71.846404 85.760608 
L 49.207611 90.44533 
L 34.968695 95.40043 
L 34.780602 95.444569 
L 32.206502 96.426253 
L 29.454545 100.600489 
L 33.448244 100.052336 
L 34.376847 100.732906 
L 35.81657 108.327091 
L 40.945925 107.654147 
L 46.71168 122.087073 
L 41.975379 122.087304 
L 47.961332 129.673863 
L 54.525874 137.652587 
L 56.034227 139.256374 
L 49.806672 142.42004 
L 51.670972 158.089314 
L 64.208672 169.580424 
L 76.464057 180.581847 
L 82.348461 183.862677 
L 83.845997 181.392753 
L 85.443453 182.321979 
L 85.605723 182.846098 
L 86.479304 183.376226 
L 86.75557 182.866203 
L 87.685336 183.40881 
L 88.594628 183.101687 
L 88.831693 182.665152 
L 92.095353 185.684154 
L 94.306294 186.840775 
L 94.840097 187.090356 
L 98.054552 188.990173 
L 98.403985 190.187698 
L 102.747 190.911251 
L 110.983794 200.418656 
L 111.78258 198.422242 
L 120.466517 201.93925 
L 120.599939 201.615488 
L 120.767676 201.458807 
L 121.023003 201.352735 
L 121.247506 201.280865 
L 121.502252 201.297273 
L 121.828536 201.416517 
L 122.243459 201.731497 
L 122.483083 201.711392 
L 122.812624 201.551706 
L 122.87253 201.332168 
L 122.762722 200.992692 
L 122.513094 200.683258 
L 122.113759 200.453782 
L 121.584608 200.244181 
L 121.165266 200.004537 
L 121.025446 199.794936 
L 120.925641 199.485502 
L 120.775818 199.245858 
L 120.546198 199.126152 
L 120.186761 199.056131 
L 119.577813 199.245858 
L 118.589305 199.705041 
L 117.99036 199.864726 
L 117.745851 199.84231 
L 117.231473 199.794936 
L 116.915425 199.705965 
L 116.772232 199.485502 
L 116.788284 199.18693 
L 116.855519 198.914702 
L 117.354658 198.325876 
L 117.734102 197.966526 
L 117.992803 197.571357 
L 118.168334 197.207847 
L 118.252319 196.966817 
L 118.343167 196.529127 
L 118.490663 196.191268 
L 118.674686 195.849019 
L 118.921522 195.558304 
L 119.289799 195.250719 
L 119.849891 194.873806 
L 120.321346 194.676221 
L 120.637045 194.569456 
L 120.825837 194.434036 
L 120.956234 194.265338 
L 121.027424 193.963992 
L 120.96996 193.704474 
L 120.677991 193.409831 
L 120.266442 193.237897 
L 119.85245 193.065733 
L 119.62632 192.723022 
L 119.503948 192.257369 
L 119.303408 191.848103 
L 119.083675 191.4289 
L 118.065388 190.011605 
L 117.755854 189.732213 
L 117.44632 189.442654 
L 117.342561 189.229355 
L 117.356403 189.091623 
L 117.468189 188.838807 
L 117.689667 188.642147 
L 118.043171 188.43786 
L 118.42308 188.270087 
L 118.869409 188.179729 
L 119.16417 188.02559 
L 119.304688 187.756829 
L 119.28154 187.55832 
L 119.127413 187.392164 
L 118.949555 187.204285 
L 118.764486 186.937603 
L 118.714003 186.833149 
L 118.606404 186.698884 
L 118.276979 186.541047 
L 117.842864 186.589346 
L 117.276955 186.716678 
L 117.038029 186.771447 
L 116.681617 186.765208 
L 116.406398 186.707434 
L 116.12385 186.627245 
L 115.864451 186.602518 
L 115.430801 186.646426 
L 115.099398 186.74464 
L 114.597234 187.07857 
L 114.451599 187.210062 
L 114.207787 187.42105 
L 113.995033 187.562479 
L 113.780418 187.61979 
L 113.515552 187.568025 
L 113.073992 187.424979 
L 112.850885 187.312436 
L 112.754221 187.143738 
L 112.712694 186.894389 
L 112.743287 186.626552 
L 112.88206 186.302559 
L 113.140412 185.796003 
L 113.338742 185.361548 
L 113.628385 184.701314 
L 113.693293 184.412217 
L 113.653278 184.052867 
L 113.533582 183.803517 
L 113.243939 183.513957 
L 112.994427 183.324461 
L 112.714788 183.194587 
L 112.215648 183.015027 
L 111.646599 182.57595 
L 111.237144 182.206663 
L 110.887711 181.597964 
L 110.658091 181.118907 
L 110.558286 180.779663 
L 110.558286 180.570061 
L 110.717997 180.330417 
L 110.847813 180.170732 
L 111.077433 180.071131 
L 111.396971 180.041089 
L 111.896111 180.1809 
L 112.485167 180.460292 
L 113.219627 180.871176 
" clip-path="url(#p36194f9ab1)" style="fill: #ffffff; stroke: #000000"/>
    <path d="M 242.953484 235.767366 
L 243.14088 235.950392 
L 243.310012 236.073564 
L 243.583021 236.214993 
L 243.764484 236.309048 
L 245.146744 236.915437 
L 245.528165 237.119261 
L 245.798499 237.314997 
L 246.023583 237.498716 
L 246.170265 237.68983 
L 246.298569 237.921617 
L 246.370922 238.151555 
L 246.378134 238.23313 
L 246.391394 238.385421 
L 246.392209 238.63685 
L 246.349518 239.620845 
L 246.373132 240.112149 
L 246.407098 240.495302 
L 246.462351 240.873139 
L 246.532726 241.259527 
L 246.89065 242.622284 
L 247.362687 244.731702 
L 247.599054 245.52181 
L 247.840888 246.192905 
L 248.31025 247.986881 
L 249.464285 252.010445 
L 249.483711 252.06429 
L 249.648656 252.569922 
L 249.871995 253.048747 
L 249.962959 253.197109 
L 250.085679 253.348706 
L 251.418618 252.283135 
L 252.235551 251.630066 
L 252.470057 251.442649 
L 252.554623 251.37517 
L 254.009352 250.212078 
L 254.750559 249.619555 
L 254.977504 249.438147 
L 256.002886 248.618459 
L 257.028734 247.798309 
L 258.544299 246.586688 
L 259.303187 245.980068 
L 260.492352 245.029582 
L 263.86896 242.330644 
L 263.916769 242.292283 
L 264.592602 241.751987 
L 265.113843 241.335326 
L 265.174098 241.287258 
L 265.749894 240.826921 
L 266.097815 240.5436 
L 268.143345 238.913931 
L 268.918169 238.294601 
L 272.578371 235.368961 
L 273.272817 234.813875 
L 273.518141 234.617677 
L 274.092308 234.159651 
L 275.316718 233.179815 
L 276.525774 232.19582 
L 276.871484 231.914349 
L 277.173574 231.636575 
L 277.531382 231.314431 
L 278.053553 230.754261 
L 278.506048 230.198944 
L 278.783826 229.819258 
L 278.989251 229.511442 
L 279.323911 228.997259 
L 279.388819 228.897427 
L 280.037782 227.795344 
L 280.426182 226.867967 
L 280.705938 226.047355 
L 280.899382 225.388508 
L 281.099224 224.460669 
L 281.24044 223.69367 
L 281.334312 223.208375 
L 281.420972 222.475578 
L 281.464244 221.79108 
L 281.523685 220.572526 
L 281.526593 220.456979 
L 281.538574 219.987167 
L 281.544856 219.738279 
L 281.546717 219.646997 
L 281.556023 219.270084 
L 281.573587 218.561322 
L 281.587546 217.985899 
L 281.593595 217.752957 
L 281.614416 216.915476 
L 281.665366 214.86383 
L 281.715733 212.230985 
L 281.719456 211.919934 
L 281.727831 211.097704 
L 281.730739 210.831716 
L 281.776454 208.733852 
L 281.828799 206.320546 
L 281.855902 205.141046 
L 281.947913 204.381443 
L 282.084243 203.73623 
L 282.185327 203.410158 
L 282.288389 203.077846 
L 282.508703 202.44234 
L 283.210128 201.392252 
L 284.339619 199.729767 
L 285.012312 198.507053 
L 285.711642 197.637219 
L 285.771316 197.611336 
L 285.900317 197.839194 
L 286.290812 198.119048 
L 286.682702 198.161569 
L 286.89848 198.263712 
L 287.304562 198.67552 
L 287.625496 198.828735 
L 287.906647 198.820185 
L 287.997495 198.908231 
L 288.062752 199.104198 
L 288.230373 199.237539 
L 288.363794 199.274514 
L 288.548398 199.470481 
L 288.846533 199.510229 
L 289.191545 199.452456 
L 289.315079 199.504452 
L 289.505383 199.703192 
L 289.891574 200.679792 
L 290.124451 201.38971 
L 290.278811 201.624963 
L 290.539839 201.663093 
L 290.766784 201.821854 
L 290.989658 201.964439 
L 291.124126 202.108872 
L 291.224629 202.560659 
L 291.12622 202.809547 
L 291.138201 203.028392 
L 291.120171 203.289296 
L 290.849722 203.534255 
L 290.498312 203.809487 
L 290.375824 204.110601 
L 290.281486 204.594279 
L 290.255314 204.75304 
L 290.3557 204.977894 
L 290.401997 205.156529 
L 290.479002 205.325689 
L 290.600675 205.714619 
L 290.576597 205.959578 
L 290.470161 206.43147 
L 290.518435 206.730736 
L 290.482259 206.95559 
L 290.415955 207.057964 
L 290.556589 207.196389 
L 290.587763 208.212044 
L 291.439011 208.329901 
L 296.293845 212.067371 
L 300.462144 211.487096 
L 305.897428 197.877787 
L 303.012165 197.357365 
L 298.561552 195.55738 
L 286.973857 188.247902 
L 279.14047 185.945751 
L 268.608402 184.126586 
L 257.902432 181.549665 
L 252.094684 178.900875 
L 246.797011 174.754601 
L 243.580229 170.479376 
L 238.286045 174.107309 
L 238.260222 174.486764 
L 238.139595 174.807521 
L 237.859258 176.425867 
L 237.739446 177.143411 
L 237.562869 177.223138 
L 237.379312 177.26358 
L 233.275223 176.778977 
L 232.574147 177.869968 
L 231.894359 178.783248 
L 231.336127 179.495247 
L 231.260983 179.590919 
L 230.35867 180.741763 
L 229.034455 182.100823 
L 225.800225 180.731595 
L 221.931457 179.883483 
L 217.764903 178.807513 
L 217.630666 179.377389 
L 217.605541 179.737663 
L 217.58088 180.242602 
L 217.58437 181.276513 
L 217.598329 182.031495 
L 217.609147 182.390613 
L 217.630666 182.57387 
L 217.648696 182.832464 
L 217.681034 183.109082 
L 217.853424 184.373393 
L 217.921705 184.833037 
L 217.964396 185.107807 
L 217.994058 185.498817 
L 218.001502 185.872264 
L 217.999292 186.18863 
L 217.990801 186.506152 
L 217.986031 187.120167 
L 217.983705 187.412269 
L 218.052219 188.472755 
L 218.246943 188.693449 
L 218.402117 188.95574 
L 219.340839 191.850414 
L 219.361428 191.913733 
L 220.09868 194.187228 
L 220.552803 195.587653 
L 221.367176 198.24638 
L 221.721727 199.320501 
L 222.314739 201.112629 
L 223.487502 204.844784 
L 223.827513 205.906196 
L 224.876276 209.197425 
L 225.730199 211.815942 
L 226.316813 213.631872 
L 226.338915 213.856495 
L 226.540036 217.00098 
L 226.682182 219.252983 
L 226.861551 221.446058 
L 226.865855 221.899232 
L 226.785244 222.045283 
L 226.835379 222.720999 
L 226.791758 223.270077 
L 227.038129 224.514051 
L 231.055092 222.93037 
L 232.354065 222.478813 
L 233.596622 221.999757 
L 236.227952 220.956834 
L 239.81999 219.815002 
L 239.865704 220.092314 
L 239.799401 220.418155 
L 239.624917 220.82927 
L 239.283627 221.463159 
L 239.159511 221.924883 
L 239.147181 222.46541 
L 239.246171 222.995307 
L 239.363308 223.588061 
L 239.396111 224.066655 
L 239.351559 224.443799 
L 239.166374 224.9767 
L 238.986539 225.304852 
L 238.763898 225.784371 
L 238.659091 226.257418 
L 238.487981 227.429292 
L 238.509036 227.880617 
L 238.582086 228.361753 
L 238.839857 229.062197 
L 239.106235 229.582156 
L 239.187777 230.063524 
L 239.101931 230.536109 
L 238.65502 231.262435 
L 238.302796 231.906954 
L 238.119821 232.416052 
L 238.094579 232.803365 
L 238.49403 232.833176 
L 239.262223 233.11095 
L 239.833716 233.50219 
L 240.087182 234.027234 
L 240.331111 234.70064 
L 240.588881 235.040116 
L 241.105934 235.220368 
L 242.12806 235.510852 
L 242.953484 235.767366 
" clip-path="url(#p36194f9ab1)" style="fill: #ffffff; stroke: #000000"/>
    <path d="M 290.401997 205.156529 
L 290.3557 204.977894 
L 290.255314 204.75304 
L 290.281486 204.594279 
L 290.375824 204.110601 
L 290.498312 203.809487 
L 290.849722 203.534255 
L 291.120171 203.289296 
L 291.138201 203.028392 
L 291.12622 202.809547 
L 291.224629 202.560659 
L 291.124126 202.108872 
L 290.989658 201.964439 
L 290.766784 201.821854 
L 290.539839 201.663093 
L 290.278811 201.624963 
L 290.124451 201.38971 
L 289.891574 200.679792 
L 289.505383 199.703192 
L 289.315079 199.504452 
L 289.191545 199.452456 
L 288.846533 199.510229 
L 288.548398 199.470481 
L 288.363794 199.274514 
L 288.230373 199.237539 
L 288.062752 199.104198 
L 287.997495 198.908231 
L 287.906647 198.820185 
L 287.625496 198.828735 
L 287.304562 198.67552 
L 286.89848 198.263712 
L 286.682702 198.161569 
L 286.290812 198.119048 
L 285.900317 197.839194 
L 285.771316 197.611336 
L 285.711642 197.637219 
L 285.012312 198.507053 
L 284.339619 199.729767 
L 283.210128 201.392252 
L 282.508703 202.44234 
L 282.288389 203.077846 
L 282.185327 203.410158 
L 282.084243 203.73623 
L 281.947913 204.381443 
L 281.855902 205.141046 
L 281.828799 206.320546 
L 281.776454 208.733852 
L 281.730739 210.831716 
L 281.727831 211.097704 
L 281.719456 211.919934 
L 281.715733 212.230985 
L 281.665366 214.86383 
L 281.614416 216.915476 
L 281.593595 217.752957 
L 281.587546 217.985899 
L 281.573587 218.561322 
L 281.556023 219.270084 
L 281.546717 219.646997 
L 281.544856 219.738279 
L 281.538574 219.987167 
L 281.526593 220.456979 
L 281.523685 220.572526 
L 281.464244 221.79108 
L 281.420972 222.475578 
L 281.334312 223.208375 
L 284.90576 225.677375 
L 288.225487 226.750802 
L 300.93011 227.29988 
L 319.546589 227.863978 
L 334.47646 228.398266 
L 343.487146 230.470479 
L 348.828557 232.816999 
L 354.319792 235.887997 
L 360.43498 240.706521 
L 364.129148 244.976199 
L 376.797246 257.508614 
L 379.871183 244.703047 
L 373.377947 235.452386 
L 367.898345 233.294438 
L 365.994495 232.310905 
L 364.418326 231.664075 
L 365.800702 227.671016 
L 371.889485 216.955917 
L 374.396117 212.138548 
L 368.214277 208.176224 
L 362.317775 207.007124 
L 353.924063 206.559958 
L 345.444621 207.539562 
L 340.015619 207.480171 
L 334.628493 206.740904 
L 327.134884 204.163291 
L 318.188059 199.786385 
L 314.261012 198.788294 
L 308.42558 198.333965 
L 305.897428 197.877787 
L 300.462144 211.487096 
L 296.293845 212.067371 
L 291.439011 208.329901 
L 290.587763 208.212044 
L 290.556589 207.196389 
L 290.415955 207.057964 
L 290.482259 206.95559 
L 290.518435 206.730736 
L 290.470161 206.43147 
L 290.576597 205.959578 
L 290.600675 205.714619 
L 290.479002 205.325689 
L 290.401997 205.156529 
" clip-path="url(#p36194f9ab1)" style="fill: #ffffff; stroke: #000000"/>
    <path d="M 243.580229 170.479376 
L 234.446008 158.340513 
L 222.052316 145.107423 
L 214.2793 136.573151 
L 212.231559 132.897613 
L 209.800653 129.19758 
L 204.457613 124.376976 
L 192.309012 116.557013 
L 185.826478 112.554941 
L 178.825727 109.01829 
L 178.561907 109.641087 
L 176.54348 114.024462 
L 175.516934 113.837739 
L 173.450466 113.431708 
L 171.856965 113.117422 
L 170.903469 112.890719 
L 170.505879 112.980614 
L 172.244086 114.48064 
L 174.119436 116.061318 
L 174.280543 116.196507 
L 182.855486 123.461384 
L 183.493165 124.002836 
L 183.617049 124.11792 
L 184.356278 124.729855 
L 185.717949 125.896876 
L 186.728558 126.73482 
L 186.909323 126.886417 
L 187.110445 127.055115 
L 187.542234 127.417469 
L 187.936916 127.75371 
L 188.079062 127.874802 
L 188.394878 128.132009 
L 191.209648 130.54832 
L 192.111496 131.303763 
L 192.682756 131.798765 
L 192.823971 131.921013 
L 194.088048 133.093118 
L 194.577649 133.556229 
L 194.715258 133.694423 
L 194.896838 133.876986 
L 195.272792 134.253206 
L 195.994805 135.022284 
L 196.967377 136.15025 
L 197.788265 137.107207 
L 199.308949 139.096688 
L 200.644679 140.79661 
L 202.828052 143.780485 
L 203.057091 144.091999 
L 203.742114 145.019838 
L 203.914387 145.256015 
L 203.896008 145.319566 
L 190.5052 154.406382 
L 187.750451 157.243051 
L 191.531978 160.585121 
L 198.57065 165.885475 
L 202.88598 169.098363 
L 207.504564 172.748481 
L 213.070593 176.191076 
L 217.764903 178.807513 
L 221.931457 179.883483 
L 225.800225 180.731595 
L 229.034455 182.100823 
L 230.35867 180.741763 
L 231.260983 179.590919 
L 231.336127 179.495247 
L 231.894359 178.783248 
L 232.574147 177.869968 
L 233.275223 176.778977 
L 237.379312 177.26358 
L 237.562869 177.223138 
L 237.739446 177.143411 
L 237.859258 176.425867 
L 238.139595 174.807521 
L 238.260222 174.486764 
L 238.286045 174.107309 
L 243.580229 170.479376 
" clip-path="url(#p36194f9ab1)" style="fill: #ffffff; stroke: #000000"/>
   </g>
   <g id="text_1">
    <!-- 1 -->
    <g transform="translate(234.687715 268.011565) scale(0.13 -0.13)">
     <defs>
      <path id="DejaVuSans-31" d="M 794 531 
L 1825 531 
L 1825 4091 
L 703 3866 
L 703 4441 
L 1819 4666 
L 2450 4666 
L 2450 531 
L 3481 531 
L 3481 0 
L 794 0 
L 794 531 
z
" transform="scale(0.015625)"/>
     </defs>
     <use xlink:href="#DejaVuSans-31"/>
    </g>
   </g>
   <g id="text_2">
    <!-- 2 -->
    <g transform="translate(167.146867 171.663601) scale(0.13 -0.13)">
     <defs>
      <path id="DejaVuSans-32" d="M 1228 531 
L 3431 531 
L 3431 0 
L 469 0 
L 469 531 
Q 828 903 1448 1529 
Q 2069 2156 2228 2338 
Q 2531 2678 2651 2914 
Q 2772 3150 2772 3378 
Q 2772 3750 2511 3984 
Q 2250 4219 1831 4219 
Q 1534 4219 1204 4116 
Q 875 4013 500 3803 
L 500 4441 
Q 881 4594 1212 4672 
Q 1544 4750 1819 4750 
Q 2544 4750 2975 4387 
Q 3406 4025 3406 3419 
Q 3406 3131 3298 2873 
Q 3191 2616 2906 2266 
Q 2828 2175 2409 1742 
Q 1991 1309 1228 531 
z
" transform="scale(0.015625)"/>
     </defs>
     <use xlink:href="#DejaVuSans-32"/>
    </g>
   </g>
   <g id="text_3">
    <!-- 3 -->
    <g transform="translate(87.045786 144.73039) scale(0.13 -0.13)">
     <defs>
      <path id="DejaVuSans-33" d="M 2597 2516 
Q 3050 2419 3304 2112 
Q 3559 1806 3559 1356 
Q 3559 666 3084 287 
Q 2609 -91 1734 -91 
Q 1441 -91 1130 -33 
Q 819 25 488 141 
L 488 750 
Q 750 597 1062 519 
Q 1375 441 1716 441 
Q 2309 441 2620 675 
Q 2931 909 2931 1356 
Q 2931 1769 2642 2001 
Q 2353 2234 1838 2234 
L 1294 2234 
L 1294 2753 
L 1863 2753 
Q 2328 2753 2575 2939 
Q 2822 3125 2822 3475 
Q 2822 3834 2567 4026 
Q 2313 4219 1838 4219 
Q 1578 4219 1281 4162 
Q 984 4106 628 3988 
L 628 4550 
Q 988 4650 1302 4700 
Q 1616 4750 1894 4750 
Q 2613 4750 3031 4423 
Q 3450 4097 3450 3541 
Q 3450 3153 3228 2886 
Q 3006 2619 2597 2516 
z
" transform="scale(0.015625)"/>
     </defs>
     <use xlink:href="#DejaVuSans-33"/>
    </g>
   </g>
   <g id="text_4">
    <!-- 4 -->
    <g transform="translate(251.804818 210.757591) scale(0.13 -0.13)">
     <defs>
      <path id="DejaVuSans-34" d="M 2419 4116 
L 825 1625 
L 2419 1625 
L 2419 4116 
z
M 2253 4666 
L 3047 4666 
L 3047 1625 
L 3713 1625 
L 3713 1100 
L 3047 1100 
L 3047 0 
L 2419 0 
L 2419 1100 
L 313 1100 
L 313 1709 
L 2253 4666 
z
" transform="scale(0.015625)"/>
     </defs>
     <use xlink:href="#DejaVuSans-34"/>
    </g>
   </g>
   <g id="text_5">
    <!-- 5 -->
    <g transform="translate(327.657093 223.378426) scale(0.13 -0.13)">
     <defs>
      <path id="DejaVuSans-35" d="M 691 4666 
L 3169 4666 
L 3169 4134 
L 1269 4134 
L 1269 2991 
Q 1406 3038 1543 3061 
Q 1681 3084 1819 3084 
Q 2600 3084 3056 2656 
Q 3513 2228 3513 1497 
Q 3513 744 3044 326 
Q 2575 -91 1722 -91 
Q 1428 -91 1123 -41 
Q 819 9 494 109 
L 494 744 
Q 775 591 1075 516 
Q 1375 441 1709 441 
Q 2250 441 2565 725 
Q 2881 1009 2881 1497 
Q 2881 1984 2565 2268 
Q 2250 2553 1709 2553 
Q 1456 2553 1204 2497 
Q 953 2441 691 2322 
L 691 4666 
z
" transform="scale(0.015625)"/>
     </defs>
     <use xlink:href="#DejaVuSans-35"/>
    </g>
   </g>
   <g id="text_6">
    <!-- 6 -->
    <g transform="translate(206.144886 154.43509) scale(0.13 -0.13)">
     <defs>
      <path id="DejaVuSans-36" d="M 2113 2584 
Q 1688 2584 1439 2293 
Q 1191 2003 1191 1497 
Q 1191 994 1439 701 
Q 1688 409 2113 409 
Q 2538 409 2786 701 
Q 3034 994 3034 1497 
Q 3034 2003 2786 2293 
Q 2538 2584 2113 2584 
z
M 3366 4563 
L 3366 3988 
Q 3128 4100 2886 4159 
Q 2644 4219 2406 4219 
Q 1781 4219 1451 3797 
Q 1122 3375 1075 2522 
Q 1259 2794 1537 2939 
Q 1816 3084 2150 3084 
Q 2853 3084 3261 2657 
Q 3669 2231 3669 1497 
Q 3669 778 3244 343 
Q 2819 -91 2113 -91 
Q 1303 -91 875 529 
Q 447 1150 447 2328 
Q 447 3434 972 4092 
Q 1497 4750 2381 4750 
Q 2619 4750 2861 4703 
Q 3103 4656 3366 4563 
z
" transform="scale(0.015625)"/>
     </defs>
     <use xlink:href="#DejaVuSans-36"/>
    </g>
   </g>
  </g>
 </g>
 <defs>
  <clipPath id="p36194f9ab1">
   <rect x="10.8" y="72.736669" width="410.4" height="286.526662"/>
  </clipPath>
 </defs>
</svg>
