<?xml version="1.0" encoding="utf-8" standalone="no"?>
<!DOCTYPE svg PUBLIC "-//W3C//DTD SVG 1.1//EN"
  "http://www.w3.org/Graphics/SVG/1.1/DTD/svg11.dtd">
<svg xmlns:xlink="http://www.w3.org/1999/xlink" width="432pt" height="432pt" viewBox="0 0 432 432" xmlns="http://www.w3.org/2000/svg" version="1.1">
 <metadata>
  <rdf:RDF xmlns:dc="http://purl.org/dc/elements/1.1/" xmlns:cc="http://creativecommons.org/ns#" xmlns:rdf="http://www.w3.org/1999/02/22-rdf-syntax-ns#">
   <cc:Work>
    <dc:type rdf:resource="http://purl.org/dc/dcmitype/StillImage"/>
    <dc:date>2025-04-20T13:46:46.474025</dc:date>
    <dc:format>image/svg+xml</dc:format>
    <dc:creator>
     <cc:Agent>
      <dc:title>Matplotlib v3.10.1, https://matplotlib.org/</dc:title>
     </cc:Agent>
    </dc:creator>
   </cc:Work>
  </rdf:RDF>
 </metadata>
 <defs>
  <style type="text/css">*{stroke-linejoin: round; stroke-linecap: butt}</style>
 </defs>
 <g id="figure_1">
  <g id="patch_1">
   <path d="M 0 432 
L 432 432 
L 432 0 
L 0 0 
z
" style="fill: #ffffff"/>
  </g>
  <g id="axes_1">
   <g id="PatchCollection_1">
    <path d="M 170.333104 291.261678 
L 170.515428 291.242296 
L 170.802759 290.3125 
L 170.875506 290.347973 
L 171.097584 289.658625 
L 171.038089 289.630283 
L 171.329989 288.784415 
L 171.313905 288.739982 
L 171.288224 288.701401 
L 170.799286 288.488562 
L 170.41499 288.347219 
L 169.936928 288.197098 
L 169.795364 288.568834 
L 169.835759 288.581085 
L 169.60116 289.201132 
L 169.373689 289.708909 
L 169.293997 290.131477 
L 169.406316 290.544537 
L 169.558663 290.852092 
L 169.75305 291.069685 
L 170.333104 291.261678 
" clip-path="url(#p23fcd147e6)" style="fill: #ffffff; stroke: #000000"/>
    <path d="M 259.687108 188.953893 
L 259.82858 188.759888 
L 259.760403 188.131978 
L 259.520687 187.429648 
L 258.890733 186.939974 
L 258.164912 186.426712 
L 257.978293 186.353754 
L 257.963579 186.348086 
L 255.133222 186.167978 
L 254.948066 186.351377 
L 254.917633 187.543382 
L 255.735302 188.154652 
L 255.781088 188.120093 
L 258.106513 189.805064 
L 258.473263 189.558764 
L 258.410934 189.497874 
L 258.144075 189.693159 
L 255.91333 188.05701 
L 255.997226 187.846183 
L 256.09081 187.861908 
L 256.169131 187.751832 
L 257.022533 187.731535 
L 257.456454 187.892261 
L 257.445579 187.938705 
L 257.543001 187.971618 
L 257.563564 187.93194 
L 258.109072 188.090837 
L 258.155956 188.079317 
L 258.365788 188.200547 
L 258.60459 188.38925 
L 258.677429 188.505726 
L 258.741402 188.745809 
L 259.354448 188.616167 
L 259.431581 188.493109 
L 259.471427 188.350119 
L 259.452784 188.070358 
L 259.377387 187.902683 
L 259.141874 187.613048 
L 258.493551 187.055353 
L 258.370174 186.95771 
L 258.206586 186.832823 
L 258.007995 186.740118 
L 257.790943 186.679777 
L 257.518234 186.653995 
L 257.200379 186.642476 
L 257.200196 186.60042 
L 256.541272 186.598591 
L 256.494298 186.662955 
L 255.449981 186.618888 
L 255.380342 187.067604 
L 255.27442 187.398564 
L 255.173251 187.591654 
L 255.021726 187.496206 
L 255.024377 187.211873 
L 255.092645 186.397273 
L 255.254315 186.310601 
L 255.509933 186.320475 
L 256.56284 186.369845 
L 257.35693 186.42854 
L 257.937167 186.474801 
L 258.171126 186.551233 
L 258.459645 186.749992 
L 258.834803 187.054438 
L 259.443919 187.525828 
L 259.592702 187.967596 
L 259.642418 188.218284 
L 259.691678 188.400038 
L 259.689941 188.795361 
L 259.648907 188.882947 
L 259.099286 189.231826 
L 259.128074 189.294727 
L 259.687108 188.953893 
" clip-path="url(#p23fcd147e6)" style="fill: #ffffff; stroke: #000000"/>
    <path d="M 30.229626 161.01264 
L 30.125259 160.929991 
L 30.048491 160.966195 
L 29.732646 160.463539 
L 29.648567 160.561729 
L 29.675344 160.743483 
L 29.594464 160.846977 
L 29.784556 161.085231 
L 29.634036 161.165869 
L 29.454545 161.570518 
L 29.699563 161.869296 
L 30.011478 162.066592 
L 30.133575 162.045381 
L 30.735471 162.081037 
L 30.961388 161.939328 
L 31.019604 161.863993 
L 31.052413 161.794693 
L 31.045285 161.696867 
L 30.869541 161.570883 
L 30.798165 161.415826 
L 30.793139 161.328789 
L 30.78336 161.274848 
L 30.761426 161.230598 
L 30.67424 161.151972 
L 30.573802 161.075723 
L 30.336827 161.097482 
L 30.229626 161.01264 
" clip-path="url(#p23fcd147e6)" style="fill: #ffffff; stroke: #000000"/>
    <path d="M 207.797815 256.494237 
L 207.759431 256.467358 
L 207.720955 256.443588 
L 207.286395 257.08576 
L 207.230647 257.121782 
L 207.123446 257.172797 
L 207.034523 257.199127 
L 206.811439 257.242646 
L 206.570626 257.262394 
L 206.212102 257.29549 
L 205.850562 257.332791 
L 205.679662 257.345591 
L 205.410609 257.354916 
L 205.295366 257.345591 
L 205.200412 257.327854 
L 205.185698 257.262394 
L 205.140368 257.144638 
L 205.090012 257.073326 
L 205.010411 257.012071 
L 204.91235 256.975318 
L 204.79473 256.975318 
L 204.561868 257.059978 
L 204.068909 256.652221 
L 203.989491 256.626987 
L 203.912266 256.626987 
L 203.809269 256.650392 
L 203.703896 256.75096 
L 203.656099 256.813495 
L 203.588653 256.863779 
L 203.471034 256.880967 
L 203.376627 256.893218 
L 203.284689 256.95685 
L 203.223457 257.034196 
L 203.206276 257.094354 
L 203.191562 257.192362 
L 203.207464 257.288176 
L 203.929356 258.412708 
L 203.853411 258.52571 
L 203.816672 258.622438 
L 203.7909 258.698687 
L 203.783497 258.784444 
L 203.795743 258.892326 
L 203.821515 258.957238 
L 203.868124 259.018676 
L 203.930635 259.088525 
L 204.013892 259.141186 
L 204.14394 259.19275 
L 204.267043 259.203538 
L 204.374335 259.180499 
L 204.489487 259.116684 
L 204.537284 259.053052 
L 204.583893 258.981923 
L 204.618164 258.870201 
L 204.642748 258.762319 
L 204.675832 258.716972 
L 204.750589 258.693567 
L 205.297194 258.623718 
L 205.939485 259.044458 
L 207.301108 259.951398 
L 208.271216 258.910063 
L 208.052428 258.753725 
L 207.880431 258.938953 
L 207.412056 259.443073 
L 207.13624 259.573628 
L 206.482434 259.140089 
L 206.392963 259.016848 
L 206.61559 258.716789 
L 206.714017 258.567217 
L 207.067058 258.354562 
L 207.651042 258.784993 
L 207.805491 258.56612 
L 207.42348 258.28709 
L 207.124634 258.068766 
L 207.106904 257.781142 
L 207.110286 257.717692 
L 207.124086 257.669603 
L 207.14675 257.609993 
L 207.177366 257.559709 
L 207.20981 257.512534 
L 207.872298 256.53867 
L 207.797815 256.494237 
" clip-path="url(#p23fcd147e6)" style="fill: #ffffff; stroke: #000000"/>
    <path d="M 178.086838 318.097781 
L 178.488041 317.798271 
L 178.749874 317.437324 
L 178.874896 317.260507 
L 178.950841 317.093564 
L 179.029346 316.700801 
L 179.102823 316.489608 
L 179.196041 316.295603 
L 179.303882 316.148408 
L 179.529342 315.860967 
L 179.56864 315.799529 
L 179.571016 315.716149 
L 179.563704 315.630209 
L 179.3504 315.109633 
L 179.264675 315.02863 
L 179.176392 315.001568 
L 179.061149 315.001568 
L 178.350316 315.2422 
L 177.728953 315.541892 
L 177.686 315.571331 
L 177.647982 315.614301 
L 177.60512 315.77265 
L 177.519304 316.08697 
L 177.27913 317.010184 
L 177.144238 317.496202 
L 177.140583 317.555263 
L 177.150453 317.609204 
L 177.17001 317.654733 
L 177.527895 318.154282 
L 177.608775 318.200909 
L 177.689656 318.232908 
L 177.774283 318.240222 
L 178.086838 318.097781 
" clip-path="url(#p23fcd147e6)" style="fill: #ffffff; stroke: #000000"/>
    <path d="M 307.92728 86.969571 
L 307.966578 86.924407 
L 308.005784 86.857118 
L 308.018122 86.760024 
L 308.048646 86.519026 
L 308.108689 86.045991 
L 308.127242 85.899893 
L 308.163889 85.610806 
L 307.971421 85.527792 
L 308.038867 84.80864 
L 309.288081 82.978486 
L 309.592776 82.532147 
L 310.229035 81.580042 
L 310.486481 81.222935 
L 310.563706 81.142298 
L 310.644587 81.072449 
L 311.754339 80.394255 
L 312.125749 80.161303 
L 313.122451 79.549118 
L 313.5858 79.302818 
L 313.629027 79.279779 
L 314.09594 79.217427 
L 313.711096 78.300247 
L 313.567704 78.21577 
L 312.899733 78.235335 
L 310.868858 79.510902 
L 310.148794 79.932191 
L 310.12485 79.951207 
L 310.10712 79.972418 
L 309.301241 81.154366 
L 307.944461 83.174685 
L 307.156403 84.352427 
L 307.100015 84.444218 
L 307.06812 84.542043 
L 306.642241 87.02278 
L 306.646536 87.084035 
L 306.669841 87.139622 
L 306.84266 87.509529 
L 306.872088 87.542077 
L 306.918605 87.575721 
L 306.956989 87.591629 
L 307.008076 87.603149 
L 307.058981 87.595286 
L 307.138033 87.561642 
L 307.92728 86.969571 
" clip-path="url(#p23fcd147e6)" style="fill: #ffffff; stroke: #000000"/>
    <path d="M 178.1297 332.646673 
L 178.13829 332.630765 
L 178.139478 332.607361 
L 178.112518 332.563842 
L 178.098444 332.553968 
L 178.076419 332.55342 
L 178.040868 332.569328 
L 177.717895 332.796611 
L 177.680151 332.815445 
L 177.627145 332.813799 
L 177.591685 332.789114 
L 177.56244 332.713231 
L 177.583095 332.601326 
L 177.880935 331.769904 
L 177.980185 331.604058 
L 178.026703 331.557431 
L 178.052475 331.499833 
L 178.070844 331.348798 
L 178.114986 331.252984 
L 178.227761 331.154611 
L 178.411639 331.044169 
L 178.61416 330.910505 
L 179.047715 330.681941 
L 179.166614 330.645005 
L 179.269519 330.642628 
L 179.36027 330.651222 
L 179.38595 330.642628 
L 179.406787 330.611909 
L 179.403132 330.580093 
L 179.343088 330.463435 
L 178.784145 329.538758 
L 178.715511 329.492131 
L 178.639566 329.47732 
L 178.570932 329.489571 
L 178.230412 329.634937 
L 177.754634 329.92183 
L 177.619833 329.997896 
L 177.485033 330.076522 
L 177.386971 330.1354 
L 177.266884 330.218963 
L 177.138846 330.324102 
L 176.894286 330.71266 
L 176.742304 331.073608 
L 176.678514 331.28736 
L 176.573141 331.604058 
L 176.435872 332.036317 
L 176.430937 332.124817 
L 176.440808 332.25007 
L 176.472611 332.321199 
L 176.918779 332.9524 
L 176.955518 333.075276 
L 176.955518 333.176027 
L 176.918779 333.237465 
L 176.804815 333.324502 
L 176.79988 333.352843 
L 176.802347 333.388499 
L 176.831775 333.420315 
L 176.851333 333.427629 
L 176.894286 333.422875 
L 178.1297 332.646673 
" clip-path="url(#p23fcd147e6)" style="fill: #ffffff; stroke: #000000"/>
    <path d="M 353.38873 190.709992 
L 353.398509 190.716026 
L 353.41633 190.717855 
L 354.072603 190.428219 
L 354.143705 190.388906 
L 354.734452 189.985903 
L 354.756568 189.973652 
L 354.767535 189.965058 
L 354.770003 189.952807 
L 354.479564 189.190685 
L 354.442734 189.082986 
L 354.442734 189.046233 
L 354.489343 189.00692 
L 354.55551 188.994669 
L 354.629079 188.989915 
L 355.891453 188.360176 
L 355.957619 188.269482 
L 355.984671 188.154286 
L 355.957619 188.029399 
L 355.888985 187.953516 
L 355.004144 187.517234 
L 354.805553 187.492732 
L 354.670753 187.504983 
L 353.665734 187.664246 
L 353.131375 187.742689 
L 353.032034 187.766094 
L 352.964679 187.79535 
L 352.5749 188.046587 
L 352.44741 188.12503 
L 351.930233 188.472812 
L 351.857943 188.523096 
L 351.628736 188.681079 
L 351.346797 188.918786 
L 351.256138 189.033982 
L 351.187504 189.207873 
L 351.079663 189.592591 
L 350.993848 189.935619 
L 351.001159 190.138949 
L 351.050236 190.227266 
L 351.16292 190.308086 
L 351.378692 190.303149 
L 351.707149 190.23202 
L 352.025827 190.163451 
L 352.54794 189.881678 
L 352.641066 189.857176 
L 352.71957 189.857176 
L 352.854371 189.90618 
L 352.932784 189.984623 
L 353.074987 190.290898 
L 353.177893 190.442847 
L 353.38873 190.709992 
" clip-path="url(#p23fcd147e6)" style="fill: #ffffff; stroke: #000000"/>
    <path d="M 188.17148 135.28187 
L 188.844204 134.709547 
L 188.917773 134.777019 
L 189.097903 134.610442 
L 189.035392 134.541873 
L 189.632353 134.033913 
L 189.768342 133.91122 
L 189.835879 133.864045 
L 189.885047 133.803521 
L 189.948564 133.79639 
L 189.750247 133.567826 
L 190.674111 132.772059 
L 190.735434 132.834594 
L 190.911909 132.671674 
L 190.857988 132.611699 
L 192.153811 131.505452 
L 192.242916 131.606934 
L 192.778555 131.31803 
L 192.723355 131.177234 
L 194.352295 130.695057 
L 194.39269 130.77222 
L 194.630487 130.693777 
L 194.598592 130.620454 
L 195.834188 130.264992 
L 195.888017 130.471979 
L 195.918359 130.498858 
L 195.989278 130.511109 
L 197.695808 129.994921 
L 197.787747 130.156561 
L 198.08312 130.06477 
L 198.038979 129.894719 
L 198.804098 129.662315 
L 199.027639 129.594478 
L 199.154854 129.555896 
L 199.658871 129.675298 
L 199.948487 129.584969 
L 200.051484 129.675481 
L 200.234082 129.615505 
L 200.176506 129.515303 
L 200.49427 129.422598 
L 200.86239 128.732519 
L 200.857363 128.69156 
L 200.834699 128.689732 
L 200.785622 128.633962 
L 200.68756 128.579656 
L 199.132006 128.206091 
L 199.104772 128.205908 
L 191.987572 130.317104 
L 191.906966 130.349286 
L 187.627525 134.001366 
L 187.462931 135.14784 
L 187.529463 135.358119 
L 188.17148 135.28187 
" clip-path="url(#p23fcd147e6)" style="fill: #ffffff; stroke: #000000"/>
    <path d="M 309.91776 201.121885 
L 309.993705 201.011626 
L 310.033003 200.923491 
L 310.057496 200.781234 
L 310.033003 200.666038 
L 309.979083 200.435828 
L 309.974148 200.337637 
L 309.981459 200.274005 
L 310.05256 200.195562 
L 310.162869 200.126993 
L 310.255995 200.119679 
L 310.332032 200.136684 
L 310.488949 200.146558 
L 310.707098 200.148935 
L 310.898286 200.148935 
L 311.089474 200.114742 
L 311.417931 200.046173 
L 311.785594 199.975044 
L 311.849385 199.935731 
L 311.903305 199.862225 
L 311.905772 199.771531 
L 311.878812 199.690711 
L 311.452294 199.276554 
L 311.317402 199.139416 
L 311.22921 199.058413 
L 311.158109 199.020563 
L 310.93996 198.977593 
L 310.44234 198.877208 
L 309.716793 198.739887 
L 309.535383 198.720322 
L 309.398115 198.717945 
L 309.027984 198.739887 
L 308.802433 198.77664 
L 308.383226 198.85746 
L 307.873359 198.9434 
L 307.716534 198.994781 
L 307.559617 199.060973 
L 307.43953 199.154044 
L 307.272834 199.30837 
L 306.838913 199.671146 
L 306.758033 199.776468 
L 306.758033 199.828032 
L 306.792395 199.867162 
L 306.902703 199.933354 
L 307.04975 199.997169 
L 307.471425 200.139244 
L 307.770454 200.193185 
L 308.069483 200.195562 
L 308.356266 200.207813 
L 308.454327 200.242189 
L 308.595525 200.339649 
L 308.650451 200.406389 
L 308.682346 200.521585 
L 308.665165 200.675911 
L 308.640672 200.876865 
L 308.64314 200.967559 
L 308.677411 201.072881 
L 308.765694 201.161198 
L 308.98631 201.22739 
L 309.262766 201.286816 
L 309.517927 201.299799 
L 309.660405 201.264143 
L 309.822166 201.18314 
L 309.91776 201.121885 
" clip-path="url(#p23fcd147e6)" style="fill: #ffffff; stroke: #000000"/>
    <path d="M 331.018585 200.08384 
L 331.138855 200.165026 
L 331.26342 200.181848 
L 331.425272 200.180934 
L 331.579721 200.12937 
L 331.748885 199.989672 
L 332.130074 199.469644 
L 332.662696 199.074321 
L 332.891172 198.921275 
L 333.258835 198.708071 
L 333.383857 198.651753 
L 333.616719 198.615 
L 334.175571 198.632005 
L 334.570285 198.671318 
L 334.724461 198.700574 
L 334.886953 198.776274 
L 335.075217 198.926212 
L 335.320325 199.136856 
L 335.509138 199.215299 
L 335.820413 199.18842 
L 335.960148 199.109977 
L 336.23962 198.791451 
L 336.303319 198.646816 
L 336.296008 198.536557 
L 336.232217 198.421361 
L 335.749311 197.987638 
L 335.406141 197.762183 
L 335.261561 197.715556 
L 335.050724 197.691054 
L 333.753987 197.590669 
L 333.170552 197.534168 
L 333.025972 197.578418 
L 332.905886 197.64461 
L 332.668088 197.813564 
L 331.702276 198.482616 
L 331.003689 199.056036 
L 330.893381 199.252052 
L 330.744414 199.495792 
L 330.725405 199.693454 
L 330.748801 199.80865 
L 331.018585 200.08384 
" clip-path="url(#p23fcd147e6)" style="fill: #ffffff; stroke: #000000"/>
    <path d="M 220.099493 275.4822 
L 219.133498 274.491697 
L 218.91407 274.733243 
L 218.958851 274.792669 
L 218.504459 275.221271 
L 217.00182 275.082122 
L 216.652983 275.066763 
L 216.568904 274.987954 
L 216.538289 274.919933 
L 216.412353 274.928893 
L 216.345912 275.01977 
L 216.314291 275.161296 
L 216.356513 275.236631 
L 216.381097 275.315988 
L 215.87114 277.449857 
L 215.866022 277.527021 
L 215.89024 277.602355 
L 215.939682 277.695426 
L 216.043867 277.789411 
L 215.748585 277.708226 
L 215.777739 277.561214 
L 215.615064 277.50837 
L 215.5425 277.282366 
L 215.477613 277.186918 
L 215.425155 277.143399 
L 215.257454 277.116703 
L 215.185713 277.130966 
L 215.121283 277.196609 
L 214.988218 277.355506 
L 214.800777 277.735105 
L 214.743384 277.716088 
L 214.695221 277.846278 
L 215.078055 277.965131 
L 215.114063 277.863466 
L 215.20134 277.805319 
L 215.273265 277.75723 
L 215.364929 277.717185 
L 216.317033 277.950869 
L 216.311275 277.98561 
L 216.429534 278.096967 
L 217.447896 278.33577 
L 217.394707 278.682089 
L 217.88593 278.954903 
L 218.305868 278.696717 
L 218.267758 278.276892 
L 221.445306 277.34801 
L 221.516043 277.553168 
L 221.59409 277.644228 
L 221.693614 277.70658 
L 221.808217 277.749733 
L 221.924466 277.765275 
L 222.038429 277.746807 
L 222.18109 277.690672 
L 222.264712 277.612778 
L 222.341936 277.505261 
L 222.391287 277.399208 
L 222.406824 277.286755 
L 222.399512 277.162233 
L 222.376573 277.069162 
L 222.341662 276.968777 
L 222.272114 276.883203 
L 222.162537 276.815182 
L 222.072883 276.775321 
L 221.952614 276.749173 
L 221.850988 276.74515 
L 221.739949 276.764167 
L 221.676158 276.793606 
L 221.628818 276.837307 
L 221.542637 276.96768 
L 220.540086 275.960537 
L 220.566041 275.927441 
L 220.376589 275.737277 
L 220.099493 275.4822 
" clip-path="url(#p23fcd147e6)" style="fill: #ffffff; stroke: #000000"/>
    <path d="M 190.447372 259.006425 
L 190.631249 259.032207 
L 190.702259 259.051772 
L 190.868955 259.115587 
L 191.041774 259.187996 
L 191.068734 259.19275 
L 191.092039 259.183059 
L 191.106753 259.15234 
L 191.106753 259.127838 
L 191.088383 259.094742 
L 191.050365 259.050492 
L 191.034463 259.015019 
L 191.030807 258.980643 
L 191.044242 258.938953 
L 191.085916 258.875138 
L 191.144771 258.813883 
L 191.185165 258.761039 
L 191.23543 258.644563 
L 191.277104 258.507242 
L 191.300409 258.39808 
L 191.31759 258.253263 
L 191.327369 258.109725 
L 191.331024 258.054686 
L 191.321246 258.015374 
L 191.302876 257.999466 
L 191.273448 257.999466 
L 191.23671 258.001843 
L 191.150894 258.017751 
L 191.083448 258.020311 
L 191.011158 257.998186 
L 190.915564 257.941868 
L 190.862832 257.895241 
L 190.797945 257.804364 
L 190.79301 257.769988 
L 190.799133 257.738172 
L 190.811379 257.708733 
L 190.838339 257.684231 
L 190.84693 257.667043 
L 190.850586 257.643821 
L 190.868955 257.539413 
L 190.871423 257.507597 
L 190.859176 257.488032 
L 190.833404 257.473221 
L 190.533187 257.400995 
L 190.491513 257.398435 
L 190.469397 257.414343 
L 190.455962 257.448719 
L 190.457151 257.497723 
L 190.473144 257.550567 
L 190.473144 257.590977 
L 190.465741 257.620416 
L 190.437593 257.66942 
L 190.327285 257.729578 
L 190.236534 257.768891 
L 189.964466 257.849711 
L 189.795302 257.918463 
L 189.724201 257.982278 
L 189.660502 258.092719 
L 189.623763 258.18835 
L 189.606581 258.315797 
L 189.638476 258.433553 
L 189.721824 258.617501 
L 189.844379 258.752445 
L 190.074774 258.9022 
L 190.447372 259.006425 
" clip-path="url(#p23fcd147e6)" style="fill: #ffffff; stroke: #000000"/>
    <path d="M 189.738914 287.187213 
L 189.844379 287.157591 
L 190.185082 286.961392 
L 190.773361 286.696259 
L 190.931192 286.61105 
L 191.035651 286.492563 
L 191.128229 286.352133 
L 191.179042 286.093765 
L 191.193482 285.744886 
L 191.169264 285.645963 
L 191.112876 285.52327 
L 191.025507 285.425445 
L 190.920499 285.368579 
L 190.58464 285.252103 
L 190.261027 285.130507 
L 190.018386 285.015311 
L 189.810016 284.880184 
L 189.726668 284.877807 
L 189.625134 284.907612 
L 189.518298 284.975998 
L 189.131078 285.407892 
L 188.888345 285.618901 
L 188.402971 285.876538 
L 188.305549 285.988809 
L 188.276122 286.055732 
L 188.258666 286.130152 
L 188.268171 286.190127 
L 188.291475 286.242971 
L 188.336165 286.306055 
L 188.386338 286.361276 
L 188.55011 286.431673 
L 188.809932 286.465684 
L 188.997465 286.523282 
L 189.202088 286.634455 
L 189.398211 286.84967 
L 189.604114 287.10621 
L 189.674027 287.173682 
L 189.738914 287.187213 
" clip-path="url(#p23fcd147e6)" style="fill: #ffffff; stroke: #000000"/>
    <path d="M 384.272518 176.333711 
L 387.355935 175.757914 
L 390.316066 175.221612 
L 394.121648 174.522574 
L 399.5601 173.560047 
L 400.308769 173.408281 
L 400.79332 173.447228 
L 402.114275 173.353425 
L 402.180168 173.464964 
L 402.207311 173.490015 
L 402.235916 173.498792 
L 402.500673 173.451616 
L 402.527633 173.422726 
L 402.545455 173.382499 
L 402.496012 172.513226 
L 402.4919 172.48397 
L 402.488153 172.464222 
L 402.463203 172.333118 
L 402.418788 172.100349 
L 402.350519 171.741778 
L 402.18428 171.141844 
L 402.154487 171.1018 
L 402.110985 171.081138 
L 401.87008 171.111674 
L 401.840653 171.131239 
L 401.828498 171.150073 
L 401.272754 171.167444 
L 400.262617 171.391619 
L 398.709896 172.036351 
L 394.176482 172.843272 
L 391.902875 173.253589 
L 390.895571 173.443754 
L 388.417981 173.896309 
L 383.961334 174.730109 
L 377.518686 175.905474 
L 374.187968 176.276662 
L 373.854484 176.362967 
L 372.518359 176.781147 
L 367.60604 177.722098 
L 366.196619 177.631952 
L 365.989072 177.653346 
L 364.925655 177.955232 
L 364.877858 177.93201 
L 364.684202 177.968763 
L 364.642528 177.996922 
L 364.610267 178.034224 
L 364.597473 178.693584 
L 360.309532 179.490996 
L 360.12072 178.904777 
L 360.090561 178.882469 
L 360.039017 178.876435 
L 359.819406 178.910079 
L 359.79272 178.932753 
L 359.232407 178.92489 
L 358.368494 179.057274 
L 357.2093 179.567245 
L 356.615903 179.791238 
L 354.110987 180.245805 
L 349.142738 181.141042 
L 343.190581 182.233028 
L 330.163721 184.622522 
L 327.820657 184.907952 
L 327.796164 184.88345 
L 327.756958 184.871199 
L 327.53689 184.919655 
L 327.505726 184.947265 
L 327.486717 184.977802 
L 327.496404 185.57353 
L 323.309816 186.356497 
L 323.121278 185.768266 
L 323.098247 185.743398 
L 323.059041 185.72749 
L 322.817588 185.766803 
L 322.791907 185.791305 
L 320.146524 186.262694 
L 317.259414 186.778334 
L 312.761277 187.553621 
L 309.780492 187.750003 
L 306.921164 187.924991 
L 306.318537 188.160869 
L 303.373851 188.507188 
L 303.113297 188.511942 
L 302.710997 188.468058 
L 302.296725 188.345548 
L 301.793348 188.089923 
L 300.930989 187.760974 
L 299.872964 187.38101 
L 297.383127 186.281162 
L 297.080443 186.277505 
L 296.76213 186.34644 
L 296.524333 186.487052 
L 293.762428 187.248077 
L 293.575077 187.230524 
L 293.064846 187.359799 
L 292.709794 187.581049 
L 292.048494 188.121922 
L 289.764834 189.875278 
L 288.487198 190.848045 
L 287.996067 191.256351 
L 287.521386 191.676725 
L 287.319413 191.756265 
L 287.131332 191.812766 
L 285.435312 192.161097 
L 284.262683 192.255996 
L 283.790652 192.389112 
L 282.662988 193.050666 
L 280.609814 193.55058 
L 277.804133 194.201895 
L 275.853499 194.654451 
L 271.759763 195.42663 
L 270.006075 195.711146 
L 268.53524 196.142308 
L 266.216395 196.642222 
L 260.784614 197.679535 
L 259.338729 197.970268 
L 257.210889 198.275263 
L 254.47439 198.663455 
L 252.208642 198.725442 
L 251.329742 198.514432 
L 250.437499 198.61244 
L 250.403136 198.597812 
L 250.160495 198.590498 
L 250.123756 198.605126 
L 250.095882 198.645719 
L 250.030355 199.287159 
L 245.636951 199.479153 
L 245.54355 198.886899 
L 245.520245 198.856363 
L 245.48963 198.845209 
L 245.238306 198.854534 
L 245.213814 198.864957 
L 245.189321 198.891836 
L 245.173419 198.906647 
L 244.433432 198.912498 
L 243.730824 198.945777 
L 243.363069 198.975216 
L 242.397349 199.073224 
L 242.338493 199.132102 
L 242.308152 199.180374 
L 242.157083 199.215299 
L 241.694375 199.231938 
L 239.802048 199.39943 
L 235.482212 199.538762 
L 216.124199 200.312221 
L 216.014165 200.29357 
L 215.766589 200.175997 
L 215.617075 199.992232 
L 215.587921 199.873745 
L 215.830654 198.114354 
L 216.095411 195.918681 
L 216.424691 193.784995 
L 216.752325 191.997994 
L 216.977785 191.262933 
L 217.27197 190.704324 
L 217.644568 190.223975 
L 218.228826 189.637207 
L 218.526941 189.292167 
L 218.911237 189.033433 
L 219.170146 188.853142 
L 219.452542 188.657126 
L 219.868276 188.437522 
L 220.28401 188.327812 
L 220.723232 188.108208 
L 221.382156 187.833749 
L 221.915509 187.575015 
L 222.939355 186.774128 
L 223.007989 186.548856 
L 223.508076 186.195954 
L 223.821819 186.048942 
L 224.282609 186.039251 
L 224.770816 185.858045 
L 226.12001 185.30931 
L 226.69257 185.215142 
L 226.943619 185.199417 
L 227.437767 185.27786 
L 227.900567 185.411158 
L 228.430173 185.480641 
L 228.936019 185.497464 
L 228.930261 185.568775 
L 228.409976 186.029011 
L 228.459327 186.079112 
L 228.603541 186.067775 
L 229.307611 185.438586 
L 229.372864 184.948911 
L 228.730025 183.943597 
L 228.513247 183.74173 
L 228.263203 183.668224 
L 227.970206 183.704794 
L 227.329926 183.583381 
L 226.699333 183.423387 
L 226.549819 183.508961 
L 226.183161 183.541143 
L 225.288542 183.952923 
L 222.97454 184.885828 
L 222.489623 185.14895 
L 222.4368 185.30163 
L 222.627714 185.718896 
L 222.657507 185.941243 
L 222.786733 186.350097 
L 221.45801 187.212422 
L 220.98278 187.431843 
L 220.472274 187.669183 
L 219.557092 188.071821 
L 218.456296 188.790241 
L 217.47577 189.731192 
L 216.754153 190.868158 
L 216.361905 191.691353 
L 215.914824 193.949561 
L 215.812833 194.851381 
L 215.595324 195.604909 
L 215.577503 196.098241 
L 215.483371 196.905893 
L 214.994067 199.537665 
L 214.689189 200.161186 
L 214.268611 200.379693 
L 213.44683 200.491415 
L 211.870165 200.561995 
L 209.202574 200.743383 
L 208.468802 200.893321 
L 207.617593 201.116765 
L 206.596398 201.362151 
L 205.92139 201.535493 
L 205.132052 201.856031 
L 204.328731 202.07344 
L 203.727932 202.287376 
L 202.841629 202.718721 
L 201.626321 203.24844 
L 200.896296 203.612679 
L 200.357733 203.859527 
L 199.784076 204.11241 
L 199.214897 204.541378 
L 198.693333 204.917319 
L 198.283539 205.14954 
L 198.119951 205.083531 
L 197.914688 205.028127 
L 197.638781 205.113884 
L 196.919082 204.4761 
L 195.89542 203.909994 
L 194.967809 203.532224 
L 194.221699 203.186636 
L 193.167603 202.930645 
L 193.018089 201.773565 
L 192.76311 201.316255 
L 192.323431 200.984381 
L 191.766499 201.033933 
L 190.016284 201.384276 
L 189.410823 201.097017 
L 188.965661 200.826946 
L 188.173125 200.805187 
L 188.077439 200.698036 
L 187.524254 200.524145 
L 187.224037 200.530728 
L 186.235651 200.593446 
L 185.854919 200.680483 
L 185.560825 200.511894 
L 185.285284 200.521768 
L 185.117583 200.398161 
L 184.562661 200.329592 
L 183.906661 199.713933 
L 183.251667 199.330678 
L 182.714384 199.125885 
L 182.002545 199.63165 
L 180.787694 198.692528 
L 180.067996 198.305433 
L 179.635537 198.275994 
L 178.995348 198.82089 
L 178.015736 198.338712 
L 177.050015 198.11216 
L 176.600923 197.877014 
L 176.282245 197.544774 
L 175.384062 197.955457 
L 174.698726 197.661433 
L 173.546112 198.267583 
L 173.223047 197.98197 
L 172.750925 196.457726 
L 172.405744 195.896008 
L 171.795988 195.445646 
L 170.1389 194.632143 
L 169.300303 194.390597 
L 168.719792 194.649331 
L 167.966736 194.829805 
L 168.157742 194.431555 
L 168.007679 194.228774 
L 167.841257 194.257299 
L 167.629506 194.186718 
L 167.277196 194.167885 
L 166.936037 194.056163 
L 166.574223 193.563197 
L 165.731421 192.851176 
L 164.866138 192.51345 
L 164.234175 191.960144 
L 163.480205 191.412322 
L 163.91897 190.68549 
L 163.814511 190.619481 
L 163.271378 191.421099 
L 162.494744 191.200581 
L 161.797619 191.315229 
L 161.214732 191.177176 
L 160.663648 191.11135 
L 160.481782 191.031627 
L 160.227351 190.961961 
L 159.93216 190.918808 
L 159.656162 190.675799 
L 159.461044 190.510685 
L 159.294439 190.515622 
L 158.216582 190.49368 
L 157.801579 190.192159 
L 157.464715 189.815303 
L 156.412447 189.223415 
L 155.580978 188.909826 
L 154.886138 188.743432 
L 154.725383 188.705399 
L 154.547354 188.468973 
L 154.396378 188.291607 
L 154.471592 188.076757 
L 154.471135 187.76134 
L 154.349677 187.303481 
L 154.193857 187.141475 
L 153.90616 187.213519 
L 153.827747 187.054987 
L 153.765236 187.080038 
L 153.738276 187.169452 
L 153.675765 187.164515 
L 153.681888 187.077478 
L 153.651273 187.012566 
L 153.5597 186.962282 
L 153.51501 186.585609 
L 153.413475 186.434391 
L 153.516381 186.120802 
L 153.472331 185.836469 
L 153.232066 185.660201 
L 152.93852 185.700245 
L 152.800612 185.785088 
L 152.83004 185.912535 
L 152.93788 186.035045 
L 152.825196 186.035045 
L 152.788366 186.120802 
L 152.763873 186.213873 
L 152.64863 186.324132 
L 152.511362 186.336383 
L 152.317706 186.277505 
L 152.192684 186.29963 
L 151.955709 186.44006 
L 151.741764 186.199428 
L 151.244419 185.810139 
L 151.115741 185.768449 
L 151.016674 185.812333 
L 150.868073 185.577552 
L 150.694066 185.773568 
L 150.632743 185.86408 
L 150.519968 185.854388 
L 150.380689 185.89809 
L 150.294051 185.94618 
L 149.844959 186.259769 
L 149.952252 186.483212 
L 150.099298 186.54209 
L 150.109169 186.689102 
L 150.003704 186.777419 
L 150.212074 187.012566 
L 150.058721 187.157566 
L 149.763531 187.318841 
L 149.446863 187.32908 
L 149.23365 187.023354 
L 149.104424 187.022805 
L 148.991648 187.142938 
L 149.026194 187.386678 
L 148.915429 187.518514 
L 148.773957 187.66772 
L 148.292513 187.909998 
L 147.91827 187.841063 
L 147.991199 187.615242 
L 147.883359 187.355594 
L 147.397985 186.983127 
L 146.700768 186.696051 
L 146.217405 186.738838 
L 145.764841 186.783454 
L 145.157095 186.928637 
L 144.769509 186.979835 
L 144.305978 187.095397 
L 143.803331 187.12063 
L 143.309824 187.130687 
L 142.921964 187.076381 
L 142.570751 186.850194 
L 142.278119 186.608282 
L 141.490426 186.189371 
L 140.605494 185.961539 
L 140.546822 185.835555 
L 140.387986 185.724747 
L 139.751544 185.553965 
L 139.411572 185.52544 
L 139.13731 185.502583 
L 138.594269 185.577369 
L 138.053787 185.699331 
L 137.8233 185.674829 
L 137.676253 185.581758 
L 137.091538 185.315161 
L 136.400811 185.258843 
L 135.524013 185.140722 
L 134.917638 184.950557 
L 134.327348 184.770997 
L 133.95932 184.741375 
L 133.462522 184.719068 
L 132.681227 184.436929 
L 132.078325 184.231404 
L 131.597247 183.978887 
L 131.383851 183.680475 
L 131.115894 183.438015 
L 130.511165 183.188058 
L 130.104295 182.938283 
L 129.968855 182.728371 
L 129.751255 182.421181 
L 129.160508 182.053834 
L 128.922436 181.605666 
L 128.650916 181.509487 
L 128.278044 181.512412 
L 127.758399 181.747559 
L 127.491173 181.835693 
L 127.200918 181.754873 
L 127.130547 181.721777 
L 126.983775 181.697275 
L 126.72514 181.768404 
L 126.475096 181.819785 
L 125.777057 181.890914 
L 123.825327 181.321151 
L 123.379982 181.215828 
L 121.330007 180.483877 
L 120.855874 180.415856 
L 120.380188 180.244525 
L 120.020293 180.013036 
L 119.873063 179.530858 
L 119.522856 179.076839 
L 119.225837 178.828162 
L 119.097525 178.695778 
L 119.027063 178.499396 
L 118.934577 178.276684 
L 118.861738 178.09877 
L 118.582907 177.955781 
L 118.372526 177.884286 
L 118.129794 177.889223 
L 118.002396 177.93329 
L 118.039866 178.077742 
L 116.289651 178.857053 
L 115.957904 179.033138 
L 115.546099 179.439798 
L 114.724958 180.258056 
L 114.278791 180.823979 
L 114.114562 181.176698 
L 114.045928 181.36668 
L 114.033682 181.615358 
L 114.079011 181.872629 
L 114.457733 183.080358 
L 114.367074 183.173429 
L 114.403812 183.340007 
L 114.509277 183.526149 
L 114.697998 183.651219 
L 114.894121 183.675721 
L 115.082842 183.626717 
L 115.256849 183.484459 
L 115.396585 183.322819 
L 115.50013 182.82199 
L 115.637124 182.159522 
L 115.735369 181.917244 
L 115.906543 181.822893 
L 116.117563 181.832401 
L 116.550022 181.814116 
L 116.787271 181.805705 
L 117.002038 181.789614 
L 117.347859 181.744267 
L 117.558879 181.796563 
L 117.819067 181.855806 
L 118.246682 182.034269 
L 118.761758 182.380954 
L 118.944172 182.45574 
L 119.29173 182.598364 
L 119.431374 182.570753 
L 119.487762 182.431055 
L 119.639744 182.499624 
L 119.904319 182.737696 
L 120.217422 183.137591 
L 120.356792 183.455751 
L 120.562511 183.6141 
L 120.89243 183.56345 
L 121.101531 183.604957 
L 121.255158 183.66347 
L 121.385846 183.80975 
L 121.39791 184.02076 
L 121.527775 184.132299 
L 121.640277 184.147842 
L 121.84161 184.11182 
L 122.191817 183.990041 
L 122.445791 183.787991 
L 122.685599 183.634214 
L 122.921111 183.550468 
L 123.096307 183.504024 
L 124.361879 184.164481 
L 124.444222 184.099569 
L 124.883078 184.462162 
L 125.178725 184.815796 
L 125.247268 184.831887 
L 125.487807 184.94434 
L 126.196356 185.459065 
L 126.464952 185.867005 
L 127.103039 186.408244 
L 127.206675 186.501498 
L 127.344401 186.584146 
L 127.441457 186.618705 
L 127.751087 186.934305 
L 127.938437 187.144218 
L 128.420704 187.586169 
L 128.906809 188.131613 
L 129.170013 188.245529 
L 129.777484 188.510114 
L 130.021953 188.528216 
L 130.670275 188.37773 
L 131.354149 188.242786 
L 131.792639 188.118813 
L 132.045425 187.994475 
L 132.350394 187.936694 
L 132.991131 187.644681 
L 133.559761 187.575929 
L 133.883374 187.615242 
L 134.329542 187.704473 
L 134.936556 188.070906 
L 135.229462 188.261254 
L 135.399905 188.386872 
L 135.623262 188.552901 
L 135.950257 188.871976 
L 136.337295 189.264374 
L 136.69984 189.643789 
L 137.133944 190.234032 
L 137.327234 190.500994 
L 137.515864 190.754059 
L 137.794969 191.007491 
L 138.047207 191.199118 
L 138.417611 191.4083 
L 138.703115 191.568111 
L 138.957271 191.787898 
L 139.40883 192.022496 
L 139.664083 192.202055 
L 139.762602 192.279767 
L 139.926008 192.299332 
L 140.371353 192.321274 
L 140.700814 192.382895 
L 140.859925 192.338828 
L 141.287357 192.37942 
L 141.692947 192.388746 
L 142.207566 192.334622 
L 142.72255 192.341936 
L 143.016461 192.312863 
L 143.227847 192.306829 
L 143.383302 192.283424 
L 143.457054 192.2293 
L 143.922047 192.19657 
L 144.364742 192.244842 
L 144.729023 192.327308 
L 145.032805 192.437201 
L 145.443513 192.627549 
L 146.189805 193.021958 
L 146.497699 193.212855 
L 146.724621 193.396985 
L 147.057739 193.733065 
L 147.384733 194.092367 
L 147.714652 194.435578 
L 147.922108 194.654633 
L 148.059742 194.8821 
L 148.14967 194.965846 
L 148.255957 195.015398 
L 148.442484 195.043191 
L 148.49677 195.084333 
L 148.733014 195.305034 
L 149.2087 195.669638 
L 149.322573 195.880831 
L 149.392669 196.201003 
L 149.494203 196.390254 
L 149.709885 196.713717 
L 149.978846 196.929115 
L 150.483046 197.125497 
L 150.61282 197.138479 
L 150.724042 197.022186 
L 150.858934 196.976108 
L 151.010185 196.888339 
L 151.706671 197.249652 
L 152.322458 197.827095 
L 152.789188 198.320061 
L 153.389531 199.101566 
L 154.080076 199.958222 
L 154.688552 200.960427 
L 154.807085 201.060447 
L 154.92242 201.114388 
L 154.978534 201.17034 
L 155.022401 201.304735 
L 155.487943 202.014928 
L 155.604831 202.140181 
L 155.799492 202.229961 
L 156.080061 202.395258 
L 156.27792 202.529836 
L 156.479893 202.790216 
L 156.786416 203.247343 
L 156.868484 203.355956 
L 157.018182 203.512111 
L 157.658096 204.240223 
L 158.118886 204.633901 
L 158.327896 204.881115 
L 158.755145 205.460935 
L 159.280456 206.277364 
L 160.062026 207.856281 
L 160.496313 208.449815 
L 160.998319 209.296963 
L 161.466969 210.380354 
L 162.085681 211.931295 
L 163.023893 213.816121 
L 163.872452 215.11619 
L 164.347042 216.375301 
L 165.166721 217.502394 
L 166.102923 220.271853 
L 166.425896 221.011667 
L 166.571572 221.597338 
L 166.867677 222.073848 
L 167.308909 223.274081 
L 167.78295 224.820999 
L 168.28843 225.968022 
L 169.185608 227.384019 
L 169.936653 228.893452 
L 170.611114 229.811546 
L 171.312351 231.153854 
L 171.503905 231.419902 
L 172.08204 232.991871 
L 172.131391 233.351904 
L 172.414426 234.101227 
L 172.891301 236.245336 
L 173.097203 236.897748 
L 173.514582 238.745638 
L 173.612004 239.423466 
L 173.509922 239.631551 
L 173.494294 239.663732 
L 173.632841 239.823178 
L 173.664737 239.902901 
L 173.681827 240.000909 
L 173.694073 240.09654 
L 173.680273 240.203142 
L 173.310874 241.058701 
L 173.226338 241.367171 
L 173.038439 241.688257 
L 167.467288 247.325548 
L 165.412835 249.274555 
L 165.336615 249.429247 
L 165.27383 249.847061 
L 165.194412 249.973777 
L 164.964017 250.233791 
L 164.914941 250.439863 
L 164.98851 250.542808 
L 165.106129 250.670438 
L 165.282695 250.719442 
L 165.51309 250.670438 
L 165.74842 250.596749 
L 165.964101 250.395614 
L 165.944544 250.302542 
L 165.989599 250.24915 
L 166.116083 250.233791 
L 167.068187 249.209277 
L 167.140751 249.193918 
L 167.25837 249.233048 
L 168.998806 250.434926 
L 169.459596 250.797885 
L 169.601799 250.940143 
L 169.685147 251.092275 
L 169.729289 251.180592 
L 169.739068 251.283537 
L 169.671439 251.539346 
L 169.641006 251.828067 
L 168.964444 252.848375 
L 168.796286 252.910361 
L 168.798753 252.841792 
L 168.711841 252.841061 
L 167.353873 256.853905 
L 167.418851 256.91772 
L 167.487486 256.848968 
L 167.560506 256.965627 
L 167.465278 258.141906 
L 164.720919 258.902566 
L 164.612713 258.930725 
L 164.45278 258.925971 
L 164.339913 258.86947 
L 164.274021 258.747143 
L 163.478925 256.995797 
L 163.384793 256.859208 
L 163.2531 256.75096 
L 163.064836 256.703785 
L 163.050762 256.548544 
L 162.994283 256.393121 
L 162.881416 256.228372 
L 162.759044 256.153038 
L 162.561459 256.153038 
L 162.481492 256.209539 
L 162.443839 256.355454 
L 162.410939 256.534282 
L 162.401526 256.755714 
L 162.386538 257.261114 
L 163.0355 259.059635 
L 163.197718 259.385658 
L 163.388358 259.626107 
L 163.586857 259.817369 
L 163.858835 259.957067 
L 164.182265 260.045384 
L 164.299884 260.104262 
L 164.785075 261.200269 
L 164.895383 261.509287 
L 164.918779 261.8077 
L 163.770643 265.129002 
L 162.645903 268.586895 
L 162.75548 273.447801 
L 162.278331 275.385654 
L 162.116571 276.062751 
L 161.847792 276.149057 
L 161.748999 276.739665 
L 161.837282 276.923613 
L 161.851996 277.232814 
L 161.587512 278.591212 
L 161.241783 280.934263 
L 160.871378 282.745401 
L 160.816361 283.081846 
L 160.638973 283.789662 
L 160.447876 284.841968 
L 160.323311 285.801204 
L 160.256413 286.45709 
L 160.26409 286.770313 
L 160.102329 288.183384 
L 159.951627 288.940204 
L 159.771588 289.671973 
L 159.489832 290.378326 
L 159.308422 291.13478 
L 159.01972 293.130414 
L 158.845165 294.283105 
L 157.341338 302.015867 
L 157.302131 302.294898 
L 157.26 302.513404 
L 157.288605 302.821508 
L 157.197946 302.98132 
L 156.928345 303.794092 
L 156.725824 304.641422 
L 156.679124 305.12104 
L 156.717782 305.2942 
L 156.797566 305.389465 
L 156.760644 305.410127 
L 156.735512 305.430972 
L 156.71632 305.461874 
L 156.679764 305.658804 
L 155.793004 310.135541 
L 155.739815 310.404149 
L 155.671546 310.409818 
L 155.501012 311.140307 
L 155.47003 311.66838 
L 155.457419 312.142512 
L 155.365754 312.471461 
L 155.366577 312.968449 
L 154.96711 313.963158 
L 154.842362 314.562543 
L 154.818875 314.880703 
L 154.385594 316.936313 
L 154.337614 318.072182 
L 153.565183 321.681657 
L 153.51894 322.046993 
L 153.234807 322.934734 
L 152.978092 324.765802 
L 152.101111 328.559592 
L 151.866878 330.130463 
L 151.247252 333.144211 
L 151.431403 333.432932 
L 150.525451 337.638318 
L 149.747172 341.759776 
L 149.649201 342.300101 
L 149.200292 344.321699 
L 149.024732 344.921084 
L 149.046483 345.160436 
L 148.624808 345.727274 
L 148.608815 346.40565 
L 148.490921 346.928055 
L 148.467434 347.493978 
L 148.430055 347.627825 
L 148.394504 347.64611 
L 148.362335 347.678475 
L 148.330166 347.886011 
L 147.284113 353.273893 
L 147.309154 353.25122 
L 147.339769 353.23458 
L 147.390034 353.223609 
L 147.741247 353.233301 
L 147.807413 353.272065 
L 147.929328 353.266397 
L 148.647747 353.408289 
L 148.665202 353.411763 
L 148.705688 353.421454 
L 149.514675 353.702679 
L 149.553333 353.722244 
L 149.584588 353.746929 
L 149.602592 353.78423 
L 150.684013 348.300716 
L 150.728064 348.08093 
L 150.718468 348.049845 
L 150.695346 348.021137 
L 150.612638 347.970853 
L 150.660161 347.540971 
L 150.701103 346.649939 
L 150.748078 346.428324 
L 150.797155 346.180927 
L 150.844952 345.620672 
L 150.936525 345.161899 
L 151.02033 344.66235 
L 151.167559 343.786678 
L 151.284996 343.211063 
L 151.682361 342.644409 
L 151.978831 342.109753 
L 152.157773 341.55608 
L 152.326936 340.759765 
L 152.437336 340.025619 
L 152.544537 339.432268 
L 152.602935 338.861042 
L 152.667 338.636501 
L 152.689847 338.335894 
L 152.778039 337.780942 
L 152.799333 337.502095 
L 152.667 336.949702 
L 152.659688 336.500438 
L 153.775838 331.070682 
L 153.968214 330.806646 
L 154.034381 330.47532 
L 154.232789 330.283692 
L 154.372525 329.834428 
L 154.534194 328.810829 
L 154.629788 328.243625 
L 154.788076 327.342536 
L 155.354422 324.545467 
L 155.526692 323.655532 
L 155.793278 322.519846 
L 155.96957 321.589318 
L 156.008959 321.179183 
L 156.476968 318.793346 
L 156.523852 318.148614 
L 157.24684 314.598382 
L 157.279649 314.4084 
L 157.289611 314.150397 
L 157.16989 313.775736 
L 157.175464 313.49634 
L 157.267677 312.981066 
L 157.506663 312.256245 
L 157.624282 311.682825 
L 157.82726 310.898761 
L 157.874143 310.887241 
L 157.899275 310.875722 
L 157.92258 310.854877 
L 157.940401 310.827815 
L 157.974033 310.614793 
L 158.901278 306.019569 
L 159.127012 304.795566 
L 159.211274 304.058494 
L 159.21036 303.816217 
L 159.24911 303.582533 
L 159.337393 303.037638 
L 159.430519 302.76519 
L 159.693266 301.18865 
L 159.844426 300.923516 
L 159.910592 300.754196 
L 159.947331 300.430185 
L 160.428501 298.027708 
L 160.601594 297.434174 
L 161.056992 295.125133 
L 161.910577 290.62042 
L 161.968975 290.375217 
L 161.895406 289.985197 
L 162.219019 288.478871 
L 162.417336 288.159979 
L 162.659977 287.019173 
L 162.674417 286.797192 
L 162.623238 286.702658 
L 162.645263 286.437707 
L 163.03422 284.409892 
L 163.21892 284.084783 
L 163.264707 283.749617 
L 163.567026 282.308204 
L 163.615645 282.088235 
L 163.520051 281.661461 
L 163.490623 281.447891 
L 163.630359 280.859294 
L 163.654395 280.473845 
L 163.941177 279.998981 
L 163.961101 279.821616 
L 164.189668 278.819227 
L 164.257479 278.520449 
L 164.161885 278.007553 
L 164.28252 277.453332 
L 164.96091 274.655897 
L 165.858454 273.669416 
L 166.479451 273.140612 
L 167.689641 271.859742 
L 167.983735 271.344651 
L 168.615881 269.976195 
L 169.005569 269.129962 
L 170.531421 265.53292 
L 171.041836 263.803334 
L 171.62253 262.574576 
L 171.813718 262.420067 
L 172.056268 262.353875 
L 173.092816 261.890531 
L 173.842674 261.493196 
L 174.158701 261.353498 
L 174.416056 261.147426 
L 174.401342 260.919411 
L 174.688034 260.808969 
L 174.886533 260.706024 
L 174.974725 260.566326 
L 174.945297 260.397006 
L 174.871819 260.301375 
L 174.724772 260.264622 
L 174.467509 260.330814 
L 174.357201 260.389692 
L 174.202843 260.360253 
L 173.82796 260.492637 
L 173.217747 260.772216 
L 172.725245 261.000231 
L 172.262079 261.265181 
L 171.909221 261.456443 
L 171.698109 261.468512 
L 171.482885 261.449129 
L 171.254958 261.382937 
L 171.048873 261.284929 
L 170.88894 261.124752 
L 170.908589 260.661042 
L 171.194001 260.664516 
L 171.193727 260.687007 
L 171.349364 260.688836 
L 171.352014 260.46978 
L 171.20579 260.467952 
L 171.205059 260.529207 
L 170.910234 260.52555 
L 170.883731 260.194956 
L 171.110013 259.40632 
L 171.128839 259.255651 
L 171.130119 259.191653 
L 171.284477 259.138809 
L 171.320028 258.967112 
L 171.387748 258.565572 
L 171.39972 258.31214 
L 171.364078 258.111553 
L 172.967886 253.968153 
L 172.878689 252.239116 
L 173.448964 250.608452 
L 173.406102 250.547745 
L 173.27907 250.510078 
L 173.66958 249.437841 
L 173.610177 249.131383 
L 174.257585 247.158057 
L 174.331429 247.106676 
L 174.424373 247.114538 
L 174.324757 247.626155 
L 174.952334 248.454835 
L 175.255293 248.504936 
L 175.784351 249.252796 
L 175.924544 249.439669 
L 176.038965 249.538592 
L 176.486594 249.790377 
L 176.419148 249.894602 
L 176.693136 250.099761 
L 177.087576 250.375317 
L 177.32117 250.585413 
L 177.481743 250.591812 
L 177.5979 250.484479 
L 177.992066 250.733156 
L 178.294842 251.209665 
L 177.943355 251.987513 
L 177.764413 252.088081 
L 177.730964 252.181701 
L 177.523965 252.762069 
L 177.482931 252.852032 
L 177.029452 253.835769 
L 177.336158 253.983147 
L 177.135831 254.421258 
L 177.169645 254.573938 
L 177.347673 254.652015 
L 177.474157 254.565161 
L 177.57953 254.306427 
L 177.713874 254.360368 
L 178.880471 251.682883 
L 179.341992 251.558911 
L 179.881286 251.500947 
L 179.986933 251.185529 
L 180.137727 250.90339 
L 180.300493 250.757475 
L 180.530431 250.767166 
L 180.536737 250.728951 
L 180.627944 250.177838 
L 180.668064 249.938669 
L 180.758815 249.377866 
L 180.517727 249.265961 
L 180.268232 249.203792 
L 180.034547 249.261573 
L 180.008318 249.224088 
L 179.890059 249.054768 
L 179.695855 249.059157 
L 179.265041 249.280406 
L 179.15391 249.295949 
L 178.241013 248.927138 
L 177.139943 248.611538 
L 176.9419 248.420276 
L 176.767071 248.228465 
L 176.562996 247.901345 
L 176.524247 247.75799 
L 176.496281 247.625058 
L 176.507979 247.457383 
L 176.555411 247.51809 
L 176.633184 247.465246 
L 176.467402 247.255333 
L 176.50341 247.034632 
L 176.593795 246.940464 
L 177.030275 246.925653 
L 177.377284 246.685387 
L 177.466024 246.57202 
L 177.50258 246.388255 
L 177.610055 245.897849 
L 177.732335 245.549701 
L 177.759204 245.396472 
L 177.819613 245.190033 
L 177.749151 245.031319 
L 177.327933 243.423328 
L 177.56902 242.949745 
L 177.587755 242.800356 
L 178.03374 242.45495 
L 178.250243 242.513645 
L 178.430465 242.709844 
L 178.850769 243.373776 
L 179.153819 243.852479 
L 179.399111 243.965481 
L 179.577687 243.956521 
L 179.491141 243.906055 
L 179.458606 243.8256 
L 179.183338 243.717718 
L 178.720081 243.007891 
L 178.408349 242.524616 
L 178.40058 242.368279 
L 178.37691 242.026897 
L 178.36704 241.730495 
L 178.432841 241.447259 
L 178.586194 241.178103 
L 179.008966 240.802893 
L 179.165883 240.773454 
L 182.267943 234.890777 
L 182.47878 234.993722 
L 184.01697 232.133935 
L 184.444036 231.3197 
L 184.551054 231.116919 
L 184.776331 231.229555 
L 185.99237 229.031688 
L 188.414852 230.403983 
L 188.769903 230.564892 
L 188.875733 230.423 
L 188.98266 230.192059 
L 189.084194 230.145981 
L 189.169096 229.906446 
L 189.341184 229.825992 
L 189.639573 229.798381 
L 190.131984 229.890172 
L 190.546256 229.821603 
L 190.641942 229.887795 
L 190.626314 229.995312 
L 190.736622 230.142506 
L 190.81997 230.130255 
L 191.145959 230.395023 
L 191.011158 230.532344 
L 191.131245 230.745549 
L 191.411539 230.608593 
L 191.830655 231.067183 
L 192.154176 231.150746 
L 192.683783 231.074497 
L 192.772066 231.022933 
L 192.958319 231.456838 
L 193.529326 231.65578 
L 193.732852 231.61153 
L 194.282016 231.579531 
L 194.429154 231.52815 
L 194.554085 231.667848 
L 194.668506 231.993688 
L 194.724893 232.214206 
L 194.928328 232.685047 
L 194.751854 232.76605 
L 194.597404 232.942501 
L 194.538549 233.13614 
L 194.585158 233.317711 
L 194.751854 233.452472 
L 194.98956 233.459969 
L 195.190618 233.356841 
L 195.406299 233.18039 
L 195.96113 233.322831 
L 196.193169 233.192641 
L 196.296075 233.227017 
L 196.308413 233.337276 
L 196.396604 233.378966 
L 196.384358 233.570228 
L 196.884445 233.84487 
L 196.793695 234.170893 
L 197.440829 234.369652 
L 197.744793 234.158642 
L 198.647729 234.453215 
L 199.314513 235.012373 
L 199.765524 235.218263 
L 200.29376 235.725308 
L 200.481292 236.405148 
L 201.000937 236.866115 
L 201.625955 236.811808 
L 202.190656 236.262524 
L 203.484925 237.172755 
L 203.687537 237.179887 
L 203.971944 236.915119 
L 204.050357 236.689481 
L 203.90331 236.503156 
L 204.01115 236.316831 
L 204.24648 236.297266 
L 204.285687 236.365835 
L 204.305244 236.669916 
L 204.47194 237.101444 
L 205.171441 237.643596 
L 205.704886 238.381217 
L 206.468178 238.324898 
L 207.081315 238.756244 
L 207.65945 239.125419 
L 208.437912 239.170035 
L 208.629375 239.181006 
L 208.9104 239.149921 
L 209.168029 239.179909 
L 209.952432 239.930329 
L 210.060729 240.481441 
L 210.15742 241.383993 
L 210.198363 241.951745 
L 210.437531 242.491703 
L 210.61757 242.757751 
L 210.725045 243.168069 
L 210.295876 243.537427 
L 210.515487 243.953413 
L 209.668391 244.706758 
L 209.626351 244.847188 
L 209.714543 245.033696 
L 209.636952 245.161874 
L 209.50864 245.269025 
L 209.370276 245.263905 
L 209.054248 244.839691 
L 208.890934 244.778619 
L 208.740505 244.855416 
L 208.577191 245.023822 
L 208.430144 245.122013 
L 208.11631 245.112139 
L 207.920278 245.053261 
L 207.684948 245.03845 
L 206.890583 244.735466 
L 206.581684 244.617527 
L 206.412704 244.606922 
L 206.316927 244.642029 
L 206.24354 244.699993 
L 205.945425 245.336497 
L 205.209551 246.907734 
L 204.837684 247.701855 
L 204.787145 247.816503 
L 204.787328 247.906282 
L 204.834394 248.000085 
L 204.957953 248.093156 
L 205.940216 248.544432 
L 208.455093 249.702975 
L 209.211896 250.047466 
L 209.263349 250.084219 
L 209.297712 250.120972 
L 209.306302 250.217883 
L 209.366346 250.335638 
L 209.481589 250.427612 
L 209.589429 250.461806 
L 209.737664 250.466743 
L 209.832071 250.454492 
L 209.942379 250.437304 
L 210.01348 250.442241 
L 210.100484 250.475337 
L 210.150749 250.520684 
L 210.264712 250.632223 
L 210.352995 250.800445 
L 210.50123 251.043088 
L 210.663082 251.352289 
L 210.816252 251.680872 
L 210.895945 251.899196 
L 207.818743 256.300416 
L 207.858041 256.327112 
L 207.894506 256.351248 
L 207.961677 256.397692 
L 211.451963 251.459074 
L 211.513652 251.401293 
L 211.599467 251.384105 
L 211.847043 251.474799 
L 211.952416 251.484673 
L 212.165721 251.462548 
L 212.332417 251.440423 
L 212.484399 251.40367 
L 212.577526 251.366917 
L 212.680431 251.379168 
L 212.780778 251.416653 
L 212.901047 251.401293 
L 213.129066 251.352289 
L 213.268802 251.28116 
L 213.364305 251.261412 
L 213.51391 251.222282 
L 213.69532 251.163404 
L 213.773733 251.097212 
L 213.844835 251.038334 
L 213.950208 250.964645 
L 214.12915 250.908327 
L 214.425803 250.849449 
L 214.688093 250.815073 
L 214.906241 250.82001 
L 215.045886 250.846889 
L 215.180778 250.846889 
L 215.403861 250.812696 
L 215.832847 250.658187 
L 216.041126 250.609 
L 216.225003 250.582121 
L 216.332843 250.574625 
L 216.370588 250.577916 
L 216.492137 250.587058 
L 216.729934 250.662941 
L 216.818217 250.69238 
L 216.827996 250.751258 
L 216.840242 250.795508 
L 216.866654 250.839027 
L 216.943239 250.846889 
L 217.015894 250.832078 
L 217.097689 250.802822 
L 217.159925 250.774846 
L 217.266761 250.910704 
L 217.388401 251.014015 
L 217.507026 251.11184 
L 217.636891 251.198877 
L 217.696752 251.233802 
L 217.993679 251.397636 
L 218.053631 251.438046 
L 218.134511 251.48961 
L 218.227729 251.57043 
L 218.323323 251.61468 
L 218.41645 251.631868 
L 218.574555 251.680872 
L 218.687331 251.732253 
L 218.851011 251.822399 
L 219.016884 251.916018 
L 219.053806 251.933572 
L 219.14346 251.97837 
L 219.294071 252.053705 
L 219.400632 252.106366 
L 219.519531 252.165244 
L 219.615125 252.232716 
L 219.70094 252.32341 
L 219.830897 252.465851 
L 220.193625 253.110948 
L 220.642169 253.726424 
L 221.296706 254.430583 
L 221.81955 254.76776 
L 222.451239 255.585652 
L 222.554236 255.796662 
L 222.09436 259.792684 
L 221.5218 260.0516 
L 220.800091 261.017236 
L 220.730269 261.258782 
L 221.961844 262.230634 
L 221.976832 264.899525 
L 222.202383 264.902267 
L 222.266357 268.185537 
L 222.278146 269.536622 
L 222.279608 270.158498 
L 222.312783 270.214084 
L 224.078809 270.938905 
L 224.760032 271.211353 
L 226.522493 271.905272 
L 226.506865 272.358376 
L 226.551007 272.953007 
L 226.850036 273.007679 
L 227.246304 272.952275 
L 227.649061 272.429688 
L 231.352195 274.015005 
L 231.255686 274.497548 
L 231.841681 275.303737 
L 232.76847 275.127103 
L 232.906286 274.917556 
L 233.064209 275.012639 
L 233.202208 274.771824 
L 234.873096 275.460806 
L 235.212794 275.601053 
L 236.835976 276.290949 
L 236.705471 276.955063 
L 237.22603 277.566516 
L 237.474886 277.685918 
L 238.341631 277.62448 
L 238.874985 277.121823 
L 240.200692 277.66361 
L 241.795544 278.337415 
L 242.451908 278.606023 
L 242.523741 279.608412 
L 243.471184 279.518266 
L 243.869463 280.214196 
L 244.12563 280.66273 
L 245.415695 282.705722 
L 245.106156 283.386293 
L 245.181919 283.618513 
L 245.401529 284.083686 
L 245.491458 284.242766 
L 245.517138 284.229235 
L 245.505806 284.203636 
L 245.758043 284.19687 
L 245.768461 284.222652 
L 246.250454 284.097217 
L 248.442175 287.69755 
L 248.453782 287.830665 
L 248.587851 288.009128 
L 248.880666 288.461866 
L 249.108227 288.829945 
L 249.151821 288.806357 
L 251.202527 292.167521 
L 250.869775 292.546022 
L 251.400752 293.689754 
L 252.297748 293.044291 
L 251.991773 292.435398 
L 255.453728 290.196389 
L 255.659173 290.49919 
L 256.021536 290.32603 
L 256.198376 290.370098 
L 256.884626 290.198949 
L 258.100847 289.427319 
L 258.210698 289.034555 
L 258.736284 288.539761 
L 258.877482 287.903623 
L 258.673499 287.620935 
L 257.787104 287.157591 
L 257.394949 287.236217 
L 256.798719 286.882766 
L 256.1132 285.823877 
L 254.217583 282.973964 
L 253.709636 281.965725 
L 252.603814 280.521203 
L 251.794279 278.888711 
L 251.919758 278.543123 
L 252.876705 278.056374 
L 253.653248 277.836404 
L 254.476949 277.781549 
L 255.16722 277.836404 
L 255.818284 277.545854 
L 256.320291 277.33393 
L 256.853644 277.310342 
L 257.230172 277.412373 
L 257.575353 277.36538 
L 258.093079 276.941349 
L 258.712705 277.208312 
L 258.900969 277.875717 
L 258.967593 277.871694 
L 259.291206 279.387893 
L 259.587858 279.356443 
L 259.295684 278.159684 
L 259.238291 277.867854 
L 259.254284 277.565419 
L 259.667733 277.147056 
L 259.992535 276.950492 
L 259.857734 274.998011 
L 260.584104 273.622972 
L 260.774378 273.179376 
L 260.869881 272.756259 
L 260.822815 272.536473 
L 260.665898 272.363861 
L 259.503779 271.908929 
L 259.316703 271.735586 
L 259.300253 271.040021 
L 259.433683 270.232186 
L 259.418695 269.78859 
L 258.766351 269.33512 
L 257.442015 268.971978 
L 257.755758 267.954779 
L 258.761051 268.270014 
L 260.104305 266.523423 
L 260.5714 265.855469 
L 260.872806 265.527617 
L 261.167082 265.673715 
L 261.646424 266.02808 
L 262.528797 266.66111 
L 263.764851 267.553056 
L 264.224361 267.624185 
L 264.895166 267.808499 
L 265.506932 267.797893 
L 265.508943 267.980196 
L 265.664032 268.00488 
L 265.819121 268.029748 
L 265.826889 267.888587 
L 266.474938 267.865 
L 268.320838 268.804487 
L 268.676895 268.896095 
L 268.715827 268.861902 
L 268.741782 268.855868 
L 268.813615 268.839412 
L 268.845053 268.83228 
L 268.866256 268.767551 
L 269.429494 267.425609 
L 269.600302 267.449014 
L 269.631649 267.339121 
L 268.730175 266.977259 
L 268.750556 266.910701 
L 266.872942 266.293214 
L 266.807141 266.130294 
L 266.766656 266.141448 
L 266.623264 265.78434 
L 266.089545 264.393394 
L 265.495143 262.807894 
L 265.360525 262.300849 
L 265.087725 261.395006 
L 264.768133 260.355681 
L 264.887763 260.127301 
L 265.426052 258.089977 
L 265.211376 257.481815 
L 265.150053 257.506317 
L 265.023752 257.171151 
L 264.744372 256.847688 
L 264.531981 256.525322 
L 264.413722 255.8453 
L 264.305607 255.329478 
L 264.235785 255.176066 
L 264.154904 255.165826 
L 263.928713 255.229824 
L 263.89828 255.191242 
L 263.757448 255.124136 
L 262.946451 254.945491 
L 262.416936 254.670849 
L 262.00504 254.420709 
L 261.661961 254.249012 
L 261.31879 253.88587 
L 260.965841 253.473907 
L 260.632449 253.159952 
L 259.975536 252.374974 
L 259.756016 252.220465 
L 258.508813 251.726036 
L 257.818451 251.474799 
L 256.877223 250.611378 
L 256.335918 249.858032 
L 256.053614 249.261573 
L 255.62216 248.6258 
L 255.112294 248.280395 
L 254.021917 248.045066 
L 252.743367 247.92731 
L 251.229487 247.26027 
L 250.065541 246.548066 
L 249.315501 246.216375 
L 248.62523 245.721946 
L 248.201636 245.039181 
L 248.029091 244.599791 
L 247.613357 243.83072 
L 247.793761 242.787007 
L 248.077894 242.190914 
L 248.664985 241.194925 
L 247.906994 240.570307 
L 247.245602 239.841829 
L 246.888998 239.440471 
L 246.41322 239.145716 
L 246.044551 238.800494 
L 246.091617 238.533714 
L 246.420988 238.478676 
L 246.41322 238.211897 
L 246.036692 238.055011 
L 245.833805 237.745627 
L 245.4719 236.689663 
L 245.589519 236.548503 
L 246.05232 236.21096 
L 246.063378 235.867566 
L 245.847697 235.936135 
L 245.534685 235.614683 
L 245.33783 235.74981 
L 245.46532 235.965574 
L 245.249547 236.181338 
L 245.180913 236.514858 
L 245.061832 236.490539 
L 244.664741 236.931941 
L 244.189146 237.309528 
L 243.355758 238.069822 
L 243.140077 238.226708 
L 243.086157 238.246273 
L 243.007653 238.21208 
L 243.105714 238.055011 
L 243.316552 237.91769 
L 244.321571 236.833933 
L 244.556901 236.539726 
L 244.434346 236.431844 
L 244.499233 236.320853 
L 244.047217 236.021709 
L 242.200951 238.227622 
L 241.926323 237.98443 
L 243.989367 235.544103 
L 244.095745 235.286466 
L 244.205048 234.796792 
L 244.029853 234.688361 
L 243.890117 234.808494 
L 243.613113 235.041446 
L 243.468534 234.909062 
L 243.193997 235.267084 
L 243.203776 235.42141 
L 243.088533 235.514664 
L 242.948523 235.486139 
L 242.630851 236.035972 
L 242.0083 236.807968 
L 241.666501 236.440621 
L 242.31464 235.633151 
L 242.522279 235.377343 
L 242.77936 235.191384 
L 243.808963 234.053137 
L 244.054346 233.587416 
L 243.947327 233.458689 
L 243.823128 233.3093 
L 243.73978 233.209098 
L 243.164204 233.445707 
L 241.684139 234.833362 
L 240.904671 236.468048 
L 240.671352 236.415022 
L 240.977235 234.83007 
L 241.353763 234.225748 
L 242.0911 233.590342 
L 242.179109 233.673173 
L 242.44213 233.42413 
L 242.345804 233.285712 
L 242.491115 233.088051 
L 242.507291 232.788907 
L 242.259715 232.491774 
L 241.617789 232.802803 
L 241.577761 232.962615 
L 240.778461 233.910879 
L 240.773526 233.551577 
L 240.538196 232.955118 
L 239.164418 232.860218 
L 238.686995 232.845408 
L 237.847667 232.986568 
L 236.686736 231.621404 
L 237.220181 231.48006 
L 237.541783 231.056395 
L 237.361379 230.538561 
L 236.843653 230.012865 
L 236.717535 229.740235 
L 236.278313 229.426463 
L 235.933132 229.347837 
L 235.61153 229.190951 
L 235.791934 229.041927 
L 235.674315 228.665255 
L 235.486051 228.555544 
L 235.25858 228.27304 
L 235.02325 228.241589 
L 234.808849 227.748806 
L 234.744876 227.598503 
L 234.677887 227.440885 
L 234.991629 227.205556 
L 234.803365 226.883922 
L 234.505342 226.993815 
L 234.458276 227.244869 
L 234.301359 227.260594 
L 234.324937 226.923235 
L 234.191508 226.829066 
L 234.16802 226.452394 
L 234.17588 226.146484 
L 233.839655 226.308124 
L 233.702387 226.180495 
L 233.853912 225.804188 
L 233.673873 225.612926 
L 233.437629 225.445068 
L 232.800273 225.582389 
L 232.584592 225.523511 
L 232.398248 225.582389 
L 232.496309 225.474507 
L 232.751288 225.327313 
L 232.741418 225.160735 
L 232.623799 224.964536 
L 232.800273 224.758646 
L 232.61402 224.474313 
L 232.192345 224.50357 
L 231.858954 224.248675 
L 231.711907 224.454566 
L 232.064856 224.748773 
L 231.770762 225.033288 
L 231.725432 225.166221 
L 231.89816 225.41563 
L 232.221773 225.543077 
L 232.202124 225.680398 
L 231.702128 225.857031 
L 231.530588 225.616765 
L 231.456928 225.513638 
L 230.834286 224.961794 
L 229.848916 225.082292 
L 229.603807 225.1803 
L 229.33905 225.288182 
L 228.956673 225.160735 
L 228.86839 225.454942 
L 228.495792 225.474507 
L 228.476234 225.268617 
L 228.653074 225.033837 
L 228.378172 225.042979 
L 228.368394 224.582013 
L 228.770328 224.523317 
L 228.888039 224.346684 
L 228.903392 224.108612 
L 228.547427 223.951177 
L 228.387951 224.160359 
L 228.093857 224.013346 
L 228.133064 223.768143 
L 227.780023 223.552379 
L 227.378089 223.885899 
L 226.593595 223.729013 
L 226.387692 223.846586 
L 226.19166 223.679827 
L 225.931746 223.73011 
L 225.877826 223.866152 
L 226.103377 224.268241 
L 226.250424 224.268241 
L 226.534831 224.533009 
L 226.554388 224.778211 
L 226.328928 225.052853 
L 226.044522 225.317621 
L 225.61316 225.091984 
L 225.230691 225.199866 
L 225.044438 224.866528 
L 224.946376 223.866152 
L 223.681535 223.748578 
L 223.73052 224.032911 
L 223.16189 224.268241 
L 222.818628 223.699574 
L 222.436251 223.503375 
L 223.328494 222.836518 
L 223.544267 222.826827 
L 223.779597 222.90527 
L 223.906995 222.767949 
L 223.888625 222.477948 
L 223.769727 222.405173 
L 223.264704 222.23951 
L 222.833342 222.529878 
L 221.735105 221.941464 
L 221.280164 222.23951 
L 221.077186 221.780738 
L 220.798812 221.757881 
L 220.798812 221.37554 
L 221.092997 221.267658 
L 221.248817 221.039278 
L 221.044834 220.788223 
L 220.1663 220.725506 
L 219.617227 220.866666 
L 218.817105 220.333291 
L 218.680934 220.110578 
L 218.660279 219.862632 
L 218.690712 219.698615 
L 219.75943 218.718169 
L 219.946689 218.6624 
L 221.083127 217.551215 
L 221.416519 217.472772 
L 221.847972 216.992423 
L 222.161715 216.972675 
L 221.857751 217.864987 
L 221.896957 218.080751 
L 222.240128 218.198324 
L 223.132462 215.59014 
L 224.339362 213.532337 
L 225.113072 212.727244 
L 225.642496 212.433037 
L 225.779856 212.119265 
L 225.858268 211.776237 
L 226.093598 211.472156 
L 226.289722 211.413461 
L 226.676943 210.590998 
L 226.951479 211.045931 
L 226.99562 211.384022 
L 226.819146 212.442911 
L 227.249503 212.575478 
L 227.382841 212.14395 
L 228.113415 208.678013 
L 228.760549 207.472111 
L 229.535173 206.560417 
L 230.084246 205.893743 
L 230.347907 205.532247 
L 230.849091 204.91348 
L 231.456928 204.325248 
L 232.672784 203.393989 
L 233.368995 202.874327 
L 233.878861 202.433291 
L 234.717093 202.050218 
L 235.462289 201.689454 
L 236.811484 201.556155 
L 241.329636 201.242383 
L 242.270956 201.297239 
L 243.09557 201.090434 
L 243.920733 201.092263 
L 245.184386 201.095006 
L 245.232183 201.211299 
L 245.267734 201.235801 
L 245.532492 201.22483 
L 245.555796 201.197951 
L 245.570419 201.164855 
L 245.664277 200.303444 
L 245.671314 200.265228 
L 250.064718 200.073235 
L 250.067551 200.088595 
L 250.232785 200.992061 
L 250.248778 201.02022 
L 250.272083 201.037408 
L 250.548995 201.027534 
L 250.568644 201.014185 
L 250.612785 200.89771 
L 251.017096 200.834626 
L 251.927069 200.60716 
L 254.005741 200.29357 
L 254.521456 200.241641 
L 256.974645 200.052756 
L 261.460445 199.26028 
L 270.844398 197.495038 
L 280.168582 195.888328 
L 280.916246 195.815371 
L 281.22551 195.84097 
L 281.497213 195.894728 
L 281.644717 196.04686 
L 281.742779 196.218374 
L 281.79871 196.357706 
L 281.921721 196.960748 
L 282.108614 197.437075 
L 282.404171 197.83313 
L 283.016028 198.240887 
L 283.702552 198.247287 
L 283.717906 198.219128 
L 283.706208 198.181278 
L 283.550296 198.037191 
L 283.557973 197.93132 
L 283.599647 197.834409 
L 283.675592 197.751029 
L 283.75236 197.677341 
L 284.007796 197.514603 
L 284.13035 197.455908 
L 284.423256 197.351683 
L 284.701631 197.313285 
L 284.942901 197.319867 
L 285.162329 197.362654 
L 285.308188 197.403064 
L 285.4503 197.468159 
L 285.528621 197.520272 
L 285.604749 197.611514 
L 285.629882 197.698368 
L 285.652546 197.752309 
L 285.606029 197.780468 
L 285.737174 197.97045 
L 285.765596 197.946863 
L 286.025144 198.311102 
L 285.998184 198.634565 
L 286.334044 198.690883 
L 286.427353 198.86002 
L 286.651259 198.751955 
L 286.561605 198.476033 
L 286.853689 198.31677 
L 287.055753 198.554476 
L 287.32051 198.420629 
L 287.245479 198.108503 
L 287.454214 197.786685 
L 287.574392 197.699648 
L 287.711204 197.607309 
L 292.135772 196.705123 
L 292.622151 196.606018 
L 292.954903 196.57603 
L 295.801344 196.923812 
L 296.004139 196.799291 
L 296.158589 196.53306 
L 299.387316 195.836947 
L 301.195655 195.508547 
L 302.034435 195.002964 
L 302.123175 194.879174 
L 302.713465 193.23626 
L 302.859598 193.037135 
L 303.049324 192.895608 
L 303.291965 192.778035 
L 304.206416 192.436104 
L 305.912764 191.674348 
L 306.75785 191.346313 
L 307.251631 191.120858 
L 307.576615 191.071123 
L 307.999387 190.981526 
L 308.221191 190.952818 
L 308.347675 191.065089 
L 313.944963 189.735763 
L 317.719382 188.949505 
L 321.890068 188.225781 
L 322.594413 188.103637 
L 323.15957 188.012211 
L 323.196309 188.024462 
L 323.446079 187.976372 
L 323.46719 187.957173 
L 323.486839 187.91914 
L 323.47048 187.242775 
L 323.464357 187.182251 
L 327.650945 186.399284 
L 327.674158 186.448471 
L 327.903548 187.106002 
L 327.940744 187.138733 
L 328.001061 187.144401 
L 328.203034 187.10454 
L 328.233741 187.073821 
L 329.730257 186.705925 
L 330.20247 186.502595 
L 333.190475 185.949105 
L 337.781374 185.02772 
L 343.643877 184.028257 
L 348.418196 183.134848 
L 353.562646 182.150745 
L 356.301795 181.640408 
L 357.146332 181.472551 
L 358.897096 181.314751 
L 360.160384 181.104472 
L 360.214304 181.115443 
L 360.405492 181.077593 
L 360.444699 181.055468 
L 360.484179 181.00555 
L 360.457219 180.311814 
L 360.453655 180.265187 
L 364.741595 179.467592 
L 364.751465 179.503613 
L 365.014852 180.179247 
L 365.047021 180.200458 
L 365.077637 180.213989 
L 365.300721 180.171019 
L 365.322746 180.147797 
L 366.331512 179.870961 
L 366.446389 179.863646 
L 366.538328 179.882297 
L 366.64169 179.893451 
L 367.777306 180.006819 
L 370.506402 179.569257 
L 370.982271 179.555726 
L 371.996155 179.430656 
L 373.040654 180.412382 
L 373.138716 180.42957 
L 373.344618 180.258056 
L 373.883821 179.723948 
L 373.945144 179.687195 
L 375.805667 179.110301 
L 375.824036 179.115238 
L 375.830159 179.150711 
L 375.816725 179.325882 
L 375.803199 179.358978 
L 373.999064 179.844081 
L 373.93043 179.893085 
L 373.260813 180.622295 
L 372.524025 181.429947 
L 372.31794 181.519909 
L 371.951922 181.398314 
L 371.650699 181.696178 
L 371.493234 182.099912 
L 371.454667 182.534 
L 371.513431 182.808276 
L 371.659107 183.011606 
L 372.44415 183.281494 
L 372.54212 183.254798 
L 372.869023 183.340007 
L 372.964617 183.322819 
L 373.003824 183.192995 
L 373.16202 182.931884 
L 373.264834 182.529977 
L 373.543118 182.019458 
L 373.90155 181.58665 
L 374.2736 181.328647 
L 374.615583 180.999699 
L 374.881985 180.951975 
L 375.284742 180.984705 
L 375.594829 181.067719 
L 375.580116 181.175418 
L 375.89267 181.269769 
L 375.930689 181.190229 
L 376.007913 181.209794 
L 376.038529 181.149819 
L 376.110819 181.144882 
L 376.195446 181.118003 
L 377.083942 181.435249 
L 377.308306 181.397216 
L 377.74707 180.863109 
L 377.77403 180.774975 
L 377.725045 180.605838 
L 377.587777 180.463763 
L 376.494475 179.783924 
L 376.496943 179.730165 
L 376.604783 179.521898 
L 376.664278 179.500505 
L 376.674514 179.487705 
L 376.684476 179.475454 
L 376.710156 179.395731 
L 376.791037 179.287849 
L 377.397137 178.644031 
L 378.047744 177.691196 
L 378.958083 177.455501 
L 380.530178 177.085228 
L 384.272518 176.333711 
" clip-path="url(#p23fcd147e6)" style="fill: #ffffff; stroke: #000000"/>
   </g>
   <g id="text_1">
    <!-- 1 -->
    <g transform="translate(211.764428 234.708388) scale(0.13 -0.13)">
     <defs>
      <path id="DejaVuSans-31" d="M 794 531 
L 1825 531 
L 1825 4091 
L 703 3866 
L 703 4441 
L 1819 4666 
L 2450 4666 
L 2450 531 
L 3481 531 
L 3481 0 
L 794 0 
L 794 531 
z
" transform="scale(0.015625)"/>
     </defs>
     <use xlink:href="#DejaVuSans-31"/>
    </g>
   </g>
  </g>
 </g>
 <defs>
  <clipPath id="p23fcd147e6">
   <rect x="10.8" y="64.437347" width="410.4" height="303.125306"/>
  </clipPath>
 </defs>
</svg>
