<?xml version="1.0" encoding="utf-8" standalone="no"?>
<!DOCTYPE svg PUBLIC "-//W3C//DTD SVG 1.1//EN"
  "http://www.w3.org/Graphics/SVG/1.1/DTD/svg11.dtd">
<svg xmlns:xlink="http://www.w3.org/1999/xlink" width="432pt" height="432pt" viewBox="0 0 432 432" xmlns="http://www.w3.org/2000/svg" version="1.1">
 <metadata>
  <rdf:RDF xmlns:dc="http://purl.org/dc/elements/1.1/" xmlns:cc="http://creativecommons.org/ns#" xmlns:rdf="http://www.w3.org/1999/02/22-rdf-syntax-ns#">
   <cc:Work>
    <dc:type rdf:resource="http://purl.org/dc/dcmitype/StillImage"/>
    <dc:date>2025-04-20T13:46:46.402416</dc:date>
    <dc:format>image/svg+xml</dc:format>
    <dc:creator>
     <cc:Agent>
      <dc:title>Matplotlib v3.10.1, https://matplotlib.org/</dc:title>
     </cc:Agent>
    </dc:creator>
   </cc:Work>
  </rdf:RDF>
 </metadata>
 <defs>
  <style type="text/css">*{stroke-linejoin: round; stroke-linecap: butt}</style>
 </defs>
 <g id="figure_1">
  <g id="patch_1">
   <path d="M 0 432 
L 432 432 
L 432 0 
L 0 0 
z
" style="fill: #ffffff"/>
  </g>
  <g id="axes_1">
   <g id="PatchCollection_1">
    <path d="M 136.370478 400.852001 
L 143.951443 402.545455 
L 152.586904 386.660233 
L 153.724614 378.975754 
L 143.506168 379.97818 
L 136.473255 383.190871 
L 136.617455 386.121896 
L 136.370478 400.852001 
" clip-path="url(#p2eecea4a07)" style="fill: #ffffff; stroke: #000000"/>
    <path d="M 169.289201 344.48973 
L 169.420542 344.470575 
L 170.581397 344.300555 
L 173.677837 344.283042 
L 174.707351 344.426793 
L 174.762459 343.833181 
L 175.024866 343.593475 
L 175.269822 343.546774 
L 176.115366 342.120938 
L 176.751683 341.910055 
L 176.898087 341.96387 
L 176.938683 342.048333 
L 177.164811 342.166727 
L 177.258403 342.265419 
L 177.368068 342.334558 
L 177.385244 342.401143 
L 177.353281 342.559124 
L 177.280538 342.720935 
L 177.284304 342.850457 
L 177.387724 342.911022 
L 177.430892 343.025767 
L 177.741243 343.177545 
L 177.825008 343.535463 
L 177.825008 343.76386 
L 177.799107 343.871308 
L 177.886637 343.879882 
L 177.945695 343.835553 
L 178.003466 343.779731 
L 178.269272 344.051362 
L 178.402175 344.253854 
L 178.572735 344.390855 
L 178.706923 344.437738 
L 178.900353 344.406908 
L 179.102325 344.495932 
L 179.304388 344.6094 
L 179.664061 344.727977 
L 179.850052 344.768658 
L 179.867319 344.723051 
L 179.922703 344.716849 
L 180.17767 344.920435 
L 180.311951 344.925361 
L 180.392041 345.026607 
L 180.348873 345.392005 
L 180.419136 345.420463 
L 180.518882 345.388356 
L 180.568112 345.041383 
L 180.618628 344.978447 
L 180.729487 344.930286 
L 180.925397 344.90201 
L 181.038645 344.835243 
L 181.061239 344.711376 
L 180.990976 344.540079 
L 180.967279 344.369876 
L 180.974627 344.167567 
L 181.015315 343.998458 
L 181.176048 344.05501 
L 181.680931 344.261333 
L 182.89469 344.600826 
L 183.151586 344.727977 
L 182.243678 346.415045 
L 180.974443 348.047751 
L 181.367733 348.256445 
L 181.652734 348.417526 
L 181.456457 349.64543 
L 181.307481 351.202247 
L 181.509085 352.029181 
L 180.035032 352.144838 
L 180.173537 353.8465 
L 183.626068 353.266571 
L 184.193499 353.224978 
L 184.803915 353.315643 
L 184.772779 353.429841 
L 184.419719 353.996089 
L 184.245944 354.36623 
L 184.126359 354.720135 
L 184.042411 354.996509 
L 186.033288 354.803503 
L 186.574635 354.770666 
L 186.726274 355.633538 
L 186.814631 356.386224 
L 186.739408 356.820396 
L 186.624967 357.124864 
L 186.766228 357.340855 
L 187.118185 357.417291 
L 187.833858 357.431338 
L 188.271509 357.589136 
L 189.332251 357.496281 
L 189.83943 357.377887 
L 190.818428 357.104432 
L 191.434906 356.673361 
L 192.004266 356.275309 
L 193.248059 355.405689 
L 194.292543 354.578755 
L 195.829053 353.601139 
L 196.600752 354.725425 
L 196.983938 354.534973 
L 197.652033 354.150238 
L 198.064702 353.891559 
L 198.431539 353.569944 
L 198.933024 353.118806 
L 199.456553 352.593239 
L 199.956752 351.859708 
L 200.767302 350.443906 
L 201.258317 349.877475 
L 201.395169 349.673706 
L 201.43898 349.608398 
L 201.550115 349.278756 
L 201.648207 348.801714 
L 201.737758 348.182563 
L 201.84026 347.205129 
L 201.822992 346.266551 
L 201.857802 345.191884 
L 201.826482 344.755705 
L 201.491884 343.892287 
L 201.084266 342.931453 
L 200.982867 342.352618 
L 201.453767 342.452587 
L 202.295454 342.439453 
L 202.915972 342.290411 
L 198.851097 333.343185 
L 198.787998 332.885115 
L 198.539092 332.376514 
L 198.559482 331.916255 
L 198.41464 330.804738 
L 198.157468 330.62432 
L 197.205106 330.449921 
L 197.218148 330.89285 
L 196.045628 331.004312 
L 196.009624 330.485859 
L 195.911348 330.400667 
L 191.761697 330.36783 
L 191.627417 330.712431 
L 190.716845 330.597503 
L 190.003469 330.469806 
L 189.792864 328.723084 
L 189.608251 328.197153 
L 189.361734 328.057597 
L 189.091611 326.778249 
L 188.574513 327.033462 
L 188.63256 327.203665 
L 188.19647 327.434433 
L 188.280235 328.200801 
L 187.46601 328.514755 
L 187.273591 328.522599 
L 186.9603 328.046652 
L 185.984793 326.778979 
L 186.022817 326.754169 
L 185.429945 325.979592 
L 184.00108 324.08912 
L 183.646366 323.56337 
L 182.805047 322.177668 
L 182.518025 321.652101 
L 182.462641 321.564537 
L 182.414605 321.518748 
L 182.360416 321.483723 
L 182.30742 321.463291 
L 182.237157 321.449609 
L 180.509973 318.597939 
L 180.233146 318.132572 
L 177.016753 312.94969 
L 176.610514 311.217927 
L 177.689533 311.079649 
L 177.627904 310.702211 
L 177.600809 310.216048 
L 177.534312 309.96193 
L 176.334605 310.080324 
L 176.09066 309.086106 
L 178.199468 309.39933 
L 178.790688 309.305746 
L 177.517044 300.142711 
L 177.199254 299.99969 
L 176.460252 299.405166 
L 175.642354 298.832898 
L 175.430463 298.623109 
L 174.920528 298.674918 
L 174.797361 298.428279 
L 174.605217 296.691591 
L 174.139552 295.201724 
L 174.422901 295.169618 
L 174.432728 295.094458 
L 174.374865 294.765181 
L 174.437688 294.756424 
L 174.376059 293.618091 
L 174.538628 293.336974 
L 174.495552 290.291933 
L 174.116131 290.066273 
L 172.953531 289.672599 
L 172.816312 289.634655 
L 172.994036 289.153599 
L 173.459609 287.999213 
L 173.56064 287.737797 
L 173.762612 287.530745 
L 174.336656 287.286477 
L 176.395133 286.467023 
L 176.393479 286.422512 
L 178.385275 280.627775 
L 178.521484 280.63562 
L 179.470999 278.021649 
L 177.984454 277.234849 
L 176.713199 276.620258 
L 177.016478 275.734037 
L 177.303316 275.200808 
L 177.385244 274.380624 
L 176.442893 274.042408 
L 177.293029 272.412256 
L 178.583664 272.391642 
L 182.169374 267.777562 
L 183.030256 267.509579 
L 184.622425 263.693974 
L 186.393604 259.449669 
L 186.74896 256.637402 
L 186.152873 253.879133 
L 184.947288 246.167655 
L 184.810344 245.291467 
L 184.646673 244.244711 
L 184.092376 238.699897 
L 185.124278 233.337691 
L 184.99909 230.62594 
L 184.985313 230.326945 
L 183.762645 230.221686 
L 183.114847 230.257077 
L 183.044952 229.381253 
L 181.172282 229.253191 
L 179.651662 229.348599 
L 177.788912 228.766115 
L 170.937488 234.476207 
L 165.162971 239.237504 
L 159.176839 244.608832 
L 158.329825 245.359147 
L 151.574198 251.344153 
L 146.745706 255.532635 
L 146.548694 255.605788 
L 142.662002 259.384361 
L 137.063097 264.827929 
L 136.830999 265.053589 
L 135.993905 265.86757 
L 133.312522 268.474608 
L 127.218377 278.842015 
L 128.161555 281.07417 
L 127.873247 281.41567 
L 127.029448 282.348592 
L 127.406848 282.708882 
L 126.040622 284.57199 
L 125.929396 284.492088 
L 125.714382 284.782692 
L 125.825149 284.866972 
L 123.764652 287.674313 
L 123.381834 288.232535 
L 122.585428 288.293465 
L 122.775459 291.586969 
L 120.124018 296.769669 
L 120.336001 298.344728 
L 118.66365 307.302718 
L 111.9049 305.270683 
L 108.7314 310.457761 
L 113.792082 314.806778 
L 114.267574 315.22362 
L 122.557782 311.42498 
L 122.98184 312.038658 
L 123.795421 313.628494 
L 127.637476 319.175497 
L 142.48538 312.593413 
L 144.334261 313.07082 
L 144.955791 313.710585 
L 148.482718 313.223145 
L 148.821909 313.806176 
L 150.718826 314.331743 
L 151.130301 314.256766 
L 152.034352 316.853589 
L 152.501945 318.071095 
L 152.90148 319.039955 
L 154.913666 323.14963 
L 169.289201 344.48973 
" clip-path="url(#p2eecea4a07)" style="fill: #ffffff; stroke: #000000"/>
    <path d="M 228.846052 75.727792 
L 257.642311 76.88382 
L 257.941916 69.225793 
L 257.960469 69.041726 
L 258.014291 68.802566 
L 258.098515 68.527834 
L 258.220304 68.25219 
L 259.6308 65.124874 
L 262.758284 58.213148 
L 265.877962 51.310179 
L 270.477846 41.139792 
L 270.313348 41.094185 
L 269.854205 40.89972 
L 269.644702 40.786069 
L 269.385325 40.620245 
L 269.282549 40.539613 
L 269.12099 40.461352 
L 268.90469 40.353174 
L 268.651651 40.199937 
L 268.235859 39.962967 
L 267.523953 39.524234 
L 266.936866 39.16212 
L 266.824537 39.067441 
L 266.690441 38.94777 
L 266.48305 38.831383 
L 266.119887 38.66191 
L 265.749559 38.477296 
L 265.303458 38.235582 
L 264.902638 38.00974 
L 264.518992 37.707279 
L 264.311143 37.487822 
L 264.089332 37.198313 
L 263.908485 36.886913 
L 263.76603 36.619478 
L 263.633219 36.386885 
L 263.482958 36.196069 
L 263.217979 35.99686 
L 262.836722 35.811516 
L 262.405224 35.691845 
L 261.986126 35.583667 
L 261.599817 35.442653 
L 261.284323 35.27172 
L 261.100812 35.086376 
L 260.936406 34.817846 
L 260.855397 34.706202 
L 260.736271 34.677744 
L 260.553955 34.686865 
L 260.37917 34.690696 
L 260.191434 34.763119 
L 259.963837 34.876587 
L 259.742853 35.025629 
L 259.479528 35.252566 
L 259.043897 35.46655 
L 258.614879 35.612308 
L 258.172728 35.839245 
L 257.900585 35.850373 
L 257.424909 35.982814 
L 256.968521 36.249337 
L 255.881327 36.709596 
L 255.465719 36.804274 
L 253.702531 36.991625 
L 253.254317 37.112026 
L 252.922382 37.243372 
L 252.588334 37.307585 
L 252.206618 37.319808 
L 251.635605 37.276026 
L 251.101055 37.264351 
L 250.61252 37.263439 
L 250.106351 37.268182 
L 249.844036 37.291532 
L 249.603029 37.363772 
L 249.187605 37.398251 
L 248.996839 37.411568 
L 248.770068 37.442215 
L 248.244519 37.591439 
L 247.807235 37.763101 
L 247.564116 37.89463 
L 247.388688 38.025429 
L 247.206556 38.193625 
L 247.048119 38.395387 
L 246.790121 39.108122 
L 246.687987 39.177079 
L 246.514121 39.190396 
L 246.124597 39.025301 
L 245.676108 38.745461 
L 245.574617 38.709706 
L 245.453011 38.709706 
L 245.160846 38.820802 
L 244.924799 38.894137 
L 244.565493 38.933176 
L 244.324395 38.96127 
L 244.039944 38.965101 
L 243.679261 38.944852 
L 243.415844 38.916211 
L 243.219934 38.866409 
L 243.057089 38.801648 
L 242.936402 38.67322 
L 242.783752 38.543699 
L 242.64093 38.344673 
L 242.551103 38.16243 
L 242.473768 37.962857 
L 242.408006 37.801046 
L 242.300912 37.486362 
L 242.24911 37.173138 
L 242.241303 36.944924 
L 242.222015 36.845867 
L 242.135955 36.750276 
L 241.871343 36.535744 
L 241.769026 36.364265 
L 241.76425 36.224162 
L 241.754606 36.096465 
L 241.724755 35.969679 
L 241.621979 35.872994 
L 241.49725 35.842164 
L 241.422211 35.812428 
L 241.268367 35.714101 
L 241.124627 35.600815 
L 240.95921 35.535507 
L 240.801233 35.443565 
L 240.667412 35.259863 
L 240.516324 34.995346 
L 240.2879 34.616631 
L 240.019431 34.244301 
L 239.844922 34.069173 
L 239.660768 33.903896 
L 239.491402 33.757044 
L 239.331037 33.523904 
L 239.219902 33.280367 
L 239.15864 33.167081 
L 239.000388 33.056349 
L 238.842227 32.841999 
L 238.626938 32.63823 
L 238.409168 32.475872 
L 237.924308 32.261522 
L 237.707548 32.337046 
L 235.448111 31.965081 
L 235.178631 32.726524 
L 234.963066 32.883774 
L 234.777443 33.039201 
L 234.510903 33.376505 
L 234.447804 33.680608 
L 234.053505 33.654338 
L 233.695944 33.539046 
L 233.375214 33.350418 
L 233.180682 33.051606 
L 233.32029 32.970426 
L 233.435925 32.844553 
L 233.462193 32.781616 
L 233.474042 32.700437 
L 233.447774 32.620535 
L 233.412321 32.556321 
L 233.322861 32.505242 
L 233.196755 32.486817 
L 233.061281 32.499952 
L 232.904866 32.54574 
L 232.752675 32.448873 
L 232.556306 32.216828 
L 232.845716 32.148783 
L 233.327913 32.055564 
L 233.396247 31.898313 
L 233.212186 31.730482 
L 232.77582 31.709686 
L 232.45509 31.798709 
L 232.0359 31.482019 
L 231.420617 31.190139 
L 231.156373 31.148181 
L 230.693739 31.180105 
L 230.29944 31.070103 
L 230.004978 30.855206 
L 229.642182 30.676977 
L 229.479154 30.60875 
L 229.342853 30.618236 
L 229.190478 30.570076 
L 228.997232 30.535232 
L 228.867269 30.568251 
L 228.716823 30.525017 
L 228.443211 30.419392 
L 228.22884 30.48087 
L 228.044043 30.618418 
L 227.871646 30.755967 
L 227.657275 30.758338 
L 227.442996 30.677342 
L 227.19905 30.645417 
L 226.925622 30.696861 
L 226.792627 30.805039 
L 226.695637 30.972323 
L 226.82808 31.318384 
L 226.942889 31.343558 
L 227.063209 31.504275 
L 227.026102 31.699835 
L 226.957676 31.863653 
L 226.565949 32.325371 
L 226.277732 32.497215 
L 220.107814 29.7249 
L 219.977024 29.678746 
L 219.891698 29.643356 
L 219.822353 29.585709 
L 219.756407 29.514928 
L 219.688624 29.470599 
L 219.619096 29.454545 
L 219.557007 29.46166 
L 219.491612 29.493402 
L 219.435402 29.539738 
L 219.385988 29.60085 
L 219.178597 29.912798 
L 219.122203 30.013314 
L 219.070126 30.118026 
L 219.019794 30.244264 
L 218.990311 30.349159 
L 218.965145 30.464816 
L 218.955684 30.57865 
L 218.966063 30.69905 
L 218.989668 30.823647 
L 219.028335 30.951891 
L 219.110906 31.189774 
L 219.208539 31.418353 
L 219.228838 31.49789 
L 219.237379 31.57688 
L 219.220571 31.678126 
L 219.135154 31.868761 
L 219.077566 31.951946 
L 218.997291 32.047537 
L 218.919956 32.126162 
L 218.816352 32.213544 
L 218.681521 32.316979 
L 218.60538 32.39378 
L 218.542005 32.469487 
L 218.489652 32.560517 
L 218.440974 32.653189 
L 218.409929 32.732726 
L 218.355464 32.840904 
L 218.29659 32.931387 
L 218.236522 33.012202 
L 218.111426 33.178026 
L 218.005527 33.307001 
L 217.936917 33.409706 
L 217.861051 33.526641 
L 217.775358 33.672946 
L 217.728791 33.742997 
L 217.66358 33.800826 
L 217.586796 33.842236 
L 217.492469 33.868323 
L 217.398601 33.87708 
L 217.301703 33.878721 
L 217.214907 33.885471 
L 217.127285 33.89514 
L 217.026437 33.909551 
L 216.900698 33.94257 
L 216.81822 33.977049 
L 216.736659 34.02229 
L 216.673377 34.082308 
L 216.619279 34.156373 
L 216.576754 34.238829 
L 216.540015 34.325298 
L 216.193843 35.183791 
L 216.121835 35.345055 
L 216.042112 35.551925 
L 215.960552 35.734898 
L 215.875318 35.912762 
L 215.78246 36.105039 
L 214.756161 38.08344 
L 214.607553 38.337376 
L 214.475293 38.548259 
L 214.328521 38.770636 
L 214.165768 39.005964 
L 213.9784 39.25461 
L 213.396825 40.02791 
L 213.133591 40.329459 
L 212.893503 40.561686 
L 212.782368 40.672601 
L 210.852385 41.98515 
L 208.390608 43.36246 
L 207.576292 43.827097 
L 207.414458 43.927249 
L 207.301302 44.013718 
L 207.257583 44.066439 
L 207.235724 44.129193 
L 207.228835 44.213109 
L 207.236091 44.305781 
L 207.240683 44.330226 
L 207.267411 44.471423 
L 207.27136 44.554974 
L 207.253174 44.62393 
L 207.209088 44.69161 
L 207.147642 44.736304 
L 207.076185 44.772789 
L 206.173971 45.172483 
L 206.071286 45.236514 
L 205.98991 45.300728 
L 205.914412 45.374245 
L 205.857742 45.430067 
L 205.800613 45.472755 
L 205.737882 45.501213 
L 205.663302 45.518908 
L 205.252837 45.575643 
L 205.173757 45.590602 
L 205.108637 45.620337 
L 205.059958 45.671416 
L 205.02524 45.742927 
L 205.009902 45.815167 
L 205.006412 45.908934 
L 205.005126 46.286371 
L 204.992543 46.3577 
L 204.96306 46.433406 
L 204.921545 46.495978 
L 204.859273 46.567306 
L 204.776151 46.634439 
L 204.693029 46.688619 
L 204.243071 46.940001 
L 204.18337 46.964446 
L 204.130374 46.979222 
L 204.064428 46.996188 
L 204.00087 47.01516 
L 203.921422 47.054017 
L 203.853272 47.099258 
L 203.773365 47.154168 
L 203.690978 47.199409 
L 203.595273 47.250306 
L 203.483404 47.309047 
L 203.372085 47.366328 
L 203.272706 47.418685 
L 203.153489 47.476696 
L 203.036935 47.537626 
L 202.896409 47.609866 
L 202.74826 47.669154 
L 202.574944 47.709105 
L 202.360757 47.760914 
L 202.132976 47.80652 
L 201.885081 47.840816 
L 201.662995 47.863072 
L 201.448716 47.883321 
L 201.233426 47.915976 
L 201.018136 47.962859 
L 200.807164 48.001168 
L 200.598395 48.024154 
L 200.42756 48.029809 
L 199.745963 48.073044 
L 199.586333 48.065747 
L 199.445898 48.057173 
L 199.280206 48.062281 
L 199.095043 48.063193 
L 198.949465 48.059544 
L 198.78166 48.038748 
L 198.631858 48.00208 
L 198.490873 47.952278 
L 198.412343 47.900287 
L 198.329222 47.832425 
L 198.264929 47.74778 
L 198.208535 47.647081 
L 198.155631 47.545835 
L 198.107319 47.440028 
L 197.778782 46.968094 
L 197.710356 46.824161 
L 197.691895 46.760677 
L 197.696028 46.694639 
L 197.721286 46.632432 
L 197.771986 46.573691 
L 197.838391 46.516592 
L 197.892673 46.463141 
L 197.952281 46.396374 
L 198.008859 46.317201 
L 198.075081 46.222887 
L 198.135792 46.14937 
L 198.217811 46.059252 
L 198.642696 45.603919 
L 198.69762 45.538063 
L 198.72692 45.482241 
L 198.738768 45.42423 
L 198.726093 45.37388 
L 198.693487 45.339949 
L 198.643614 45.330281 
L 198.600354 45.341774 
L 198.55039 45.372421 
L 198.502721 45.417298 
L 198.447888 45.480052 
L 197.749667 46.314282 
L 197.686568 46.360618 
L 197.598578 46.397286 
L 197.493414 46.41863 
L 197.371073 46.424467 
L 196.741094 46.435595 
L 195.781017 46.452743 
L 192.977569 46.420819 
L 188.29842 46.29677 
L 188.089744 46.236752 
L 187.299124 46.216685 
L 187.042503 46.189686 
L 186.173538 46.164876 
L 185.733591 46.153566 
L 185.350497 46.088622 
L 185.064761 46.047394 
L 184.770483 47.606218 
L 184.782882 49.045005 
L 184.786464 49.466407 
L 184.801986 51.266762 
L 186.711946 51.240857 
L 186.682004 52.040974 
L 191.491024 52.170679 
L 191.541356 52.815369 
L 191.543101 52.891076 
L 191.50076 53.192989 
L 191.42269 53.390921 
L 191.669942 53.82564 
L 192.008399 54.549321 
L 192.10594 54.864187 
L 192.151772 55.075617 
L 192.184929 55.441927 
L 192.184929 55.747307 
L 192.154344 56.09355 
L 192.103277 56.401119 
L 192.03182 56.692269 
L 191.843992 57.193392 
L 191.682617 57.60476 
L 191.597475 57.869642 
L 191.565696 58.071404 
L 191.564043 58.408526 
L 191.574329 58.97076 
L 192.049362 67.70236 
L 192.049362 68.596791 
L 191.990213 70.179512 
L 191.671871 71.083246 
L 191.593709 71.305258 
L 191.370153 71.722829 
L 193.848738 73.104335 
L 194.788334 73.598707 
L 195.316546 73.87873 
L 195.834472 74.122632 
L 196.163376 74.259451 
L 196.389871 74.322753 
L 196.808418 74.380946 
L 196.998358 74.395723 
L 208.259818 74.9025 
L 210.537258 74.894473 
L 228.846052 75.727792 
" clip-path="url(#p2eecea4a07)" style="fill: #ffffff; stroke: #000000"/>
    <path d="M 279.108072 151.71409 
L 279.181825 151.660457 
L 279.389032 151.511415 
L 279.234362 151.247628 
L 280.843155 144.95779 
L 281.021522 144.579805 
L 281.172794 144.505011 
L 282.134065 144.531462 
L 282.221504 144.533834 
L 282.452867 140.250672 
L 282.554725 138.365308 
L 283.180663 137.887901 
L 284.677954 136.746284 
L 285.419159 136.379062 
L 285.591373 136.340936 
L 293.012524 137.158748 
L 294.458564 137.318187 
L 295.654688 136.97158 
L 296.282003 136.789702 
L 296.323794 136.777662 
L 297.045253 136.837315 
L 301.250838 125.681466 
L 303.950866 119.246782 
L 304.311366 118.821002 
L 305.11016 117.877316 
L 305.182994 117.792124 
L 310.507277 111.604079 
L 319.711271 100.908672 
L 323.2686 96.862298 
L 322.942083 97.020461 
L 318.13839 99.357145 
L 311.782481 102.307873 
L 310.220989 103.04633 
L 304.441146 105.779972 
L 294.764414 110.521203 
L 289.275634 113.206866 
L 285.324189 114.741427 
L 280.515353 116.079516 
L 277.35811 116.59432 
L 275.085722 116.964826 
L 269.064871 118.086376 
L 262.856744 119.099748 
L 258.215437 119.424464 
L 253.022312 119.168704 
L 249.48473 119.00142 
L 247.198565 118.76518 
L 245.351704 118.870074 
L 245.244702 119.041919 
L 244.476402 119.042831 
L 243.525417 119.472442 
L 241.563656 119.094457 
L 239.773465 118.829211 
L 239.551746 119.4708 
L 239.349682 119.763958 
L 236.817183 119.719446 
L 234.599995 120.319807 
L 233.366305 119.670009 
L 230.474133 122.116878 
L 229.214818 123.891328 
L 228.44615 125.357297 
L 227.194734 127.93533 
L 226.721721 130.434737 
L 226.051605 135.345259 
L 225.430811 137.716969 
L 224.179303 140.315069 
L 220.91763 146.299345 
L 217.232174 152.973188 
L 214.292609 158.224662 
L 213.057266 157.411776 
L 211.532145 156.284571 
L 211.260737 156.098497 
L 211.052887 155.949455 
L 208.854069 154.369106 
L 208.765896 154.310365 
L 207.641228 153.516633 
L 205.472444 151.988457 
L 203.697315 150.73775 
L 202.671935 150.015164 
L 201.337305 149.074579 
L 200.996828 148.834873 
L 199.01238 147.436584 
L 193.982284 143.892609 
L 193.892917 144.065366 
L 191.727163 148.709729 
L 189.97169 152.47462 
L 179.689595 154.297048 
L 177.670337 154.654966 
L 177.447792 154.527998 
L 177.204121 154.818966 
L 176.348015 154.933165 
L 172.9629 155.384667 
L 173.612626 165.421519 
L 173.241288 166.18661 
L 167.814137 167.342092 
L 167.741302 167.618831 
L 167.347737 168.813168 
L 167.260299 169.376315 
L 167.270035 169.968467 
L 167.246889 170.40574 
L 166.869857 177.750726 
L 166.817321 178.774496 
L 166.867561 179.947308 
L 167.233755 184.176289 
L 167.393569 185.710302 
L 167.367301 186.364114 
L 167.097362 187.493326 
L 166.48162 189.149747 
L 166.582651 189.924872 
L 165.637821 190.547124 
L 165.038427 190.941892 
L 165.403151 191.634926 
L 165.754375 192.108319 
L 164.922332 192.616191 
L 164.836822 192.668364 
L 164.620798 192.315372 
L 163.708022 192.570402 
L 163.3996 192.660338 
L 160.581915 193.317798 
L 159.940455 194.308002 
L 159.956712 194.494805 
L 153.748218 199.612927 
L 153.704132 199.649229 
L 154.35 204.8779 
L 148.507792 209.508764 
L 147.50473 210.151813 
L 142.598168 213.297736 
L 134.410094 218.618714 
L 133.077577 219.484686 
L 128.400725 222.524072 
L 124.61782 222.885639 
L 118.50154 223.470494 
L 118.270177 223.492568 
L 116.426439 225.941444 
L 116.868958 229.216523 
L 128.018365 227.585824 
L 128.331288 230.167871 
L 129.798086 230.011532 
L 132.247372 229.575718 
L 132.555978 231.476954 
L 133.223338 235.825606 
L 133.574929 237.793791 
L 133.535343 239.023337 
L 140.78722 239.325251 
L 141.242046 240.921471 
L 142.607077 240.894655 
L 142.623518 240.97255 
L 142.742001 242.205197 
L 137.726416 242.208299 
L 139.312707 246.832777 
L 134.000548 247.935355 
L 134.331932 249.873806 
L 135.389735 252.023322 
L 141.72158 252.283642 
L 146.548694 255.605788 
L 146.745706 255.532635 
L 151.574198 251.344153 
L 158.329825 245.359147 
L 159.176839 244.608832 
L 165.162971 239.237504 
L 170.937488 234.476207 
L 177.788912 228.766115 
L 179.651662 229.348599 
L 181.172282 229.253191 
L 183.044952 229.381253 
L 183.114847 230.257077 
L 183.762645 230.221686 
L 183.739775 229.60363 
L 186.990977 229.761975 
L 188.813958 229.850816 
L 189.851646 229.942758 
L 206.751414 231.439374 
L 207.974358 229.120932 
L 208.675977 227.791053 
L 216.937988 212.131491 
L 210.705063 207.333891 
L 210.962877 206.689383 
L 210.878011 206.644689 
L 213.015843 202.025865 
L 212.862642 201.942861 
L 213.134142 201.349067 
L 212.032069 200.772969 
L 214.325307 196.114741 
L 217.205263 191.112095 
L 219.062043 188.076357 
L 219.286609 188.077452 
L 219.506124 186.413004 
L 218.096271 185.745693 
L 218.133194 185.102097 
L 218.278496 184.973669 
L 218.489285 184.814595 
L 218.718719 184.547889 
L 218.840416 184.444819 
L 219.228746 184.170086 
L 219.675582 184.057713 
L 220.521952 183.878753 
L 221.170852 183.654918 
L 221.466783 183.583772 
L 221.680787 183.475594 
L 221.83013 183.370334 
L 222.095201 183.08867 
L 222.257862 182.895299 
L 222.389479 182.768878 
L 222.561784 182.536651 
L 222.662908 182.428108 
L 222.666673 182.278337 
L 222.647936 182.154835 
L 222.647936 181.915129 
L 222.65161 181.376609 
L 222.64463 180.893912 
L 222.601186 180.506624 
L 222.575836 180.049831 
L 222.547731 179.708148 
L 222.510258 179.483583 
L 222.388468 179.132597 
L 222.365047 178.898545 
L 222.388468 178.678541 
L 222.444679 178.304204 
L 222.528994 178.051545 
L 222.646008 177.812751 
L 222.795902 177.560092 
L 222.917599 177.340269 
L 222.987862 177.157662 
L 223.011283 176.951704 
L 223.03002 176.586853 
L 223.039389 176.184241 
L 223.001915 175.852045 
L 222.950389 175.65083 
L 222.955073 175.519848 
L 222.94102 175.126722 
L 222.955073 174.836666 
L 222.987862 174.649498 
L 223.026989 174.510307 
L 222.521096 174.154761 
L 222.94947 173.455525 
L 223.329074 172.835826 
L 223.598094 172.336346 
L 223.651825 172.23656 
L 226.157505 167.409406 
L 226.081914 167.355591 
L 225.464886 166.916676 
L 224.604463 166.544893 
L 223.743488 166.296613 
L 222.635813 166.293876 
L 220.851316 166.351158 
L 219.374048 166.470829 
L 217.948673 166.284208 
L 220.318879 162.569483 
L 222.948736 158.467288 
L 238.78519 167.8091 
L 241.778119 172.487212 
L 239.673076 176.070955 
L 240.82594 176.882929 
L 241.346805 177.245408 
L 241.386023 177.27259 
L 241.58974 177.415429 
L 241.794375 177.237017 
L 242.635419 176.944954 
L 243.187236 176.787339 
L 243.584842 176.804122 
L 244.743125 177.085239 
L 245.229548 177.049301 
L 246.230681 176.894605 
L 247.223455 176.695761 
L 249.916595 176.314128 
L 250.096156 176.262136 
L 250.191585 176.161073 
L 250.576884 175.772507 
L 251.34151 175.13785 
L 253.302445 173.812896 
L 253.636034 173.694502 
L 254.807176 172.935066 
L 256.115813 172.044831 
L 257.499305 171.173021 
L 258.497591 170.4975 
L 259.192322 170.140494 
L 259.628871 169.846972 
L 261.403081 168.79602 
L 263.586745 167.737407 
L 264.276975 167.495329 
L 264.999812 166.980342 
L 266.190976 166.525009 
L 267.508063 166.00984 
L 268.834886 165.397621 
L 269.28411 165.244202 
L 269.569754 165.134199 
L 270.115693 165.171232 
L 270.273395 165.199872 
L 270.697361 165.084762 
L 270.865625 164.81459 
L 270.335851 164.720641 
L 269.931999 164.641286 
L 268.999843 164.280267 
L 268.914242 164.247248 
L 267.95793 163.876925 
L 265.991944 163.193742 
L 264.183751 162.599036 
L 261.240879 161.53039 
L 260.669223 161.282839 
L 260.553495 161.232854 
L 260.473405 161.099501 
L 260.444289 160.943528 
L 260.509409 160.523402 
L 260.553863 160.28023 
L 260.422889 159.007996 
L 260.376139 158.600641 
L 260.312397 158.32901 
L 260.254901 158.16884 
L 260.192077 158.076351 
L 260.055776 158.029103 
L 259.749007 158.024907 
L 259.5249 157.900675 
L 259.287016 157.827888 
L 259.18378 157.674468 
L 259.399896 157.311989 
L 259.639801 156.306097 
L 259.984778 155.240186 
L 260.389457 153.892794 
L 260.39607 153.870903 
L 270.020264 156.633915 
L 273.197254 157.043459 
L 273.883076 157.161671 
L 275.563143 157.770424 
L 276.163914 157.785565 
L 276.377826 157.721169 
L 276.480787 157.623389 
L 276.438537 157.449173 
L 276.094019 156.384175 
L 277.913325 155.844014 
L 279.014664 151.962005 
L 278.928878 151.843064 
L 279.108072 151.71409 
" clip-path="url(#p2eecea4a07)" style="fill: #ffffff; stroke: #000000"/>
    <path d="M 214.292609 158.224662 
L 217.232174 152.973188 
L 220.91763 146.299345 
L 224.179303 140.315069 
L 225.430811 137.716969 
L 226.051605 135.345259 
L 226.721721 130.434737 
L 227.194734 127.93533 
L 228.44615 125.357297 
L 229.214818 123.891328 
L 230.474133 122.116878 
L 233.366305 119.670009 
L 232.232178 117.635421 
L 228.753654 117.271482 
L 228.75099 115.024004 
L 228.72711 114.787946 
L 228.712139 114.551705 
L 228.686054 114.299958 
L 228.686697 114.083967 
L 228.644815 114.003517 
L 228.57841 113.895704 
L 228.496482 113.787708 
L 228.37304 113.647971 
L 228.268334 113.507686 
L 228.235085 113.418662 
L 228.239586 113.307383 
L 228.279723 113.16053 
L 228.32482 113.015138 
L 228.354211 112.865184 
L 228.34723 112.586073 
L 228.293592 112.332685 
L 228.152882 112.121619 
L 227.889648 111.836671 
L 227.782463 111.704777 
L 227.585818 111.433511 
L 227.382102 111.244336 
L 227.313124 111.068843 
L 227.174803 110.523574 
L 227.060361 109.942003 
L 227.003232 109.431759 
L 226.99368 108.84581 
L 226.985322 108.125777 
L 227.013611 107.752535 
L 227.130716 107.164944 
L 227.165894 106.919217 
L 227.182518 106.704685 
L 227.154872 106.467167 
L 227.079649 106.310282 
L 226.864635 106.118188 
L 226.644845 105.977721 
L 226.524434 105.801498 
L 226.447098 105.591162 
L 226.359017 105.374258 
L 226.361221 105.179063 
L 226.394195 105.047352 
L 226.48595 104.828807 
L 226.543722 104.748905 
L 226.561264 104.645652 
L 226.622526 104.415249 
L 226.766175 104.195062 
L 226.90615 104.086154 
L 227.083415 103.980165 
L 227.265364 103.903911 
L 227.376866 103.765815 
L 227.446303 103.619328 
L 227.489103 103.483238 
L 227.483133 103.412275 
L 227.407727 103.30282 
L 227.38054 103.14411 
L 227.392113 102.831433 
L 227.383479 102.712492 
L 227.365845 102.602125 
L 227.293285 102.486285 
L 227.178844 102.395255 
L 227.071291 102.348189 
L 226.902017 102.339432 
L 226.732743 102.304407 
L 226.516167 102.235815 
L 226.363426 102.146427 
L 226.229329 102.023472 
L 226.095232 101.905078 
L 225.90465 101.7367 
L 225.763297 101.621954 
L 225.653356 101.560294 
L 225.437883 101.488054 
L 225.333912 101.422746 
L 225.243351 101.293771 
L 225.108152 101.005357 
L 224.982873 100.695964 
L 224.914722 100.533605 
L 224.81865 100.376355 
L 224.615668 100.072799 
L 224.54568 99.92613 
L 224.547517 99.838018 
L 224.579848 99.604149 
L 224.693095 98.898528 
L 222.010793 98.09677 
L 221.528872 97.94937 
L 220.970258 97.779897 
L 219.370282 97.289721 
L 217.576601 96.728033 
L 216.692665 96.450747 
L 216.170973 96.309732 
L 215.629351 96.195899 
L 215.075422 96.097025 
L 214.44232 96.013656 
L 213.705982 95.949443 
L 212.907831 95.953821 
L 211.653751 95.970239 
L 211.349921 96.006359 
L 210.976287 95.93047 
L 207.105852 95.963854 
L 206.927485 95.96805 
L 204.367799 95.969145 
L 200.385953 95.988846 
L 194.914807 95.971151 
L 192.529539 95.942693 
L 190.037085 95.924998 
L 190.381695 104.679948 
L 190.657604 107.748887 
L 190.903938 108.702971 
L 191.48533 109.765415 
L 192.460929 110.70983 
L 194.031422 111.642935 
L 193.943433 112.083674 
L 190.508077 111.368933 
L 189.380838 111.07541 
L 188.302645 110.741572 
L 184.902008 109.597766 
L 181.559969 108.446481 
L 180.105387 107.954845 
L 179.671225 107.803979 
L 177.744641 107.082123 
L 175.156667 105.970241 
L 169.657507 95.175595 
L 165.420786 93.843161 
L 160.696724 95.060849 
L 156.258307 96.165434 
L 155.734962 97.342259 
L 155.670853 97.46868 
L 153.38928 96.472821 
L 145.976579 93.005647 
L 140.66837 90.509158 
L 141.056699 93.788251 
L 141.066894 93.874538 
L 141.120349 94.325676 
L 141.152587 94.601685 
L 141.544499 98.155328 
L 142.110369 102.567464 
L 142.656032 107.12025 
L 142.67284 107.268014 
L 142.689189 107.405198 
L 142.737041 107.805986 
L 142.750634 107.920367 
L 142.804732 108.468189 
L 143.137494 111.002988 
L 143.38392 112.983578 
L 143.535192 114.312546 
L 143.674616 115.535342 
L 143.85583 117.068078 
L 143.917 117.585618 
L 144.059822 118.671778 
L 144.16315 119.457666 
L 144.173713 119.539757 
L 144.185377 119.638814 
L 144.226157 119.974476 
L 144.403973 121.438986 
L 144.520895 122.478992 
L 144.542662 122.671633 
L 144.58381 123.035754 
L 144.606864 123.254664 
L 144.630376 123.461169 
L 144.787802 124.72045 
L 144.800569 124.822609 
L 144.827572 125.039877 
L 144.897192 125.584781 
L 144.921532 125.837622 
L 145.016226 126.554918 
L 145.115053 127.244303 
L 145.195971 127.935695 
L 145.438447 130.169856 
L 145.767994 132.811738 
L 155.506998 131.163891 
L 160.166858 133.494008 
L 172.766898 129.048853 
L 193.892917 144.065366 
L 193.982284 143.892609 
L 199.01238 147.436584 
L 200.996828 148.834873 
L 201.337305 149.074579 
L 202.671935 150.015164 
L 203.697315 150.73775 
L 205.472444 151.988457 
L 207.641228 153.516633 
L 208.765896 154.310365 
L 208.854069 154.369106 
L 211.052887 155.949455 
L 211.260737 156.098497 
L 211.532145 156.284571 
L 213.057266 157.411776 
L 214.292609 158.224662 
" clip-path="url(#p2eecea4a07)" style="fill: #ffffff; stroke: #000000"/>
    <path d="M 175.403919 45.244359 
L 175.579439 44.711312 
L 174.946888 44.643997 
L 174.231308 46.090811 
L 173.157891 45.456154 
L 172.317766 45.349435 
L 171.330134 44.689968 
L 170.646517 44.359049 
L 170.172861 44.160935 
L 169.511562 43.412992 
L 169.043142 43.394749 
L 168.087933 43.814327 
L 167.105169 44.708211 
L 167.133826 53.119654 
L 167.242205 54.613534 
L 167.173871 56.014377 
L 166.995871 59.665253 
L 169.01118 62.132371 
L 168.990606 63.17712 
L 165.156726 62.363687 
L 164.931149 62.334498 
L 164.690418 62.330485 
L 164.444544 62.335593 
L 164.252859 62.366423 
L 164.082391 62.402543 
L 163.638861 62.559976 
L 163.126263 62.787825 
L 161.674069 63.425036 
L 159.933751 64.126644 
L 159.888286 64.142879 
L 159.664455 64.223147 
L 159.703398 64.296481 
L 159.731595 64.347196 
L 159.749689 64.403383 
L 159.755108 64.558444 
L 159.777243 65.403802 
L 159.778896 65.46528 
L 159.787438 65.73837 
L 159.793959 65.950531 
L 159.795521 65.999786 
L 159.797909 66.074762 
L 159.798919 66.108693 
L 159.803511 66.255181 
L 159.811043 66.497624 
L 159.823534 66.898959 
L 159.833178 67.208353 
L 159.840067 67.492024 
L 159.852741 67.832794 
L 159.85862 68.013395 
L 159.87901 68.638748 
L 159.887276 68.942304 
L 159.8994 69.332147 
L 159.996574 72.454354 
L 159.999697 72.648637 
L 160.004381 72.794395 
L 160.116343 76.312647 
L 160.119098 76.364091 
L 160.121394 76.423014 
L 160.129109 76.707233 
L 160.14803 77.315438 
L 160.186054 78.534586 
L 160.29425 82.391237 
L 160.302333 82.679104 
L 160.310415 82.967518 
L 160.396752 85.841992 
L 160.426235 86.890937 
L 160.496957 88.706068 
L 160.503662 88.909472 
L 160.626829 92.653019 
L 160.681018 94.349209 
L 160.687723 94.61938 
L 160.696724 95.060849 
L 165.420786 93.843161 
L 169.657507 95.175595 
L 175.156667 105.970241 
L 177.744641 107.082123 
L 179.671225 107.803979 
L 180.105387 107.954845 
L 181.559969 108.446481 
L 184.902008 109.597766 
L 188.302645 110.741572 
L 189.380838 111.07541 
L 190.508077 111.368933 
L 193.943433 112.083674 
L 194.031422 111.642935 
L 192.460929 110.70983 
L 191.48533 109.765415 
L 190.903938 108.702971 
L 190.657604 107.748887 
L 190.381695 104.679948 
L 190.037085 95.924998 
L 192.529539 95.942693 
L 194.914807 95.971151 
L 200.385953 95.988846 
L 204.367799 95.969145 
L 206.927485 95.96805 
L 207.105852 95.963854 
L 210.976287 95.93047 
L 211.349921 96.006359 
L 211.653751 95.970239 
L 212.907831 95.953821 
L 213.705982 95.949443 
L 214.44232 96.013656 
L 215.075422 96.097025 
L 215.629351 96.195899 
L 216.170973 96.309732 
L 216.692665 96.450747 
L 217.576601 96.728033 
L 219.370282 97.289721 
L 220.970258 97.779897 
L 221.528872 97.94937 
L 222.010793 98.09677 
L 224.693095 98.898528 
L 224.763542 98.219907 
L 224.784024 98.16974 
L 224.841612 97.94262 
L 224.81865 97.690144 
L 224.590318 96.919762 
L 224.572959 96.79772 
L 224.637068 96.595958 
L 224.829212 96.217425 
L 224.989394 95.710101 
L 225.105121 95.292894 
L 225.277518 95.017615 
L 225.548559 94.392991 
L 225.780105 94.009533 
L 226.026439 93.630818 
L 226.1891 93.242435 
L 226.309879 92.9615 
L 226.487236 92.759738 
L 226.844337 92.396712 
L 226.972464 92.111581 
L 227.036481 91.737792 
L 227.144952 91.137978 
L 227.268119 90.77404 
L 227.425729 90.439837 
L 227.475051 90.134822 
L 227.586002 89.711231 
L 228.002253 88.989374 
L 228.135247 88.674691 
L 228.206704 88.339575 
L 228.199265 87.873114 
L 228.061311 87.420882 
L 227.987466 87.066795 
L 227.982506 86.560382 
L 227.908569 86.191701 
L 227.753531 85.886139 
L 227.440516 85.49356 
L 227.199142 85.119953 
L 227.105458 84.820046 
L 227.10307 84.45027 
L 227.272987 83.71382 
L 227.415901 83.453316 
L 227.64506 83.231123 
L 228.100805 82.873204 
L 228.455518 82.499415 
L 228.677237 82.081661 
L 228.70672 80.64561 
L 228.846052 75.727792 
L 210.537258 74.894473 
L 208.259818 74.9025 
L 196.998358 74.395723 
L 196.808418 74.380946 
L 196.389871 74.322753 
L 196.163376 74.259451 
L 195.834472 74.122632 
L 195.316546 73.87873 
L 194.788334 73.598707 
L 193.848738 73.104335 
L 191.370153 71.722829 
L 191.593709 71.305258 
L 191.671871 71.083246 
L 191.990213 70.179512 
L 192.049362 68.596791 
L 192.049362 67.70236 
L 191.574329 58.97076 
L 191.564043 58.408526 
L 191.565696 58.071404 
L 191.597475 57.869642 
L 191.682617 57.60476 
L 191.843992 57.193392 
L 192.03182 56.692269 
L 192.103277 56.401119 
L 192.154344 56.09355 
L 192.184929 55.747307 
L 192.184929 55.441927 
L 192.151772 55.075617 
L 192.10594 54.864187 
L 192.008399 54.549321 
L 191.669942 53.82564 
L 191.42269 53.390921 
L 191.50076 53.192989 
L 191.543101 52.891076 
L 191.541356 52.815369 
L 191.491024 52.170679 
L 186.682004 52.040974 
L 186.711946 51.240857 
L 184.801986 51.266762 
L 184.786464 49.466407 
L 184.782882 49.045005 
L 184.770483 47.606218 
L 185.064761 46.047394 
L 185.002856 46.058522 
L 184.763043 46.170531 
L 184.643917 46.301877 
L 184.611955 46.495795 
L 184.59331 46.628054 
L 184.563276 46.749914 
L 184.546376 46.845322 
L 184.550968 46.907164 
L 184.553999 47.013336 
L 184.595422 47.122608 
L 184.567133 47.220936 
L 184.521302 47.274569 
L 184.445436 47.573381 
L 184.365621 47.752705 
L 184.309227 47.923273 
L 184.254394 48.030721 
L 184.235565 48.144919 
L 184.209664 48.30217 
L 184.176048 48.443367 
L 184.185876 48.580733 
L 184.243923 48.704417 
L 184.293705 48.89943 
L 184.287 49.003047 
L 184.283418 49.058687 
L 184.264589 49.332507 
L 184.249067 49.466043 
L 184.228493 49.650839 
L 184.202041 49.745518 
L 184.178712 49.828886 
L 184.195887 49.943632 
L 184.262568 50.077897 
L 184.285163 50.123321 
L 184.268814 50.184433 
L 184.285163 50.308117 
L 184.261099 50.419397 
L 184.261099 50.544358 
L 184.231891 50.619699 
L 184.249067 50.727513 
L 184.273131 50.854298 
L 184.285163 50.979077 
L 184.273131 51.071567 
L 184.316023 51.119545 
L 184.252557 51.187954 
L 184.264589 51.294125 
L 184.235382 51.422553 
L 184.236392 51.4833 
L 184.237127 51.525258 
L 184.268814 51.607349 
L 184.303991 51.706589 
L 184.309135 51.848698 
L 184.331454 51.937722 
L 184.364059 52.090047 
L 184.415586 52.194394 
L 184.386378 52.274843 
L 184.365804 52.399805 
L 184.405299 52.541914 
L 184.436159 52.634403 
L 184.431016 52.725069 
L 184.430373 52.822666 
L 184.412187 52.990497 
L 184.437904 53.187334 
L 184.41081 53.255014 
L 184.34321 53.30664 
L 184.145831 53.363739 
L 184.074649 53.298249 
L 184.073088 53.231481 
L 184.065097 52.891805 
L 184.051045 52.614337 
L 184.033502 52.588615 
L 184.016418 52.563622 
L 183.893894 52.586608 
L 183.835939 52.234892 
L 183.91309 52.151706 
L 183.875433 52.005401 
L 183.865605 51.679955 
L 183.911988 51.442437 
L 183.902803 51.177738 
L 183.874423 50.355548 
L 183.808936 49.870479 
L 183.80765 49.568383 
L 183.82207 48.946131 
L 183.700464 48.609374 
L 183.697433 48.27736 
L 183.660511 48.218801 
L 183.667491 48.126129 
L 183.746755 48.073409 
L 183.791668 47.934583 
L 183.81261 47.782258 
L 183.791301 47.620629 
L 183.677135 47.389132 
L 183.674655 47.384206 
L 183.587217 46.939636 
L 183.679615 46.840214 
L 183.678329 46.707409 
L 183.574909 46.649762 
L 183.492431 46.322127 
L 183.487012 46.030246 
L 183.438976 45.809694 
L 183.386531 45.714103 
L 183.223778 45.644417 
L 183.110531 45.681814 
L 183.009407 45.757156 
L 182.971199 45.942317 
L 182.954666 46.100298 
L 182.750949 46.192057 
L 182.386225 46.06509 
L 181.640702 45.974789 
L 181.270834 45.977343 
L 181.039104 46.102304 
L 180.86239 46.294763 
L 180.813068 46.451466 
L 180.826845 46.620209 
L 180.929438 46.817229 
L 181.061147 46.917927 
L 180.582899 47.27621 
L 180.38203 47.606035 
L 179.399174 46.530639 
L 179.128226 46.678038 
L 178.965656 47.043983 
L 178.558774 47.366876 
L 178.078781 47.274933 
L 178.147758 46.967912 
L 178.559141 46.889287 
L 178.635466 46.309539 
L 178.468029 45.744386 
L 177.113009 44.712589 
L 176.551089 45.278837 
L 176.184619 45.171388 
L 175.403919 45.244359 
" clip-path="url(#p2eecea4a07)" style="fill: #ffffff; stroke: #000000"/>
    <path d="M 250.42901 109.445076 
L 251.262889 107.931677 
L 251.745729 106.933264 
L 252.939374 104.427471 
L 254.358044 102.003953 
L 255.095667 100.847559 
L 255.621308 100.011505 
L 257.163788 97.751621 
L 257.775214 96.858467 
L 259.330552 94.546228 
L 259.875848 93.768549 
L 261.915128 90.799214 
L 263.910781 87.848669 
L 264.79885 86.526634 
L 265.949143 84.931873 
L 267.666959 82.593911 
L 269.650672 79.934517 
L 271.509289 77.405009 
L 271.205367 77.414495 
L 263.746467 77.123345 
L 257.642311 76.88382 
L 228.846052 75.727792 
L 228.70672 80.64561 
L 228.677237 82.081661 
L 228.455518 82.499415 
L 228.100805 82.873204 
L 227.64506 83.231123 
L 227.415901 83.453316 
L 227.272987 83.71382 
L 227.10307 84.45027 
L 227.105458 84.820046 
L 227.199142 85.119953 
L 227.440516 85.49356 
L 227.753531 85.886139 
L 227.908569 86.191701 
L 227.982506 86.560382 
L 227.987466 87.066795 
L 228.061311 87.420882 
L 228.199265 87.873114 
L 228.206704 88.339575 
L 228.135247 88.674691 
L 228.002253 88.989374 
L 227.586002 89.711231 
L 227.475051 90.134822 
L 227.425729 90.439837 
L 227.268119 90.77404 
L 227.144952 91.137978 
L 227.036481 91.737792 
L 226.972464 92.111581 
L 226.844337 92.396712 
L 226.487236 92.759738 
L 226.309879 92.9615 
L 226.1891 93.242435 
L 226.026439 93.630818 
L 225.780105 94.009533 
L 225.548559 94.392991 
L 225.277518 95.017615 
L 225.105121 95.292894 
L 224.989394 95.710101 
L 224.829212 96.217425 
L 224.637068 96.595958 
L 224.572959 96.79772 
L 224.590318 96.919762 
L 224.81865 97.690144 
L 224.841612 97.94262 
L 224.784024 98.16974 
L 224.763542 98.219907 
L 224.693095 98.898528 
L 224.579848 99.604149 
L 224.547517 99.838018 
L 224.54568 99.92613 
L 224.615668 100.072799 
L 224.81865 100.376355 
L 224.914722 100.533605 
L 224.982873 100.695964 
L 225.108152 101.005357 
L 225.243351 101.293771 
L 225.333912 101.422746 
L 225.437883 101.488054 
L 225.653356 101.560294 
L 225.763297 101.621954 
L 225.90465 101.7367 
L 226.095232 101.905078 
L 226.229329 102.023472 
L 226.363426 102.146427 
L 226.516167 102.235815 
L 226.732743 102.304407 
L 226.902017 102.339432 
L 227.071291 102.348189 
L 227.178844 102.395255 
L 227.293285 102.486285 
L 227.365845 102.602125 
L 227.383479 102.712492 
L 227.392113 102.831433 
L 227.38054 103.14411 
L 227.407727 103.30282 
L 227.483133 103.412275 
L 227.489103 103.483238 
L 227.446303 103.619328 
L 227.376866 103.765815 
L 227.265364 103.903911 
L 227.083415 103.980165 
L 226.90615 104.086154 
L 226.766175 104.195062 
L 226.622526 104.415249 
L 226.561264 104.645652 
L 226.543722 104.748905 
L 226.48595 104.828807 
L 226.394195 105.047352 
L 226.361221 105.179063 
L 226.359017 105.374258 
L 226.447098 105.591162 
L 226.524434 105.801498 
L 226.644845 105.977721 
L 226.864635 106.118188 
L 227.079649 106.310282 
L 227.154872 106.467167 
L 227.182518 106.704685 
L 227.165894 106.919217 
L 227.130716 107.164944 
L 227.013611 107.752535 
L 226.985322 108.125777 
L 226.99368 108.84581 
L 227.003232 109.431759 
L 227.060361 109.942003 
L 227.174803 110.523574 
L 227.313124 111.068843 
L 227.382102 111.244336 
L 227.585818 111.433511 
L 227.782463 111.704777 
L 227.889648 111.836671 
L 228.152882 112.121619 
L 228.293592 112.332685 
L 228.34723 112.586073 
L 228.354211 112.865184 
L 228.32482 113.015138 
L 228.279723 113.16053 
L 228.239586 113.307383 
L 228.235085 113.418662 
L 228.268334 113.507686 
L 228.37304 113.647971 
L 228.496482 113.787708 
L 228.57841 113.895704 
L 228.644815 114.003517 
L 228.686697 114.083967 
L 228.686054 114.299958 
L 228.712139 114.551705 
L 228.72711 114.787946 
L 228.75099 115.024004 
L 228.753654 117.271482 
L 232.232178 117.635421 
L 233.366305 119.670009 
L 234.599995 120.319807 
L 236.817183 119.719446 
L 239.349682 119.763958 
L 239.551746 119.4708 
L 239.773465 118.829211 
L 241.563656 119.094457 
L 243.525417 119.472442 
L 244.476402 119.042831 
L 245.244702 119.041919 
L 245.351704 118.870074 
L 248.13816 113.763263 
L 248.489843 113.042501 
L 249.799949 110.43601 
L 250.188922 109.812481 
L 250.42901 109.445076 
" clip-path="url(#p2eecea4a07)" style="fill: #ffffff; stroke: #000000"/>
    <path d="M 257.642311 76.88382 
L 263.746467 77.123345 
L 271.205367 77.414495 
L 271.509289 77.405009 
L 275.516852 72.021459 
L 279.825673 66.146091 
L 286.585433 57.06314 
L 289.792182 52.741669 
L 296.311578 43.979787 
L 294.586874 43.887115 
L 292.884397 43.807395 
L 291.350643 43.748289 
L 290.573525 43.806483 
L 289.615192 43.755404 
L 289.131618 43.729682 
L 288.942964 43.719649 
L 287.272266 43.661273 
L 286.949699 43.617673 
L 286.029759 43.617673 
L 285.301411 43.415546 
L 284.409576 43.347319 
L 283.902948 43.329441 
L 283.253038 43.327982 
L 282.859657 43.296787 
L 282.295716 43.365379 
L 281.547714 43.384169 
L 280.068884 43.238776 
L 279.457917 43.238776 
L 278.255731 43.022602 
L 277.733489 42.963679 
L 277.073292 42.875202 
L 276.580533 42.767024 
L 275.752807 42.609774 
L 275.457151 42.541 
L 275.210817 42.511629 
L 274.964484 42.491927 
L 274.547865 42.478245 
L 274.237147 42.458726 
L 273.864799 42.33796 
L 273.310593 42.111206 
L 273.036797 41.972015 
L 272.751704 41.811116 
L 272.615862 41.732126 
L 272.417197 41.660068 
L 272.120623 41.58272 
L 271.865564 41.546782 
L 271.594982 41.468157 
L 271.188926 41.335716 
L 270.776166 41.208201 
L 270.477846 41.139792 
L 265.877962 51.310179 
L 262.758284 58.213148 
L 259.6308 65.124874 
L 258.220304 68.25219 
L 258.098515 68.527834 
L 258.014291 68.802566 
L 257.960469 69.041726 
L 257.941916 69.225793 
L 257.642311 76.88382 
" clip-path="url(#p2eecea4a07)" style="fill: #ffffff; stroke: #000000"/>
   </g>
   <g id="text_1">
    <!-- 1 -->
    <g transform="translate(155.526682 301.998192) scale(0.13 -0.13)">
     <defs>
      <path id="DejaVuSans-31" d="M 794 531 
L 1825 531 
L 1825 4091 
L 703 3866 
L 703 4441 
L 1819 4666 
L 2450 4666 
L 2450 531 
L 3481 531 
L 3481 0 
L 794 0 
L 794 531 
z
" transform="scale(0.015625)"/>
     </defs>
     <use xlink:href="#DejaVuSans-31"/>
    </g>
   </g>
   <g id="text_2">
    <!-- 2 -->
    <g transform="translate(225.291803 59.103683) scale(0.13 -0.13)">
     <defs>
      <path id="DejaVuSans-32" d="M 1228 531 
L 3431 531 
L 3431 0 
L 469 0 
L 469 531 
Q 828 903 1448 1529 
Q 2069 2156 2228 2338 
Q 2531 2678 2651 2914 
Q 2772 3150 2772 3378 
Q 2772 3750 2511 3984 
Q 2250 4219 1831 4219 
Q 1534 4219 1204 4116 
Q 875 4013 500 3803 
L 500 4441 
Q 881 4594 1212 4672 
Q 1544 4750 1819 4750 
Q 2544 4750 2975 4387 
Q 3406 4025 3406 3419 
Q 3406 3131 3298 2873 
Q 3191 2616 2906 2266 
Q 2828 2175 2409 1742 
Q 1991 1309 1228 531 
z
" transform="scale(0.015625)"/>
     </defs>
     <use xlink:href="#DejaVuSans-32"/>
    </g>
   </g>
   <g id="text_3">
    <!-- 3 -->
    <g transform="translate(206.792181 180.59474) scale(0.13 -0.13)">
     <defs>
      <path id="DejaVuSans-33" d="M 2597 2516 
Q 3050 2419 3304 2112 
Q 3559 1806 3559 1356 
Q 3559 666 3084 287 
Q 2609 -91 1734 -91 
Q 1441 -91 1130 -33 
Q 819 25 488 141 
L 488 750 
Q 750 597 1062 519 
Q 1375 441 1716 441 
Q 2309 441 2620 675 
Q 2931 909 2931 1356 
Q 2931 1769 2642 2001 
Q 2353 2234 1838 2234 
L 1294 2234 
L 1294 2753 
L 1863 2753 
Q 2328 2753 2575 2939 
Q 2822 3125 2822 3475 
Q 2822 3834 2567 4026 
Q 2313 4219 1838 4219 
Q 1578 4219 1281 4162 
Q 984 4106 628 3988 
L 628 4550 
Q 988 4650 1302 4700 
Q 1616 4750 1894 4750 
Q 2613 4750 3031 4423 
Q 3450 4097 3450 3541 
Q 3450 3153 3228 2886 
Q 3006 2619 2597 2516 
z
" transform="scale(0.015625)"/>
     </defs>
     <use xlink:href="#DejaVuSans-33"/>
    </g>
   </g>
   <g id="text_4">
    <!-- 4 -->
    <g transform="translate(185.236523 123.24155) scale(0.13 -0.13)">
     <defs>
      <path id="DejaVuSans-34" d="M 2419 4116 
L 825 1625 
L 2419 1625 
L 2419 4116 
z
M 2253 4666 
L 3047 4666 
L 3047 1625 
L 3713 1625 
L 3713 1100 
L 3047 1100 
L 3047 0 
L 2419 0 
L 2419 1100 
L 313 1100 
L 313 1709 
L 2253 4666 
z
" transform="scale(0.015625)"/>
     </defs>
     <use xlink:href="#DejaVuSans-34"/>
    </g>
   </g>
   <g id="text_5">
    <!-- 5 -->
    <g transform="translate(183.698182 83.083443) scale(0.13 -0.13)">
     <defs>
      <path id="DejaVuSans-35" d="M 691 4666 
L 3169 4666 
L 3169 4134 
L 1269 4134 
L 1269 2991 
Q 1406 3038 1543 3061 
Q 1681 3084 1819 3084 
Q 2600 3084 3056 2656 
Q 3513 2228 3513 1497 
Q 3513 744 3044 326 
Q 2575 -91 1722 -91 
Q 1428 -91 1123 -41 
Q 819 9 494 109 
L 494 744 
Q 775 591 1075 516 
Q 1375 441 1709 441 
Q 2250 441 2565 725 
Q 2881 1009 2881 1497 
Q 2881 1984 2565 2268 
Q 2250 2553 1709 2553 
Q 1456 2553 1204 2497 
Q 953 2441 691 2322 
L 691 4666 
z
" transform="scale(0.015625)"/>
     </defs>
     <use xlink:href="#DejaVuSans-35"/>
    </g>
   </g>
   <g id="text_6">
    <!-- 6 -->
    <g transform="translate(239.139541 98.310221) scale(0.13 -0.13)">
     <defs>
      <path id="DejaVuSans-36" d="M 2113 2584 
Q 1688 2584 1439 2293 
Q 1191 2003 1191 1497 
Q 1191 994 1439 701 
Q 1688 409 2113 409 
Q 2538 409 2786 701 
Q 3034 994 3034 1497 
Q 3034 2003 2786 2293 
Q 2538 2584 2113 2584 
z
M 3366 4563 
L 3366 3988 
Q 3128 4100 2886 4159 
Q 2644 4219 2406 4219 
Q 1781 4219 1451 3797 
Q 1122 3375 1075 2522 
Q 1259 2794 1537 2939 
Q 1816 3084 2150 3084 
Q 2853 3084 3261 2657 
Q 3669 2231 3669 1497 
Q 3669 778 3244 343 
Q 2819 -91 2113 -91 
Q 1303 -91 875 529 
Q 447 1150 447 2328 
Q 447 3434 972 4092 
Q 1497 4750 2381 4750 
Q 2619 4750 2861 4703 
Q 3103 4656 3366 4563 
z
" transform="scale(0.015625)"/>
     </defs>
     <use xlink:href="#DejaVuSans-36"/>
    </g>
   </g>
   <g id="text_7">
    <!-- 7 -->
    <g transform="translate(269.84782 62.190173) scale(0.13 -0.13)">
     <defs>
      <path id="DejaVuSans-37" d="M 525 4666 
L 3525 4666 
L 3525 4397 
L 1831 0 
L 1172 0 
L 2766 4134 
L 525 4134 
L 525 4666 
z
" transform="scale(0.015625)"/>
     </defs>
     <use xlink:href="#DejaVuSans-37"/>
    </g>
   </g>
  </g>
 </g>
 <defs>
  <clipPath id="p2eecea4a07">
   <rect x="98.00454" y="10.8" width="235.990919" height="410.4"/>
  </clipPath>
 </defs>
</svg>
