<?xml version="1.0" encoding="utf-8" standalone="no"?>
<!DOCTYPE svg PUBLIC "-//W3C//DTD SVG 1.1//EN"
  "http://www.w3.org/Graphics/SVG/1.1/DTD/svg11.dtd">
<svg xmlns:xlink="http://www.w3.org/1999/xlink" width="432pt" height="432pt" viewBox="0 0 432 432" xmlns="http://www.w3.org/2000/svg" version="1.1">
 <metadata>
  <rdf:RDF xmlns:dc="http://purl.org/dc/elements/1.1/" xmlns:cc="http://creativecommons.org/ns#" xmlns:rdf="http://www.w3.org/1999/02/22-rdf-syntax-ns#">
   <cc:Work>
    <dc:type rdf:resource="http://purl.org/dc/dcmitype/StillImage"/>
    <dc:date>2025-04-20T13:46:46.333622</dc:date>
    <dc:format>image/svg+xml</dc:format>
    <dc:creator>
     <cc:Agent>
      <dc:title>Matplotlib v3.10.1, https://matplotlib.org/</dc:title>
     </cc:Agent>
    </dc:creator>
   </cc:Work>
  </rdf:RDF>
 </metadata>
 <defs>
  <style type="text/css">*{stroke-linejoin: round; stroke-linecap: butt}</style>
 </defs>
 <g id="figure_1">
  <g id="patch_1">
   <path d="M 0 432 
L 432 432 
L 432 0 
L 0 0 
z
" style="fill: #ffffff"/>
  </g>
  <g id="axes_1">
   <g id="PatchCollection_1">
    <path d="M 101.560668 278.888084 
L 96.172439 283.606626 
L 100.008894 288.383131 
L 100.728118 290.661848 
L 101.119556 292.703656 
L 101.342343 294.404519 
L 101.434403 296.818781 
L 101.316465 300.066235 
L 101.279582 303.859141 
L 105.086887 308.475726 
L 107.571005 311.833757 
L 110.027163 315.373704 
L 111.149723 317.355467 
L 111.851248 319.484073 
L 113.265454 322.534747 
L 115.551324 327.30174 
L 115.834492 328.535624 
L 115.943209 329.454126 
L 115.749572 332.730412 
L 116.141456 334.550472 
L 118.664391 339.022 
L 119.019838 339.808225 
L 119.227158 340.583155 
L 119.274303 341.611937 
L 119.075609 343.842498 
L 118.924061 345.568033 
L 119.103272 346.193149 
L 119.758842 346.982942 
L 120.657872 347.591709 
L 121.383639 347.961785 
L 122.054825 348.155889 
L 123.106296 348.097034 
L 124.036855 347.896985 
L 125.013667 347.563173 
L 125.995981 347.006425 
L 126.7973 346.451459 
L 127.407509 345.768677 
L 128.428789 343.783643 
L 129.335255 342.481095 
L 130.344786 341.457069 
L 131.471956 340.82155 
L 132.839165 340.207134 
L 134.10554 339.911668 
L 135.424563 339.971118 
L 136.773182 340.444637 
L 138.491823 340.907455 
L 140.958392 341.410104 
L 143.54959 341.512655 
L 145.561661 341.028138 
L 147.953422 339.950608 
L 149.242254 339.588855 
L 150.737811 339.732427 
L 153.383145 340.581075 
L 154.927483 340.763883 
L 156.455759 340.451474 
L 157.586201 339.824871 
L 158.437788 338.755367 
L 158.970513 337.390396 
L 159.04889 336.354778 
L 157.980465 331.134181 
L 157.403421 328.713974 
L 157.826537 327.082073 
L 158.84514 326.234911 
L 160.427997 325.591663 
L 165.568156 325.748611 
L 168.343027 325.397856 
L 165.737403 268.689743 
L 161.932924 268.915355 
L 155.088103 269.321398 
L 110.991184 272.960627 
L 107.100743 273.210317 
L 101.560668 278.888084 
" clip-path="url(#p6ce215d5fb)" style="fill: #ffffff; stroke: #000000"/>
    <path d="M 168.343027 325.397856 
L 165.568156 325.748611 
L 160.427997 325.591663 
L 158.84514 326.234911 
L 157.826537 327.082073 
L 157.403421 328.713974 
L 157.980465 331.134181 
L 159.04889 336.354778 
L 158.970513 337.390396 
L 158.437788 338.755367 
L 157.586201 339.824871 
L 156.455759 340.451474 
L 154.927483 340.763883 
L 153.383145 340.581075 
L 150.737811 339.732427 
L 149.242254 339.588855 
L 147.953422 339.950608 
L 145.561661 341.028138 
L 143.54959 341.512655 
L 140.958392 341.410104 
L 138.491823 340.907455 
L 136.773182 340.444637 
L 135.424563 339.971118 
L 134.10554 339.911668 
L 132.839165 340.207134 
L 131.471956 340.82155 
L 130.344786 341.457069 
L 129.335255 342.481095 
L 128.428789 343.783643 
L 127.407509 345.768677 
L 126.7973 346.451459 
L 125.995981 347.006425 
L 125.013667 347.563173 
L 124.036855 347.896985 
L 123.106296 348.097034 
L 122.054825 348.155889 
L 121.383639 347.961785 
L 120.657872 347.591709 
L 119.758842 346.982942 
L 119.103272 346.193149 
L 118.924061 345.568033 
L 119.075609 343.842498 
L 119.274303 341.611937 
L 119.227158 340.583155 
L 119.019838 339.808225 
L 118.664391 339.022 
L 116.141456 334.550472 
L 115.749572 332.730412 
L 115.943209 329.454126 
L 115.834492 328.535624 
L 115.551324 327.30174 
L 113.265454 322.534747 
L 111.851248 319.484073 
L 111.149723 317.355467 
L 110.027163 315.373704 
L 107.571005 311.833757 
L 105.086887 308.475726 
L 101.279582 303.859141 
L 98.691061 320.751843 
L 97.091547 332.597541 
L 91.332403 349.93909 
L 88.285815 362.14238 
L 90.701372 371.907034 
L 92.620492 376.516783 
L 100.072696 387.087577 
L 106.970313 395.88498 
L 110.775387 402.545455 
L 116.382833 399.347048 
L 120.592285 397.521934 
L 129.097001 392.854222 
L 128.698126 393.333686 
L 129.097001 393.557515 
L 131.043634 391.84714 
L 132.140912 391.140577 
L 134.905074 389.289603 
L 136.404944 387.930875 
L 137.649457 386.572443 
L 139.851448 383.5833 
L 144.574588 376.151463 
L 147.574328 371.276864 
L 150.606043 367.489308 
L 152.392502 365.196324 
L 152.877636 364.735884 
L 154.866358 362.407527 
L 159.126672 355.936103 
L 159.876533 356.431322 
L 161.073306 354.577672 
L 160.482876 354.162414 
L 162.094437 350.950631 
L 163.243321 348.010831 
L 163.991099 346.121215 
L 167.537991 340.547188 
L 167.764942 339.81417 
L 168.768821 337.091066 
L 169.133935 334.039203 
L 169.09735 332.430784 
L 168.476729 328.209541 
L 168.343027 325.397856 
" clip-path="url(#p6ce215d5fb)" style="fill: #ffffff; stroke: #000000"/>
    <path d="M 109.723768 260.94282 
L 108.894043 265.244618 
L 107.488017 272.033208 
L 107.336766 272.56796 
L 107.100743 273.210317 
L 110.991184 272.960627 
L 155.088103 269.321398 
L 161.932924 268.915355 
L 165.737403 268.689743 
L 166.1745 259.675645 
L 166.369921 255.28705 
L 165.820093 246.204882 
L 165.392366 238.5293 
L 164.659311 228.250999 
L 163.937559 227.977232 
L 163.535115 219.381661 
L 163.500017 216.645775 
L 163.613046 212.83652 
L 163.894132 210.19724 
L 164.596699 207.8454 
L 165.702602 205.664479 
L 166.967192 203.740084 
L 168.629021 202.133449 
L 171.101539 200.347275 
L 171.402851 200.129689 
L 172.413126 199.6529 
L 176.927905 198.18954 
L 178.47492 197.997814 
L 183.309008 197.989491 
L 220.623273 199.882971 
L 224.134768 200.313092 
L 225.229814 200.370164 
L 231.084884 201.204246 
L 237.104441 202.36679 
L 237.354742 201.154011 
L 237.285883 194.191234 
L 235.699903 188.262588 
L 237.354742 184.884939 
L 239.768216 179.784134 
L 239.699209 173.23602 
L 237.975362 167.03331 
L 234.596677 163.79418 
L 233.253858 157.474651 
L 232.470832 149.314551 
L 232.95552 146.706185 
L 235.229939 142.384471 
L 236.554018 136.704624 
L 236.628975 135.267421 
L 236.494083 134.219319 
L 236.104429 133.276145 
L 234.006693 131.389798 
L 231.478107 126.240839 
L 230.872954 126.596052 
L 230.468428 125.447479 
L 230.032819 124.194869 
L 229.832935 123.500791 
L 229.674992 123.416669 
L 229.559434 123.185409 
L 229.824161 122.98536 
L 229.440902 121.857297 
L 228.864452 120.65076 
L 228.553919 120.629953 
L 228.154003 120.819004 
L 227.743379 120.787495 
L 227.605364 120.670082 
L 227.630052 120.562477 
L 228.069677 120.524727 
L 228.353886 120.261661 
L 228.459182 120.0304 
L 228.185532 119.199587 
L 227.575025 117.958867 
L 227.4382 117.348911 
L 227.232814 115.529742 
L 227.008242 114.494719 
L 226.327686 112.537924 
L 226.138213 112.517116 
L 225.70662 112.64315 
L 225.601324 112.559029 
L 225.622294 112.432995 
L 226.264479 112.075403 
L 226.285449 111.770425 
L 226.053888 110.603423 
L 225.353998 109.38351 
L 225.164525 108.447768 
L 225.04867 107.964142 
L 224.385515 107.459412 
L 224.385515 107.322677 
L 224.827668 107.301573 
L 225.059229 107.070312 
L 225.051049 106.968653 
L 225.026808 106.662486 
L 224.932815 105.482702 
L 225.080199 104.546959 
L 225.236209 104.277057 
L 225.769678 103.558604 
L 225.843445 103.295538 
L 225.98027 103.095786 
L 225.685501 102.87493 
L 225.643413 102.696283 
L 226.190713 102.622565 
L 226.622306 102.296779 
L 227.31714 101.056059 
L 227.601349 100.099212 
L 228.338122 98.727404 
L 228.648655 98.501197 
L 228.953983 98.43818 
L 229.227633 99.027032 
L 229.385577 99.068944 
L 229.669786 98.306796 
L 229.890788 96.225156 
L 230.101231 95.704969 
L 230.438088 95.599446 
L 230.354804 95.172892 
L 230.169792 93.882531 
L 229.669935 90.039389 
L 229.785344 88.249352 
L 229.689566 87.790398 
L 229.861936 87.455992 
L 230.151648 84.480225 
L 229.784154 83.240397 
L 229.317164 82.63044 
L 228.807194 82.183377 
L 228.575335 81.985111 
L 228.240262 81.977085 
L 227.733117 82.251744 
L 227.028617 83.106337 
L 226.415135 84.023352 
L 225.27339 86.401647 
L 222.221151 90.232007 
L 221.424294 90.803916 
L 220.325232 91.141294 
L 219.00844 90.87258 
L 217.777312 89.876794 
L 216.411442 88.235084 
L 215.73862 85.837765 
L 215.56625 84.604773 
L 215.058956 84.031378 
L 214.512697 83.836382 
L 213.182817 83.878294 
L 211.171192 84.537892 
L 210.684571 84.47101 
L 209.624921 83.683893 
L 209.306356 82.874482 
L 209.10216 80.980407 
L 209.240621 79.937655 
L 209.574355 78.085789 
L 209.601571 77.492181 
L 209.287171 76.790672 
L 208.580291 76.409003 
L 207.324922 76.322207 
L 205.067755 76.996666 
L 203.572793 77.665181 
L 202.475516 78.510559 
L 202.427776 78.570009 
L 201.486063 80.26998 
L 201.100722 81.686672 
L 200.327958 82.583177 
L 199.289278 83.708565 
L 198.605004 83.993033 
L 197.743601 83.878294 
L 197.292971 83.56856 
L 196.91224 83.068883 
L 196.752512 82.642925 
L 196.585348 82.057343 
L 196.26247 80.017021 
L 196.298759 78.913035 
L 196.072849 78.210634 
L 195.189286 77.496046 
L 194.530147 77.179475 
L 193.193277 76.6688 
L 192.39642 75.748515 
L 192.195347 75.242596 
L 192.27417 74.605292 
L 192.130503 74.366303 
L 192.532501 73.916862 
L 192.650587 73.368733 
L 193.334117 72.153279 
L 193.830406 71.480009 
L 194.438979 71.180975 
L 195.206835 71.180975 
L 196.588025 71.405399 
L 197.449576 71.367945 
L 198.05354 71.00322 
L 198.465651 70.479763 
L 198.559197 70.096311 
L 198.516068 69.82195 
L 198.27826 69.591284 
L 197.913145 69.450982 
L 195.174116 68.773253 
L 193.891233 68.455195 
L 192.968854 68.300923 
L 192.172889 68.18886 
L 191.138225 68.137435 
L 190.126909 67.866344 
L 189.518187 67.557798 
L 189.266547 66.865801 
L 189.241265 66.117029 
L 190.043922 64.115944 
L 190.45514 62.964993 
L 191.570413 61.583079 
L 191.799446 60.926157 
L 191.93181 60.340575 
L 191.991001 59.582291 
L 192.738482 58.310062 
L 192.78414 58.22713 
L 193.684806 57.967631 
L 194.828336 57.637981 
L 195.298746 57.502435 
L 196.131594 57.387696 
L 196.722619 57.085096 
L 197.272447 56.307491 
L 197.885483 55.440711 
L 198.045955 55.213909 
L 198.333138 54.482972 
L 198.28525 53.76125 
L 198.361842 52.9777 
L 198.50536 52.566603 
L 198.535253 51.904331 
L 198.266064 51.420111 
L 197.611535 50.897843 
L 196.399593 50.827692 
L 193.850929 51.724495 
L 192.050193 50.218033 
L 189.739337 49.456479 
L 188.236642 48.495174 
L 187.948119 48.063864 
L 187.851896 47.143876 
L 187.804007 46.169195 
L 187.653797 45.260502 
L 186.826006 43.625331 
L 185.813054 42.318622 
L 184.970837 40.823158 
L 183.550385 39.580952 
L 172.303071 34.961394 
L 169.859257 33.866029 
L 164.156925 31.309681 
L 159.15255 29.454545 
L 153.08094 34.547325 
L 152.728913 34.842494 
L 152.102492 63.080326 
L 152.032741 72.47312 
L 151.883275 83.140521 
L 152.032741 85.717973 
L 152.213737 88.554924 
L 152.371681 91.042607 
L 152.411538 92.475648 
L 152.441432 94.276982 
L 152.192172 96.516461 
L 151.467594 99.989824 
L 151.030647 102.017067 
L 150.889806 103.283945 
L 150.826302 104.593033 
L 150.953162 106.472246 
L 151.192755 108.069963 
L 152.523081 114.904626 
L 153.591208 120.504514 
L 156.311349 134.766853 
L 157.253954 139.710413 
L 157.625167 141.656804 
L 159.513203 151.713654 
L 155.320706 159.53043 
L 153.123326 163.240106 
L 146.296055 176.073863 
L 137.333719 193.099138 
L 128.510141 209.676458 
L 128.315611 210.081015 
L 128.108589 210.457333 
L 116.997951 231.113514 
L 115.540616 233.87318 
L 115.344153 234.358886 
L 115.172378 234.854104 
L 114.86705 235.766958 
L 113.249094 243.567682 
L 109.723768 260.94282 
" clip-path="url(#p6ce215d5fb)" style="fill: #ffffff; stroke: #000000"/>
    <path d="M 256.993297 313.190107 
L 257.02319 312.963008 
L 257.040591 312.799521 
L 253.126205 311.038019 
L 253.287569 311.650056 
L 253.392419 312.034103 
L 253.534896 312.622955 
L 253.629632 313.205861 
L 252.179138 313.260555 
L 232.032992 314.013489 
L 231.977965 312.880967 
L 231.919666 312.234746 
L 231.827309 311.629843 
L 231.645867 310.796652 
L 231.418321 309.997645 
L 231.114331 309.176047 
L 230.776879 308.427572 
L 225.713164 298.628438 
L 217.209786 282.218172 
L 213.23264 274.535456 
L 212.865443 273.951063 
L 212.714489 273.706724 
L 212.216714 274.011999 
L 196.185134 282.329641 
L 186.592362 263.676032 
L 180.849727 265.852494 
L 174.969374 268.050359 
L 174.357231 268.165394 
L 165.737403 268.689743 
L 168.343027 325.397856 
L 168.476729 328.209541 
L 169.09735 332.430784 
L 169.133935 334.039203 
L 168.768821 337.091066 
L 167.764942 339.81417 
L 167.537991 340.547188 
L 168.780719 339.663762 
L 171.31451 338.704834 
L 172.910306 338.611498 
L 174.193933 338.747341 
L 175.528274 339.102257 
L 181.084114 341.158036 
L 187.650228 343.536926 
L 189.368571 344.063058 
L 191.088551 344.377845 
L 199.144868 345.285349 
L 205.150445 345.974076 
L 206.794576 346.169369 
L 209.702257 346.621783 
L 216.122325 347.451705 
L 226.49381 348.569958 
L 231.430665 349.127301 
L 239.657715 350.055909 
L 243.072392 349.992001 
L 247.252842 348.602061 
L 249.949485 346.732658 
L 252.071611 344.607619 
L 253.732846 341.570322 
L 254.809004 332.201605 
L 256.346798 318.815855 
L 256.979019 313.265014 
L 256.993297 313.190107 
" clip-path="url(#p6ce215d5fb)" style="fill: #ffffff; stroke: #000000"/>
    <path d="M 322.361302 207.071659 
L 321.78277 206.984267 
L 321.143708 206.53215 
L 320.912592 206.53215 
L 320.606669 206.702177 
L 320.307588 206.831184 
L 320.076472 206.688504 
L 319.933698 206.681667 
L 319.879266 206.81751 
L 319.933698 206.987537 
L 319.709276 207.123677 
L 319.43741 207.02826 
L 319.321853 207.184614 
L 319.376285 207.361477 
L 319.620934 207.531504 
L 319.485002 207.701234 
L 319.206295 207.735417 
L 318.934281 207.721744 
L 318.672677 208.095684 
L 318.295368 208.279087 
L 318.264731 208.455951 
L 318.17981 208.516887 
L 318.098161 208.312974 
L 317.935012 208.326647 
L 317.907796 208.584957 
L 317.901103 208.775197 
L 317.520373 209.060854 
L 317.180392 209.09474 
L 317.153325 209.264767 
L 316.833719 209.51624 
L 316.521104 209.618197 
L 316.255931 209.550127 
L 315.725734 208.809381 
L 314.785211 208.992784 
L 313.597956 209.081067 
L 311.884818 209.074527 
L 311.742044 209.18986 
L 311.626486 209.1423 
L 311.565213 208.76509 
L 310.946674 208.778764 
L 311.062232 208.425334 
L 310.926299 208.29603 
L 310.892242 208.1804 
L 311.041857 207.833807 
L 310.817434 207.582334 
L 310.640751 207.691127 
L 309.430742 207.463434 
L 308.798521 207.313917 
L 308.696498 207.456597 
L 308.438166 207.44976 
L 308.179834 207.171237 
L 308.030368 207.273194 
L 307.792411 207.340967 
L 307.377772 207.188181 
L 307.098917 207.351371 
L 306.82021 207.2833 
L 306.636686 207.011317 
L 306.072432 206.821077 
L 306.052057 206.712284 
L 306.262797 206.406414 
L 306.157501 206.260167 
L 305.922965 206.03931 
L 305.854999 205.753951 
L 305.685009 205.638321 
L 305.69185 205.325614 
L 305.589826 205.230494 
L 305.290744 205.220387 
L 305.059629 205.104757 
L 304.454476 204.860121 
L 304.580295 204.67642 
L 304.362714 204.615187 
L 304.196293 204.758164 
L 303.948074 204.67642 
L 303.832517 204.526904 
L 303.798608 204.255218 
L 303.438252 204.187147 
L 303.251308 204.092027 
L 303.013351 203.867604 
L 302.775395 203.792994 
L 302.605553 204.017121 
L 302.190765 203.908327 
L 302.309744 203.609294 
L 301.969912 203.452941 
L 301.942696 203.718087 
L 301.738796 203.745137 
L 301.54159 203.561734 
L 301.079359 203.616131 
L 301.018086 203.425891 
L 301.099734 203.412217 
L 301.086052 203.283211 
L 300.882153 203.215141 
L 300.936585 202.963668 
L 301.147326 202.888761 
L 301.147326 202.786804 
L 300.936585 202.793641 
L 300.74622 202.881924 
L 300.610288 202.766591 
L 300.413081 202.786804 
L 299.937317 203.140234 
L 299.753644 203.106347 
L 299.604177 202.943157 
L 299.597336 202.732407 
L 299.828452 202.617074 
L 299.882884 202.413161 
L 299.441028 201.869194 
L 299.216606 201.767237 
L 299.080673 201.855818 
L 299.101048 202.069838 
L 299.271038 202.249971 
L 299.121423 202.372141 
L 298.849558 202.304368 
L 298.747534 201.971151 
L 298.577692 201.916754 
L 298.407702 202.107291 
L 298.196962 202.440211 
L 298.176587 202.739244 
L 298.115313 202.848037 
L 297.850289 202.841201 
L 297.456025 202.977341 
L 296.878088 202.895597 
L 296.755837 202.848037 
L 296.714939 202.691684 
L 296.769371 202.474097 
L 296.633439 202.385814 
L 294.471603 202.378977 
L 294.158988 202.324581 
L 293.730666 202.712194 
L 293.87344 202.943157 
L 293.628642 203.215141 
L 293.32956 203.350984 
L 293.207162 203.765647 
L 293.07807 203.85393 
L 292.432167 204.785214 
L 292.398258 205.172827 
L 292.330292 205.322344 
L 292.146768 205.38328 
L 291.725287 204.907681 
L 291.548456 205.087814 
L 291.419364 204.904114 
L 291.228999 204.496287 
L 290.562721 204.883901 
L 289.141971 204.611917 
L 288.319385 204.999234 
L 287.469732 204.543847 
L 287.23936 204.263541 
L 288.159657 203.475234 
L 289.648521 202.389381 
L 290.069704 201.827876 
L 290.328631 201.553812 
L 291.498187 201.312148 
L 291.984511 200.824659 
L 291.911786 200.116312 
L 291.371773 199.007274 
L 291.096338 198.015649 
L 291.342326 196.919689 
L 291.828203 196.739258 
L 292.217262 197.162839 
L 292.350964 197.790631 
L 293.269179 198.354513 
L 293.673705 198.388103 
L 294.484245 197.542724 
L 294.780054 197.194942 
L 294.795522 196.821894 
L 294.262053 196.194994 
L 293.884892 195.204855 
L 293.973828 194.786328 
L 293.657792 193.75933 
L 293.611539 193.491508 
L 293.637417 193.110731 
L 293.808894 192.793268 
L 294.134895 192.494532 
L 294.550426 192.064709 
L 294.873304 191.492503 
L 294.94008 190.883439 
L 294.685169 189.996446 
L 294.8388 189.769941 
L 295.569327 189.467638 
L 295.876885 189.457532 
L 296.188757 189.51282 
L 296.984573 190.355523 
L 297.166759 190.854606 
L 297.459297 190.975586 
L 298.083486 190.833798 
L 298.991439 190.858767 
L 299.483414 190.888195 
L 299.67021 190.747298 
L 299.680324 190.439645 
L 299.457537 189.999715 
L 299.458578 189.522332 
L 299.801235 188.566972 
L 300.583369 187.363705 
L 301.329065 187.053079 
L 301.578771 186.787932 
L 301.699385 186.520407 
L 301.740432 185.768068 
L 301.945967 185.094203 
L 301.826692 184.81568 
L 301.384985 184.597796 
L 300.462308 184.299655 
L 299.993236 183.885883 
L 299.44088 183.596065 
L 298.543932 183.278007 
L 298.024443 183.285736 
L 297.515662 183.442981 
L 297.294214 183.987245 
L 297.405905 184.562721 
L 297.391479 184.715804 
L 297.103551 184.873644 
L 296.015495 184.774362 
L 295.636103 184.451847 
L 295.639375 184.153705 
L 296.353542 183.201911 
L 296.547477 182.860966 
L 296.492301 182.513778 
L 295.752702 181.560498 
L 295.827063 180.83075 
L 295.773523 180.509126 
L 296.119155 179.043685 
L 296.362763 178.939053 
L 296.574544 179.003556 
L 296.594622 179.266622 
L 296.856374 179.442297 
L 297.155307 179.93484 
L 297.024431 180.51626 
L 297.070981 181.305161 
L 297.286034 181.448435 
L 297.523247 181.369961 
L 298.320997 180.110217 
L 298.44756 179.787107 
L 298.857737 179.161693 
L 299.052118 179.034173 
L 299.321753 178.965211 
L 299.562089 178.829071 
L 299.766583 178.514283 
L 299.841688 178.086244 
L 299.811943 177.629074 
L 299.265684 176.396974 
L 299.072493 175.484417 
L 299.234452 175.098587 
L 299.144029 174.5784 
L 298.939981 174.33406 
L 298.663803 174.087343 
L 297.112326 173.185488 
L 281.71148 186.204134 
L 275.331865 191.552845 
L 271.479497 194.751847 
L 267.012606 193.354178 
L 264.206355 193.260842 
L 263.580083 191.950268 
L 262.873055 191.63875 
L 260.976243 190.891762 
L 258.537635 189.021169 
L 257.547289 189.417106 
L 257.027354 188.344629 
L 257.794764 187.189516 
L 258.471602 185.514812 
L 258.620176 184.887615 
L 258.463273 184.428067 
L 256.632049 181.98289 
L 254.692554 179.392953 
L 256.309172 172.601392 
L 255.273614 169.864019 
L 253.566722 169.017749 
L 251.764499 167.537743 
L 251.229691 166.354689 
L 250.789621 164.166634 
L 251.103574 162.165549 
L 251.059701 161.126661 
L 250.076346 158.093822 
L 249.43416 156.262764 
L 250.395356 154.521772 
L 250.746491 152.95913 
L 249.878693 152.13991 
L 249.01387 151.026412 
L 248.056541 150.630476 
L 245.860945 150.569242 
L 245.068996 150.647122 
L 244.754893 149.897458 
L 245.508323 148.004869 
L 245.79521 147.455254 
L 245.87909 147.082503 
L 248.358448 142.959947 
L 249.849543 140.480587 
L 250.198893 138.771401 
L 250.560885 137.799394 
L 251.067435 134.520135 
L 251.83544 133.068368 
L 251.445934 132.043451 
L 251.409944 131.890664 
L 245.064832 129.296863 
L 244.685589 128.149479 
L 244.495818 127.551116 
L 244.430232 126.190604 
L 238.765081 127.774053 
L 237.728036 126.281859 
L 237.137607 124.150579 
L 236.441584 122.448527 
L 234.953314 122.977037 
L 234.374039 124.182384 
L 231.478107 126.240839 
L 234.006693 131.389798 
L 236.104429 133.276145 
L 236.494083 134.219319 
L 236.628975 135.267421 
L 236.554018 136.704624 
L 235.229939 142.384471 
L 232.95552 146.706185 
L 232.470832 149.314551 
L 233.253858 157.474651 
L 234.596677 163.79418 
L 237.975362 167.03331 
L 239.699209 173.23602 
L 239.768216 179.784134 
L 237.354742 184.884939 
L 235.699903 188.262588 
L 237.285883 194.191234 
L 237.354742 201.154011 
L 237.104441 202.36679 
L 231.084884 201.204246 
L 225.229814 200.370164 
L 224.134768 200.313092 
L 220.623273 199.882971 
L 183.309008 197.989491 
L 178.47492 197.997814 
L 176.927905 198.18954 
L 172.413126 199.6529 
L 171.402851 200.129689 
L 171.101539 200.347275 
L 168.629021 202.133449 
L 166.967192 203.740084 
L 165.702602 205.664479 
L 164.596699 207.8454 
L 163.894132 210.19724 
L 163.613046 212.83652 
L 163.500017 216.645775 
L 163.535115 219.381661 
L 163.937559 227.977232 
L 164.659311 228.250999 
L 165.392366 238.5293 
L 165.820093 246.204882 
L 166.369921 255.28705 
L 166.1745 259.675645 
L 165.737403 268.689743 
L 174.357231 268.165394 
L 174.969374 268.050359 
L 180.849727 265.852494 
L 186.592362 263.676032 
L 196.185134 282.329641 
L 212.216714 274.011999 
L 212.714489 273.706724 
L 212.865443 273.951063 
L 213.23264 274.535456 
L 217.209786 282.218172 
L 225.713164 298.628438 
L 230.776879 308.427572 
L 231.114331 309.176047 
L 231.418321 309.997645 
L 231.645867 310.796652 
L 231.827309 311.629843 
L 231.919666 312.234746 
L 231.977965 312.880967 
L 232.032992 314.013489 
L 252.179138 313.260555 
L 253.629632 313.205861 
L 253.534896 312.622955 
L 253.392419 312.034103 
L 253.287569 311.650056 
L 253.126205 311.038019 
L 257.040591 312.799521 
L 262.38911 262.976603 
L 263.369343 252.73962 
L 263.822501 247.683997 
L 264.014205 246.725663 
L 264.998007 238.680005 
L 265.128437 238.621744 
L 265.949535 238.265639 
L 266.543088 237.957986 
L 270.490788 235.911124 
L 270.641146 236.2164 
L 271.227263 235.918853 
L 271.099956 235.667974 
L 282.544477 229.645694 
L 285.438921 228.182037 
L 286.933586 231.138185 
L 287.109971 231.272542 
L 287.403847 231.364987 
L 287.832169 231.37331 
L 288.302431 231.272542 
L 288.70547 231.104596 
L 292.685591 229.424838 
L 294.482609 228.618697 
L 300.924241 225.403941 
L 309.912604 218.095462 
L 311.673037 221.663945 
L 312.575636 223.306844 
L 323.582762 243.342367 
L 326.289964 241.519929 
L 328.523782 240.626396 
L 333.668105 241.469099 
L 335.672294 240.728353 
L 336.221081 239.834523 
L 337.625322 239.553622 
L 338.518849 239.477229 
L 340.305903 238.749264 
L 341.110047 238.78761 
L 341.837748 238.302498 
L 342.667473 237.600394 
L 343.714185 237.472577 
L 333.5347 230.433109 
L 330.247331 232.206798 
L 329.052194 230.597785 
L 331.298652 229.516094 
L 332.082719 229.010175 
L 331.061737 227.766482 
L 328.564532 224.645657 
L 328.228864 223.814249 
L 327.146757 221.593794 
L 326.744759 220.738012 
L 326.39526 219.994888 
L 326.356592 219.912847 
L 325.951917 218.998804 
L 325.83636 216.344661 
L 325.829221 216.213871 
L 325.824313 216.106861 
L 325.954148 212.899537 
L 322.479685 212.244696 
L 322.421832 212.499439 
L 322.24039 213.863815 
L 322.10059 215.323311 
L 321.670781 215.267428 
L 321.383746 215.259105 
L 317.545953 214.455045 
L 317.410615 212.091612 
L 321.097306 208.622708 
L 322.361302 207.071659 
" clip-path="url(#p6ce215d5fb)" style="fill: #ffffff; stroke: #000000"/>
   </g>
   <g id="text_1">
    <!-- 1 -->
    <g transform="translate(131.822618 307.246587) scale(0.13 -0.13)">
     <defs>
      <path id="DejaVuSans-31" d="M 794 531 
L 1825 531 
L 1825 4091 
L 703 3866 
L 703 4441 
L 1819 4666 
L 2450 4666 
L 2450 531 
L 3481 531 
L 3481 0 
L 794 0 
L 794 531 
z
" transform="scale(0.015625)"/>
     </defs>
     <use xlink:href="#DejaVuSans-31"/>
    </g>
   </g>
   <g id="text_2">
    <!-- 2 -->
    <g transform="translate(117.879224 362.125831) scale(0.13 -0.13)">
     <defs>
      <path id="DejaVuSans-32" d="M 1228 531 
L 3431 531 
L 3431 0 
L 469 0 
L 469 531 
Q 828 903 1448 1529 
Q 2069 2156 2228 2338 
Q 2531 2678 2651 2914 
Q 2772 3150 2772 3378 
Q 2772 3750 2511 3984 
Q 2250 4219 1831 4219 
Q 1534 4219 1204 4116 
Q 875 4013 500 3803 
L 500 4441 
Q 881 4594 1212 4672 
Q 1544 4750 1819 4750 
Q 2544 4750 2975 4387 
Q 3406 4025 3406 3419 
Q 3406 3131 3298 2873 
Q 3191 2616 2906 2266 
Q 2828 2175 2409 1742 
Q 1991 1309 1228 531 
z
" transform="scale(0.015625)"/>
     </defs>
     <use xlink:href="#DejaVuSans-32"/>
    </g>
   </g>
   <g id="text_3">
    <!-- 3 -->
    <g transform="translate(173.433335 158.462035) scale(0.13 -0.13)">
     <defs>
      <path id="DejaVuSans-33" d="M 2597 2516 
Q 3050 2419 3304 2112 
Q 3559 1806 3559 1356 
Q 3559 666 3084 287 
Q 2609 -91 1734 -91 
Q 1441 -91 1130 -33 
Q 819 25 488 141 
L 488 750 
Q 750 597 1062 519 
Q 1375 441 1716 441 
Q 2309 441 2620 675 
Q 2931 909 2931 1356 
Q 2931 1769 2642 2001 
Q 2353 2234 1838 2234 
L 1294 2234 
L 1294 2753 
L 1863 2753 
Q 2328 2753 2575 2939 
Q 2822 3125 2822 3475 
Q 2822 3834 2567 4026 
Q 2313 4219 1838 4219 
Q 1578 4219 1281 4162 
Q 984 4106 628 3988 
L 628 4550 
Q 988 4650 1302 4700 
Q 1616 4750 1894 4750 
Q 2613 4750 3031 4423 
Q 3450 4097 3450 3541 
Q 3450 3153 3228 2886 
Q 3006 2619 2597 2516 
z
" transform="scale(0.015625)"/>
     </defs>
     <use xlink:href="#DejaVuSans-33"/>
    </g>
   </g>
   <g id="text_4">
    <!-- 4 -->
    <g transform="translate(200.782954 316.935376) scale(0.13 -0.13)">
     <defs>
      <path id="DejaVuSans-34" d="M 2419 4116 
L 825 1625 
L 2419 1625 
L 2419 4116 
z
M 2253 4666 
L 3047 4666 
L 3047 1625 
L 3713 1625 
L 3713 1100 
L 3047 1100 
L 3047 0 
L 2419 0 
L 2419 1100 
L 313 1100 
L 313 1709 
L 2253 4666 
z
" transform="scale(0.015625)"/>
     </defs>
     <use xlink:href="#DejaVuSans-34"/>
    </g>
   </g>
   <g id="text_5">
    <!-- 5 -->
    <g transform="translate(231.37974 234.754888) scale(0.13 -0.13)">
     <defs>
      <path id="DejaVuSans-35" d="M 691 4666 
L 3169 4666 
L 3169 4134 
L 1269 4134 
L 1269 2991 
Q 1406 3038 1543 3061 
Q 1681 3084 1819 3084 
Q 2600 3084 3056 2656 
Q 3513 2228 3513 1497 
Q 3513 744 3044 326 
Q 2575 -91 1722 -91 
Q 1428 -91 1123 -41 
Q 819 9 494 109 
L 494 744 
Q 775 591 1075 516 
Q 1375 441 1709 441 
Q 2250 441 2565 725 
Q 2881 1009 2881 1497 
Q 2881 1984 2565 2268 
Q 2250 2553 1709 2553 
Q 1456 2553 1204 2497 
Q 953 2441 691 2322 
L 691 4666 
z
" transform="scale(0.015625)"/>
     </defs>
     <use xlink:href="#DejaVuSans-35"/>
    </g>
   </g>
  </g>
 </g>
 <defs>
  <clipPath id="p6ce215d5fb">
   <rect x="75.514397" y="10.8" width="280.971206" height="410.4"/>
  </clipPath>
 </defs>
</svg>
