<?xml version="1.0" encoding="utf-8" standalone="no"?>
<!DOCTYPE svg PUBLIC "-//W3C//DTD SVG 1.1//EN"
  "http://www.w3.org/Graphics/SVG/1.1/DTD/svg11.dtd">
<svg xmlns:xlink="http://www.w3.org/1999/xlink" width="432pt" height="432pt" viewBox="0 0 432 432" xmlns="http://www.w3.org/2000/svg" version="1.1">
 <metadata>
  <rdf:RDF xmlns:dc="http://purl.org/dc/elements/1.1/" xmlns:cc="http://creativecommons.org/ns#" xmlns:rdf="http://www.w3.org/1999/02/22-rdf-syntax-ns#">
   <cc:Work>
    <dc:type rdf:resource="http://purl.org/dc/dcmitype/StillImage"/>
    <dc:date>2025-04-20T13:46:46.651987</dc:date>
    <dc:format>image/svg+xml</dc:format>
    <dc:creator>
     <cc:Agent>
      <dc:title>Matplotlib v3.10.1, https://matplotlib.org/</dc:title>
     </cc:Agent>
    </dc:creator>
   </cc:Work>
  </rdf:RDF>
 </metadata>
 <defs>
  <style type="text/css">*{stroke-linejoin: round; stroke-linecap: butt}</style>
 </defs>
 <g id="figure_1">
  <g id="patch_1">
   <path d="M 0 432 
L 432 432 
L 432 0 
L 0 0 
z
" style="fill: #ffffff"/>
  </g>
  <g id="axes_1">
   <g id="PatchCollection_1">
    <path d="M 268.212964 150.263837 
L 269.109092 180.917439 
L 269.761761 180.887839 
L 270.222925 180.895791 
L 270.598495 180.978404 
L 278.281641 184.694441 
L 278.777886 184.8431 
L 279.302441 184.91268 
L 285.490967 184.712775 
L 286.848148 184.566104 
L 287.223052 184.522809 
L 289.629343 184.050325 
L 289.963282 185.685575 
L 293.684568 202.924292 
L 294.713584 207.684255 
L 291.052802 208.409438 
L 287.39535 209.097953 
L 286.37999 209.298521 
L 285.676587 209.458888 
L 285.041348 209.609756 
L 283.231662 210.042921 
L 276.427215 211.366054 
L 304.822449 241.782861 
L 305.016617 241.764969 
L 306.350374 241.719908 
L 309.1732 241.148023 
L 312.22239 239.777841 
L 315.030341 238.725961 
L 317.515343 237.804628 
L 315.795691 230.508844 
L 313.828472 223.439473 
L 313.03237 221.038396 
L 311.507775 215.678494 
L 310.066553 209.878137 
L 308.744453 204.709306 
L 308.665631 204.342407 
L 307.803474 200.327064 
L 306.016879 190.765167 
L 304.063537 182.95493 
L 302.6937 177.752302 
L 300.406863 168.36027 
L 299.311126 164.027508 
L 298.501147 160.587805 
L 298.292879 159.786857 
L 297.937736 158.215002 
L 296.897175 154.377034 
L 296.130936 151.412245 
L 294.153725 143.534637 
L 292.271767 135.95523 
L 290.497051 129.042911 
L 288.198335 119.668771 
L 287.435982 116.742638 
L 287.320192 116.388109 
L 286.54263 114.006913 
L 282.700779 106.029903 
L 281.115347 106.726591 
L 280.772083 106.862659 
L 274.859878 108.887118 
L 267.326605 110.964591 
L 267.156083 110.970113 
L 267.131993 111.32906 
L 267.465154 120.514339 
L 267.904448 136.675995 
L 267.892458 137.314367 
L 267.879802 138.062523 
L 268.212964 150.263837 
" clip-path="url(#p5370ed70ff)" style="fill: #ffffff; stroke: #000000"/>
    <path d="M 251.506698 150.599811 
L 250.759444 150.619912 
L 250.496778 150.62698 
L 250.27208 150.632945 
L 250.25243 150.633386 
L 250.471577 158.071644 
L 251.121692 181.248332 
L 251.208951 181.25032 
L 251.289327 181.259818 
L 251.487159 181.301125 
L 251.80278 181.356347 
L 251.994729 181.582981 
L 252.139939 181.716619 
L 252.294252 181.877207 
L 252.448233 182.090808 
L 252.543263 182.288063 
L 252.625971 182.489073 
L 252.67071 182.622932 
L 252.739208 182.845589 
L 252.804042 183.123911 
L 252.857108 183.37926 
L 252.887526 183.653606 
L 252.894409 183.938775 
L 252.891856 184.294629 
L 252.872983 184.540039 
L 252.843453 184.798701 
L 252.782949 185.062444 
L 252.70446 185.3295 
L 252.593554 185.667241 
L 252.490419 185.864276 
L 252.349539 186.082073 
L 252.194115 186.251938 
L 251.932226 186.513914 
L 251.785795 186.725968 
L 251.65535 186.957682 
L 251.604948 187.128651 
L 251.585631 187.26472 
L 251.584632 187.522057 
L 251.57897 188.288104 
L 251.710969 193.332796 
L 251.711969 193.369905 
L 251.731174 194.115631 
L 251.750824 194.872842 
L 251.777802 195.696321 
L 251.782797 195.852491 
L 251.923123 200.776355 
L 251.95121 201.760421 
L 251.967085 202.315739 
L 251.971748 202.480302 
L 252.000946 203.504129 
L 252.044242 205.022749 
L 252.071774 205.986935 
L 252.115737 207.529191 
L 252.14549 208.573339 
L 252.183346 210.036957 
L 252.225311 211.373123 
L 252.24596 212.097422 
L 252.263167 212.701777 
L 252.272937 213.15151 
L 252.293253 214.468016 
L 252.304466 215.257477 
L 252.335772 216.317751 
L 252.365636 217.38708 
L 252.391947 218.222487 
L 252.431469 219.553572 
L 252.445679 220.045494 
L 252.470769 220.894817 
L 252.507738 222.147044 
L 252.53094 223.038999 
L 252.571794 224.321046 
L 252.600992 225.310855 
L 252.613648 225.738499 
L 252.619865 225.950553 
L 252.682145 228.062485 
L 252.71656 229.228785 
L 252.748644 230.312473 
L 252.810481 232.410709 
L 252.830908 233.104525 
L 252.854887 233.919169 
L 252.913726 235.913145 
L 253.003206 238.945526 
L 253.01897 239.480743 
L 253.04728 240.289643 
L 253.064043 241.489077 
L 253.136315 243.282043 
L 253.178946 244.688452 
L 253.249441 247.107862 
L 253.274531 247.831499 
L 253.279749 248.070944 
L 253.314497 248.47937 
L 253.357683 249.058986 
L 253.36723 249.415282 
L 253.377555 249.58846 
L 253.383994 249.69758 
L 253.397982 249.93349 
L 253.407752 250.098275 
L 253.436949 250.674577 
L 253.451381 250.957758 
L 253.471919 251.361325 
L 253.475805 251.436649 
L 253.518657 252.241573 
L 253.547189 252.777231 
L 253.569059 253.186099 
L 253.606361 254.118698 
L 253.608692 254.386196 
L 253.617351 255.373354 
L 253.695951 264.324269 
L 253.750239 266.939609 
L 253.774551 267.524085 
L 253.826951 268.992121 
L 253.833945 269.290765 
L 253.845491 269.61459 
L 253.897891 270.659622 
L 253.958728 270.907902 
L 254.240156 270.906356 
L 254.673233 270.893766 
L 254.842867 270.878082 
L 254.992407 270.842077 
L 255.413605 270.757918 
L 255.694144 270.753058 
L 255.636305 268.900452 
L 255.743991 268.890512 
L 255.814931 268.892279 
L 259.237248 268.79332 
L 260.452994 268.767918 
L 260.649494 268.762175 
L 260.925704 268.598716 
L 263.741537 266.287983 
L 263.924159 266.085206 
L 264.42529 265.634811 
L 264.585487 265.5131 
L 264.773883 265.416571 
L 265.835093 264.87296 
L 265.964317 264.811774 
L 266.153379 264.740426 
L 266.306582 264.644781 
L 266.409939 264.565481 
L 266.469333 264.52307 
L 266.82825 264.376399 
L 267.087364 264.241435 
L 267.185059 264.132978 
L 267.301515 263.985644 
L 267.505675 263.709089 
L 267.566624 263.623384 
L 267.67098 263.524204 
L 267.830733 263.306407 
L 268.123928 262.893121 
L 268.216628 262.69189 
L 268.247601 262.562669 
L 268.288344 262.288765 
L 268.339079 262.066991 
L 268.49861 261.663646 
L 268.622838 261.422213 
L 268.723753 261.2751 
L 268.759722 261.132405 
L 268.927025 260.924326 
L 269.12308 260.761751 
L 269.530845 260.618172 
L 269.793622 260.531583 
L 271.121051 260.067714 
L 271.401702 259.957048 
L 271.531592 259.899616 
L 271.700115 259.838209 
L 271.827563 259.738366 
L 271.874523 259.721358 
L 271.964225 259.688666 
L 272.371102 259.492295 
L 272.640318 259.373235 
L 272.895767 259.27781 
L 272.953607 259.222146 
L 273.301978 258.802896 
L 273.413217 258.597247 
L 273.508803 258.524795 
L 273.592842 258.46383 
L 273.716626 258.277619 
L 273.778352 258.110405 
L 273.781571 257.975221 
L 273.988063 257.69977 
L 275.019187 255.982128 
L 275.387097 255.382632 
L 275.629114 255.045995 
L 275.827723 254.727913 
L 276.446088 253.940219 
L 277.065895 253.238892 
L 277.329449 252.936272 
L 277.533165 252.665682 
L 277.65817 252.522766 
L 278.068155 252.267858 
L 278.398764 252.058675 
L 278.900005 251.668362 
L 279.384372 251.32532 
L 279.828328 251.024909 
L 280.240978 250.707932 
L 280.451355 250.626865 
L 280.874884 250.665742 
L 281.304853 250.706606 
L 282.23684 250.562144 
L 283.364216 249.741979 
L 286.055043 247.840555 
L 289.250443 247.055732 
L 289.575056 246.932255 
L 290.010908 246.678452 
L 290.306879 246.648411 
L 291.217218 246.759077 
L 293.289015 246.686183 
L 293.971325 246.680219 
L 296.242175 246.862674 
L 296.462988 246.829099 
L 296.609197 246.794419 
L 296.715329 246.711806 
L 296.783383 246.662548 
L 296.85732 246.552544 
L 296.893511 246.434368 
L 296.996757 244.987095 
L 297.014631 244.735722 
L 297.055818 244.634554 
L 297.127757 244.597445 
L 297.914534 244.676082 
L 298.401565 244.459388 
L 298.974967 244.148154 
L 299.688917 243.914452 
L 299.921275 243.803565 
L 300.055938 243.709466 
L 300.258322 243.42518 
L 300.324932 243.270999 
L 300.341363 243.111295 
L 300.337588 242.880907 
L 300.406419 242.701102 
L 300.54197 242.600376 
L 300.894116 242.524611 
L 302.495424 242.381695 
L 302.831694 242.352758 
L 302.928278 242.214702 
L 302.84657 242.022527 
L 302.897194 241.844711 
L 303.444174 241.88668 
L 304.822449 241.782861 
L 276.427215 211.366054 
L 283.231662 210.042921 
L 285.041348 209.609756 
L 285.676587 209.458888 
L 286.37999 209.298521 
L 287.39535 209.097953 
L 291.052802 208.409438 
L 294.713584 207.684255 
L 293.684568 202.924292 
L 289.963282 185.685575 
L 289.629343 184.050325 
L 287.223052 184.522809 
L 286.848148 184.566104 
L 285.490967 184.712775 
L 279.302441 184.91268 
L 278.777886 184.8431 
L 278.281641 184.694441 
L 270.598495 180.978404 
L 270.222925 180.895791 
L 269.761761 180.887839 
L 269.109092 180.917439 
L 268.212964 150.263837 
L 266.096094 150.304923 
L 264.050941 150.380909 
L 259.816757 150.524708 
L 259.354926 150.53752 
L 257.707769 150.579047 
L 255.642855 150.643768 
L 255.605331 150.602683 
L 255.545715 150.386431 
L 255.427926 150.39107 
L 253.907439 150.437457 
L 253.73181 150.53995 
L 253.426291 150.548123 
L 251.506698 150.599811 
" clip-path="url(#p5370ed70ff)" style="fill: #ffffff; stroke: #000000"/>
    <path d="M 269.196019 47.272215 
L 269.181364 47.147633 
L 269.149947 46.980198 
L 269.110647 46.80459 
L 268.890611 46.052238 
L 268.734743 45.554352 
L 268.602411 45.199602 
L 268.380599 44.671895 
L 268.362837 44.634786 
L 268.087959 44.062017 
L 267.764678 43.418564 
L 267.566846 43.023391 
L 267.297741 42.487291 
L 267.124443 42.116416 
L 266.906073 41.587163 
L 266.694919 41.000478 
L 266.544491 40.562674 
L 266.441134 40.212563 
L 266.296479 39.674916 
L 266.214327 39.310005 
L 266.138835 38.941119 
L 266.095095 38.676492 
L 266.049023 38.368571 
L 266.008169 38.05822 
L 265.967647 37.649794 
L 265.945 37.348058 
L 265.928125 36.957303 
L 265.923463 36.556829 
L 265.92313 36.33859 
L 265.909141 35.973237 
L 265.889047 35.65626 
L 265.841976 35.324704 
L 265.780251 35.055218 
L 265.67534 34.680588 
L 265.592743 34.408451 
L 265.478063 34.041331 
L 265.348173 33.621198 
L 265.215841 33.243918 
L 265.109376 32.931579 
L 264.958171 32.535964 
L 264.80741 32.216999 
L 264.738357 32.079826 
L 264.409303 31.520753 
L 264.336254 31.399705 
L 264.015304 30.880834 
L 263.905398 30.699704 
L 263.592885 30.192098 
L 263.5618 30.146815 
L 263.436018 29.962814 
L 263.327666 29.900965 
L 263.02903 29.454545 
L 254.788469 35.459888 
L 251.234263 38.150332 
L 249.928815 38.89937 
L 249.214311 39.074757 
L 248.513905 39.19448 
L 247.297604 39.204199 
L 247.287723 39.488485 
L 247.294384 40.18208 
L 247.578699 52.183047 
L 247.755327 53.011827 
L 248.152989 66.179536 
L 248.117131 66.18042 
L 247.994346 66.183291 
L 247.812833 66.187709 
L 247.609672 66.192569 
L 247.56138 66.193673 
L 247.372984 66.198312 
L 246.900941 66.21024 
L 246.221739 66.225702 
L 245.36369 66.246245 
L 245.303186 66.247791 
L 244.825369 66.255964 
L 244.213555 66.266346 
L 244.082888 66.268776 
L 243.294668 66.301689 
L 242.954068 66.320243 
L 242.564177 66.343437 
L 242.181613 66.358457 
L 241.959357 66.324661 
L 240.472286 66.357574 
L 239.926971 66.420086 
L 239.006863 66.517277 
L 238.571787 66.526776 
L 238.487415 66.504908 
L 238.406816 66.487678 
L 238.318225 66.483481 
L 238.189445 66.478622 
L 237.793559 66.479726 
L 237.273889 66.494305 
L 236.513201 66.515952 
L 236.094113 66.52788 
L 235.184884 66.553724 
L 234.772901 66.565432 
L 233.616105 66.598344 
L 232.940789 66.619771 
L 232.783811 66.621979 
L 232.323535 66.632803 
L 231.271872 66.664832 
L 231.130991 66.668808 
L 230.893193 66.675656 
L 229.758712 66.707906 
L 228.757894 66.771301 
L 228.4113 66.783892 
L 227.744088 66.80819 
L 227.313343 66.823873 
L 227.073768 66.832709 
L 224.523044 67.05139 
L 224.534923 70.510531 
L 226.262013 71.009743 
L 225.285286 77.560022 
L 224.261044 83.314213 
L 223.785448 84.581461 
L 221.615956 87.833186 
L 221.386595 88.168939 
L 220.507119 92.591383 
L 219.972573 96.921494 
L 226.881376 96.512405 
L 226.500255 99.235761 
L 224.189549 100.769844 
L 222.176591 102.660664 
L 220.806865 104.75382 
L 219.901633 107.3939 
L 219.580017 110.04613 
L 219.273833 113.734334 
L 221.203528 113.900885 
L 222.980242 113.932914 
L 224.925369 113.939762 
L 225.156173 112.352445 
L 226.368367 112.318648 
L 233.348332 112.133542 
L 241.762524 111.848373 
L 241.766965 111.963015 
L 241.77851 112.333227 
L 241.820253 113.678007 
L 241.824582 113.816726 
L 241.841346 114.354815 
L 241.856555 114.846075 
L 241.941816 117.589531 
L 241.942815 117.740841 
L 241.951475 117.900545 
L 241.978341 118.762238 
L 241.987 119.041222 
L 242.037735 120.676472 
L 242.047282 120.982185 
L 242.278641 120.976221 
L 243.806012 120.936902 
L 243.905594 120.934251 
L 244.959477 120.907082 
L 245.155422 120.902001 
L 245.279872 120.898909 
L 245.379454 120.896258 
L 245.525219 120.892503 
L 245.618251 120.890073 
L 246.995971 120.85451 
L 248.788561 120.808344 
L 248.836631 120.807019 
L 249.152807 120.798846 
L 249.383167 120.759306 
L 250.25243 150.633386 
L 250.27208 150.632945 
L 250.496778 150.62698 
L 250.759444 150.619912 
L 251.506698 150.599811 
L 253.426291 150.548123 
L 253.73181 150.53995 
L 253.907439 150.437457 
L 255.427926 150.39107 
L 255.545715 150.386431 
L 255.605331 150.602683 
L 255.642855 150.643768 
L 257.707769 150.579047 
L 259.354926 150.53752 
L 259.816757 150.524708 
L 264.050941 150.380909 
L 266.096094 150.304923 
L 268.212964 150.263837 
L 267.879802 138.062523 
L 267.892458 137.314367 
L 267.904448 136.675995 
L 267.465154 120.514339 
L 267.131993 111.32906 
L 267.156083 110.970113 
L 267.326605 110.964591 
L 274.859878 108.887118 
L 280.772083 106.862659 
L 281.115347 106.726591 
L 282.700779 106.029903 
L 280.703363 101.882689 
L 279.631384 98.814523 
L 277.832911 92.476299 
L 276.820436 88.6951 
L 276.713305 86.804721 
L 276.760931 84.759719 
L 277.165921 81.454317 
L 277.237305 77.971099 
L 276.927679 75.997445 
L 275.760447 71.432527 
L 274.414478 65.988466 
L 272.735015 59.439291 
L 271.460652 54.304919 
L 270.067057 49.111789 
L 269.558822 47.187614 
L 269.196019 47.272215 
" clip-path="url(#p5370ed70ff)" style="fill: #ffffff; stroke: #000000"/>
    <path d="M 239.790309 213.752773 
L 239.767883 213.462082 
L 239.653647 211.872997 
L 239.591922 211.098114 
L 239.441272 209.300951 
L 239.268418 205.389427 
L 238.755853 187.856264 
L 238.827459 187.854055 
L 239.276412 187.840801 
L 239.809182 187.82556 
L 241.23264 187.783812 
L 242.165293 187.756642 
L 242.363014 187.750899 
L 242.664425 187.742063 
L 243.267913 187.724392 
L 242.952847 175.333554 
L 243.531356 173.706256 
L 243.492389 172.205086 
L 243.488392 172.051346 
L 243.486727 171.885457 
L 243.477957 171.557877 
L 243.470186 171.270941 
L 243.46297 171.00035 
L 243.448315 170.453647 
L 243.426445 169.634365 
L 243.403132 168.765604 
L 243.367828 167.446226 
L 243.355505 166.984787 
L 243.312431 165.373834 
L 243.301107 164.952817 
L 243.29056 164.671624 
L 243.272132 164.372097 
L 242.446055 136.22339 
L 242.462041 135.947499 
L 242.385884 133.272076 
L 242.375781 132.907386 
L 242.346806 131.858599 
L 242.309504 130.510948 
L 242.283637 129.57857 
L 242.263987 128.869292 
L 242.256993 128.617477 
L 242.252663 128.457331 
L 242.219358 127.254584 
L 242.175729 125.682287 
L 242.171954 125.544231 
L 242.145865 124.599925 
L 242.084584 122.388814 
L 242.080365 122.23662 
L 242.054942 121.318159 
L 242.047282 120.982185 
L 242.037735 120.676472 
L 241.987 119.041222 
L 241.978341 118.762238 
L 241.951475 117.900545 
L 241.942815 117.740841 
L 241.941816 117.589531 
L 241.856555 114.846075 
L 241.841346 114.354815 
L 241.824582 113.816726 
L 241.820253 113.678007 
L 241.77851 112.333227 
L 241.766965 111.963015 
L 241.762524 111.848373 
L 233.348332 112.133542 
L 226.368367 112.318648 
L 225.156173 112.352445 
L 224.925369 113.939762 
L 222.980242 113.932914 
L 221.203528 113.900885 
L 219.273833 113.734334 
L 218.48428 120.680007 
L 218.019675 124.5341 
L 217.650544 128.733444 
L 217.340806 133.801771 
L 216.697575 141.059561 
L 216.352201 146.687845 
L 216.299246 147.536284 
L 216.280706 148.17532 
L 216.155923 149.86513 
L 216.351091 149.863584 
L 216.513398 149.853202 
L 216.657831 149.920132 
L 216.802264 150.02881 
L 217.086134 150.496655 
L 217.226792 150.636258 
L 217.396315 150.834838 
L 217.771441 150.988136 
L 218.274014 151.119787 
L 218.431991 151.159989 
L 218.610507 151.211898 
L 218.658688 151.244369 
L 218.69821 151.284571 
L 218.727407 151.334934 
L 218.737732 151.360778 
L 218.748057 151.386843 
L 218.754051 151.440519 
L 218.757271 151.533956 
L 218.741729 151.625625 
L 218.499268 152.665135 
L 218.474067 153.329573 
L 218.480062 154.585113 
L 218.444869 155.938507 
L 218.398797 156.91175 
L 218.365159 157.456244 
L 218.20907 158.875464 
L 218.084065 160.263096 
L 218.003133 160.954262 
L 217.875464 161.898568 
L 217.815848 162.339023 
L 217.771774 162.574713 
L 217.630561 162.737067 
L 217.408527 162.902956 
L 217.113999 163.073041 
L 216.959241 163.263449 
L 216.703125 163.650227 
L 216.580896 163.838868 
L 216.287145 164.97579 
L 216.224754 165.17437 
L 215.937109 165.391505 
L 215.716407 165.55894 
L 215.372255 165.682859 
L 215.106481 165.839029 
L 214.899545 166.106085 
L 214.827273 166.253419 
L 214.769988 166.499491 
L 214.768434 166.578348 
L 214.750671 166.887595 
L 214.667409 167.286302 
L 214.560166 167.733384 
L 214.084126 169.58113 
L 213.325881 171.915499 
L 212.526337 174.028535 
L 211.878553 175.6079 
L 211.859792 175.653845 
L 211.634205 176.750786 
L 211.444144 177.178209 
L 211.353888 177.382532 
L 210.983091 178.242237 
L 210.679016 179.040313 
L 210.549237 179.324157 
L 211.251308 182.432746 
L 211.080009 185.24755 
L 210.414019 188.328748 
L 210.242831 190.572993 
L 210.775601 193.083631 
L 213.249057 198.238547 
L 221.658919 211.631343 
L 224.779382 218.005352 
L 228.712155 217.910811 
L 233.681493 217.950571 
L 235.035455 217.974869 
L 235.213194 217.977962 
L 235.876741 217.989669 
L 236.035274 217.990994 
L 236.568155 217.995191 
L 239.572827 217.990552 
L 240.109815 217.95035 
L 240.070627 217.320151 
L 239.994025 216.090675 
L 239.87124 214.576473 
L 239.817286 214.030432 
L 239.811069 213.967037 
L 239.790309 213.752773 
" clip-path="url(#p5370ed70ff)" style="fill: #ffffff; stroke: #000000"/>
    <path d="M 239.790309 213.752773 
L 239.811069 213.967037 
L 239.817286 214.030432 
L 239.87124 214.576473 
L 239.994025 216.090675 
L 240.070627 217.320151 
L 240.109815 217.95035 
L 239.572827 217.990552 
L 236.568155 217.995191 
L 236.035274 217.990994 
L 235.876741 217.989669 
L 235.213194 217.977962 
L 235.035455 217.974869 
L 233.681493 217.950571 
L 228.712155 217.910811 
L 224.779382 218.005352 
L 221.658919 211.631343 
L 213.249057 198.238547 
L 210.775601 193.083631 
L 210.242831 190.572993 
L 210.414019 188.328748 
L 211.080009 185.24755 
L 211.251308 182.432746 
L 210.549237 179.324157 
L 210.240832 180.003837 
L 210.044888 180.426841 
L 209.743255 180.809423 
L 209.441511 181.203933 
L 209.221031 181.563322 
L 208.989006 181.957611 
L 208.780183 182.363607 
L 208.617654 182.700023 
L 208.373972 183.105798 
L 208.246414 183.34944 
L 208.014278 183.546695 
L 207.875062 183.77863 
L 207.689442 184.103339 
L 207.515368 184.404854 
L 207.280345 184.758941 
L 207.184759 184.972763 
L 207.157449 185.109273 
L 207.121036 185.22767 
L 207.021009 185.273173 
L 206.875133 185.248875 
L 206.417744 185.221927 
L 206.291962 185.174656 
L 206.201816 185.174656 
L 205.99588 185.393558 
L 205.757748 185.75383 
L 205.487422 186.017573 
L 202.244508 189.768511 
L 200.651304 191.697987 
L 197.446802 195.498624 
L 196.412347 196.67376 
L 194.205775 199.265024 
L 193.516471 200.171557 
L 193.36349 200.343631 
L 193.281337 200.421826 
L 193.229714 200.471085 
L 193.083061 200.604944 
L 192.991916 200.7081 
L 192.823504 200.868908 
L 192.760113 200.986863 
L 191.944916 201.99346 
L 187.645121 206.893027 
L 176.520118 219.843601 
L 170.08458 227.336419 
L 169.996544 227.439574 
L 169.03103 228.58224 
L 168.595289 229.097797 
L 165.331725 236.889259 
L 160.248373 250.39736 
L 159.376335 250.325129 
L 159.325822 250.339708 
L 158.567577 250.559935 
L 157.121804 250.979627 
L 155.373954 250.786569 
L 146.4039 249.796318 
L 146.195744 249.842484 
L 145.299837 250.287136 
L 143.49004 251.669467 
L 142.73346 252.247537 
L 142.610342 254.530437 
L 142.330691 259.716719 
L 142.225003 259.713848 
L 141.0631 259.681819 
L 140.880255 259.772384 
L 140.66466 260.230068 
L 138.720088 267.846143 
L 138.907041 268.16555 
L 138.656587 268.346017 
L 138.56744 268.410959 
L 138.350846 268.567129 
L 138.454536 268.711149 
L 137.123333 273.411693 
L 134.92431 274.065749 
L 135.340734 275.355307 
L 135.391802 275.566257 
L 135.267352 275.684654 
L 135.008794 275.762628 
L 134.282632 275.744294 
L 132.251911 275.007184 
L 131.422948 274.864047 
L 127.582874 274.368148 
L 115.949969 271.022545 
L 115.941976 271.049051 
L 115.452836 272.680547 
L 115.035856 273.971208 
L 114.74588 275.189197 
L 114.484657 275.628106 
L 114.60944 275.813875 
L 114.896974 275.90201 
L 115.167855 276.052436 
L 115.538652 276.057517 
L 115.703401 276.114727 
L 115.779336 276.226719 
L 115.848833 276.42066 
L 115.925879 276.749566 
L 115.982386 277.242814 
L 116.140696 278.783302 
L 116.086964 279.077749 
L 116.008253 279.586459 
L 116.043446 279.77532 
L 116.140252 279.936791 
L 116.280134 279.997315 
L 116.971103 280.297063 
L 120.528195 281.591038 
L 122.713784 282.31114 
L 125.090101 283.138374 
L 126.246009 283.586782 
L 126.349476 283.626763 
L 127.476187 284.063904 
L 127.964328 284.159992 
L 128.604674 284.27375 
L 132.717738 284.871921 
L 136.481544 285.396314 
L 139.523074 285.742008 
L 142.355448 286.589122 
L 144.021034 287.075522 
L 147.067781 287.965268 
L 147.984226 288.232987 
L 150.52407 288.974736 
L 156.832938 290.76704 
L 158.703129 291.323241 
L 159.943187 291.692128 
L 164.965036 293.185788 
L 166.203985 293.554233 
L 179.146223 297.334328 
L 183.15371 298.521171 
L 189.902982 300.521995 
L 194.109856 301.725846 
L 198.464161 302.788549 
L 201.221598 303.597008 
L 204.661234 304.596757 
L 206.11389 305.03169 
L 209.036188 305.965393 
L 194.843234 326.451638 
L 197.536393 328.455554 
L 197.582909 328.615478 
L 192.216352 334.997439 
L 194.557143 336.517606 
L 187.348928 343.335604 
L 180.890742 361.520614 
L 180.857881 361.613167 
L 227.665044 395.391703 
L 237.964081 402.545455 
L 238.241401 402.057287 
L 238.496296 401.572654 
L 246.855868 385.698156 
L 256.837063 366.348833 
L 259.755253 360.4948 
L 260.060772 360.632635 
L 260.433011 360.800512 
L 260.935696 361.858576 
L 262.753819 362.126737 
L 264.924533 351.347956 
L 265.215286 351.42085 
L 265.808338 348.416963 
L 269.459129 349.073449 
L 269.917628 345.618947 
L 267.823739 344.792596 
L 267.978607 344.184044 
L 266.689812 343.686157 
L 266.854006 342.213923 
L 266.328896 341.058005 
L 263.821691 342.05422 
L 263.672817 341.362171 
L 262.896698 340.695524 
L 262.196959 338.891072 
L 261.053485 337.387913 
L 260.19488 336.267779 
L 259.378129 335.40962 
L 257.200311 332.979828 
L 256.229579 331.315641 
L 255.891754 330.118636 
L 255.133842 301.986718 
L 255.130179 301.752132 
L 255.086216 298.922087 
L 257.039558 295.929245 
L 257.6708 293.31788 
L 257.6708 291.446056 
L 257.099174 288.954194 
L 256.396437 287.523487 
L 254.681226 284.674003 
L 254.538348 279.893497 
L 254.319644 273.639652 
L 254.240156 270.906356 
L 253.958728 270.907902 
L 253.897891 270.659622 
L 253.845491 269.61459 
L 253.833945 269.290765 
L 253.826951 268.992121 
L 253.774551 267.524085 
L 253.750239 266.939609 
L 253.695951 264.324269 
L 253.617351 255.373354 
L 253.608692 254.386196 
L 253.606361 254.118698 
L 253.569059 253.186099 
L 253.547189 252.777231 
L 253.518657 252.241573 
L 253.475805 251.436649 
L 253.471919 251.361325 
L 253.451381 250.957758 
L 253.436949 250.674577 
L 253.407752 250.098275 
L 253.397982 249.93349 
L 253.383994 249.69758 
L 253.377555 249.58846 
L 253.36723 249.415282 
L 253.357683 249.058986 
L 253.314497 248.47937 
L 253.279749 248.070944 
L 253.274531 247.831499 
L 253.249441 247.107862 
L 253.178946 244.688452 
L 253.136315 243.282043 
L 253.064043 241.489077 
L 253.04728 240.289643 
L 253.01897 239.480743 
L 253.003206 238.945526 
L 252.913726 235.913145 
L 252.854887 233.919169 
L 252.830908 233.104525 
L 252.810481 232.410709 
L 252.748644 230.312473 
L 252.71656 229.228785 
L 252.682145 228.062485 
L 252.619865 225.950553 
L 252.613648 225.738499 
L 252.600992 225.310855 
L 252.571794 224.321046 
L 252.53094 223.038999 
L 252.507738 222.147044 
L 252.470769 220.894817 
L 252.445679 220.045494 
L 252.431469 219.553572 
L 252.391947 218.222487 
L 252.365636 217.38708 
L 252.335772 216.317751 
L 252.304466 215.257477 
L 252.293253 214.468016 
L 252.272937 213.15151 
L 252.263167 212.701777 
L 252.24596 212.097422 
L 252.225311 211.373123 
L 252.183346 210.036957 
L 252.14549 208.573339 
L 252.115737 207.529191 
L 252.071774 205.986935 
L 252.044242 205.022749 
L 252.000946 203.504129 
L 251.971748 202.480302 
L 251.967085 202.315739 
L 251.95121 201.760421 
L 251.923123 200.776355 
L 251.782797 195.852491 
L 251.777802 195.696321 
L 251.750824 194.872842 
L 251.731174 194.115631 
L 251.711969 193.369905 
L 251.710969 193.332796 
L 251.57897 188.288104 
L 251.584632 187.522057 
L 251.585631 187.26472 
L 251.604948 187.128651 
L 251.65535 186.957682 
L 251.785795 186.725968 
L 251.932226 186.513914 
L 252.194115 186.251938 
L 252.349539 186.082073 
L 252.490419 185.864276 
L 252.593554 185.667241 
L 252.70446 185.3295 
L 252.782949 185.062444 
L 252.843453 184.798701 
L 252.872983 184.540039 
L 252.891856 184.294629 
L 252.894409 183.938775 
L 252.887526 183.653606 
L 252.857108 183.37926 
L 252.804042 183.123911 
L 252.739208 182.845589 
L 252.67071 182.622932 
L 252.625971 182.489073 
L 252.543263 182.288063 
L 252.448233 182.090808 
L 252.294252 181.877207 
L 252.139939 181.716619 
L 251.994729 181.582981 
L 251.80278 181.356347 
L 251.487159 181.301125 
L 251.289327 181.259818 
L 251.208951 181.25032 
L 251.121692 181.248332 
L 250.471577 158.071644 
L 250.25243 150.633386 
L 249.383167 120.759306 
L 249.152807 120.798846 
L 248.836631 120.807019 
L 248.788561 120.808344 
L 246.995971 120.85451 
L 245.618251 120.890073 
L 245.525219 120.892503 
L 245.379454 120.896258 
L 245.279872 120.898909 
L 245.155422 120.902001 
L 244.959477 120.907082 
L 243.905594 120.934251 
L 243.806012 120.936902 
L 242.278641 120.976221 
L 242.047282 120.982185 
L 242.054942 121.318159 
L 242.080365 122.23662 
L 242.084584 122.388814 
L 242.145865 124.599925 
L 242.171954 125.544231 
L 242.175729 125.682287 
L 242.219358 127.254584 
L 242.252663 128.457331 
L 242.256993 128.617477 
L 242.263987 128.869292 
L 242.283637 129.57857 
L 242.309504 130.510948 
L 242.346806 131.858599 
L 242.375781 132.907386 
L 242.385884 133.272076 
L 242.462041 135.947499 
L 242.446055 136.22339 
L 243.272132 164.372097 
L 243.29056 164.671624 
L 243.301107 164.952817 
L 243.312431 165.373834 
L 243.355505 166.984787 
L 243.367828 167.446226 
L 243.403132 168.765604 
L 243.426445 169.634365 
L 243.448315 170.453647 
L 243.46297 171.00035 
L 243.470186 171.270941 
L 243.477957 171.557877 
L 243.486727 171.885457 
L 243.488392 172.051346 
L 243.492389 172.205086 
L 243.531356 173.706256 
L 242.952847 175.333554 
L 243.267913 187.724392 
L 242.664425 187.742063 
L 242.363014 187.750899 
L 242.165293 187.756642 
L 241.23264 187.783812 
L 239.809182 187.82556 
L 239.276412 187.840801 
L 238.827459 187.854055 
L 238.755853 187.856264 
L 239.268418 205.389427 
L 239.441272 209.300951 
L 239.591922 211.098114 
L 239.653647 211.872997 
L 239.767883 213.462082 
L 239.790309 213.752773 
" clip-path="url(#p5370ed70ff)" style="fill: #ffffff; stroke: #000000"/>
   </g>
   <g id="text_1">
    <!-- 1 -->
    <g transform="translate(284.59057 177.119553) scale(0.13 -0.13)">
     <defs>
      <path id="DejaVuSans-31" d="M 794 531 
L 1825 531 
L 1825 4091 
L 703 3866 
L 703 4441 
L 1819 4666 
L 2450 4666 
L 2450 531 
L 3481 531 
L 3481 0 
L 794 0 
L 794 531 
z
" transform="scale(0.015625)"/>
     </defs>
     <use xlink:href="#DejaVuSans-31"/>
    </g>
   </g>
   <g id="text_2">
    <!-- 2 -->
    <g transform="translate(265.207391 216.444358) scale(0.13 -0.13)">
     <defs>
      <path id="DejaVuSans-32" d="M 1228 531 
L 3431 531 
L 3431 0 
L 469 0 
L 469 531 
Q 828 903 1448 1529 
Q 2069 2156 2228 2338 
Q 2531 2678 2651 2914 
Q 2772 3150 2772 3378 
Q 2772 3750 2511 3984 
Q 2250 4219 1831 4219 
Q 1534 4219 1204 4116 
Q 875 4013 500 3803 
L 500 4441 
Q 881 4594 1212 4672 
Q 1544 4750 1819 4750 
Q 2544 4750 2975 4387 
Q 3406 4025 3406 3419 
Q 3406 3131 3298 2873 
Q 3191 2616 2906 2266 
Q 2828 2175 2409 1742 
Q 1991 1309 1228 531 
z
" transform="scale(0.015625)"/>
     </defs>
     <use xlink:href="#DejaVuSans-32"/>
    </g>
   </g>
   <g id="text_3">
    <!-- 3 -->
    <g transform="translate(249.069325 94.198229) scale(0.13 -0.13)">
     <defs>
      <path id="DejaVuSans-33" d="M 2597 2516 
Q 3050 2419 3304 2112 
Q 3559 1806 3559 1356 
Q 3559 666 3084 287 
Q 2609 -91 1734 -91 
Q 1441 -91 1130 -33 
Q 819 25 488 141 
L 488 750 
Q 750 597 1062 519 
Q 1375 441 1716 441 
Q 2309 441 2620 675 
Q 2931 909 2931 1356 
Q 2931 1769 2642 2001 
Q 2353 2234 1838 2234 
L 1294 2234 
L 1294 2753 
L 1863 2753 
Q 2328 2753 2575 2939 
Q 2822 3125 2822 3475 
Q 2822 3834 2567 4026 
Q 2313 4219 1838 4219 
Q 1578 4219 1281 4162 
Q 984 4106 628 3988 
L 628 4550 
Q 988 4650 1302 4700 
Q 1616 4750 1894 4750 
Q 2613 4750 3031 4423 
Q 3450 4097 3450 3541 
Q 3450 3153 3228 2886 
Q 3006 2619 2597 2516 
z
" transform="scale(0.015625)"/>
     </defs>
     <use xlink:href="#DejaVuSans-33"/>
    </g>
   </g>
   <g id="text_4">
    <!-- 4 -->
    <g transform="translate(224.697223 168.433274) scale(0.13 -0.13)">
     <defs>
      <path id="DejaVuSans-34" d="M 2419 4116 
L 825 1625 
L 2419 1625 
L 2419 4116 
z
M 2253 4666 
L 3047 4666 
L 3047 1625 
L 3713 1625 
L 3713 1100 
L 3047 1100 
L 3047 0 
L 2419 0 
L 2419 1100 
L 313 1100 
L 313 1709 
L 2253 4666 
z
" transform="scale(0.015625)"/>
     </defs>
     <use xlink:href="#DejaVuSans-34"/>
    </g>
   </g>
   <g id="text_5">
    <!-- 5 -->
    <g transform="translate(208.86677 287.593851) scale(0.13 -0.13)">
     <defs>
      <path id="DejaVuSans-35" d="M 691 4666 
L 3169 4666 
L 3169 4134 
L 1269 4134 
L 1269 2991 
Q 1406 3038 1543 3061 
Q 1681 3084 1819 3084 
Q 2600 3084 3056 2656 
Q 3513 2228 3513 1497 
Q 3513 744 3044 326 
Q 2575 -91 1722 -91 
Q 1428 -91 1123 -41 
Q 819 9 494 109 
L 494 744 
Q 775 591 1075 516 
Q 1375 441 1709 441 
Q 2250 441 2565 725 
Q 2881 1009 2881 1497 
Q 2881 1984 2565 2268 
Q 2250 2553 1709 2553 
Q 1456 2553 1204 2497 
Q 953 2441 691 2322 
L 691 4666 
z
" transform="scale(0.015625)"/>
     </defs>
     <use xlink:href="#DejaVuSans-35"/>
    </g>
   </g>
  </g>
 </g>
 <defs>
  <clipPath id="p5370ed70ff">
   <rect x="104.333123" y="10.8" width="223.333754" height="410.4"/>
  </clipPath>
 </defs>
</svg>
