<?xml version="1.0" encoding="utf-8" standalone="no"?>
<!DOCTYPE svg PUBLIC "-//W3C//DTD SVG 1.1//EN"
  "http://www.w3.org/Graphics/SVG/1.1/DTD/svg11.dtd">
<svg xmlns:xlink="http://www.w3.org/1999/xlink" width="432pt" height="432pt" viewBox="0 0 432 432" xmlns="http://www.w3.org/2000/svg" version="1.1">
 <metadata>
  <rdf:RDF xmlns:dc="http://purl.org/dc/elements/1.1/" xmlns:cc="http://creativecommons.org/ns#" xmlns:rdf="http://www.w3.org/1999/02/22-rdf-syntax-ns#">
   <cc:Work>
    <dc:type rdf:resource="http://purl.org/dc/dcmitype/StillImage"/>
    <dc:date>2025-04-20T13:46:46.771061</dc:date>
    <dc:format>image/svg+xml</dc:format>
    <dc:creator>
     <cc:Agent>
      <dc:title>Matplotlib v3.10.1, https://matplotlib.org/</dc:title>
     </cc:Agent>
    </dc:creator>
   </cc:Work>
  </rdf:RDF>
 </metadata>
 <defs>
  <style type="text/css">*{stroke-linejoin: round; stroke-linecap: butt}</style>
 </defs>
 <g id="figure_1">
  <g id="patch_1">
   <path d="M 0 432 
L 432 432 
L 432 0 
L 0 0 
z
" style="fill: #ffffff"/>
  </g>
  <g id="axes_1">
   <g id="PatchCollection_1">
    <path d="M 199.70222 203.08774 
L 198.057009 199.798693 
L 196.933864 197.582984 
L 189.733095 182.8191 
L 185.724597 157.978666 
L 179.244513 159.984098 
L 179.174489 160.009227 
L 179.094316 160.037822 
L 178.939769 160.09328 
L 178.703165 160.182532 
L 177.547835 160.625616 
L 177.363423 160.69696 
L 174.445885 161.825178 
L 174.165642 161.933494 
L 173.372902 162.242266 
L 172.497959 162.579634 
L 172.231635 162.683906 
L 170.757063 163.254947 
L 169.152301 163.871048 
L 167.915058 164.349948 
L 166.424684 164.927344 
L 166.08732 165.063389 
L 165.815631 165.168816 
L 165.499289 165.284642 
L 164.952287 165.495786 
L 163.848424 165.921539 
L 163.234442 166.159834 
L 161.740878 166.734919 
L 160.957852 167.031271 
L 159.28437 167.683477 
L 159.181871 167.723337 
L 158.660965 167.922638 
L 158.466114 167.999182 
L 158.215592 168.097966 
L 156.336822 168.822382 
L 155.604392 169.106603 
L 154.115758 169.675911 
L 153.842184 169.782783 
L 153.599056 169.876367 
L 152.726433 170.203048 
L 152.529263 170.273814 
L 152.079686 170.425168 
L 151.476867 170.656242 
L 150.920152 170.871718 
L 149.762647 171.312202 
L 149.667831 171.348597 
L 147.290771 172.263938 
L 145.725298 172.859242 
L 143.536275 173.691685 
L 142.734256 173.996702 
L 142.561442 174.033674 
L 142.405591 174.028186 
L 142.277865 173.982549 
L 142.173916 173.892141 
L 142.110851 173.790758 
L 141.731298 172.709044 
L 141.670552 172.576176 
L 141.596179 172.455729 
L 141.526154 172.363588 
L 141.305498 172.351457 
L 140.846642 172.462372 
L 140.411128 172.505121 
L 140.029981 172.493567 
L 139.083854 172.370809 
L 138.362298 172.226388 
L 138.189774 172.192016 
L 138.158024 172.241119 
L 131.306652 174.440942 
L 130.622355 172.544115 
L 129.984597 172.774033 
L 128.771275 173.088293 
L 126.00263 174.487734 
L 125.129572 175.419251 
L 123.591645 172.948494 
L 119.29957 175.973828 
L 122.300615 180.769187 
L 128.460298 190.347774 
L 128.892622 191.03002 
L 134.231004 199.833932 
L 140.374883 208.932174 
L 145.087975 215.760116 
L 151.869758 225.264471 
L 157.196976 231.336224 
L 157.230466 231.378395 
L 157.269465 231.423166 
L 158.350132 232.659122 
L 160.37794 234.956285 
L 164.111124 239.810279 
L 173.101503 251.355304 
L 187.728193 267.927629 
L 188.207201 267.472125 
L 188.385959 267.302285 
L 188.984863 266.525877 
L 189.56956 265.756402 
L 189.920261 265.086288 
L 190.370273 264.189432 
L 190.660954 263.384718 
L 191.559383 260.716682 
L 189.399935 259.8464 
L 187.882305 259.297889 
L 187.274557 259.07548 
L 187.05912 258.964276 
L 186.88935 258.853938 
L 186.745822 258.722804 
L 186.6252 258.555853 
L 186.488341 258.332 
L 186.385552 258.166782 
L 184.336867 254.548455 
L 184.41443 254.495019 
L 184.493878 254.253547 
L 184.470537 254.003121 
L 183.990369 252.980908 
L 182.764725 250.581784 
L 180.433768 246.016633 
L 180.21891 245.607921 
L 179.847622 244.86213 
L 179.722071 244.619214 
L 179.676692 244.53285 
L 179.636534 244.456307 
L 177.009676 239.452403 
L 175.018548 235.597514 
L 174.518808 234.631048 
L 173.115421 232.005183 
L 172.547977 230.912493 
L 171.63795 229.150266 
L 171.214469 228.329954 
L 171.083554 228.076639 
L 170.814184 227.555568 
L 170.582509 227.107574 
L 170.268632 226.381135 
L 171.313634 224.196044 
L 171.897605 223.160544 
L 172.291221 222.768585 
L 172.408508 222.651893 
L 173.834367 221.752149 
L 174.768461 221.194684 
L 177.339791 219.609517 
L 177.787049 219.333095 
L 178.245759 219.067072 
L 178.53905 218.942581 
L 178.772899 218.848707 
L 179.157236 218.701108 
L 180.571932 218.106093 
L 182.066076 217.481616 
L 182.395756 217.348749 
L 182.501155 217.306289 
L 182.69557 217.225124 
L 185.709229 215.968372 
L 185.862181 215.911181 
L 186.525165 215.630137 
L 187.833882 215.082781 
L 188.467726 214.815602 
L 189.462856 214.413534 
L 189.656546 214.330636 
L 189.849947 214.247738 
L 190.12497 214.131624 
L 190.49336 213.975938 
L 192.412869 213.165446 
L 192.840264 212.98492 
L 193.251857 212.811326 
L 193.362475 212.739404 
L 193.435544 212.640042 
L 193.494115 212.477713 
L 193.494115 212.318272 
L 193.447577 212.142656 
L 193.157041 211.48063 
L 192.842584 210.768633 
L 192.203666 209.324133 
L 191.110676 206.8424 
L 191.095598 206.808317 
L 199.70222 203.08774 
" clip-path="url(#p8387857774)" style="fill: #ffffff; stroke: #000000"/>
    <path d="M 214.182483 166.149147 
L 213.913693 166.282014 
L 211.519816 153.546959 
L 211.231744 153.637367 
L 210.868864 153.721709 
L 189.508669 156.66039 
L 185.724597 157.978666 
L 189.733095 182.8191 
L 196.933864 197.582984 
L 198.057009 199.798693 
L 199.70222 203.08774 
L 206.518218 216.642241 
L 211.622315 220.734269 
L 217.090742 223.715988 
L 227.724737 224.975918 
L 230.364932 225.667695 
L 236.159995 227.559034 
L 239.78952 230.448323 
L 243.023981 234.256131 
L 248.538076 241.727903 
L 251.196683 245.029658 
L 254.781845 250.418877 
L 256.500415 253.455187 
L 256.962315 256.881723 
L 262.102222 254.760177 
L 262.408705 254.706163 
L 262.959477 254.609112 
L 264.403748 254.354931 
L 264.72473 254.901998 
L 272.006542 253.156813 
L 274.225576 253.972504 
L 277.99573 252.581151 
L 278.98767 248.131247 
L 290.137352 244.210791 
L 295.391211 242.363644 
L 291.744723 234.550172 
L 283.317439 214.566909 
L 277.970359 201.170983 
L 267.931209 175.826518 
L 267.982242 174.214201 
L 265.949649 167.770419 
L 262.918883 163.468691 
L 262.640815 161.099029 
L 259.756042 160.764549 
L 259.927261 159.225598 
L 257.222116 158.713481 
L 253.724665 158.347517 
L 253.222896 158.290904 
L 252.884228 158.249889 
L 243.423975 157.108384 
L 238.746403 156.518568 
L 238.346699 156.467154 
L 237.959897 156.440003 
L 237.464652 156.418918 
L 236.918665 156.417762 
L 236.574342 156.435382 
L 235.990951 156.488529 
L 235.546738 156.543986 
L 234.869545 156.680031 
L 234.167417 156.868356 
L 233.381781 157.131491 
L 233.294649 157.168174 
L 232.816801 157.371808 
L 230.662137 158.385645 
L 225.893374 160.622728 
L 215.28968 165.636452 
L 214.182483 166.149147 
" clip-path="url(#p8387857774)" style="fill: #ffffff; stroke: #000000"/>
    <path d="M 185.63906 141.976804 
L 185.882768 141.802921 
L 206.947063 132.985145 
L 241.316139 116.803623 
L 223.593153 79.014968 
L 178.077585 100.427711 
L 177.741525 100.147534 
L 157.690192 82.936868 
L 157.550433 82.783782 
L 157.078964 82.28264 
L 156.438886 81.317618 
L 155.879126 80.497884 
L 154.809478 81.184462 
L 152.91186 82.84646 
L 152.523029 82.628962 
L 152.91186 82.163059 
L 144.62129 86.69875 
L 140.517832 88.472241 
L 135.051579 91.580184 
L 139.653183 99.404054 
L 158.367094 115.536761 
L 171.263326 128.623626 
L 179.969403 143.216515 
L 180.457109 144.311228 
L 185.63906 141.976804 
" clip-path="url(#p8387857774)" style="fill: #ffffff; stroke: #000000"/>
    <path d="M 206.589982 294.215452 
L 207.9622 293.254185 
L 208.133274 293.082902 
L 208.257665 292.86887 
L 208.323775 292.499152 
L 208.199384 292.199622 
L 208.024395 291.934754 
L 207.849407 291.779068 
L 207.584967 291.561281 
L 207.098855 291.238355 
L 206.53895 290.7557 
L 206.247254 290.35883 
L 206.04124 290.055257 
L 205.837546 289.776524 
L 205.5473 289.463708 
L 205.119615 289.043443 
L 204.729044 288.67979 
L 204.548836 288.463447 
L 204.465619 288.35802 
L 204.444162 288.262413 
L 204.45924 288.167095 
L 204.505923 288.043471 
L 204.572033 287.887207 
L 204.699324 287.633026 
L 204.748181 287.538574 
L 204.803128 287.409173 
L 205.178766 286.591172 
L 205.415515 286.063457 
L 205.523379 285.82314 
L 205.592098 285.669765 
L 205.720984 285.387855 
L 206.018914 284.826923 
L 206.31032 284.942171 
L 206.803535 285.118654 
L 207.273264 285.258454 
L 207.798519 285.336152 
L 208.343782 285.339907 
L 208.799448 285.289937 
L 209.331517 285.187976 
L 209.630897 285.109122 
L 210.059452 284.940438 
L 210.469015 284.717163 
L 210.898875 284.434098 
L 212.030574 283.562083 
L 212.310671 283.343141 
L 212.786634 282.992197 
L 214.00358 282.183728 
L 216.472266 280.773889 
L 218.048177 279.88541 
L 218.752336 279.483919 
L 219.905926 278.834024 
L 221.447478 277.951322 
L 221.765849 277.776861 
L 223.769301 276.57961 
L 225.753906 275.31968 
L 227.331412 274.359569 
L 229.030409 273.390503 
L 230.341156 272.608607 
L 231.552738 271.787139 
L 234.863746 269.43423 
L 235.157762 269.225397 
L 235.392626 269.059891 
L 235.465695 269.008477 
L 235.500925 268.983636 
L 235.624881 268.90045 
L 235.855541 268.831994 
L 235.976743 268.809464 
L 236.105048 268.849036 
L 236.235094 269.004722 
L 236.316281 269.095707 
L 236.417476 269.209222 
L 238.66971 268.7257 
L 238.622302 268.428481 
L 238.602295 268.30168 
L 238.392367 266.92939 
L 238.153733 265.464093 
L 238.124447 265.261326 
L 238.063122 264.835284 
L 237.978745 264.261932 
L 237.502782 261.2262 
L 236.995068 257.900759 
L 236.846901 256.846484 
L 236.812831 256.604723 
L 236.646831 256.170593 
L 236.476047 254.969876 
L 236.271338 253.742297 
L 236.217986 253.474251 
L 236.128245 253.071027 
L 236.06286 252.777275 
L 235.982977 252.460703 
L 235.937454 251.98758 
L 235.604149 251.056352 
L 235.429161 250.60547 
L 235.214883 250.057825 
L 234.794157 249.356516 
L 234.384159 248.432509 
L 232.88726 245.504226 
L 231.125922 243.120122 
L 230.592258 242.413614 
L 229.902887 241.76834 
L 228.186057 240.653409 
L 227.652973 240.331061 
L 224.612203 238.772757 
L 223.999236 238.450987 
L 223.856433 238.377621 
L 230.364932 225.667695 
L 227.724737 224.975918 
L 217.090742 223.715988 
L 211.622315 220.734269 
L 206.518218 216.642241 
L 199.70222 203.08774 
L 191.095598 206.808317 
L 191.110676 206.8424 
L 192.203666 209.324133 
L 192.842584 210.768633 
L 193.157041 211.48063 
L 193.447577 212.142656 
L 193.494115 212.318272 
L 193.494115 212.477713 
L 193.435544 212.640042 
L 193.362475 212.739404 
L 193.251857 212.811326 
L 192.840264 212.98492 
L 192.412869 213.165446 
L 190.49336 213.975938 
L 190.12497 214.131624 
L 189.849947 214.247738 
L 189.656546 214.330636 
L 189.462856 214.413534 
L 188.467726 214.815602 
L 187.833882 215.082781 
L 186.525165 215.630137 
L 185.862181 215.911181 
L 185.709229 215.968372 
L 182.69557 217.225124 
L 182.501155 217.306289 
L 182.395756 217.348749 
L 182.066076 217.481616 
L 180.571932 218.106093 
L 179.157236 218.701108 
L 178.772899 218.848707 
L 178.53905 218.942581 
L 178.245759 219.067072 
L 177.787049 219.333095 
L 177.339791 219.609517 
L 174.768461 221.194684 
L 173.834367 221.752149 
L 172.408508 222.651893 
L 172.291221 222.768585 
L 171.897605 223.160544 
L 171.313634 224.196044 
L 170.268632 226.381135 
L 170.582509 227.107574 
L 170.814184 227.555568 
L 171.083554 228.076639 
L 171.214469 228.329954 
L 171.63795 229.150266 
L 172.547977 230.912493 
L 173.115421 232.005183 
L 174.518808 234.631048 
L 175.018548 235.597514 
L 177.009676 239.452403 
L 179.636534 244.456307 
L 179.676692 244.53285 
L 179.722071 244.619214 
L 179.847622 244.86213 
L 180.21891 245.607921 
L 180.433768 246.016633 
L 182.764725 250.581784 
L 183.990369 252.980908 
L 184.470537 254.003121 
L 184.493878 254.253547 
L 184.41443 254.495019 
L 184.336867 254.548455 
L 186.385552 258.166782 
L 186.488341 258.332 
L 186.6252 258.555853 
L 186.745822 258.722804 
L 186.88935 258.853938 
L 187.05912 258.964276 
L 187.274557 259.07548 
L 187.882305 259.297889 
L 189.399935 259.8464 
L 191.559383 260.716682 
L 190.660954 263.384718 
L 190.370273 264.189432 
L 189.920261 265.086288 
L 189.56956 265.756402 
L 188.984863 266.525877 
L 188.385959 267.302285 
L 188.207201 267.472125 
L 187.728193 267.927629 
L 190.694299 271.543356 
L 194.006758 276.114863 
L 202.421718 287.633026 
L 206.589982 294.215452 
" clip-path="url(#p8387857774)" style="fill: #ffffff; stroke: #000000"/>
    <path d="M 135.051579 91.580184 
L 131.342316 85.108095 
L 124.618379 76.55952 
L 112.242328 83.057315 
L 109.848451 84.24619 
L 104.466721 86.140706 
L 101.021317 87.547079 
L 96.148315 89.297463 
L 81.791574 94.226557 
L 77.216067 95.36835 
L 68.226703 96.101143 
L 68.500276 97.530334 
L 69.647053 101.512025 
L 70.69017 103.680075 
L 71.250945 104.727128 
L 72.097907 105.987058 
L 72.89978 106.995407 
L 78.125949 112.782939 
L 84.849306 120.582258 
L 88.936382 126.053219 
L 91.98498 130.233344 
L 95.266994 135.113334 
L 102.655365 145.511078 
L 108.146118 153.484858 
L 107.212895 154.07554 
L 107.679434 154.74421 
L 108.550462 154.184434 
L 109.748271 156.09657 
L 111.194862 159.252171 
L 110.541446 158.816886 
L 110.339346 159.361065 
L 111.396961 160.153648 
L 114.165752 167.771285 
L 119.29957 175.973828 
L 123.591645 172.948494 
L 125.129572 175.419251 
L 126.00263 174.487734 
L 128.771275 173.088293 
L 129.984597 172.774033 
L 130.622355 172.544115 
L 131.306652 174.440942 
L 138.158024 172.241119 
L 138.189774 172.192016 
L 138.362298 172.226388 
L 139.083854 172.370809 
L 140.029981 172.493567 
L 140.411128 172.505121 
L 140.846642 172.462372 
L 141.305498 172.351457 
L 141.526154 172.363588 
L 141.596179 172.455729 
L 141.670552 172.576176 
L 141.731298 172.709044 
L 142.110851 173.790758 
L 142.173916 173.892141 
L 142.277865 173.982549 
L 142.405591 174.028186 
L 142.561442 174.033674 
L 142.734256 173.996702 
L 143.536275 173.691685 
L 145.725298 172.859242 
L 147.290771 172.263938 
L 149.667831 171.348597 
L 149.762647 171.312202 
L 150.920152 170.871718 
L 151.476867 170.656242 
L 152.079686 170.425168 
L 152.529263 170.273814 
L 152.726433 170.203048 
L 153.599056 169.876367 
L 153.842184 169.782783 
L 154.115758 169.675911 
L 155.604392 169.106603 
L 156.336822 168.822382 
L 158.215592 168.097966 
L 158.466114 167.999182 
L 158.660965 167.922638 
L 159.181871 167.723337 
L 159.28437 167.683477 
L 160.957852 167.031271 
L 161.740878 166.734919 
L 163.234442 166.159834 
L 163.848424 165.921539 
L 164.952287 165.495786 
L 165.499289 165.284642 
L 165.815631 165.168816 
L 166.08732 165.063389 
L 166.424684 164.927344 
L 167.915058 164.349948 
L 169.152301 163.871048 
L 170.757063 163.254947 
L 172.231635 162.683906 
L 172.497959 162.579634 
L 173.372902 162.242266 
L 174.165642 161.933494 
L 174.445885 161.825178 
L 177.363423 160.69696 
L 177.547835 160.625616 
L 178.703165 160.182532 
L 178.939769 160.09328 
L 179.094316 160.037822 
L 179.174489 160.009227 
L 179.244513 159.984098 
L 185.724597 157.978666 
L 185.258057 155.087355 
L 180.457109 144.311228 
L 179.969403 143.216515 
L 171.263326 128.623626 
L 158.367094 115.536761 
L 139.653183 99.404054 
L 135.051579 91.580184 
" clip-path="url(#p8387857774)" style="fill: #ffffff; stroke: #000000"/>
    <path d="M 241.316139 116.803623 
L 255.955443 109.914735 
L 259.149744 108.413044 
L 264.85231 105.732299 
L 266.428077 104.987664 
L 271.016487 63.210385 
L 270.662306 62.54316 
L 270.584163 62.300532 
L 270.553427 62.204926 
L 270.002511 61.002764 
L 269.548004 60.01088 
L 269.508135 59.923649 
L 268.965338 58.767125 
L 268.659724 58.115786 
L 268.534898 57.90753 
L 266.707305 58.766547 
L 249.312693 66.921142 
L 223.593153 79.014968 
L 241.316139 116.803623 
" clip-path="url(#p8387857774)" style="fill: #ffffff; stroke: #000000"/>
    <path d="M 274.409408 32.329681 
L 272.790004 35.281072 
L 270.721312 37.346005 
L 268.09257 39.162534 
L 264.017382 40.51316 
L 260.688686 40.575261 
L 252.66879 39.672918 
L 247.856244 39.131339 
L 237.74591 38.044714 
L 231.487497 37.238267 
L 228.653032 36.798649 
L 227.050299 36.608879 
L 221.195941 35.939632 
L 213.34248 35.057797 
L 211.665809 34.751913 
L 209.990732 34.240662 
L 203.589952 31.929057 
L 198.174007 29.931424 
L 196.873264 29.586546 
L 195.621958 29.454545 
L 194.066344 29.545242 
L 191.596353 30.477047 
L 190.384916 31.335486 
L 186.927335 36.751856 
L 186.198385 38.588027 
L 185.07843 41.444677 
L 183.507447 44.565617 
L 184.08301 44.96913 
L 182.916372 46.77035 
L 182.185393 46.289139 
L 178.032351 52.577524 
L 176.093705 54.840026 
L 175.620787 55.287442 
L 173.87931 57.515571 
L 170.923933 61.196 
L 167.999726 65.932724 
L 163.395513 73.154358 
L 161.248968 76.058956 
L 160.035791 77.378965 
L 158.573688 78.699263 
L 155.879126 80.497884 
L 156.438886 81.317618 
L 157.078964 82.28264 
L 157.550433 82.783782 
L 157.690192 82.936868 
L 177.741525 100.147534 
L 178.077585 100.427711 
L 223.593153 79.014968 
L 249.312693 66.921142 
L 266.707305 58.766547 
L 268.534898 57.90753 
L 268.659724 58.115786 
L 268.965338 58.767125 
L 269.508135 59.923649 
L 269.548004 60.01088 
L 270.002511 61.002764 
L 270.553427 62.204926 
L 270.584163 62.300532 
L 270.662306 62.54316 
L 271.016487 63.210385 
L 273.288873 42.527257 
L 274.409408 32.329681 
" clip-path="url(#p8387857774)" style="fill: #ffffff; stroke: #000000"/>
    <path d="M 235.982977 252.460703 
L 236.06286 252.777275 
L 236.128245 253.071027 
L 236.217986 253.474251 
L 236.271338 253.742297 
L 236.476047 254.969876 
L 236.646831 256.170593 
L 236.812831 256.604723 
L 236.846901 256.846484 
L 236.995068 257.900759 
L 237.502782 261.2262 
L 237.978745 264.261932 
L 238.063122 264.835284 
L 238.124447 265.261326 
L 238.153733 265.464093 
L 238.392367 266.92939 
L 238.602295 268.30168 
L 238.622302 268.428481 
L 238.66971 268.7257 
L 236.417476 269.209222 
L 236.316281 269.095707 
L 236.235094 269.004722 
L 236.105048 268.849036 
L 235.976743 268.809464 
L 235.855541 268.831994 
L 235.624881 268.90045 
L 235.500925 268.983636 
L 235.465695 269.008477 
L 235.392626 269.059891 
L 235.157762 269.225397 
L 234.863746 269.43423 
L 231.552738 271.787139 
L 230.341156 272.608607 
L 229.030409 273.390503 
L 227.331412 274.359569 
L 225.753906 275.31968 
L 223.769301 276.57961 
L 221.765849 277.776861 
L 221.447478 277.951322 
L 219.905926 278.834024 
L 218.752336 279.483919 
L 218.048177 279.88541 
L 216.472266 280.773889 
L 214.00358 282.183728 
L 212.786634 282.992197 
L 212.310671 283.343141 
L 212.030574 283.562083 
L 210.898875 284.434098 
L 210.469015 284.717163 
L 210.059452 284.940438 
L 209.630897 285.109122 
L 209.331517 285.187976 
L 208.799448 285.289937 
L 208.343782 285.339907 
L 207.798519 285.336152 
L 207.273264 285.258454 
L 206.803535 285.118654 
L 206.31032 284.942171 
L 206.018914 284.826923 
L 205.720984 285.387855 
L 205.592098 285.669765 
L 205.523379 285.82314 
L 205.415515 286.063457 
L 205.178766 286.591172 
L 204.803128 287.409173 
L 204.748181 287.538574 
L 204.699324 287.633026 
L 204.572033 287.887207 
L 204.505923 288.043471 
L 204.45924 288.167095 
L 204.444162 288.262413 
L 204.465619 288.35802 
L 204.548836 288.463447 
L 204.729044 288.67979 
L 205.119615 289.043443 
L 205.5473 289.463708 
L 205.837546 289.776524 
L 206.04124 290.055257 
L 206.247254 290.35883 
L 206.53895 290.7557 
L 207.098855 291.238355 
L 207.584967 291.561281 
L 207.849407 291.779068 
L 208.024395 291.934754 
L 208.199384 292.199622 
L 208.323775 292.499152 
L 208.257665 292.86887 
L 208.133274 293.082902 
L 207.9622 293.254185 
L 206.589982 294.215452 
L 218.536029 310.533307 
L 230.440031 326.820545 
L 266.339785 378.690838 
L 278.282062 395.77557 
L 283.145206 402.545455 
L 284.105685 401.808907 
L 281.488106 398.065222 
L 281.250922 397.231623 
L 280.624762 396.327547 
L 278.993179 394.335113 
L 278.316712 392.387161 
L 278.409933 388.475948 
L 281.614237 385.234849 
L 282.205313 385.702196 
L 284.196296 383.396079 
L 284.450153 382.733475 
L 284.459142 382.420659 
L 284.46813 382.366934 
L 284.575704 382.028411 
L 284.668055 381.780873 
L 284.716188 381.458525 
L 285.275803 381.271355 
L 285.597509 381.137332 
L 285.789605 381.021796 
L 286.144221 380.763282 
L 286.325009 380.569757 
L 287.482514 379.330624 
L 291.031721 375.297808 
L 293.424874 372.578358 
L 293.859373 372.084438 
L 294.583829 371.111617 
L 295.244059 370.046945 
L 295.579683 369.448753 
L 295.822521 368.922771 
L 296.164959 367.968147 
L 296.477387 366.98204 
L 296.697753 366.024816 
L 296.931748 364.924038 
L 297.362623 362.897232 
L 297.450335 362.416888 
L 297.440621 361.968893 
L 297.390459 361.618816 
L 297.291584 361.207505 
L 296.566693 359.218826 
L 296.229329 358.503653 
L 295.695085 357.424249 
L 295.617522 356.879204 
L 295.541264 356.55079 
L 295.702624 355.873744 
L 307.302463 364.855872 
L 312.248679 368.937791 
L 317.832798 372.762351 
L 326.055228 378.867899 
L 334.73115 385.453214 
L 336.70807 387.073619 
L 345.729764 375.418833 
L 344.174295 374.078894 
L 341.405504 367.971613 
L 345.088091 363.660354 
L 351.547008 368.781816 
L 353.258039 366.787649 
L 354.198367 366.365939 
L 355.543763 365.762259 
L 357.652324 364.8163 
L 357.90763 364.693254 
L 355.570294 362.717572 
L 353.403887 360.842697 
L 353.899422 360.730338 
L 355.087807 361.013692 
L 357.073862 361.406517 
L 359.649397 361.914013 
L 360.928828 362.147398 
L 363.444487 356.668638 
L 363.773297 355.890208 
L 361.775065 354.877816 
L 357.941555 351.470344 
L 356.308957 348.585098 
L 355.20292 345.24637 
L 355.125936 341.886557 
L 355.443293 338.906283 
L 356.613556 333.112396 
L 357.511115 327.880307 
L 357.08227 325.17501 
L 355.523466 322.600559 
L 353.904496 320.787207 
L 351.035091 319.423005 
L 347.490813 318.879116 
L 341.920611 319.879665 
L 325.578975 327.873952 
L 320.081118 328.088562 
L 316.932775 327.499902 
L 313.800379 326.607957 
L 306.999024 323.130296 
L 299.574988 318.007101 
L 294.43914 313.097649 
L 286.059699 304.762528 
L 280.378445 300.546297 
L 274.722851 297.4294 
L 266.640325 294.916184 
L 260.230265 292.238616 
L 256.963185 288.993184 
L 255.440046 284.773487 
L 255.042661 280.649686 
L 255.391478 275.572128 
L 256.588707 267.428798 
L 257.049012 261.722719 
L 256.962315 256.881723 
L 256.500415 253.455187 
L 254.781845 250.418877 
L 251.196683 245.029658 
L 248.538076 241.727903 
L 243.023981 234.256131 
L 239.78952 230.448323 
L 236.159995 227.559034 
L 230.364932 225.667695 
L 223.856433 238.377621 
L 223.999236 238.450987 
L 224.612203 238.772757 
L 227.652973 240.331061 
L 228.186057 240.653409 
L 229.902887 241.76834 
L 230.592258 242.413614 
L 231.125922 243.120122 
L 232.88726 245.504226 
L 234.384159 248.432509 
L 234.794157 249.356516 
L 235.214883 250.057825 
L 235.429161 250.60547 
L 235.604149 251.056352 
L 235.937454 251.98758 
L 235.982977 252.460703 
" clip-path="url(#p8387857774)" style="fill: #ffffff; stroke: #000000"/>
    <path d="M 233.294649 157.168174 
L 233.381781 157.131491 
L 234.167417 156.868356 
L 234.869545 156.680031 
L 235.546738 156.543986 
L 235.990951 156.488529 
L 236.574342 156.435382 
L 236.918665 156.417762 
L 237.464652 156.418918 
L 237.959897 156.440003 
L 238.346699 156.467154 
L 238.746403 156.518568 
L 243.423975 157.108384 
L 252.884228 158.249889 
L 253.222896 158.290904 
L 253.724665 158.347517 
L 257.222116 158.713481 
L 259.927261 159.225598 
L 266.428077 104.987664 
L 264.85231 105.732299 
L 259.149744 108.413044 
L 255.955443 109.914735 
L 241.316139 116.803623 
L 206.947063 132.985145 
L 185.882768 141.802921 
L 185.63906 141.976804 
L 180.457109 144.311228 
L 185.258057 155.087355 
L 185.724597 157.978666 
L 189.508669 156.66039 
L 210.868864 153.721709 
L 211.231744 153.637367 
L 211.519816 153.546959 
L 213.913693 166.282014 
L 214.182483 166.149147 
L 215.28968 165.636452 
L 225.893374 160.622728 
L 230.662137 158.385645 
L 232.816801 157.371808 
L 233.294649 157.168174 
" clip-path="url(#p8387857774)" style="fill: #ffffff; stroke: #000000"/>
   </g>
   <g id="text_1">
    <!-- 1 -->
    <g transform="translate(160.05452 202.819975) scale(0.13 -0.13)">
     <defs>
      <path id="DejaVuSans-31" d="M 794 531 
L 1825 531 
L 1825 4091 
L 703 3866 
L 703 4441 
L 1819 4666 
L 2450 4666 
L 2450 531 
L 3481 531 
L 3481 0 
L 794 0 
L 794 531 
z
" transform="scale(0.015625)"/>
     </defs>
     <use xlink:href="#DejaVuSans-31"/>
    </g>
   </g>
   <g id="text_2">
    <!-- 2 -->
    <g transform="translate(236.74472 203.542847) scale(0.13 -0.13)">
     <defs>
      <path id="DejaVuSans-32" d="M 1228 531 
L 3431 531 
L 3431 0 
L 469 0 
L 469 531 
Q 828 903 1448 1529 
Q 2069 2156 2228 2338 
Q 2531 2678 2651 2914 
Q 2772 3150 2772 3378 
Q 2772 3750 2511 3984 
Q 2250 4219 1831 4219 
Q 1534 4219 1204 4116 
Q 875 4013 500 3803 
L 500 4441 
Q 881 4594 1212 4672 
Q 1544 4750 1819 4750 
Q 2544 4750 2975 4387 
Q 3406 4025 3406 3419 
Q 3406 3131 3298 2873 
Q 3191 2616 2906 2266 
Q 2828 2175 2409 1742 
Q 1991 1309 1228 531 
z
" transform="scale(0.015625)"/>
     </defs>
     <use xlink:href="#DejaVuSans-32"/>
    </g>
   </g>
   <g id="text_3">
    <!-- 3 -->
    <g transform="translate(187.63329 112.808784) scale(0.13 -0.13)">
     <defs>
      <path id="DejaVuSans-33" d="M 2597 2516 
Q 3050 2419 3304 2112 
Q 3559 1806 3559 1356 
Q 3559 666 3084 287 
Q 2609 -91 1734 -91 
Q 1441 -91 1130 -33 
Q 819 25 488 141 
L 488 750 
Q 750 597 1062 519 
Q 1375 441 1716 441 
Q 2309 441 2620 675 
Q 2931 909 2931 1356 
Q 2931 1769 2642 2001 
Q 2353 2234 1838 2234 
L 1294 2234 
L 1294 2753 
L 1863 2753 
Q 2328 2753 2575 2939 
Q 2822 3125 2822 3475 
Q 2822 3834 2567 4026 
Q 2313 4219 1838 4219 
Q 1578 4219 1281 4162 
Q 984 4106 628 3988 
L 628 4550 
Q 988 4650 1302 4700 
Q 1616 4750 1894 4750 
Q 2613 4750 3031 4423 
Q 3450 4097 3450 3541 
Q 3450 3153 3228 2886 
Q 3006 2619 2597 2516 
z
" transform="scale(0.015625)"/>
     </defs>
     <use xlink:href="#DejaVuSans-33"/>
    </g>
   </g>
   <g id="text_4">
    <!-- 4 -->
    <g transform="translate(201.240184 250.37429) scale(0.13 -0.13)">
     <defs>
      <path id="DejaVuSans-34" d="M 2419 4116 
L 825 1625 
L 2419 1625 
L 2419 4116 
z
M 2253 4666 
L 3047 4666 
L 3047 1625 
L 3713 1625 
L 3713 1100 
L 3047 1100 
L 3047 0 
L 2419 0 
L 2419 1100 
L 313 1100 
L 313 1709 
L 2253 4666 
z
" transform="scale(0.015625)"/>
     </defs>
     <use xlink:href="#DejaVuSans-34"/>
    </g>
   </g>
   <g id="text_5">
    <!-- 5 -->
    <g transform="translate(124.033843 132.280894) scale(0.13 -0.13)">
     <defs>
      <path id="DejaVuSans-35" d="M 691 4666 
L 3169 4666 
L 3169 4134 
L 1269 4134 
L 1269 2991 
Q 1406 3038 1543 3061 
Q 1681 3084 1819 3084 
Q 2600 3084 3056 2656 
Q 3513 2228 3513 1497 
Q 3513 744 3044 326 
Q 2575 -91 1722 -91 
Q 1428 -91 1123 -41 
Q 819 9 494 109 
L 494 744 
Q 775 591 1075 516 
Q 1375 441 1709 441 
Q 2250 441 2565 725 
Q 2881 1009 2881 1497 
Q 2881 1984 2565 2268 
Q 2250 2553 1709 2553 
Q 1456 2553 1204 2497 
Q 953 2441 691 2322 
L 691 4666 
z
" transform="scale(0.015625)"/>
     </defs>
     <use xlink:href="#DejaVuSans-35"/>
    </g>
   </g>
   <g id="text_6">
    <!-- 6 -->
    <g transform="translate(246.189293 90.79114) scale(0.13 -0.13)">
     <defs>
      <path id="DejaVuSans-36" d="M 2113 2584 
Q 1688 2584 1439 2293 
Q 1191 2003 1191 1497 
Q 1191 994 1439 701 
Q 1688 409 2113 409 
Q 2538 409 2786 701 
Q 3034 994 3034 1497 
Q 3034 2003 2786 2293 
Q 2538 2584 2113 2584 
z
M 3366 4563 
L 3366 3988 
Q 3128 4100 2886 4159 
Q 2644 4219 2406 4219 
Q 1781 4219 1451 3797 
Q 1122 3375 1075 2522 
Q 1259 2794 1537 2939 
Q 1816 3084 2150 3084 
Q 2853 3084 3261 2657 
Q 3669 2231 3669 1497 
Q 3669 778 3244 343 
Q 2819 -91 2113 -91 
Q 1303 -91 875 529 
Q 447 1150 447 2328 
Q 447 3434 972 4092 
Q 1497 4750 2381 4750 
Q 2619 4750 2861 4703 
Q 3103 4656 3366 4563 
z
" transform="scale(0.015625)"/>
     </defs>
     <use xlink:href="#DejaVuSans-36"/>
    </g>
   </g>
   <g id="text_7">
    <!-- 7 -->
    <g transform="translate(206.906395 65.173533) scale(0.13 -0.13)">
     <defs>
      <path id="DejaVuSans-37" d="M 525 4666 
L 3525 4666 
L 3525 4397 
L 1831 0 
L 1172 0 
L 2766 4134 
L 525 4134 
L 525 4666 
z
" transform="scale(0.015625)"/>
     </defs>
     <use xlink:href="#DejaVuSans-37"/>
    </g>
   </g>
   <g id="text_8">
    <!-- 8 -->
    <g transform="translate(274.584483 329.216953) scale(0.13 -0.13)">
     <defs>
      <path id="DejaVuSans-38" d="M 2034 2216 
Q 1584 2216 1326 1975 
Q 1069 1734 1069 1313 
Q 1069 891 1326 650 
Q 1584 409 2034 409 
Q 2484 409 2743 651 
Q 3003 894 3003 1313 
Q 3003 1734 2745 1975 
Q 2488 2216 2034 2216 
z
M 1403 2484 
Q 997 2584 770 2862 
Q 544 3141 544 3541 
Q 544 4100 942 4425 
Q 1341 4750 2034 4750 
Q 2731 4750 3128 4425 
Q 3525 4100 3525 3541 
Q 3525 3141 3298 2862 
Q 3072 2584 2669 2484 
Q 3125 2378 3379 2068 
Q 3634 1759 3634 1313 
Q 3634 634 3220 271 
Q 2806 -91 2034 -91 
Q 1263 -91 848 271 
Q 434 634 434 1313 
Q 434 1759 690 2068 
Q 947 2378 1403 2484 
z
M 1172 3481 
Q 1172 3119 1398 2916 
Q 1625 2713 2034 2713 
Q 2441 2713 2670 2916 
Q 2900 3119 2900 3481 
Q 2900 3844 2670 4047 
Q 2441 4250 2034 4250 
Q 1625 4250 1398 4047 
Q 1172 3844 1172 3481 
z
" transform="scale(0.015625)"/>
     </defs>
     <use xlink:href="#DejaVuSans-38"/>
    </g>
   </g>
   <g id="text_9">
    <!-- 9 -->
    <g transform="translate(226.963598 142.983312) scale(0.13 -0.13)">
     <defs>
      <path id="DejaVuSans-39" d="M 703 97 
L 703 672 
Q 941 559 1184 500 
Q 1428 441 1663 441 
Q 2288 441 2617 861 
Q 2947 1281 2994 2138 
Q 2813 1869 2534 1725 
Q 2256 1581 1919 1581 
Q 1219 1581 811 2004 
Q 403 2428 403 3163 
Q 403 3881 828 4315 
Q 1253 4750 1959 4750 
Q 2769 4750 3195 4129 
Q 3622 3509 3622 2328 
Q 3622 1225 3098 567 
Q 2575 -91 1691 -91 
Q 1453 -91 1209 -44 
Q 966 3 703 97 
z
M 1959 2075 
Q 2384 2075 2632 2365 
Q 2881 2656 2881 3163 
Q 2881 3666 2632 3958 
Q 2384 4250 1959 4250 
Q 1534 4250 1286 3958 
Q 1038 3666 1038 3163 
Q 1038 2656 1286 2365 
Q 1534 2075 1959 2075 
z
" transform="scale(0.015625)"/>
     </defs>
     <use xlink:href="#DejaVuSans-39"/>
    </g>
   </g>
  </g>
 </g>
 <defs>
  <clipPath id="p8387857774">
   <rect x="53.449373" y="10.8" width="325.101254" height="410.4"/>
  </clipPath>
 </defs>
</svg>
