<?xml version="1.0" encoding="utf-8" standalone="no"?>
<!DOCTYPE svg PUBLIC "-//W3C//DTD SVG 1.1//EN"
  "http://www.w3.org/Graphics/SVG/1.1/DTD/svg11.dtd">
<svg xmlns:xlink="http://www.w3.org/1999/xlink" width="432pt" height="432pt" viewBox="0 0 432 432" xmlns="http://www.w3.org/2000/svg" version="1.1">
 <metadata>
  <rdf:RDF xmlns:dc="http://purl.org/dc/elements/1.1/" xmlns:cc="http://creativecommons.org/ns#" xmlns:rdf="http://www.w3.org/1999/02/22-rdf-syntax-ns#">
   <cc:Work>
    <dc:type rdf:resource="http://purl.org/dc/dcmitype/StillImage"/>
    <dc:date>2025-04-20T13:46:46.872045</dc:date>
    <dc:format>image/svg+xml</dc:format>
    <dc:creator>
     <cc:Agent>
      <dc:title>Matplotlib v3.10.1, https://matplotlib.org/</dc:title>
     </cc:Agent>
    </dc:creator>
   </cc:Work>
  </rdf:RDF>
 </metadata>
 <defs>
  <style type="text/css">*{stroke-linejoin: round; stroke-linecap: butt}</style>
 </defs>
 <g id="figure_1">
  <g id="patch_1">
   <path d="M 0 432 
L 432 432 
L 432 0 
L 0 0 
z
" style="fill: #ffffff"/>
  </g>
  <g id="axes_1">
   <g id="PatchCollection_1">
    <path d="M 279.431792 255.59763 
L 275.233711 252.066368 
L 274.706675 251.481222 
L 274.602702 251.611806 
L 274.266514 252.010719 
L 273.397222 253.105526 
L 272.840953 253.789298 
L 271.187314 255.822983 
L 270.929726 256.139249 
L 270.227288 257.002642 
L 269.75017 257.589992 
L 269.447352 257.962458 
L 266.977925 260.998935 
L 265.374204 262.971461 
L 264.907567 263.545036 
L 263.17643 265.665226 
L 261.867529 267.283469 
L 260.75306 268.653768 
L 260.390396 269.100066 
L 260.119294 269.433963 
L 258.649607 271.241193 
L 258.444143 271.494095 
L 258.058312 271.96684 
L 257.619805 272.507907 
L 257.072913 273.180109 
L 256.238647 274.206594 
L 255.629977 274.980728 
L 254.558808 276.272236 
L 253.202746 277.948332 
L 252.453975 278.860763 
L 251.796767 279.621673 
L 250.704085 280.93467 
L 248.542992 283.606396 
L 237.873212 299.264284 
L 255.978025 310.052017 
L 260.349854 312.663135 
L 297.42491 315.934332 
L 303.535322 316.473746 
L 296.931521 299.445007 
L 296.762737 298.910001 
L 296.333055 297.547966 
L 296.068572 297.130871 
L 295.991627 296.981003 
L 295.961566 296.899457 
L 295.808502 296.423957 
L 294.959895 293.827165 
L 294.875227 293.52743 
L 294.357293 291.694303 
L 294.262973 291.359855 
L 294.149071 290.879396 
L 293.605212 288.584544 
L 293.443599 287.840715 
L 293.305704 286.976219 
L 293.102171 285.210864 
L 293.031844 284.51497 
L 293.005644 284.230111 
L 292.988821 284.023491 
L 293.013091 282.111023 
L 293.172497 280.835493 
L 293.546745 279.220556 
L 293.932024 277.802872 
L 294.09281 277.313598 
L 294.778701 275.458982 
L 295.930126 272.45887 
L 296.031065 272.19605 
L 296.149931 271.947005 
L 296.684964 270.824649 
L 296.928211 270.351904 
L 297.729382 268.755149 
L 298.049851 268.117109 
L 298.379144 267.487884 
L 298.706508 266.863618 
L 299.015393 266.363324 
L 299.18528 266.125299 
L 300.116072 264.822219 
L 300.459707 264.389145 
L 300.763904 264.031005 
L 300.484252 263.844221 
L 300.311608 263.735126 
L 297.48779 262.025971 
L 297.186351 261.81825 
L 296.077949 261.055136 
L 295.039323 260.120114 
L 294.630877 259.338267 
L 294.072953 258.129957 
L 293.852045 257.59991 
L 293.484141 256.716681 
L 293.366378 256.434577 
L 292.796319 255.054359 
L 292.63774 254.686852 
L 292.54204 254.437256 
L 292.112359 253.317655 
L 291.712187 252.274641 
L 291.661442 252.142955 
L 291.588357 251.939091 
L 291.209697 252.075184 
L 289.600736 252.595314 
L 289.297642 252.675758 
L 286.722036 253.42124 
L 285.112247 253.800869 
L 284.489788 253.841091 
L 284.04549 253.854865 
L 283.212327 253.877456 
L 282.205692 253.007451 
L 281.873089 252.720387 
L 281.214777 253.541355 
L 280.414158 254.482437 
L 279.860646 255.11607 
L 279.535214 255.495147 
L 279.431792 255.59763 
" clip-path="url(#p582b9e6ff8)" style="fill: #ffffff; stroke: #000000"/>
    <path d="M 239.917095 274.844083 
L 236.836241 272.39716 
L 233.296471 270.420777 
L 225.836065 266.233843 
L 223.582581 264.429367 
L 218.286854 258.045656 
L 214.333674 249.759395 
L 210.809073 242.140376 
L 209.336077 240.589904 
L 199.145897 233.477791 
L 200.188936 232.036966 
L 201.146205 231.019297 
L 202.381746 229.850658 
L 203.561853 228.792216 
L 205.730669 226.703432 
L 207.075974 225.781084 
L 209.104137 224.585997 
L 211.932919 222.18756 
L 212.633978 221.647044 
L 210.616571 219.643112 
L 209.106619 218.102558 
L 206.871614 215.628085 
L 206.150422 214.796649 
L 205.980811 214.296906 
L 205.016923 211.476414 
L 198.622723 212.098476 
L 173.459882 213.223036 
L 162.378348 214.201034 
L 155.471729 214.542645 
L 147.83923 213.290807 
L 104.153754 202.654044 
L 102.974751 205.576468 
L 102.890083 205.617792 
L 102.807622 205.672339 
L 102.632219 205.643137 
L 101.880414 205.956648 
L 101.29629 206.234344 
L 100.754914 206.553915 
L 100.386458 206.844835 
L 100.021035 207.189201 
L 99.615899 207.609051 
L 99.276677 208.010719 
L 99.003093 208.400266 
L 98.665801 208.930313 
L 98.38615 209.513806 
L 98.285211 209.920433 
L 98.187029 210.264247 
L 98.075886 210.798703 
L 98.014109 211.212492 
L 98.01273 211.760722 
L 98.003904 212.343113 
L 98.06182 212.926606 
L 98.176549 213.458307 
L 98.420348 214.140426 
L 98.728957 214.906846 
L 99.154226 215.60825 
L 99.620863 216.191743 
L 100.163067 216.755951 
L 101.057731 217.330628 
L 94.950905 225.946379 
L 153.947436 248.846413 
L 177.455258 255.910039 
L 184.145381 259.74269 
L 190.164507 267.462539 
L 215.549358 285.906758 
L 236.205232 298.242758 
L 237.873212 299.264284 
L 248.542992 283.606396 
L 250.704085 280.93467 
L 251.796767 279.621673 
L 252.453975 278.860763 
L 253.202746 277.948332 
L 254.558808 276.272236 
L 255.629977 274.980728 
L 256.238647 274.206594 
L 257.072913 273.180109 
L 257.619805 272.507907 
L 258.058312 271.96684 
L 258.444143 271.494095 
L 258.649607 271.241193 
L 260.119294 269.433963 
L 260.390396 269.100066 
L 260.75306 268.653768 
L 261.867529 267.283469 
L 263.17643 265.665226 
L 264.907567 263.545036 
L 265.374204 262.971461 
L 266.977925 260.998935 
L 269.447352 257.962458 
L 269.75017 257.589992 
L 270.227288 257.002642 
L 270.929726 256.139249 
L 271.187314 255.822983 
L 272.840953 253.789298 
L 273.397222 253.105526 
L 274.266514 252.010719 
L 274.602702 251.611806 
L 274.706675 251.481222 
L 274.823335 251.3286 
L 275.390635 250.625543 
L 276.720221 248.994077 
L 277.028003 248.616652 
L 278.338835 247.009429 
L 278.530509 246.774159 
L 278.923786 246.287639 
L 280.146641 244.787307 
L 280.320665 244.575178 
L 281.089568 243.63079 
L 281.552896 243.061622 
L 282.335314 242.100705 
L 282.675363 241.683058 
L 283.756461 240.370061 
L 284.069208 239.978862 
L 284.504405 239.436693 
L 286.092406 237.486206 
L 286.718175 236.703808 
L 286.891371 236.49223 
L 288.631333 234.367081 
L 289.351421 233.473384 
L 290.640741 231.899771 
L 291.896139 230.358115 
L 292.293278 229.869942 
L 292.655666 229.440725 
L 292.09333 228.859987 
L 291.508378 228.410934 
L 289.634658 226.97066 
L 289.345078 226.754123 
L 288.872649 226.379453 
L 288.751301 226.280276 
L 286.871514 224.802534 
L 286.322691 224.373317 
L 285.73443 223.913245 
L 283.479568 222.132462 
L 282.416948 221.296618 
L 282.025049 221.13573 
L 281.601435 220.858585 
L 281.036892 220.416695 
L 279.611332 219.300399 
L 277.764915 217.865084 
L 277.014214 217.282693 
L 275.654843 216.228659 
L 274.489628 215.342124 
L 273.391707 214.48975 
L 273.07896 214.246766 
L 271.787985 213.255544 
L 270.527623 212.288015 
L 270.032028 211.892959 
L 269.815257 212.176716 
L 269.606759 212.450004 
L 267.702426 214.964699 
L 267.102858 215.755914 
L 266.586578 216.437482 
L 265.015952 218.511389 
L 264.612747 219.044191 
L 264.196027 219.550547 
L 263.618246 220.254705 
L 262.594237 221.502135 
L 261.929582 222.312083 
L 261.161506 223.247655 
L 260.204513 224.412988 
L 259.857017 224.836145 
L 259.283924 225.532038 
L 258.900852 226.000376 
L 258.56356 226.400391 
L 257.219358 228.050039 
L 255.807862 229.766357 
L 255.46671 230.1818 
L 254.789644 231.024807 
L 253.930005 232.100329 
L 253.128007 233.135079 
L 252.958947 233.353269 
L 252.672677 233.722429 
L 251.996163 234.631554 
L 251.154451 235.801295 
L 249.543559 238.032232 
L 249.330925 238.328111 
L 248.758384 239.106102 
L 248.384136 239.618518 
L 248.098142 239.979964 
L 246.014269 242.83627 
L 243.553667 246.790688 
L 243.239818 247.305859 
L 243.045386 247.562618 
L 242.688513 248.010569 
L 241.893133 249.155515 
L 240.716612 250.94291 
L 240.054439 251.949009 
L 239.959291 252.093367 
L 239.55581 252.652616 
L 239.881794 252.903314 
L 241.168356 253.929248 
L 242.930105 255.335913 
L 245.828111 257.6506 
L 246.259999 257.99166 
L 247.454998 258.945415 
L 247.76802 259.195011 
L 247.870339 259.277108 
L 249.070854 260.238576 
L 249.358228 260.468888 
L 250.277437 261.205555 
L 250.370655 261.279938 
L 250.2209 261.464517 
L 250.104793 261.607774 
L 248.371174 263.756064 
L 248.054015 264.155528 
L 247.833934 264.426612 
L 246.076046 266.671325 
L 243.394812 270.010844 
L 243.231544 270.27697 
L 243.076274 270.526566 
L 242.304337 271.426875 
L 242.093357 271.673165 
L 241.538743 272.266576 
L 241.474484 272.338204 
L 241.210552 272.602126 
L 241.088653 272.732709 
L 241.332727 272.991121 
L 240.890635 273.528882 
L 240.779216 273.663874 
L 239.917095 274.844083 
" clip-path="url(#p582b9e6ff8)" style="fill: #ffffff; stroke: #000000"/>
    <path d="M 373.512172 293.475086 
L 402.545455 281.968318 
L 394.101856 274.955933 
L 388.220074 268.683521 
L 385.587654 264.531299 
L 381.272362 253.960654 
L 378.681863 236.589203 
L 376.091088 206.795798 
L 373.712947 200.003256 
L 368.371714 201.827016 
L 365.089533 202.833665 
L 362.110996 204.214984 
L 344.263221 213.98615 
L 343.148752 214.308476 
L 342.992654 214.386165 
L 342.003394 214.878195 
L 340.349203 215.47987 
L 338.704941 216.057302 
L 336.967737 216.666692 
L 336.036117 216.986814 
L 334.128475 217.641935 
L 332.730494 218.130659 
L 330.705365 218.84749 
L 330.325877 218.974767 
L 327.322244 220.026047 
L 325.12778 220.799078 
L 324.913215 220.874012 
L 324.752429 220.930213 
L 323.37982 221.417283 
L 322.639599 221.691674 
L 321.377306 222.188662 
L 320.064819 222.707139 
L 317.945094 223.567777 
L 317.646965 223.701116 
L 317.46715 223.78211 
L 317.29616 223.858697 
L 321.08028 231.735026 
L 326.260451 242.531024 
L 327.762681 245.703044 
L 328.403066 247.034223 
L 342.295732 276.003907 
L 347.69819 288.506304 
L 353.419186 301.931602 
L 357.653396 299.659891 
L 361.182962 298.177742 
L 373.512172 293.475086 
" clip-path="url(#p582b9e6ff8)" style="fill: #ffffff; stroke: #000000"/>
    <path d="M 309.829134 208.324781 
L 312.748927 214.407103 
L 317.29616 223.858697 
L 317.46715 223.78211 
L 317.646965 223.701116 
L 317.945094 223.567777 
L 320.064819 222.707139 
L 321.377306 222.188662 
L 322.639599 221.691674 
L 323.37982 221.417283 
L 324.752429 220.930213 
L 324.913215 220.874012 
L 325.12778 220.799078 
L 327.322244 220.026047 
L 330.325877 218.974767 
L 330.705365 218.84749 
L 332.730494 218.130659 
L 334.128475 217.641935 
L 336.036117 216.986814 
L 336.967737 216.666692 
L 338.704941 216.057302 
L 340.349203 215.47987 
L 342.003394 214.878195 
L 342.992654 214.386165 
L 343.148752 214.308476 
L 344.263221 213.98615 
L 362.110996 204.214984 
L 365.089533 202.833665 
L 368.371714 201.827016 
L 373.712947 200.003256 
L 373.000856 197.979488 
L 361.666147 165.647145 
L 344.356162 143.398926 
L 337.290964 137.471431 
L 333.04848 133.923088 
L 318.011836 129.578572 
L 314.432904 128.314062 
L 296.676414 134.165521 
L 281.214226 142.92563 
L 283.405932 146.759934 
L 284.142844 148.179822 
L 288.610924 159.662347 
L 290.227883 163.891156 
L 292.78777 170.420327 
L 297.888789 183.474811 
L 298.43513 184.74979 
L 298.76139 185.458357 
L 297.950014 185.836333 
L 296.911939 186.166373 
L 292.306791 187.414904 
L 290.967002 187.540529 
L 289.777242 187.559813 
L 289.039502 187.438046 
L 288.928635 187.945503 
L 288.728135 188.682721 
L 288.693937 188.809998 
L 288.630505 188.860689 
L 287.263688 189.945027 
L 286.901299 190.391876 
L 286.706591 190.650839 
L 285.948719 191.616164 
L 285.690304 191.945653 
L 284.831492 193.039909 
L 284.092374 193.981542 
L 283.39821 194.866424 
L 282.440941 196.086304 
L 282.397366 196.141403 
L 281.705408 197.02353 
L 281.27159 197.576168 
L 280.703186 198.300162 
L 280.530817 198.514495 
L 280.244547 198.885308 
L 280.135058 199.026911 
L 279.552588 199.781209 
L 276.282817 203.923513 
L 276.136924 204.103134 
L 275.958764 204.329038 
L 274.708606 205.913671 
L 274.622835 206.024419 
L 273.708314 207.202975 
L 271.953184 209.436668 
L 271.85776 209.562293 
L 271.488753 210.036691 
L 271.391675 210.161213 
L 270.371802 211.467047 
L 270.032028 211.892959 
L 270.527623 212.288015 
L 271.787985 213.255544 
L 273.07896 214.246766 
L 273.391707 214.48975 
L 274.489628 215.342124 
L 275.654843 216.228659 
L 277.014214 217.282693 
L 277.764915 217.865084 
L 279.611332 219.300399 
L 281.036892 220.416695 
L 281.601435 220.858585 
L 282.025049 221.13573 
L 282.416948 221.296618 
L 283.479568 222.132462 
L 285.73443 223.913245 
L 286.322691 224.373317 
L 286.871514 224.802534 
L 288.751301 226.280276 
L 288.872649 226.379453 
L 289.345078 226.754123 
L 289.634658 226.97066 
L 291.508378 228.410934 
L 292.09333 228.859987 
L 292.655666 229.440725 
L 292.887606 229.142091 
L 294.584544 227.053859 
L 295.353172 226.108369 
L 296.275691 224.974442 
L 297.86645 223.018445 
L 299.466586 221.051429 
L 299.700732 220.763264 
L 299.948943 220.448101 
L 301.343615 218.743354 
L 302.075839 217.843044 
L 302.472977 217.354872 
L 303.019869 216.68267 
L 303.670183 215.883191 
L 304.760934 214.542094 
L 304.82409 214.464405 
L 305.058512 214.17624 
L 305.394149 213.763552 
L 306.994561 211.797087 
L 307.153416 211.602039 
L 308.227895 210.281328 
L 309.387594 208.857032 
L 309.695376 208.478505 
L 309.829134 208.324781 
" clip-path="url(#p582b9e6ff8)" style="fill: #ffffff; stroke: #000000"/>
    <path d="M 309.829134 208.324781 
L 309.695376 208.478505 
L 309.387594 208.857032 
L 308.227895 210.281328 
L 307.153416 211.602039 
L 306.994561 211.797087 
L 305.394149 213.763552 
L 305.058512 214.17624 
L 304.82409 214.464405 
L 304.760934 214.542094 
L 303.670183 215.883191 
L 303.019869 216.68267 
L 302.472977 217.354872 
L 302.075839 217.843044 
L 301.343615 218.743354 
L 299.948943 220.448101 
L 299.700732 220.763264 
L 299.466586 221.051429 
L 297.86645 223.018445 
L 296.275691 224.974442 
L 295.353172 226.108369 
L 294.584544 227.053859 
L 292.887606 229.142091 
L 292.655666 229.440725 
L 292.293278 229.869942 
L 291.896139 230.358115 
L 290.640741 231.899771 
L 289.351421 233.473384 
L 288.631333 234.367081 
L 286.891371 236.49223 
L 286.718175 236.703808 
L 286.092406 237.486206 
L 284.504405 239.436693 
L 284.069208 239.978862 
L 283.756461 240.370061 
L 282.675363 241.683058 
L 282.335314 242.100705 
L 281.552896 243.061622 
L 281.089568 243.63079 
L 280.320665 244.575178 
L 280.146641 244.787307 
L 278.923786 246.287639 
L 278.530509 246.774159 
L 278.338835 247.009429 
L 277.028003 248.616652 
L 276.720221 248.994077 
L 275.390635 250.625543 
L 274.823335 251.3286 
L 274.706675 251.481222 
L 275.233711 252.066368 
L 279.431792 255.59763 
L 279.535214 255.495147 
L 279.860646 255.11607 
L 280.414158 254.482437 
L 281.214777 253.541355 
L 281.873089 252.720387 
L 282.205692 253.007451 
L 283.212327 253.877456 
L 284.04549 253.854865 
L 284.489788 253.841091 
L 285.112247 253.800869 
L 286.722036 253.42124 
L 289.297642 252.675758 
L 289.600736 252.595314 
L 291.209697 252.075184 
L 291.588357 251.939091 
L 291.661442 252.142955 
L 291.712187 252.274641 
L 292.112359 253.317655 
L 292.54204 254.437256 
L 292.63774 254.686852 
L 292.796319 255.054359 
L 293.366378 256.434577 
L 293.484141 256.716681 
L 293.852045 257.59991 
L 294.072953 258.129957 
L 294.630877 259.338267 
L 295.039323 260.120114 
L 296.077949 261.055136 
L 297.186351 261.81825 
L 297.48779 262.025971 
L 300.311608 263.735126 
L 300.484252 263.844221 
L 300.763904 264.031005 
L 300.459707 264.389145 
L 300.116072 264.822219 
L 299.18528 266.125299 
L 299.015393 266.363324 
L 298.706508 266.863618 
L 298.379144 267.487884 
L 298.049851 268.117109 
L 297.729382 268.755149 
L 296.928211 270.351904 
L 296.684964 270.824649 
L 296.149931 271.947005 
L 296.031065 272.19605 
L 295.930126 272.45887 
L 294.778701 275.458982 
L 294.09281 277.313598 
L 293.932024 277.802872 
L 293.546745 279.220556 
L 293.172497 280.835493 
L 293.013091 282.111023 
L 292.988821 284.023491 
L 293.005644 284.230111 
L 293.031844 284.51497 
L 293.102171 285.210864 
L 293.305704 286.976219 
L 293.443599 287.840715 
L 293.605212 288.584544 
L 294.149071 290.879396 
L 294.262973 291.359855 
L 294.357293 291.694303 
L 294.875227 293.52743 
L 294.959895 293.827165 
L 295.808502 296.423957 
L 295.961566 296.899457 
L 295.991627 296.981003 
L 296.068572 297.130871 
L 296.333055 297.547966 
L 296.762737 298.910001 
L 296.931521 299.445007 
L 303.535322 316.473746 
L 323.795436 318.261141 
L 349.210625 304.251248 
L 353.419186 301.931602 
L 347.69819 288.506304 
L 342.295732 276.003907 
L 328.403066 247.034223 
L 327.762681 245.703044 
L 326.260451 242.531024 
L 321.08028 231.735026 
L 317.29616 223.858697 
L 312.748927 214.407103 
L 309.829134 208.324781 
" clip-path="url(#p582b9e6ff8)" style="fill: #ffffff; stroke: #000000"/>
    <path d="M 281.705408 197.02353 
L 282.397366 196.141403 
L 282.440941 196.086304 
L 283.39821 194.866424 
L 284.092374 193.981542 
L 284.831492 193.039909 
L 285.690304 191.945653 
L 285.948719 191.616164 
L 286.706591 190.650839 
L 286.901299 190.391876 
L 287.263688 189.945027 
L 288.630505 188.860689 
L 288.693937 188.809998 
L 288.728135 188.682721 
L 288.928635 187.945503 
L 289.039502 187.438046 
L 289.777242 187.559813 
L 290.967002 187.540529 
L 292.306791 187.414904 
L 296.911939 186.166373 
L 297.950014 185.836333 
L 298.76139 185.458357 
L 298.43513 184.74979 
L 297.888789 183.474811 
L 292.78777 170.420327 
L 290.227883 163.891156 
L 288.610924 159.662347 
L 284.142844 148.179822 
L 283.405932 146.759934 
L 281.214226 142.92563 
L 296.676414 134.165521 
L 314.432904 128.314062 
L 294.66342 121.329778 
L 275.940286 114.974167 
L 260.088957 114.198931 
L 250.681746 113.738859 
L 232.429662 116.092666 
L 214.825133 120.565011 
L 203.402722 121.624004 
L 190.626456 118.563834 
L 184.856369 116.268982 
L 178.379707 115.033122 
L 168.488484 114.856807 
L 157.179423 115.371978 
L 149.643451 115.715242 
L 147.586882 115.79844 
L 127.98039 117.858022 
L 103.546188 122.624592 
L 87.769047 131.967643 
L 74.642251 134.971612 
L 74.735744 141.048976 
L 72.277348 141.764705 
L 71.393992 142.159761 
L 67.997633 145.511402 
L 58.273539 144.701454 
L 58.149158 144.759308 
L 58.060905 144.86675 
L 56.964914 144.791265 
L 56.584875 144.630928 
L 52.163127 144.378577 
L 52.030748 144.155428 
L 51.767919 143.937238 
L 51.469238 143.809961 
L 50.978607 143.765331 
L 50.075945 143.735027 
L 49.052487 143.823184 
L 47.930848 144.017131 
L 46.998952 144.261768 
L 42.431035 145.891582 
L 40.378603 147.133502 
L 39.770761 147.524701 
L 38.349337 148.536309 
L 37.519208 149.247631 
L 37.000998 149.698336 
L 36.160389 150.491754 
L 35.323917 151.398676 
L 34.631131 152.184931 
L 33.517214 153.532089 
L 32.252715 155.623628 
L 31.476365 157.188425 
L 30.811986 158.816585 
L 30.330456 160.319672 
L 29.896637 162.134616 
L 29.74909 163.558361 
L 29.598232 165.781585 
L 29.514392 167.016893 
L 29.50667 167.173924 
L 29.454545 171.249008 
L 29.739713 174.996807 
L 30.037291 177.36494 
L 30.539781 179.322589 
L 30.810331 180.053195 
L 31.034549 180.658728 
L 31.088328 180.775537 
L 31.626671 181.946379 
L 32.389783 183.264886 
L 32.680466 183.475362 
L 33.005347 183.452772 
L 35.94086 182.302316 
L 36.425148 182.269808 
L 36.847107 182.376699 
L 37.250864 182.64062 
L 37.480873 182.924378 
L 39.246759 186.553164 
L 39.845225 187.679377 
L 40.14363 187.887098 
L 40.404252 187.891506 
L 40.417214 188.073331 
L 41.358211 188.549933 
L 41.71398 189.452446 
L 43.829017 188.97915 
L 43.817158 187.100292 
L 47.665813 186.211553 
L 48.796002 185.812089 
L 49.755753 185.379015 
L 51.339893 185.011508 
L 51.615959 184.785604 
L 51.89037 184.309554 
L 54.278439 185.003244 
L 55.949178 185.235208 
L 56.331147 185.257799 
L 58.947847 185.705198 
L 66.772848 186.775211 
L 69.241999 187.519591 
L 70.021934 188.744982 
L 70.012558 189.154364 
L 70.422934 189.961556 
L 70.270146 191.097136 
L 67.685438 190.724671 
L 67.560229 191.589717 
L 70.473128 192.01122 
L 70.427622 195.276908 
L 102.767632 202.297006 
L 104.153754 202.654044 
L 147.83923 213.290807 
L 155.471729 214.542645 
L 162.378348 214.201034 
L 173.459882 213.223036 
L 198.622723 212.098476 
L 205.016923 211.476414 
L 205.980811 214.296906 
L 206.150422 214.796649 
L 206.871614 215.628085 
L 209.106619 218.102558 
L 210.616571 219.643112 
L 212.633978 221.647044 
L 211.932919 222.18756 
L 209.104137 224.585997 
L 207.075974 225.781084 
L 205.730669 226.703432 
L 203.561853 228.792216 
L 202.381746 229.850658 
L 201.146205 231.019297 
L 200.188936 232.036966 
L 199.145897 233.477791 
L 209.336077 240.589904 
L 210.809073 242.140376 
L 214.333674 249.759395 
L 218.286854 258.045656 
L 223.582581 264.429367 
L 225.836065 266.233843 
L 233.296471 270.420777 
L 236.836241 272.39716 
L 239.917095 274.844083 
L 240.779216 273.663874 
L 240.890635 273.528882 
L 241.332727 272.991121 
L 241.088653 272.732709 
L 241.210552 272.602126 
L 241.474484 272.338204 
L 241.538743 272.266576 
L 242.093357 271.673165 
L 242.304337 271.426875 
L 243.076274 270.526566 
L 243.231544 270.27697 
L 243.394812 270.010844 
L 246.076046 266.671325 
L 247.833934 264.426612 
L 248.054015 264.155528 
L 248.371174 263.756064 
L 250.104793 261.607774 
L 250.2209 261.464517 
L 250.370655 261.279938 
L 250.277437 261.205555 
L 249.358228 260.468888 
L 249.070854 260.238576 
L 247.870339 259.277108 
L 247.76802 259.195011 
L 247.454998 258.945415 
L 246.259999 257.99166 
L 245.828111 257.6506 
L 242.930105 255.335913 
L 241.168356 253.929248 
L 239.881794 252.903314 
L 239.55581 252.652616 
L 239.959291 252.093367 
L 240.054439 251.949009 
L 240.716612 250.94291 
L 241.893133 249.155515 
L 242.688513 248.010569 
L 243.045386 247.562618 
L 243.239818 247.305859 
L 243.553667 246.790688 
L 246.014269 242.83627 
L 248.098142 239.979964 
L 248.384136 239.618518 
L 248.758384 239.106102 
L 249.330925 238.328111 
L 249.543559 238.032232 
L 251.154451 235.801295 
L 251.996163 234.631554 
L 252.672677 233.722429 
L 252.958947 233.353269 
L 253.128007 233.135079 
L 253.930005 232.100329 
L 254.789644 231.024807 
L 255.46671 230.1818 
L 255.807862 229.766357 
L 257.219358 228.050039 
L 258.56356 226.400391 
L 258.900852 226.000376 
L 259.283924 225.532038 
L 259.857017 224.836145 
L 260.204513 224.412988 
L 261.161506 223.247655 
L 261.929582 222.312083 
L 262.594237 221.502135 
L 263.618246 220.254705 
L 264.196027 219.550547 
L 264.612747 219.044191 
L 265.015952 218.511389 
L 266.586578 216.437482 
L 267.102858 215.755914 
L 267.702426 214.964699 
L 269.606759 212.450004 
L 269.815257 212.176716 
L 270.032028 211.892959 
L 270.371802 211.467047 
L 271.391675 210.161213 
L 271.488753 210.036691 
L 271.85776 209.562293 
L 271.953184 209.436668 
L 273.708314 207.202975 
L 274.622835 206.024419 
L 274.708606 205.913671 
L 275.958764 204.329038 
L 276.136924 204.103134 
L 276.282817 203.923513 
L 279.552588 199.781209 
L 280.135058 199.026911 
L 280.244547 198.885308 
L 280.530817 198.514495 
L 280.703186 198.300162 
L 281.27159 197.576168 
L 281.705408 197.02353 
" clip-path="url(#p582b9e6ff8)" style="fill: #ffffff; stroke: #000000"/>
   </g>
   <g id="text_1">
    <!-- 1 -->
    <g transform="translate(270.112852 290.926023) scale(0.13 -0.13)">
     <defs>
      <path id="DejaVuSans-31" d="M 794 531 
L 1825 531 
L 1825 4091 
L 703 3866 
L 703 4441 
L 1819 4666 
L 2450 4666 
L 2450 531 
L 3481 531 
L 3481 0 
L 794 0 
L 794 531 
z
" transform="scale(0.015625)"/>
     </defs>
     <use xlink:href="#DejaVuSans-31"/>
    </g>
   </g>
   <g id="text_2">
    <!-- 2 -->
    <g transform="translate(191.523283 245.538) scale(0.13 -0.13)">
     <defs>
      <path id="DejaVuSans-32" d="M 1228 531 
L 3431 531 
L 3431 0 
L 469 0 
L 469 531 
Q 828 903 1448 1529 
Q 2069 2156 2228 2338 
Q 2531 2678 2651 2914 
Q 2772 3150 2772 3378 
Q 2772 3750 2511 3984 
Q 2250 4219 1831 4219 
Q 1534 4219 1204 4116 
Q 875 4013 500 3803 
L 500 4441 
Q 881 4594 1212 4672 
Q 1544 4750 1819 4750 
Q 2544 4750 2975 4387 
Q 3406 4025 3406 3419 
Q 3406 3131 3298 2873 
Q 3191 2616 2906 2266 
Q 2828 2175 2409 1742 
Q 1991 1309 1228 531 
z
" transform="scale(0.015625)"/>
     </defs>
     <use xlink:href="#DejaVuSans-32"/>
    </g>
   </g>
   <g id="text_3">
    <!-- 3 -->
    <g transform="translate(354.533457 254.566058) scale(0.13 -0.13)">
     <defs>
      <path id="DejaVuSans-33" d="M 2597 2516 
Q 3050 2419 3304 2112 
Q 3559 1806 3559 1356 
Q 3559 666 3084 287 
Q 2609 -91 1734 -91 
Q 1441 -91 1130 -33 
Q 819 25 488 141 
L 488 750 
Q 750 597 1062 519 
Q 1375 441 1716 441 
Q 2309 441 2620 675 
Q 2931 909 2931 1356 
Q 2931 1769 2642 2001 
Q 2353 2234 1838 2234 
L 1294 2234 
L 1294 2753 
L 1863 2753 
Q 2328 2753 2575 2939 
Q 2822 3125 2822 3475 
Q 2822 3834 2567 4026 
Q 2313 4219 1838 4219 
Q 1578 4219 1281 4162 
Q 984 4106 628 3988 
L 628 4550 
Q 988 4650 1302 4700 
Q 1616 4750 1894 4750 
Q 2613 4750 3031 4423 
Q 3450 4097 3450 3541 
Q 3450 3153 3228 2886 
Q 3006 2619 2597 2516 
z
" transform="scale(0.015625)"/>
     </defs>
     <use xlink:href="#DejaVuSans-33"/>
    </g>
   </g>
   <g id="text_4">
    <!-- 4 -->
    <g transform="translate(317.430488 182.703337) scale(0.13 -0.13)">
     <defs>
      <path id="DejaVuSans-34" d="M 2419 4116 
L 825 1625 
L 2419 1625 
L 2419 4116 
z
M 2253 4666 
L 3047 4666 
L 3047 1625 
L 3713 1625 
L 3713 1100 
L 3047 1100 
L 3047 0 
L 2419 0 
L 2419 1100 
L 313 1100 
L 313 1709 
L 2253 4666 
z
" transform="scale(0.015625)"/>
     </defs>
     <use xlink:href="#DejaVuSans-34"/>
    </g>
   </g>
   <g id="text_5">
    <!-- 5 -->
    <g transform="translate(310.957612 274.413262) scale(0.13 -0.13)">
     <defs>
      <path id="DejaVuSans-35" d="M 691 4666 
L 3169 4666 
L 3169 4134 
L 1269 4134 
L 1269 2991 
Q 1406 3038 1543 3061 
Q 1681 3084 1819 3084 
Q 2600 3084 3056 2656 
Q 3513 2228 3513 1497 
Q 3513 744 3044 326 
Q 2575 -91 1722 -91 
Q 1428 -91 1123 -41 
Q 819 9 494 109 
L 494 744 
Q 775 591 1075 516 
Q 1375 441 1709 441 
Q 2250 441 2565 725 
Q 2881 1009 2881 1497 
Q 2881 1984 2565 2268 
Q 2250 2553 1709 2553 
Q 1456 2553 1204 2497 
Q 953 2441 691 2322 
L 691 4666 
z
" transform="scale(0.015625)"/>
     </defs>
     <use xlink:href="#DejaVuSans-35"/>
    </g>
   </g>
   <g id="text_6">
    <!-- 6 -->
    <g transform="translate(177.081122 174.435371) scale(0.13 -0.13)">
     <defs>
      <path id="DejaVuSans-36" d="M 2113 2584 
Q 1688 2584 1439 2293 
Q 1191 2003 1191 1497 
Q 1191 994 1439 701 
Q 1688 409 2113 409 
Q 2538 409 2786 701 
Q 3034 994 3034 1497 
Q 3034 2003 2786 2293 
Q 2538 2584 2113 2584 
z
M 3366 4563 
L 3366 3988 
Q 3128 4100 2886 4159 
Q 2644 4219 2406 4219 
Q 1781 4219 1451 3797 
Q 1122 3375 1075 2522 
Q 1259 2794 1537 2939 
Q 1816 3084 2150 3084 
Q 2853 3084 3261 2657 
Q 3669 2231 3669 1497 
Q 3669 778 3244 343 
Q 2819 -91 2113 -91 
Q 1303 -91 875 529 
Q 447 1150 447 2328 
Q 447 3434 972 4092 
Q 1497 4750 2381 4750 
Q 2619 4750 2861 4703 
Q 3103 4656 3366 4563 
z
" transform="scale(0.015625)"/>
     </defs>
     <use xlink:href="#DejaVuSans-36"/>
    </g>
   </g>
  </g>
 </g>
 <defs>
  <clipPath id="p582b9e6ff8">
   <rect x="10.8" y="103.512745" width="410.4" height="224.97451"/>
  </clipPath>
 </defs>
</svg>
