<?xml version="1.0" encoding="utf-8" standalone="no"?>
<!DOCTYPE svg PUBLIC "-//W3C//DTD SVG 1.1//EN"
  "http://www.w3.org/Graphics/SVG/1.1/DTD/svg11.dtd">
<svg xmlns:xlink="http://www.w3.org/1999/xlink" width="432pt" height="432pt" viewBox="0 0 432 432" xmlns="http://www.w3.org/2000/svg" version="1.1">
 <metadata>
  <rdf:RDF xmlns:dc="http://purl.org/dc/elements/1.1/" xmlns:cc="http://creativecommons.org/ns#" xmlns:rdf="http://www.w3.org/1999/02/22-rdf-syntax-ns#">
   <cc:Work>
    <dc:type rdf:resource="http://purl.org/dc/dcmitype/StillImage"/>
    <dc:date>2025-04-20T13:46:46.991343</dc:date>
    <dc:format>image/svg+xml</dc:format>
    <dc:creator>
     <cc:Agent>
      <dc:title>Matplotlib v3.10.1, https://matplotlib.org/</dc:title>
     </cc:Agent>
    </dc:creator>
   </cc:Work>
  </rdf:RDF>
 </metadata>
 <defs>
  <style type="text/css">*{stroke-linejoin: round; stroke-linecap: butt}</style>
 </defs>
 <g id="figure_1">
  <g id="patch_1">
   <path d="M 0 432 
L 432 432 
L 432 0 
L 0 0 
z
" style="fill: #ffffff"/>
  </g>
  <g id="axes_1">
   <g id="PatchCollection_1">
    <path d="M 183.165698 172.879477 
L 183.183403 172.65878 
L 182.626718 172.340943 
L 182.096633 172.3585 
L 181.495809 172.393943 
L 181.107118 172.65878 
L 180.824411 172.367361 
L 180.285432 172.45564 
L 179.406183 172.13485 
L 178.421197 171.414015 
L 177.723118 171.248451 
L 177.515349 171.21104 
L 176.829129 171.119807 
L 175.66355 170.482657 
L 175.562836 170.440815 
L 175.048479 170.147427 
L 174.789077 169.936247 
L 174.270191 169.979566 
L 173.938651 169.907532 
L 173.832996 169.513887 
L 174.174089 168.558572 
L 174.178865 168.208082 
L 173.905052 167.992144 
L 173.24683 167.867273 
L 173.071919 167.910264 
L 172.933242 167.944394 
L 172.655394 168.012654 
L 171.38729 167.906654 
L 169.643368 166.339294 
L 169.142846 165.286184 
L 168.770049 165.198233 
L 168.621572 165.280112 
L 168.339689 165.269611 
L 168.00889 165.318017 
L 167.689867 165.280441 
L 166.646001 165.034638 
L 166.119127 164.593736 
L 165.443447 164.447371 
L 165.317781 164.112961 
L 164.585856 163.595431 
L 164.5138 163.124993 
L 164.31929 162.805515 
L 164.060217 162.700171 
L 164.02423 162.5351 
L 163.569165 162.482756 
L 163.140782 162.479967 
L 162.382011 162.353291 
L 161.234055 162.220217 
L 159.08382 161.029109 
L 157.151729 160.91556 
L 156.502154 160.532581 
L 156.015713 160.245921 
L 154.307285 159.543464 
L 154.436491 158.471976 
L 153.214009 157.699782 
L 153.356062 157.077892 
L 153.249419 156.924307 
L 152.83347 156.927424 
L 152.984171 156.396603 
L 152.854717 156.132094 
L 152.552822 156.044636 
L 152.409204 155.5317 
L 152.467508 155.323801 
L 152.313432 155.103432 
L 152.088617 155.086696 
L 151.926223 155.194829 
L 151.588259 155.866437 
L 151.676703 155.921899 
L 151.633634 156.045456 
L 151.522132 156.00788 
L 151.490098 156.085165 
L 151.624823 156.142596 
L 151.304564 156.931362 
L 151.135583 156.862938 
L 151.016422 157.090527 
L 152.765614 158.113938 
L 153.758835 158.794407 
L 153.622793 159.063017 
L 150.892568 157.412302 
L 150.332343 157.139097 
L 149.036816 156.784504 
L 148.972007 156.690811 
L 149.04711 156.540835 
L 149.213538 156.500142 
L 150.777196 156.896412 
L 150.848429 156.752672 
L 150.708187 156.67752 
L 151.139206 155.718267 
L 151.328446 155.73648 
L 151.48664 155.220755 
L 151.142335 154.958051 
L 150.662236 154.591809 
L 150.234346 154.612484 
L 149.722213 154.434121 
L 150.025507 153.85112 
L 150.247605 153.439097 
L 150.17209 153.173276 
L 149.95938 153.053 
L 145.83415 150.789255 
L 145.539091 150.83241 
L 145.24749 151.227039 
L 144.972442 150.748233 
L 144.50593 150.296338 
L 144.155779 150.294697 
L 145.382379 147.992227 
L 145.138706 147.805988 
L 142.115728 153.054477 
L 140.615644 152.487392 
L 140.471614 152.421429 
L 139.481193 151.625607 
L 139.263625 151.289064 
L 139.175264 150.551329 
L 139.179793 149.658859 
L 139.175346 149.119505 
L 139.163817 148.76721 
L 139.181769 148.558327 
L 139.166864 148.137936 
L 139.0034 147.318485 
L 138.704305 146.753862 
L 138.262581 146.09374 
L 137.718578 145.20127 
L 137.322476 144.374271 
L 137.53008 144.133227 
L 138.115422 143.426832 
L 138.64979 142.736846 
L 137.717261 141.869646 
L 137.094696 142.392099 
L 137.035734 142.338607 
L 137.669416 141.789572 
L 137.590854 141.703918 
L 136.144215 143.033352 
L 136.388053 143.311151 
L 135.986351 143.71218 
L 135.816298 143.525777 
L 135.585636 143.72744 
L 134.376 144.784653 
L 134.422116 145.153028 
L 133.676768 145.799531 
L 133.133754 146.270461 
L 132.316432 146.979317 
L 131.783053 146.502152 
L 131.904683 146.388604 
L 134.500349 143.989159 
L 134.445586 143.943214 
L 134.542182 143.848536 
L 134.447645 143.710211 
L 134.583193 143.587145 
L 135.727772 142.548146 
L 134.757115 141.601856 
L 135.91273 140.14985 
L 135.973586 140.049592 
L 136.546329 139.107076 
L 137.533785 137.485404 
L 138.14655 135.924115 
L 139.331152 132.938715 
L 139.827062 130.861373 
L 140.172849 129.412812 
L 138.105211 127.441306 
L 137.942652 127.229634 
L 136.225083 127.921097 
L 134.238888 128.690337 
L 132.18212 129.473688 
L 131.524721 129.240685 
L 129.404297 130.384044 
L 128.878411 130.684815 
L 128.071136 131.590248 
L 126.82996 130.933735 
L 125.182964 129.57493 
L 123.915024 129.776757 
L 122.664955 128.965675 
L 120.724711 128.198404 
L 119.135113 129.178168 
L 119.320071 130.074247 
L 118.388777 130.323659 
L 116.49292 128.849337 
L 116.336456 127.585867 
L 116.138816 127.356145 
L 115.298848 127.323327 
L 114.055366 126.847475 
L 113.857727 126.634162 
L 113.791847 126.355214 
L 114.088306 126.223944 
L 114.104776 125.797318 
L 113.684792 125.780909 
L 113.528328 126.059857 
L 112.5566 126.010631 
L 112.441311 125.321465 
L 111.749572 125.140969 
L 111.831922 124.862021 
L 111.864862 124.025177 
L 111.708397 122.761707 
L 110.85196 123.139107 
L 110.884899 122.302263 
L 109.213199 122.023315 
L 107.961482 121.974089 
L 105.458048 121.44901 
L 102.92991 121.563871 
L 102.971085 120.727027 
L 100.8794 120.398853 
L 96.267812 120.234766 
L 95.411374 120.612166 
L 94.966685 121.022384 
L 94.554936 121.005975 
L 93.311454 120.530123 
L 92.891471 120.513714 
L 91.195065 120.858297 
L 89.523364 120.792662 
L 88.279882 120.31681 
L 85.759979 120.218357 
L 84.483557 120.595758 
L 84.269448 120.792662 
L 84.022398 121.613097 
L 83.750644 121.465419 
L 83.207135 120.956749 
L 81.963653 120.69421 
L 81.893327 122.163774 
L 81.397252 122.302263 
L 81.438426 121.465419 
L 81.010208 121.662324 
L 80.590224 121.645915 
L 79.346742 121.170062 
L 78.926758 121.153654 
L 77.650336 121.514645 
L 77.230352 121.498236 
L 76.89453 121.384032 
L 78.097084 117.400654 
L 77.979324 117.31418 
L 77.962689 116.292902 
L 59.95666 116.381017 
L 59.983753 119.492108 
L 49.824425 119.531653 
L 49.802026 119.531489 
L 49.655608 119.297008 
L 49.699088 119.00641 
L 49.821213 118.42226 
L 50.01177 117.530939 
L 50.253632 116.314726 
L 50.367686 116.297169 
L 50.393626 116.274196 
L 50.407049 116.255655 
L 50.445424 116.082707 
L 50.450695 116.036598 
L 50.434472 116.003125 
L 50.406308 115.980973 
L 50.371474 115.963415 
L 49.642514 115.71105 
L 49.606033 115.702353 
L 49.590304 115.699235 
L 48.942953 115.571904 
L 48.833098 115.57699 
L 48.773477 115.542204 
L 48.457006 115.533507 
L 48.411714 115.543353 
L 48.384127 115.558285 
L 48.361563 115.578631 
L 48.325576 115.751743 
L 48.330188 115.809502 
L 48.352752 115.844452 
L 47.984072 117.034412 
L 47.927333 117.232137 
L 47.822254 117.490246 
L 47.812455 117.798565 
L 47.645367 119.008379 
L 47.367025 119.554953 
L 47.256182 119.701155 
L 46.9393 119.889691 
L 46.502187 120.153379 
L 46.307595 120.318614 
L 45.966831 120.496321 
L 44.345528 121.407496 
L 43.473115 121.795398 
L 40.439102 123.273659 
L 36.816699 125.081734 
L 34.794682 126.080532 
L 32.770524 127.180243 
L 31.075107 127.835935 
L 29.454545 128.353138 
L 29.769863 130.929633 
L 29.786662 131.067138 
L 32.200087 130.906497 
L 34.810576 131.518213 
L 36.335529 132.000629 
L 39.753787 133.081799 
L 40.811323 136.639207 
L 37.724523 146.116548 
L 36.660152 150.046433 
L 38.826363 152.205655 
L 39.622768 152.02401 
L 42.467706 152.906471 
L 42.816211 152.996719 
L 42.9399 153.102719 
L 44.95434 153.755785 
L 47.286816 154.532409 
L 53.01202 155.326591 
L 56.192699 156.385609 
L 57.783038 156.827003 
L 67.484008 160.516173 
L 70.152223 161.893027 
L 71.442233 162.528536 
L 71.614097 162.624527 
L 73.085523 163.446604 
L 73.078276 163.493861 
L 74.913688 164.42768 
L 75.205783 164.576179 
L 77.12865 165.851792 
L 77.790166 166.297452 
L 78.113224 166.620212 
L 78.559313 167.235046 
L 78.640675 167.60014 
L 78.835761 168.024141 
L 78.745918 168.65965 
L 78.762635 168.793709 
L 80.087561 169.302051 
L 80.573836 168.1582 
L 85.601044 171.168377 
L 86.643592 171.539214 
L 87.003872 171.779109 
L 87.111833 172.051165 
L 87.341589 172.166026 
L 87.938213 172.30468 
L 88.713207 172.578541 
L 89.128744 172.720641 
L 90.838737 174.882652 
L 92.331821 179.24704 
L 94.904758 186.768791 
L 94.505691 187.768081 
L 84.963245 194.93885 
L 84.471946 198.151019 
L 86.175763 219.815271 
L 92.832096 224.759706 
L 99.668446 223.916955 
L 101.636277 225.188466 
L 103.038776 222.558314 
L 113.933242 223.703806 
L 113.935218 228.472504 
L 125.695427 227.791379 
L 131.417502 222.927346 
L 144.174884 233.419565 
L 150.185431 220.985539 
L 154.251452 212.145677 
L 161.207456 197.115465 
L 178.3526 200.151076 
L 178.871568 200.242144 
L 179.459628 199.080736 
L 179.780298 198.438335 
L 179.857295 198.272115 
L 178.649388 197.680253 
L 177.733741 197.140078 
L 177.639451 196.355578 
L 179.217767 192.938629 
L 180.621254 187.587257 
L 181.06479 187.006553 
L 181.484445 186.039588 
L 181.718318 185.503844 
L 182.1957 184.410368 
L 182.619719 183.377275 
L 183.372725 182.153514 
L 183.909563 180.854109 
L 186.659635 176.332361 
L 185.609675 174.865587 
L 185.36452 174.233031 
L 185.376213 174.015616 
L 185.32178 173.732237 
L 185.080495 173.55207 
L 184.860951 173.459197 
L 184.14286 173.399633 
L 183.165698 172.879477 
" clip-path="url(#p6408dda078)" style="fill: #ffffff; stroke: #000000"/>
    <path d="M 240.482634 253.235704 
L 240.467975 253.299534 
L 239.162813 259.069984 
L 239.210659 259.08869 
L 239.338383 259.131189 
L 245.114892 261.053305 
L 245.768749 257.24829 
L 249.933507 258.705547 
L 257.809112 261.461225 
L 258.017704 263.189226 
L 274.583846 267.91838 
L 273.608825 271.084768 
L 273.552662 271.272647 
L 273.394221 271.784599 
L 273.539733 271.828246 
L 272.558288 275.010387 
L 271.996827 276.797295 
L 271.652194 277.983152 
L 271.61423 278.108679 
L 271.451589 278.646064 
L 270.900587 280.466774 
L 270.46051 281.921406 
L 270.231166 282.679324 
L 270.034761 283.328288 
L 269.617413 284.70744 
L 269.501546 285.09042 
L 269.316671 285.701644 
L 269.122573 286.34306 
L 268.879064 287.147743 
L 268.64725 287.914194 
L 268.209231 289.361934 
L 267.972146 290.15628 
L 267.649582 291.240403 
L 268.070389 291.492769 
L 268.341567 291.638642 
L 268.624521 291.777788 
L 268.832043 291.809621 
L 268.96092 291.777788 
L 269.106597 291.699026 
L 269.233827 291.551512 
L 269.658999 290.875966 
L 269.797923 290.723365 
L 271.332923 290.91748 
L 273.873744 294.129648 
L 301.375938 285.336058 
L 301.883378 283.844014 
L 302.089746 283.88159 
L 302.358618 283.819073 
L 302.646266 283.969377 
L 302.971465 284.075705 
L 303.365427 284.194668 
L 303.809375 284.26982 
L 304.078247 284.332501 
L 304.572263 284.463935 
L 304.984918 284.582898 
L 305.316376 284.63918 
L 305.741548 284.682991 
L 306.166802 284.820824 
L 306.41064 284.889741 
L 306.678524 285.089927 
L 306.871716 285.069252 
L 307.269383 285.078113 
L 307.386402 285.113556 
L 307.446024 285.165243 
L 307.577866 285.360671 
L 307.713249 285.405959 
L 308.07287 285.427618 
L 308.559393 285.571851 
L 309.115254 285.832257 
L 309.41896 285.877381 
L 309.960245 286.006846 
L 310.207624 286.036053 
L 310.538094 286.00422 
L 310.758626 286.054431 
L 310.947619 286.119245 
L 311.119565 286.130239 
L 311.280477 286.120394 
L 311.409766 286.160595 
L 311.581548 286.284153 
L 311.704743 286.329441 
L 311.825303 286.3342 
L 312.052177 286.312212 
L 312.295932 286.356187 
L 312.392281 286.329277 
L 312.469114 286.269385 
L 312.575098 286.158462 
L 312.666589 286.143366 
L 312.766561 286.201945 
L 312.851876 286.323042 
L 313.020034 286.529627 
L 313.120089 286.594442 
L 313.33461 286.659256 
L 313.491569 286.659912 
L 313.56486 286.612819 
L 313.656927 286.411485 
L 313.849296 286.180286 
L 313.963927 286.122035 
L 313.99522 286.118425 
L 313.991844 286.07527 
L 313.954704 284.730084 
L 314.439085 284.393706 
L 314.550669 283.758689 
L 315.77974 281.404696 
L 318.01529 279.61106 
L 318.127038 279.200186 
L 317.493192 278.341026 
L 317.456135 277.929824 
L 317.419077 277.593609 
L 317.418995 277.554229 
L 316.916249 277.481702 
L 316.64993 277.439039 
L 316.584792 277.40212 
L 316.536123 277.33747 
L 316.526735 277.271342 
L 316.590144 276.969094 
L 316.579439 276.951373 
L 316.53497 276.949075 
L 316.315672 277.044082 
L 316.239169 277.059014 
L 316.178642 277.053271 
L 316.138538 276.993543 
L 316.051165 276.767759 
L 316.185395 276.486842 
L 316.370106 276.04955 
L 315.538208 275.538091 
L 313.57186 274.36815 
L 313.362691 274.261657 
L 313.083937 274.171081 
L 312.852287 274.134326 
L 311.526044 274.064097 
L 311.2925 274.076075 
L 311.062909 274.12005 
L 310.788272 274.219159 
L 309.038586 275.09522 
L 308.400458 275.405508 
L 306.620385 270.424974 
L 307.30817 270.253831 
L 311.078638 269.470643 
L 312.339413 269.786019 
L 316.269062 253.617699 
L 323.653203 255.807933 
L 323.679802 255.696846 
L 323.810574 255.076433 
L 323.891935 254.841953 
L 323.904947 254.72299 
L 323.934757 254.600088 
L 324.143349 253.738959 
L 324.256992 253.280664 
L 324.327978 252.994661 
L 324.381834 252.777573 
L 324.602449 251.888221 
L 324.678129 251.582855 
L 324.719963 251.415322 
L 324.879227 250.777024 
L 324.994434 250.315283 
L 325.02268 250.20075 
L 325.097619 249.897517 
L 325.138629 249.731625 
L 325.171898 249.597238 
L 325.290894 249.115642 
L 325.315187 249.006688 
L 325.403466 248.611239 
L 325.417712 248.547409 
L 325.421747 248.529359 
L 325.549554 247.956695 
L 325.679749 247.304121 
L 325.699349 247.224375 
L 325.748264 247.10574 
L 325.777828 247.035839 
L 324.463525 246.47023 
L 324.487242 246.412964 
L 324.539452 246.257574 
L 324.55024 246.208347 
L 325.243048 243.048687 
L 325.882577 240.325826 
L 325.903741 240.235086 
L 326.098004 239.35804 
L 326.245492 238.705138 
L 326.358065 238.206642 
L 326.91829 235.785537 
L 327.12507 234.925721 
L 327.089495 234.911773 
L 326.862457 234.823166 
L 326.813706 234.801507 
L 326.487765 234.564073 
L 326.473684 234.554392 
L 326.091169 234.157957 
L 326.022654 234.135641 
L 325.710219 233.988455 
L 325.595835 233.651256 
L 325.35175 233.446312 
L 325.112442 233.346875 
L 324.713786 233.274676 
L 324.485595 233.179998 
L 324.423997 233.154401 
L 324.367423 232.878734 
L 323.56163 232.772734 
L 322.856552 232.82836 
L 322.361547 232.619313 
L 321.914799 232.680681 
L 321.536814 232.198101 
L 321.513426 232.168237 
L 321.322951 232.137061 
L 321.158499 231.408186 
L 320.854546 231.167799 
L 320.345624 231.075746 
L 320.218394 230.863745 
L 320.331542 230.496026 
L 320.190148 230.057749 
L 319.960474 229.949124 
L 319.857949 229.944693 
L 319.631734 229.661807 
L 319.794292 229.294252 
L 319.879113 229.039753 
L 320.034671 228.89831 
L 320.020507 228.693201 
L 319.744882 228.770979 
L 319.462093 228.79231 
L 319.186468 228.813477 
L 319.052815 228.812985 
L 318.889597 228.806421 
L 318.409004 228.9477 
L 317.893 228.976088 
L 317.242766 228.834644 
L 316.946801 228.473817 
L 316.381305 227.971054 
L 316.316414 227.155377 
L 316.033954 227.351297 
L 315.558631 227.059222 
L 315.217785 226.322307 
L 314.782402 226.324769 
L 314.324043 225.948517 
L 314.198953 225.591135 
L 314.082511 225.016831 
L 314.278833 224.671263 
L 314.119568 224.559848 
L 313.723301 225.106258 
L 313.479628 225.065072 
L 313.288329 224.805651 
L 313.170158 224.60169 
L 312.94526 224.550823 
L 312.630437 223.929918 
L 311.70112 223.830153 
L 311.206527 223.290142 
L 311.099966 223.173805 
L 310.206965 221.923297 
L 310.22607 220.836713 
L 308.321567 219.111993 
L 307.278936 219.629524 
L 305.847861 218.580679 
L 305.057468 218.049365 
L 304.500536 217.862963 
L 304.230511 217.587296 
L 303.868337 217.21728 
L 303.801387 216.778347 
L 303.681979 215.995159 
L 303.587113 215.825986 
L 302.814754 214.448147 
L 301.856943 214.179372 
L 300.931579 213.314633 
L 301.238908 212.585266 
L 300.493313 211.983066 
L 299.599406 211.867713 
L 299.261113 211.824066 
L 298.648678 210.850866 
L 297.97901 210.693178 
L 297.073821 211.211857 
L 295.515433 211.131126 
L 294.462097 211.076485 
L 294.138792 210.786379 
L 294.179884 210.387648 
L 294.016091 210.345478 
L 293.755289 210.720088 
L 293.583919 210.656915 
L 293.327482 210.562401 
L 293.708267 208.710186 
L 293.52858 207.67332 
L 292.673707 208.029389 
L 292.327673 208.609436 
L 292.28691 208.924976 
L 291.900195 208.914802 
L 291.839092 208.548396 
L 292.52103 207.775054 
L 292.266569 207.286566 
L 291.647958 206.816621 
L 291.248808 207.195006 
L 291.1532 207.399622 
L 290.985289 207.567483 
L 290.81746 207.536471 
L 290.618668 207.373204 
L 290.521495 207.21404 
L 290.486085 206.927052 
L 290.773238 206.374899 
L 290.667254 206.052468 
L 290.327067 205.880176 
L 290.017432 205.994381 
L 289.742631 206.747376 
L 289.355834 206.920324 
L 289.18364 206.767231 
L 289.081115 206.675998 
L 289.518722 206.492877 
L 289.355834 205.719535 
L 288.918227 205.485547 
L 288.470409 205.729708 
L 288.663848 205.974034 
L 288.36566 206.118759 
L 288.052072 206.087746 
L 287.557232 205.875746 
L 287.124319 205.434187 
L 286.660525 205.385618 
L 286.095029 205.478327 
L 285.644411 205.354605 
L 285.017153 204.583888 
L 284.628379 204.369755 
L 284.186655 204.19533 
L 283.859726 204.241603 
L 283.713967 204.321185 
L 283.493105 204.35433 
L 283.320829 204.254894 
L 283.166176 204.082602 
L 283.077815 203.866171 
L 283.051298 203.645474 
L 283.148471 203.393601 
L 283.163953 203.000612 
L 283.022641 202.795175 
L 282.625056 202.587605 
L 282.183249 202.775321 
L 281.988904 203.097752 
L 281.834251 203.594607 
L 281.75256 203.656468 
L 281.655387 203.570322 
L 281.7743 203.217371 
L 281.616518 202.927429 
L 281.59486 202.9166 
L 281.443501 202.840955 
L 280.960108 203.059683 
L 280.985554 203.232631 
L 280.607239 203.655484 
L 280.274134 203.176678 
L 280.243912 203.104643 
L 280.414458 202.786314 
L 280.440975 202.376917 
L 280.359696 199.874425 
L 280.321403 198.632943 
L 280.331038 198.204675 
L 280.334002 198.102285 
L 280.471362 198.113771 
L 280.448551 198.034189 
L 280.304521 197.996285 
L 280.26664 198.045511 
L 280.262852 198.587326 
L 280.088518 198.579778 
L 280.050555 197.863538 
L 279.990357 197.789863 
L 279.912619 197.704046 
L 279.875479 197.726033 
L 279.976934 197.84877 
L 280.062166 199.919057 
L 280.044461 201.025168 
L 280.058954 201.544668 
L 279.508775 201.286066 
L 279.1774 201.458686 
L 278.831942 201.231918 
L 278.537377 201.250788 
L 278.384783 201.447692 
L 278.201061 201.362531 
L 277.952611 201.388949 
L 277.61366 201.464265 
L 277.542674 201.305265 
L 277.406797 201.199921 
L 277.074351 201.398302 
L 277.064798 201.69169 
L 277.014647 201.728609 
L 276.950332 201.522352 
L 276.784397 201.28623 
L 276.393977 201.26572 
L 276.136798 201.302967 
L 275.941547 201.403717 
L 275.680416 201.462952 
L 275.527822 201.573711 
L 275.425708 201.859387 
L 275.488459 202.207251 
L 275.32343 201.989179 
L 275.224033 202.026427 
L 275.174953 202.13653 
L 275.206081 202.25418 
L 275.218516 202.335403 
L 275.095979 202.337044 
L 274.692218 202.360508 
L 274.740228 202.226285 
L 274.503473 202.171644 
L 274.091971 202.179356 
L 274.050961 202.096164 
L 274.13891 201.951275 
L 274.080277 201.766185 
L 274.00221 201.75355 
L 273.883708 201.677906 
L 273.671081 201.620804 
L 273.503582 201.634587 
L 273.432761 201.557138 
L 273.281402 201.507092 
L 273.1769 201.572891 
L 273.030729 201.681024 
L 272.907369 201.861684 
L 272.985848 202.150477 
L 273.120737 202.255165 
L 273.040611 202.279942 
L 272.810279 202.308493 
L 272.592793 202.272886 
L 272.63438 201.984585 
L 272.689224 201.812294 
L 272.692189 201.518742 
L 272.620215 201.290497 
L 272.53556 201.139208 
L 272.232842 201.065205 
L 272.155104 200.968558 
L 272.094824 200.970855 
L 272.088812 201.080465 
L 272.047061 201.230113 
L 271.957711 201.294271 
L 272.018321 201.669374 
L 272.015521 201.978186 
L 271.939677 201.946189 
L 271.810882 201.946681 
L 271.695015 201.793588 
L 271.671793 201.410116 
L 271.72812 200.920152 
L 271.925924 200.922121 
L 272.018321 200.812675 
L 272.012556 200.711598 
L 271.916125 200.630374 
L 271.362734 200.465303 
L 271.389415 200.254287 
L 271.343711 200.159116 
L 271.211046 200.157968 
L 271.103909 200.23755 
L 271.120626 200.791344 
L 270.640115 201.103766 
L 269.927707 201.382878 
L 269.260344 201.558615 
L 268.250818 201.824764 
L 267.505635 201.914848 
L 267.243515 201.862996 
L 266.594187 201.826077 
L 264.761493 201.50102 
L 264.653367 201.448348 
L 264.671402 201.275565 
L 264.594734 201.250952 
L 264.480845 201.326924 
L 264.213866 201.449333 
L 263.86528 201.481658 
L 263.628607 201.462624 
L 263.231928 201.430627 
L 262.478756 201.212391 
L 261.996434 200.916706 
L 261.772113 200.90522 
L 261.371646 200.654167 
L 260.905875 200.695189 
L 260.515867 200.564575 
L 260.437223 200.541767 
L 260.033956 200.683867 
L 258.806532 200.874536 
L 258.307081 200.652526 
L 257.038894 200.661387 
L 256.630357 200.638579 
L 256.480892 200.571959 
L 256.345509 200.546198 
L 256.218937 200.559325 
L 256.074249 200.492049 
L 255.992475 200.387197 
L 255.830329 200.384736 
L 255.428709 200.386049 
L 255.104086 200.341909 
L 254.661703 200.210476 
L 254.392007 200.089543 
L 254.375949 200.082324 
L 254.394642 199.446814 
L 254.001834 198.922392 
L 254.07916 198.381889 
L 253.699445 198.226499 
L 253.605073 198.124108 
L 253.261674 198.003669 
L 252.492115 197.83269 
L 252.347262 198.129195 
L 251.98344 198.091127 
L 251.878856 198.190072 
L 251.432932 198.147901 
L 250.864719 198.169561 
L 248.355191 197.747036 
L 247.895103 197.552757 
L 247.795954 197.510915 
L 247.189118 197.058855 
L 246.813109 196.413665 
L 246.860625 196.212658 
L 247.409404 195.640815 
L 247.923513 194.555215 
L 248.34358 194.165672 
L 248.517832 193.96286 
L 248.650168 194.02587 
L 249.016378 193.689327 
L 249.187418 193.477163 
L 249.059858 193.365091 
L 248.65025 193.407918 
L 248.812562 192.777003 
L 248.859995 192.738935 
L 248.96038 192.391234 
L 248.811903 192.346931 
L 248.709378 192.68774 
L 248.752364 192.760594 
L 248.532737 193.393478 
L 247.566527 193.105998 
L 247.451649 193.092707 
L 247.193812 193.022313 
L 247.252857 192.831972 
L 247.231364 192.75239 
L 247.173307 192.697257 
L 246.64421 192.566479 
L 246.568118 192.672972 
L 246.47811 193.025595 
L 246.639351 193.810588 
L 246.319834 194.608543 
L 245.528205 194.946398 
L 244.973826 195.115244 
L 243.974594 195.282941 
L 243.277174 195.281628 
L 242.519226 195.437019 
L 242.014669 195.445879 
L 241.214559 195.40978 
L 240.353097 194.98299 
L 238.310987 194.918011 
L 237.067505 194.458567 
L 236.090837 194.153858 
L 235.028278 193.825191 
L 234.49671 193.633209 
L 233.675765 193.429413 
L 233.440327 193.339658 
L 233.120562 193.209044 
L 233.245322 193.040691 
L 233.253146 192.800304 
L 233.205218 192.66887 
L 232.737636 192.512331 
L 232.632805 192.362847 
L 232.643016 192.152652 
L 232.71466 191.493678 
L 232.409472 191.381114 
L 232.246996 191.196845 
L 231.966265 191.031609 
L 231.911997 190.92889 
L 231.863493 190.85177 
L 231.681912 190.736909 
L 231.674335 190.671438 
L 231.688417 190.532128 
L 231.613397 190.353929 
L 231.514742 190.265651 
L 231.408016 190.217081 
L 231.305408 190.220198 
L 231.266045 190.21101 
L 231.241834 190.237263 
L 231.224623 190.285833 
L 231.19226 190.288295 
L 231.168955 190.360329 
L 231.158167 190.418252 
L 231.077546 190.466001 
L 231.019902 190.712952 
L 231.061653 190.754138 
L 231.093111 190.808451 
L 231.075982 190.928398 
L 231.064535 191.002566 
L 231.050206 191.056878 
L 231.004502 191.042603 
L 231.010267 190.971225 
L 230.981691 190.933977 
L 230.930305 190.962528 
L 230.918858 191.022584 
L 230.875954 191.122513 
L 230.875954 191.228185 
L 230.824568 191.222442 
L 230.778864 191.113981 
L 230.716031 191.025374 
L 230.547214 190.978117 
L 230.447488 190.922655 
L 230.247543 190.905426 
L 230.045786 190.898698 
L 230.043645 190.778751 
L 230.201839 190.37362 
L 230.841861 188.091989 
L 230.644222 187.862267 
L 230.454323 187.835193 
L 230.224238 187.845859 
L 229.531429 187.996655 
L 228.841914 188.407364 
L 228.287947 188.675319 
L 227.824977 188.864347 
L 227.695523 188.923911 
L 227.520365 189.004313 
L 227.530741 188.694189 
L 227.141803 188.363389 
L 226.794781 188.852369 
L 227.285997 189.115564 
L 227.25594 189.289989 
L 226.970598 189.217298 
L 226.71169 189.085372 
L 226.43343 189.022691 
L 226.308505 189.181363 
L 226.126018 188.960502 
L 225.985283 189.054688 
L 225.858958 188.854009 
L 226.08402 188.8504 
L 226.157805 188.609684 
L 226.008011 188.418851 
L 226.155664 188.405724 
L 226.205568 188.316788 
L 226.114407 188.260507 
L 226.114407 188.101998 
L 226.068785 187.924128 
L 225.977624 187.891639 
L 225.960084 187.771363 
L 225.86464 187.735264 
L 225.682482 187.735428 
L 225.563158 187.83306 
L 225.502383 188.041286 
L 225.57131 188.166321 
L 225.515395 188.288565 
L 225.535076 188.420656 
L 225.310755 188.442971 
L 225.127857 188.62839 
L 224.747977 188.569318 
L 224.603865 188.713879 
L 224.297441 188.918003 
L 223.904221 188.979864 
L 223.592774 188.845149 
L 223.570704 188.556027 
L 223.555305 188.136621 
L 222.989809 187.937911 
L 222.554673 187.834044 
L 221.907486 187.639765 
L 221.47902 187.494056 
L 221.233782 187.445486 
L 221.094693 187.401347 
L 221.123351 187.114358 
L 221.059365 186.973079 
L 220.975368 186.858383 
L 220.870537 186.802921 
L 220.789834 186.805382 
L 220.70592 186.911383 
L 220.599936 186.905968 
L 220.541714 186.690193 
L 220.478387 186.635388 
L 220.385662 186.641952 
L 220.255302 186.657376 
L 220.164799 186.628661 
L 220.069768 186.538249 
L 219.764991 186.418957 
L 219.57501 186.235836 
L 219.393923 186.048121 
L 219.018408 185.864835 
L 218.537238 185.472667 
L 218.415443 185.315308 
L 218.291671 185.030453 
L 218.213439 184.742808 
L 217.97586 184.608749 
L 217.700894 184.367049 
L 217.542947 184.326191 
L 217.383929 184.246773 
L 217.174102 184.114354 
L 217.096776 184.023778 
L 217.052554 183.884797 
L 217.053707 183.809645 
L 217.098999 183.638666 
L 216.953158 183.533814 
L 216.858208 183.365953 
L 216.795293 183.085693 
L 216.865949 182.839562 
L 216.88909 182.68171 
L 216.825104 182.487431 
L 216.789693 182.191582 
L 216.751071 181.591188 
L 216.832762 181.328484 
L 216.826174 181.198363 
L 216.672674 180.983081 
L 216.495952 180.874948 
L 215.524059 180.721526 
L 215.267128 180.560885 
L 214.722302 180.681817 
L 214.225321 180.63095 
L 214.079562 180.533811 
L 213.841159 180.480154 
L 213.644178 180.393188 
L 213.595427 180.341829 
L 213.411952 180.304745 
L 213.364107 180.296869 
L 213.366413 180.286039 
L 212.196634 180.093893 
L 211.445933 179.970664 
L 211.023314 179.901255 
L 210.987657 179.77097 
L 211.036325 179.049315 
L 210.830368 178.938064 
L 210.431713 179.105761 
L 210.160865 179.035039 
L 209.898004 179.045705 
L 209.221748 179.233585 
L 209.0792 179.293476 
L 208.776235 179.342867 
L 208.506046 179.361901 
L 208.296136 179.321699 
L 208.08812 179.21652 
L 208.029158 178.965959 
L 207.921774 178.762983 
L 207.488202 178.544747 
L 207.073818 178.413477 
L 206.372445 178.337505 
L 205.778785 178.366056 
L 205.403929 178.29435 
L 205.377248 178.284833 
L 205.214278 178.226582 
L 205.085894 178.14339 
L 204.199399 178.127145 
L 203.947244 178.132889 
L 203.735193 178.088913 
L 203.756604 177.982257 
L 203.851141 177.893321 
L 203.922456 177.731696 
L 203.937279 177.362828 
L 203.701182 176.994124 
L 203.322703 176.638384 
L 203.141039 176.649541 
L 203.013068 176.879099 
L 202.850427 176.835452 
L 202.785041 176.65151 
L 202.663246 176.507278 
L 202.31293 176.409974 
L 202.202334 176.426875 
L 202.024376 176.540916 
L 201.846418 176.70008 
L 201.569146 176.853666 
L 201.469833 177.063369 
L 201.537277 177.330995 
L 201.68526 177.570726 
L 201.797667 177.675578 
L 201.872605 177.767303 
L 201.885699 177.903987 
L 201.93445 178.016223 
L 202.183146 178.258579 
L 202.166759 178.344233 
L 202.090915 178.420697 
L 201.808537 178.368189 
L 201.588252 178.282864 
L 201.366401 178.162752 
L 201.312133 178.176043 
L 201.271699 178.204759 
L 201.0846 178.326347 
L 200.840351 178.436614 
L 200.716744 178.455812 
L 200.579878 178.446951 
L 200.351687 178.380168 
L 200.102908 178.249883 
L 199.936562 178.09121 
L 199.868706 177.965027 
L 199.849765 177.748268 
L 199.842436 177.558092 
L 199.80579 177.349701 
L 199.736287 177.250921 
L 199.819296 177.124902 
L 199.930221 177.14131 
L 200.029041 177.03531 
L 200.157095 176.790328 
L 200.212022 176.56717 
L 200.154706 176.394714 
L 200.036534 176.274931 
L 200.072933 176.172376 
L 200.325418 176.143005 
L 200.512022 176.080816 
L 200.603513 175.872425 
L 200.59256 175.609229 
L 200.431566 175.283845 
L 200.182705 175.049692 
L 199.752181 175.013593 
L 199.387701 174.681481 
L 198.704362 174.237954 
L 198.426267 174.161161 
L 198.118937 174.194143 
L 197.917674 174.530521 
L 197.740046 174.968469 
L 197.828572 175.432672 
L 197.737575 175.487149 
L 197.422423 175.352105 
L 197.126046 175.545892 
L 196.972793 175.798586 
L 196.709191 175.788905 
L 196.375922 175.699477 
L 196.124919 175.835505 
L 195.870953 176.112813 
L 195.771721 176.432454 
L 195.57227 176.495464 
L 195.452204 176.352708 
L 195.292116 176.175494 
L 195.126428 176.188457 
L 194.806088 176.318414 
L 194.354481 176.377977 
L 194.125714 176.277884 
L 193.935403 176.314476 
L 193.833372 176.275423 
L 193.67559 176.095091 
L 193.357308 175.996311 
L 192.969193 175.933137 
L 192.795518 175.786443 
L 192.673228 175.702267 
L 192.447919 175.845023 
L 192.279596 175.830419 
L 192.272267 175.728028 
L 192.297878 175.60365 
L 192.221045 175.541461 
L 192.122226 175.530632 
L 191.964855 175.585437 
L 191.75264 175.720645 
L 191.609928 175.815815 
L 191.502791 175.880958 
L 191.456016 175.801704 
L 191.406277 175.426929 
L 191.33035 175.368514 
L 191.198179 175.276297 
L 191.040232 175.175547 
L 190.785194 175.105974 
L 190.55445 174.983073 
L 190.464277 174.857382 
L 190.177453 174.642757 
L 189.885688 174.741045 
L 189.598452 174.49114 
L 189.649838 174.183969 
L 189.617557 174.017257 
L 189.549783 173.869742 
L 189.344238 173.836433 
L 189.120658 173.897801 
L 188.978275 173.903708 
L 188.884644 173.950473 
L 188.808717 173.995761 
L 188.737732 174.084696 
L 188.711462 174.085517 
L 188.663452 174.107176 
L 188.6413 174.117022 
L 188.63743 174.181016 
L 188.606548 174.227452 
L 188.482365 174.274217 
L 188.412121 174.206285 
L 188.341959 174.21974 
L 188.318489 174.320982 
L 188.341959 174.441094 
L 188.381157 174.836872 
L 188.333229 174.895451 
L 188.260185 174.942215 
L 188.183353 174.968469 
L 188.107179 174.975033 
L 188.057111 174.899061 
L 187.996666 174.788466 
L 187.881459 174.711837 
L 187.755875 174.698218 
L 187.548848 174.779769 
L 187.369984 174.919571 
L 187.342809 175.051169 
L 187.221013 175.102693 
L 187.214013 175.151919 
L 187.18585 175.186869 
L 187.1063 175.168163 
L 187.075831 175.184572 
L 187.059443 175.247746 
L 186.998339 175.319452 
L 186.846486 175.773645 
L 186.659635 176.332361 
L 183.909563 180.854109 
L 183.372725 182.153514 
L 182.619719 183.377275 
L 182.1957 184.410368 
L 181.718318 185.503844 
L 181.484445 186.039588 
L 181.06479 187.006553 
L 180.621254 187.587257 
L 179.217767 192.938629 
L 177.639451 196.355578 
L 177.733741 197.140078 
L 178.649388 197.680253 
L 179.857295 198.272115 
L 179.780298 198.438335 
L 179.459628 199.080736 
L 178.871568 200.242144 
L 178.3526 200.151076 
L 161.207456 197.115465 
L 154.251452 212.145677 
L 150.185431 220.985539 
L 144.174884 233.419565 
L 154.898227 245.181327 
L 155.226638 244.765694 
L 162.954013 237.992344 
L 163.320716 237.78904 
L 168.229011 233.398562 
L 174.226381 228.364043 
L 174.382022 228.336148 
L 174.475736 228.483498 
L 174.616637 228.385374 
L 176.739944 229.550392 
L 176.932231 229.6559 
L 177.200114 232.253891 
L 178.941318 233.170645 
L 180.243598 233.936111 
L 183.750875 232.899902 
L 183.717606 229.535789 
L 185.86463 230.136019 
L 187.004022 230.822395 
L 191.431393 233.15358 
L 197.585228 236.385439 
L 203.663878 239.579886 
L 202.620341 241.155286 
L 203.209225 242.445011 
L 204.116967 245.357556 
L 204.246256 245.355423 
L 204.465141 245.441076 
L 205.753751 246.414441 
L 205.858665 246.624472 
L 206.506016 250.458367 
L 206.69155 250.603584 
L 210.601765 253.05849 
L 210.73616 253.093277 
L 211.836518 252.863063 
L 212.181317 251.5758 
L 213.300039 250.409797 
L 214.295071 248.772372 
L 213.872946 244.787518 
L 213.969131 244.788502 
L 215.12911 244.799988 
L 215.347501 244.888103 
L 216.122578 245.200853 
L 216.353898 248.162789 
L 221.348907 256.116089 
L 220.625876 256.994611 
L 220.203751 258.428076 
L 219.84907 259.88681 
L 219.721016 260.539876 
L 219.111957 261.423321 
L 218.147641 261.284667 
L 217.975777 262.405054 
L 220.687391 262.915693 
L 221.590604 266.280626 
L 221.884098 269.862975 
L 223.214459 270.302236 
L 223.979571 270.554931 
L 224.238973 270.640748 
L 225.835571 271.167796 
L 226.019211 271.228508 
L 226.228132 270.404955 
L 226.664339 269.021373 
L 227.334749 266.825396 
L 227.556105 266.406153 
L 228.991462 261.701449 
L 229.176666 261.191958 
L 229.563134 259.785896 
L 230.402772 256.458374 
L 231.300632 253.018617 
L 233.151691 253.699086 
L 233.420727 252.764446 
L 233.417516 252.686013 
L 233.397916 252.561799 
L 233.410928 252.476802 
L 233.619767 251.78337 
L 233.628825 251.740051 
L 240.482634 253.235704 
" clip-path="url(#p6408dda078)" style="fill: #ffffff; stroke: #000000"/>
    <path d="M 356.570061 237.259367 
L 356.682716 237.236231 
L 356.727679 237.104961 
L 356.729737 236.644697 
L 356.749337 236.526226 
L 356.81324 236.454684 
L 356.886778 236.408247 
L 358.204375 236.671607 
L 358.268196 236.716895 
L 358.356558 236.708198 
L 358.410332 236.64765 
L 358.410661 236.561176 
L 358.361004 236.503582 
L 358.296772 236.47339 
L 358.226774 236.49308 
L 356.78837 236.162117 
L 356.874838 234.997755 
L 356.818346 234.92047 
L 356.739372 234.909476 
L 356.665505 234.935402 
L 356.58439 235.00842 
L 356.516781 236.354919 
L 356.506652 236.556418 
L 356.396138 237.094952 
L 356.463995 237.236559 
L 356.570061 237.259367 
" clip-path="url(#p6408dda078)" style="fill: #ffffff; stroke: #000000"/>
    <path d="M 374.623029 315.809652 
L 374.936205 315.835086 
L 375.459785 315.695776 
L 376.119078 315.504778 
L 376.781664 315.462772 
L 377.505601 315.511342 
L 379.900498 315.80916 
L 381.228882 316.466493 
L 381.705687 316.433839 
L 381.410216 314.05753 
L 381.192813 312.047956 
L 381.120263 311.426066 
L 381.031654 310.805981 
L 380.946752 310.160791 
L 380.924929 309.933366 
L 380.862508 309.443238 
L 380.838297 309.24781 
L 380.82685 309.155921 
L 380.685703 308.023228 
L 380.664621 307.837482 
L 380.643952 307.640577 
L 380.607059 307.31306 
L 380.587542 307.139784 
L 380.482711 306.204323 
L 380.323282 304.887032 
L 380.286718 304.585112 
L 380.27626 304.496013 
L 380.26679 304.422174 
L 380.174146 303.715286 
L 380.046092 302.738312 
L 379.991247 302.272797 
L 379.828771 300.894137 
L 379.703764 299.794262 
L 379.568134 298.598888 
L 379.347189 296.817394 
L 379.048836 294.537404 
L 379.000332 294.044651 
L 378.988144 293.941768 
L 378.94524 293.581269 
L 378.930582 293.457876 
L 378.915512 293.324965 
L 378.426272 289.229844 
L 377.918915 285.261234 
L 377.567528 282.064818 
L 377.538623 281.816554 
L 377.490696 281.410767 
L 377.481555 281.333154 
L 377.13338 278.383689 
L 381.892704 280.62922 
L 388.538908 283.747859 
L 390.584559 284.64361 
L 390.64204 284.529898 
L 391.111269 283.471372 
L 395.09074 282.477825 
L 395.08267 282.080734 
L 395.076658 281.837722 
L 395.028072 280.31204 
L 394.917641 276.944809 
L 394.911629 276.761852 
L 394.84822 275.129186 
L 394.821785 274.185685 
L 394.744377 271.600165 
L 394.73713 271.340744 
L 394.729883 271.081814 
L 394.632875 267.612849 
L 394.598782 266.516255 
L 394.581818 265.969189 
L 394.574901 265.713542 
L 394.572842 265.660541 
L 394.570372 265.614269 
L 394.469987 262.449686 
L 394.465787 262.31858 
L 394.462987 262.143827 
L 394.375861 259.335477 
L 394.364991 258.984823 
L 394.35758 258.711782 
L 394.339298 258.149292 
L 394.334028 257.986846 
L 394.322663 257.680331 
L 394.316487 257.425175 
L 394.30784 257.146884 
L 394.296641 256.785892 
L 394.289888 256.567821 
L 394.285771 256.436059 
L 394.284865 256.405538 
L 394.282724 256.338099 
L 394.281324 256.293795 
L 394.275477 256.102962 
L 394.267818 255.857324 
L 394.266336 255.802026 
L 394.24649 255.041647 
L 394.241631 254.902173 
L 394.225408 254.851634 
L 394.200127 254.806018 
L 394.165211 254.740055 
L 394.365897 254.667856 
L 394.40666 254.653253 
L 395.967024 254.022174 
L 397.269056 253.449018 
L 397.728651 253.244073 
L 398.126318 253.102466 
L 398.279159 253.069976 
L 398.451023 253.042246 
L 398.671473 253.037651 
L 398.887312 253.041261 
L 399.089563 253.067515 
L 402.527008 253.799179 
L 402.545455 252.859453 
L 400.738535 250.640339 
L 400.898129 247.356465 
L 400.959398 246.09644 
L 400.862225 244.752731 
L 400.836532 237.18684 
L 400.581989 237.171744 
L 400.004799 237.137614 
L 399.570898 236.972707 
L 399.146796 236.746431 
L 398.934746 236.923317 
L 398.708613 236.958595 
L 398.227937 237.06476 
L 397.945231 237.015205 
L 397.501365 236.80944 
L 397.238422 237.06476 
L 397.026372 237.100038 
L 396.800239 237.701089 
L 396.545778 237.821201 
L 396.192333 237.17076 
L 396.234743 236.689985 
L 395.789478 236.53443 
L 394.870619 236.180823 
L 393.831612 236.251544 
L 392.889777 236.80944 
L 392.453323 237.203249 
L 392.156452 237.382924 
L 391.689941 238.019254 
L 391.166855 238.040421 
L 390.403555 238.556639 
L 388.777887 239.122411 
L 387.540911 238.93847 
L 386.106131 238.93847 
L 385.583045 239.009191 
L 385.240223 239.292077 
L 385.05543 239.249251 
L 384.7677 239.182631 
L 384.723725 239.320957 
L 382.052874 239.114863 
L 381.810519 239.08139 
L 381.647713 239.041352 
L 381.464567 238.964232 
L 381.051089 238.804575 
L 380.892648 238.741401 
L 380.688503 238.661983 
L 380.45043 238.592082 
L 380.286801 238.559101 
L 380.114031 238.539738 
L 379.961437 238.54745 
L 379.775408 238.557132 
L 379.583616 238.591262 
L 379.430445 238.627525 
L 379.271757 238.685284 
L 379.124269 238.747637 
L 378.978921 238.839197 
L 378.836868 238.94569 
L 378.446447 239.230381 
L 377.741039 239.659468 
L 376.994868 240.122686 
L 376.769312 240.245423 
L 376.670492 240.286937 
L 376.480264 240.375709 
L 376.005435 240.37013 
L 375.771973 240.367504 
L 375.534641 240.384241 
L 375.35833 240.403931 
L 375.19676 240.439374 
L 375.027778 240.47974 
L 374.853444 240.542913 
L 374.696815 240.594601 
L 374.517292 240.619542 
L 374.179164 240.781824 
L 373.934914 240.984964 
L 373.497307 241.238478 
L 372.913942 241.499377 
L 372.330329 241.954226 
L 371.950037 241.927972 
L 371.560605 241.835263 
L 371.351025 241.838873 
L 370.779023 241.931582 
L 370.507434 241.864142 
L 370.12319 241.694804 
L 369.63362 241.462949 
L 369.025385 240.866821 
L 368.635788 240.533232 
L 368.199581 240.263309 
L 367.976495 240.146315 
L 367.846877 240.116451 
L 367.725987 240.143689 
L 367.209901 240.398681 
L 366.651322 240.719471 
L 366.162906 241.085549 
L 365.937597 241.180884 
L 365.348384 241.153153 
L 365.215883 241.125751 
L 365.154368 241.117218 
L 365.099111 241.115577 
L 365.03389 241.144456 
L 364.884425 241.139698 
L 364.769712 241.135924 
L 364.740396 241.104091 
L 364.700456 241.075704 
L 364.651952 241.055193 
L 364.592742 241.047317 
L 364.498452 241.039113 
L 364.433643 241.059623 
L 364.386209 241.098676 
L 364.360022 241.134119 
L 364.340258 241.232079 
L 360.199793 240.459229 
L 359.953073 240.41312 
L 359.25417 240.282671 
L 358.266714 240.098401 
L 358.127378 240.136305 
L 358.082333 240.273154 
L 358.124908 240.392445 
L 358.230562 240.441015 
L 357.969678 241.727458 
L 357.475991 241.81065 
L 357.447086 241.898601 
L 357.307009 242.012313 
L 357.128146 242.064821 
L 356.972999 242.217586 
L 356.706927 242.240722 
L 356.508299 242.241871 
L 356.501464 241.854133 
L 356.516204 241.554346 
L 356.612554 241.538265 
L 356.671104 241.528092 
L 356.703715 241.356129 
L 356.86685 240.495164 
L 356.878049 240.435928 
L 356.726773 240.382928 
L 356.794135 240.10037 
L 356.940141 240.118912 
L 356.992351 239.901333 
L 356.996715 239.883119 
L 356.57319 239.754147 
L 356.597484 238.693488 
L 357.01055 238.529893 
L 357.288893 238.468032 
L 357.344067 238.328886 
L 357.31755 238.236013 
L 357.174015 238.167589 
L 357.02982 238.078982 
L 356.863144 237.920146 
L 356.614859 237.906526 
L 356.41582 237.953291 
L 355.762622 238.890064 
L 355.38793 239.475199 
L 354.775742 239.431552 
L 354.728308 239.429911 
L 354.487847 239.419409 
L 354.43786 239.417276 
L 354.194682 239.408907 
L 354.146507 239.40661 
L 353.898881 239.397585 
L 353.850789 239.39496 
L 353.416311 239.368542 
L 353.283893 239.398242 
L 353.202202 239.408579 
L 353.161027 239.646341 
L 352.400609 239.899692 
L 352.143678 239.80928 
L 351.899016 239.89198 
L 351.673213 240.134008 
L 351.293334 240.244767 
L 351.247465 240.138931 
L 351.014662 240.114318 
L 350.785483 240.149597 
L 350.609089 240.294321 
L 350.393909 240.353229 
L 350.175271 240.42838 
L 349.836731 240.368325 
L 349.681501 240.456603 
L 349.540436 240.477771 
L 349.498108 240.551774 
L 349.480485 240.749499 
L 349.226519 240.781168 
L 349.079113 240.682059 
L 348.791877 240.798397 
L 348.693963 240.93705 
L 348.623718 241.295745 
L 348.462889 241.079478 
L 348.335329 240.881589 
L 348.285425 240.787239 
L 348.197805 240.752288 
L 348.205958 240.630043 
L 348.128302 240.594929 
L 348.063987 240.645796 
L 348.060693 240.77083 
L 347.951662 240.86157 
L 347.874006 240.846638 
L 347.835219 240.702406 
L 347.752046 240.696827 
L 347.700248 240.772799 
L 347.622592 240.789372 
L 347.613369 240.9318 
L 347.570876 240.974298 
L 347.535713 241.135268 
L 347.618886 241.207302 
L 347.848148 241.229454 
L 347.718776 241.325609 
L 347.511667 241.338571 
L 347.424788 241.406996 
L 346.912819 241.383039 
L 346.903514 241.275726 
L 347.058084 241.144621 
L 346.923854 241.044527 
L 346.918336 240.863375 
L 346.727944 240.870759 
L 346.336041 240.565557 
L 346.177106 240.267903 
L 345.855448 240.090361 
L 345.657149 240.080024 
L 345.563353 240.277092 
L 345.663161 240.389984 
L 345.953444 240.408362 
L 345.966373 240.608056 
L 345.862859 240.645139 
L 345.798132 240.548984 
L 345.766675 240.639561 
L 345.690913 240.687638 
L 345.620668 240.783793 
L 345.616963 240.876338 
L 345.227942 240.76 
L 345.025444 240.781988 
L 344.934859 240.933605 
L 344.835052 240.900295 
L 344.860909 240.839254 
L 344.801617 240.701914 
L 344.322671 240.691576 
L 344.147678 240.8194 
L 343.932415 240.776901 
L 343.773892 240.947224 
L 343.608534 240.911781 
L 343.33398 240.852546 
L 343.236971 240.975611 
L 343.089236 241.007444 
L 342.851163 241.42964 
L 342.653276 241.387141 
L 342.398815 241.337587 
L 342.193847 241.486086 
L 342.00296 241.613417 
L 342.031206 241.740749 
L 341.868647 241.875136 
L 341.748499 241.768972 
L 341.487038 241.69825 
L 341.239577 241.790139 
L 341.204249 241.507417 
L 340.999281 241.309364 
L 340.723656 241.167921 
L 340.356129 241.25981 
L 340.271309 241.408308 
L 339.98152 241.401253 
L 339.872983 241.398791 
L 339.761975 241.26506 
L 339.364555 241.106552 
L 339.190056 240.870103 
L 339.030956 240.640217 
L 338.819235 240.373739 
L 338.812564 240.340102 
L 338.728403 239.990596 
L 338.427991 239.530988 
L 338.156319 239.301102 
L 337.891235 239.077944 
L 337.718959 238.969646 
L 337.599717 238.914349 
L 337.343444 238.814912 
L 337.131393 238.724336 
L 337.029856 238.644754 
L 336.977235 238.61407 
L 336.901473 238.537441 
L 336.858651 238.471314 
L 336.768972 238.385332 
L 336.652365 238.141499 
L 336.495653 238.007276 
L 336.101115 237.752613 
L 335.928592 237.597879 
L 335.90677 237.569656 
L 335.726506 237.33616 
L 335.724036 237.231308 
L 335.924228 236.962205 
L 335.808115 236.948258 
L 335.696119 237.046546 
L 335.634357 236.960564 
L 336.160325 236.145052 
L 335.758458 235.271944 
L 335.720906 235.295573 
L 336.079869 236.081058 
L 335.344156 237.200952 
L 334.500071 236.303888 
L 335.233313 234.917844 
L 335.082613 234.836293 
L 334.412286 236.03938 
L 334.145719 236.25499 
L 333.330374 236.076791 
L 333.146569 235.935348 
L 333.125406 235.645406 
L 332.722468 235.645406 
L 332.55991 235.31313 
L 332.453925 235.440462 
L 332.372234 235.62867 
L 332.179948 235.548431 
L 332.186453 235.279985 
L 332.06474 234.871572 
L 331.992602 234.545203 
L 331.778245 234.188641 
L 331.594029 234.025703 
L 331.378849 233.737402 
L 331.34418 233.499312 
L 331.235807 233.320621 
L 331.058343 233.078757 
L 330.816564 232.855106 
L 330.580879 232.866756 
L 330.185024 233.361643 
L 329.944727 233.559696 
L 329.866989 233.870641 
L 329.725594 233.927251 
L 329.607175 233.9453 
L 329.535366 234.12235 
L 329.53479 234.429357 
L 329.801686 234.8486 
L 329.701054 235.038612 
L 329.973138 235.295573 
L 329.907176 235.446041 
L 329.824661 235.785373 
L 328.681729 235.63671 
L 328.56858 235.517583 
L 328.521888 235.319365 
L 328.5111 234.988238 
L 328.410468 234.886504 
L 328.438879 234.555704 
L 328.550463 234.160418 
L 328.566109 234.030297 
L 328.548404 233.908545 
L 328.466384 234.013561 
L 328.421668 234.16009 
L 328.325072 234.495156 
L 328.213735 234.644311 
L 328.091775 234.828089 
L 327.841102 234.884042 
L 327.67352 235.010718 
L 327.522902 235.071594 
L 327.351532 235.045176 
L 327.12507 234.925721 
L 326.91829 235.785537 
L 326.358065 238.206642 
L 326.245492 238.705138 
L 326.098004 239.35804 
L 325.903741 240.235086 
L 325.882577 240.325826 
L 325.243048 243.048687 
L 324.55024 246.208347 
L 324.539452 246.257574 
L 324.487242 246.412964 
L 324.463525 246.47023 
L 325.777828 247.035839 
L 325.748264 247.10574 
L 325.699349 247.224375 
L 325.679749 247.304121 
L 325.549554 247.956695 
L 325.421747 248.529359 
L 325.417712 248.547409 
L 325.403466 248.611239 
L 325.315187 249.006688 
L 325.290894 249.115642 
L 325.171898 249.597238 
L 325.138629 249.731625 
L 325.097619 249.897517 
L 325.02268 250.20075 
L 324.994434 250.315283 
L 324.879227 250.777024 
L 324.719963 251.415322 
L 324.678129 251.582855 
L 324.602449 251.888221 
L 324.381834 252.777573 
L 324.327978 252.994661 
L 324.256992 253.280664 
L 324.143349 253.738959 
L 323.934757 254.600088 
L 323.904947 254.72299 
L 323.891935 254.841953 
L 323.810574 255.076433 
L 323.679802 255.696846 
L 323.653203 255.807933 
L 316.269062 253.617699 
L 312.339413 269.786019 
L 311.078638 269.470643 
L 307.30817 270.253831 
L 306.620385 270.424974 
L 308.400458 275.405508 
L 309.038586 275.09522 
L 310.788272 274.219159 
L 311.062909 274.12005 
L 311.2925 274.076075 
L 311.526044 274.064097 
L 312.852287 274.134326 
L 313.083937 274.171081 
L 313.362691 274.261657 
L 313.57186 274.36815 
L 315.538208 275.538091 
L 316.370106 276.04955 
L 316.185395 276.486842 
L 316.051165 276.767759 
L 316.138538 276.993543 
L 316.178642 277.053271 
L 316.239169 277.059014 
L 316.315672 277.044082 
L 316.53497 276.949075 
L 316.579439 276.951373 
L 316.590144 276.969094 
L 316.526735 277.271342 
L 316.536123 277.33747 
L 316.584792 277.40212 
L 316.64993 277.439039 
L 316.916249 277.481702 
L 317.418995 277.554229 
L 317.419077 277.593609 
L 317.456135 277.929824 
L 317.493192 278.341026 
L 318.127038 279.200186 
L 318.01529 279.61106 
L 315.77974 281.404696 
L 314.550669 283.758689 
L 314.439085 284.393706 
L 313.954704 284.730084 
L 313.991844 286.07527 
L 313.99522 286.118425 
L 314.375264 286.017511 
L 314.653195 285.824217 
L 314.823 285.607786 
L 315.07005 285.422204 
L 315.193574 285.167212 
L 315.344274 284.680202 
L 315.376473 284.667403 
L 315.373344 284.558121 
L 315.490857 284.238479 
L 315.697802 284.005312 
L 315.851714 283.641859 
L 316.007684 283.358809 
L 316.291544 283.220319 
L 316.49536 283.202598 
L 316.643013 283.334852 
L 316.781278 283.58771 
L 316.983035 283.723082 
L 317.221191 283.73145 
L 317.532061 283.540945 
L 317.910623 283.143198 
L 318.062311 282.963851 
L 318.299067 282.849646 
L 318.809142 282.337531 
L 318.928961 282.002465 
L 319.145294 281.706944 
L 319.395225 281.523987 
L 319.668462 281.446374 
L 319.842385 281.446374 
L 320.01046 281.544498 
L 320.289626 281.649842 
L 320.443126 281.684956 
L 320.692975 281.882517 
L 320.880074 282.077125 
L 321.042303 282.198549 
L 321.273212 282.191165 
L 321.490451 282.017561 
L 321.59907 281.904177 
L 321.85946 281.459173 
L 322.039312 281.076358 
L 322.250128 280.739159 
L 322.44645 280.604607 
L 322.642854 280.548654 
L 322.977688 280.592137 
L 323.347603 280.693542 
L 323.525396 280.844667 
L 323.653533 281.068153 
L 323.845737 281.161191 
L 324.118562 281.204674 
L 324.279803 281.349563 
L 324.567204 281.58191 
L 325.125041 281.719087 
L 325.72043 281.806873 
L 326.474837 281.802771 
L 326.977088 281.744848 
L 327.287053 281.753053 
L 327.526855 281.794403 
L 327.888535 281.943394 
L 328.167536 282.063505 
L 328.611978 282.330475 
L 329.014998 282.454525 
L 329.318787 282.40694 
L 329.750958 282.169342 
L 330.005172 282.003778 
L 330.259386 281.99344 
L 330.416509 281.976867 
L 330.536328 281.949957 
L 330.685134 282.067936 
L 330.856751 282.359683 
L 330.924937 282.707383 
L 331.003499 283.131548 
L 331.100589 283.398518 
L 331.451975 283.752454 
L 331.857054 283.878637 
L 332.361364 283.891107 
L 332.613519 283.617902 
L 332.909155 282.891489 
L 333.062079 282.419738 
L 333.277012 282.227264 
L 333.60567 282.018217 
L 333.795815 281.985236 
L 334.052088 282.038892 
L 334.372428 282.152769 
L 334.758978 282.403166 
L 335.013192 282.579067 
L 335.131035 282.738395 
L 335.147505 282.872947 
L 335.085495 283.048848 
L 334.899549 283.179133 
L 334.684369 283.291041 
L 334.443167 283.446103 
L 334.292631 283.620199 
L 334.226916 283.845491 
L 334.259033 284.054866 
L 334.36864 284.196801 
L 334.595185 284.347433 
L 334.896255 284.416186 
L 335.20902 284.350387 
L 335.361532 284.342511 
L 336.399633 286.918514 
L 342.540869 281.309361 
L 343.001945 281.985728 
L 344.952071 280.076903 
L 345.061184 279.865395 
L 356.141678 280.22852 
L 356.294766 280.46579 
L 356.323588 281.015645 
L 356.005471 281.581746 
L 355.846454 282.094846 
L 355.58137 282.227428 
L 355.484197 282.519339 
L 355.345437 283.159771 
L 355.081424 283.593781 
L 354.977169 283.844178 
L 355.014638 284.04781 
L 354.855539 284.474108 
L 354.512387 284.713183 
L 354.123614 284.972769 
L 353.964596 285.509334 
L 354.033276 285.93514 
L 354.238492 286.243623 
L 354.272337 286.597723 
L 354.53001 286.615117 
L 354.706733 286.668281 
L 354.803905 286.836306 
L 354.715544 287.022217 
L 354.450542 287.137078 
L 354.317959 287.482153 
L 354.326853 287.721063 
L 354.565338 287.915671 
L 354.644888 288.012974 
L 354.574232 288.207582 
L 354.476977 288.278467 
L 354.203081 288.198721 
L 354.097097 288.207582 
L 353.973408 288.70296 
L 352.904343 288.92415 
L 352.966187 289.171921 
L 353.019221 289.357668 
L 352.771842 289.481554 
L 352.721773 289.532092 
L 352.681092 289.586733 
L 352.660752 289.654173 
L 352.678951 289.730474 
L 352.760395 289.815635 
L 352.828416 289.916548 
L 352.98801 290.151521 
L 352.939671 290.702525 
L 352.798358 290.835272 
L 352.780653 291.065158 
L 352.736514 291.189044 
L 352.568603 291.162626 
L 352.312412 291.012158 
L 352.294707 290.86169 
L 352.144501 290.835272 
L 351.746916 291.074019 
L 351.844171 291.525258 
L 351.614416 291.728726 
L 351.729294 291.932194 
L 351.587899 292.224269 
L 351.67626 292.321573 
L 351.906016 292.303851 
L 351.976672 292.684369 
L 351.861794 293.038141 
L 351.870606 293.126748 
L 351.791138 293.604405 
L 351.632121 293.781455 
L 351.428881 293.781455 
L 351.349332 293.931759 
L 351.446587 294.144252 
L 351.7204 294.303416 
L 351.791138 294.621909 
L 351.782244 295.099731 
L 351.738105 295.462527 
L 351.93245 295.807602 
L 351.976672 296.143817 
L 352.197534 296.365006 
L 352.126878 296.798524 
L 352.09155 297.205624 
L 352.13569 297.400231 
L 351.888311 297.595003 
L 351.967861 297.710028 
L 352.268191 298.001939 
L 352.250568 298.329292 
L 352.462618 298.577064 
L 352.595119 298.824835 
L 352.88672 299.081468 
L 352.648152 299.382403 
L 352.957376 299.541568 
L 353.204755 299.895504 
L 353.255482 300.243204 
L 353.136651 300.33821 
L 352.98554 300.396297 
L 352.947576 300.470957 
L 353.027044 300.57105 
L 353.235801 300.49196 
L 353.301186 300.588771 
L 353.319633 300.683121 
L 353.266599 301.222968 
L 353.346149 301.293689 
L 353.301927 301.506018 
L 353.204755 301.647625 
L 353.045737 301.638765 
L 352.922048 301.621043 
L 352.930859 301.674207 
L 352.877826 301.798093 
L 352.789465 301.798093 
L 352.789465 301.629904 
L 352.595119 301.576904 
L 352.515569 301.621043 
L 352.577414 301.718511 
L 352.586308 301.815815 
L 352.436102 301.877675 
L 352.330035 301.833536 
L 352.179829 301.851257 
L 352.179829 301.966282 
L 352.330035 302.099029 
L 352.34774 302.249333 
L 352.109173 302.612129 
L 351.985484 302.709597 
L 351.623227 302.753736 
L 351.579088 302.921925 
L 351.764622 303.036951 
L 351.658555 303.196279 
L 351.738105 303.523633 
L 351.499538 303.647518 
L 351.296381 303.851151 
L 351.214031 304.058557 
L 351.308404 304.216408 
L 351.490726 304.24939 
L 351.717023 304.369994 
L 351.731105 304.521446 
L 351.711588 304.674047 
L 351.632121 304.895401 
L 351.579088 305.143172 
L 351.685072 305.302501 
L 351.517243 305.470526 
L 351.481915 305.656436 
L 351.526054 305.798044 
L 351.685072 305.842183 
L 351.994295 305.744879 
L 352.232862 305.842183 
L 352.639259 305.877626 
L 352.80717 306.036954 
L 353.098688 306.452915 
L 353.293116 306.541358 
L 353.625644 306.580739 
L 353.764816 306.663931 
L 353.925645 306.912359 
L 354.256114 307.479444 
L 354.538821 308.028151 
L 354.961852 308.673834 
L 355.696248 308.877794 
L 356.173382 309.081426 
L 356.650435 309.346919 
L 357.118758 309.576969 
L 357.273081 309.859035 
L 357.289716 310.400522 
L 357.304292 310.913458 
L 357.772533 311.293976 
L 358.05524 311.56833 
L 358.382168 312.329529 
L 358.576514 312.409112 
L 360.211075 312.96668 
L 360.679316 313.15259 
L 360.807699 313.299776 
L 361.385712 313.398885 
L 361.915304 313.484046 
L 362.904736 313.649774 
L 363.051813 313.705071 
L 363.194772 313.796304 
L 363.463974 313.787607 
L 363.557853 313.738873 
L 363.859829 313.744288 
L 364.059939 313.770542 
L 364.342152 313.813369 
L 364.476629 313.773824 
L 364.670234 313.639108 
L 364.863756 313.445157 
L 365.054066 313.356386 
L 365.299798 313.280414 
L 365.667737 313.248253 
L 365.949208 313.158169 
L 366.26502 313.003763 
L 366.734578 312.830815 
L 366.878773 312.797342 
L 367.055166 312.771744 
L 367.278498 312.776503 
L 367.432245 312.834918 
L 367.600074 312.930416 
L 367.730352 313.048395 
L 367.828348 313.1795 
L 368.03307 313.402495 
L 368.212263 313.523427 
L 368.587613 313.719839 
L 368.973998 313.848155 
L 371.5415 314.858768 
L 372.133924 315.033356 
L 373.345207 315.129511 
L 373.729122 315.202694 
L 374.149683 315.431595 
L 374.455859 315.720225 
L 374.623029 315.809652 
" clip-path="url(#p6408dda078)" style="fill: #ffffff; stroke: #000000"/>
   </g>
   <g id="text_1">
    <!-- 1 -->
    <g transform="translate(107.567187 173.47341) scale(0.13 -0.13)">
     <defs>
      <path id="DejaVuSans-31" d="M 794 531 
L 1825 531 
L 1825 4091 
L 703 3866 
L 703 4441 
L 1819 4666 
L 2450 4666 
L 2450 531 
L 3481 531 
L 3481 0 
L 794 0 
L 794 531 
z
" transform="scale(0.015625)"/>
     </defs>
     <use xlink:href="#DejaVuSans-31"/>
    </g>
   </g>
   <g id="text_2">
    <!-- 2 -->
    <g transform="translate(238.922162 233.766079) scale(0.13 -0.13)">
     <defs>
      <path id="DejaVuSans-32" d="M 1228 531 
L 3431 531 
L 3431 0 
L 469 0 
L 469 531 
Q 828 903 1448 1529 
Q 2069 2156 2228 2338 
Q 2531 2678 2651 2914 
Q 2772 3150 2772 3378 
Q 2772 3750 2511 3984 
Q 2250 4219 1831 4219 
Q 1534 4219 1204 4116 
Q 875 4013 500 3803 
L 500 4441 
Q 881 4594 1212 4672 
Q 1544 4750 1819 4750 
Q 2544 4750 2975 4387 
Q 3406 4025 3406 3419 
Q 3406 3131 3298 2873 
Q 3191 2616 2906 2266 
Q 2828 2175 2409 1742 
Q 1991 1309 1228 531 
z
" transform="scale(0.015625)"/>
     </defs>
     <use xlink:href="#DejaVuSans-32"/>
    </g>
   </g>
   <g id="text_3">
    <!-- 3 -->
    <g transform="translate(354.77357 271.864312) scale(0.13 -0.13)">
     <defs>
      <path id="DejaVuSans-33" d="M 2597 2516 
Q 3050 2419 3304 2112 
Q 3559 1806 3559 1356 
Q 3559 666 3084 287 
Q 2609 -91 1734 -91 
Q 1441 -91 1130 -33 
Q 819 25 488 141 
L 488 750 
Q 750 597 1062 519 
Q 1375 441 1716 441 
Q 2309 441 2620 675 
Q 2931 909 2931 1356 
Q 2931 1769 2642 2001 
Q 2353 2234 1838 2234 
L 1294 2234 
L 1294 2753 
L 1863 2753 
Q 2328 2753 2575 2939 
Q 2822 3125 2822 3475 
Q 2822 3834 2567 4026 
Q 2313 4219 1838 4219 
Q 1578 4219 1281 4162 
Q 984 4106 628 3988 
L 628 4550 
Q 988 4650 1302 4700 
Q 1616 4750 1894 4750 
Q 2613 4750 3031 4423 
Q 3450 4097 3450 3541 
Q 3450 3153 3228 2886 
Q 3006 2619 2597 2516 
z
" transform="scale(0.015625)"/>
     </defs>
     <use xlink:href="#DejaVuSans-33"/>
    </g>
   </g>
  </g>
 </g>
 <defs>
  <clipPath id="p6408dda078">
   <rect x="10.8" y="105.486858" width="410.4" height="221.026284"/>
  </clipPath>
 </defs>
</svg>
