<?xml version="1.0" encoding="utf-8" standalone="no"?>
<!DOCTYPE svg PUBLIC "-//W3C//DTD SVG 1.1//EN"
  "http://www.w3.org/Graphics/SVG/1.1/DTD/svg11.dtd">
<svg xmlns:xlink="http://www.w3.org/1999/xlink" width="432pt" height="432pt" viewBox="0 0 432 432" xmlns="http://www.w3.org/2000/svg" version="1.1">
 <metadata>
  <rdf:RDF xmlns:dc="http://purl.org/dc/elements/1.1/" xmlns:cc="http://creativecommons.org/ns#" xmlns:rdf="http://www.w3.org/1999/02/22-rdf-syntax-ns#">
   <cc:Work>
    <dc:type rdf:resource="http://purl.org/dc/dcmitype/StillImage"/>
    <dc:date>2025-04-20T13:46:47.232656</dc:date>
    <dc:format>image/svg+xml</dc:format>
    <dc:creator>
     <cc:Agent>
      <dc:title>Matplotlib v3.10.1, https://matplotlib.org/</dc:title>
     </cc:Agent>
    </dc:creator>
   </cc:Work>
  </rdf:RDF>
 </metadata>
 <defs>
  <style type="text/css">*{stroke-linejoin: round; stroke-linecap: butt}</style>
 </defs>
 <g id="figure_1">
  <g id="patch_1">
   <path d="M 0 432 
L 432 432 
L 432 0 
L 0 0 
z
" style="fill: #ffffff"/>
  </g>
  <g id="axes_1">
   <g id="PatchCollection_1">
    <path d="M 146.703963 201.789319 
L 147.268258 202.189325 
L 147.44671 202.313122 
L 147.749 202.526382 
L 147.657083 202.874885 
L 143.317998 211.132124 
L 137.927722 208.400566 
L 133.520948 216.797245 
L 138.765944 219.478253 
L 141.397913 220.832015 
L 141.4082 221.57232 
L 141.970477 224.365109 
L 142.131622 225.165692 
L 142.324399 225.775524 
L 142.89754 228.172885 
L 147.862552 229.765467 
L 148.704716 229.552017 
L 148.88211 229.624311 
L 149.621204 230.177872 
L 150.26511 229.3523 
L 150.544806 228.901555 
L 151.756758 227.262048 
L 152.093854 227.049742 
L 152.261826 226.628754 
L 152.32413 226.510679 
L 153.123508 227.070343 
L 153.521659 227.276736 
L 163.896273 232.592782 
L 163.917714 232.66584 
L 164.545852 232.930221 
L 166.524107 233.974203 
L 166.552471 233.964474 
L 166.572566 233.959896 
L 166.718327 234.055844 
L 166.737749 234.072821 
L 166.778131 234.108491 
L 168.624663 235.070641 
L 170.313511 235.947524 
L 174.500873 238.091759 
L 174.514911 237.856944 
L 175.009979 229.591502 
L 175.156414 227.147407 
L 175.277657 225.544333 
L 175.341019 225.298264 
L 175.402361 225.079473 
L 175.386785 224.679276 
L 175.36371 224.247797 
L 175.360056 223.508255 
L 175.783686 223.567578 
L 175.909641 223.564526 
L 176.021269 223.554416 
L 176.292696 223.487463 
L 176.511915 223.425659 
L 176.826032 223.170434 
L 176.502012 222.716637 
L 176.30433 221.946002 
L 178.913127 220.91709 
L 178.995334 220.883518 
L 179.099847 220.847656 
L 179.078214 220.902021 
L 179.01889 220.966304 
L 178.847746 221.083425 
L 178.699293 221.211801 
L 178.622086 221.376037 
L 178.613913 221.502124 
L 178.613721 221.628974 
L 178.707177 221.755442 
L 178.829093 221.76784 
L 179.087252 221.704129 
L 179.247147 221.674372 
L 179.438002 221.657777 
L 179.490787 221.670748 
L 179.947012 221.544852 
L 184.683959 220.011403 
L 185.247197 219.83553 
L 185.4718 219.779068 
L 185.782359 219.666525 
L 185.433917 218.391162 
L 191.303205 216.221939 
L 195.040016 215.146102 
L 194.961366 214.912432 
L 194.258617 212.855371 
L 192.46016 213.55848 
L 191.968264 213.786427 
L 186.118302 215.833951 
L 182.925692 209.069531 
L 181.952573 209.50616 
L 181.141849 209.726097 
L 180.373142 209.900825 
L 179.555591 209.954807 
L 178.992738 209.877172 
L 178.379503 209.801634 
L 177.736462 209.716178 
L 177.155533 209.626143 
L 176.492301 209.482126 
L 175.813012 209.238727 
L 175.032574 208.936386 
L 175.116608 208.709392 
L 175.20343 208.598948 
L 175.246024 208.448826 
L 175.334961 208.369474 
L 175.409765 208.26437 
L 175.459858 208.108145 
L 175.504086 207.965844 
L 175.62706 207.857688 
L 175.954446 207.69307 
L 176.046268 207.596741 
L 175.950023 207.492209 
L 175.432264 207.156868 
L 175.290829 206.980805 
L 175.222564 206.87036 
L 175.261119 206.668354 
L 175.331404 206.441933 
L 175.385055 206.42362 
L 175.560622 206.420759 
L 175.664654 206.311649 
L 175.894257 206.064054 
L 176.023481 205.788037 
L 176.152127 205.572298 
L 176.240584 205.535673 
L 176.339521 205.515835 
L 176.385864 205.453841 
L 176.37048 205.371246 
L 176.37298 205.293992 
L 176.370384 205.206246 
L 176.358654 205.121171 
L 176.249237 204.976772 
L 176.076555 204.853356 
L 175.980983 204.77057 
L 175.926082 204.681299 
L 176.001655 204.559027 
L 176.102418 204.525455 
L 176.593449 204.386397 
L 176.865549 204.383727 
L 177.174666 204.301322 
L 177.405807 204.31849 
L 177.493206 204.292166 
L 177.54455 204.138993 
L 177.640986 203.965409 
L 177.587239 203.821964 
L 177.524262 203.781716 
L 177.467631 203.628543 
L 177.526185 203.591918 
L 177.513013 203.472508 
L 177.290429 203.29282 
L 177.222356 203.245323 
L 177.132553 203.128774 
L 177.093421 203.038549 
L 177.051116 202.983994 
L 176.976024 202.938023 
L 176.892182 202.927913 
L 176.77315 202.808312 
L 176.723922 202.789237 
L 176.641042 202.778555 
L 176.567104 202.765012 
L 176.491531 202.749942 
L 176.404325 202.714844 
L 176.321156 202.662578 
L 176.236642 202.618324 
L 176.109149 202.619469 
L 175.940697 202.579792 
L 175.880412 202.489376 
L 175.784744 202.433677 
L 175.690711 202.417272 
L 175.670519 202.469538 
L 175.626387 202.495671 
L 175.598697 202.491284 
L 175.528027 202.455995 
L 175.472934 202.469347 
L 175.422649 202.464769 
L 175.399573 202.452371 
L 175.326116 202.386943 
L 175.194969 202.266579 
L 175.127473 202.224041 
L 174.909023 202.214504 
L 174.763166 202.135723 
L 174.651538 202.131145 
L 174.563754 202.167007 
L 174.471067 202.223278 
L 174.41482 202.311215 
L 174.365785 202.430434 
L 174.300211 202.512266 
L 174.225792 202.591047 
L 174.190121 202.661052 
L 174.164834 202.739833 
L 174.100799 202.826243 
L 173.919175 202.835208 
L 173.844756 202.861913 
L 173.761395 202.922954 
L 173.689957 203.025578 
L 173.622941 203.149185 
L 173.57381 203.219191 
L 173.523235 203.312849 
L 173.489007 203.417 
L 173.495929 203.492728 
L 173.494679 203.660017 
L 173.418722 203.86145 
L 173.259212 204.022444 
L 173.124315 204.163409 
L 172.981631 204.27023 
L 172.925096 204.34901 
L 172.805968 204.550062 
L 172.728568 204.660125 
L 172.591653 204.758362 
L 172.462141 204.877391 
L 172.282343 205.001189 
L 171.983802 205.169622 
L 171.283072 204.136132 
L 170.443023 203.227202 
L 171.233555 202.359665 
L 172.566462 201.024979 
L 173.953981 199.717952 
L 179.587032 194.964622 
L 178.365561 193.472947 
L 176.094919 195.32972 
L 173.699091 193.050815 
L 172.870964 191.396048 
L 154.856489 192.5087 
L 149.579764 197.221399 
L 146.283409 199.444796 
L 144.796377 200.429263 
L 144.776474 200.442425 
L 145.302022 200.800465 
L 146.703963 201.789319 
" clip-path="url(#paa45881c49)" style="fill: #ffffff; stroke: #000000"/>
    <path d="M 258.57974 279.907672 
L 258.296294 280.04425 
L 258.093517 280.142105 
L 257.039537 282.140033 
L 256.882623 282.434363 
L 256.479761 283.186685 
L 256.298425 283.524506 
L 256.193911 283.696754 
L 256.081129 283.874534 
L 255.967001 284.027135 
L 255.814605 284.215979 
L 255.62577 284.406349 
L 255.53116 284.487227 
L 255.328286 284.636013 
L 255.027053 284.818372 
L 255.000516 284.679505 
L 254.967441 284.581458 
L 254.943404 284.544262 
L 254.750049 284.41932 
L 254.597269 284.310592 
L 254.336419 284.153794 
L 254.240943 284.062234 
L 254.169986 283.994898 
L 253.999611 283.823795 
L 253.93346 283.740627 
L 251.152558 286.877722 
L 250.868151 287.164421 
L 250.525477 287.504721 
L 250.198957 287.873062 
L 249.601202 288.562055 
L 249.46621 288.722286 
L 249.38333 288.818234 
L 248.965564 289.327158 
L 248.934124 289.343372 
L 248.911048 289.355199 
L 247.901682 290.584018 
L 247.849569 290.647348 
L 246.459839 292.149895 
L 241.470694 298.766674 
L 241.297531 298.863194 
L 240.025102 300.422776 
L 240.011929 300.536845 
L 238.380578 302.502918 
L 238.31837 302.531913 
L 237.022 303.41242 
L 237.000559 303.440079 
L 236.727305 303.628732 
L 236.929698 304.056969 
L 237.312945 304.292356 
L 236.669616 304.985927 
L 236.333 305.41073 
L 235.516507 306.772312 
L 234.938751 307.9296 
L 234.554157 308.859512 
L 234.052839 310.314754 
L 233.738241 311.874526 
L 233.38528 315.562892 
L 233.419317 317.726583 
L 233.641323 319.902864 
L 233.525849 319.971535 
L 233.478929 320.076448 
L 233.406721 320.174113 
L 233.320091 320.239159 
L 233.201059 320.282459 
L 233.103565 320.300581 
L 232.995302 320.257089 
L 232.908672 320.286084 
L 232.78964 320.340257 
L 232.710221 320.387372 
L 232.609169 320.510216 
L 232.544269 320.571638 
L 232.457639 320.600632 
L 232.408988 320.654806 
L 232.380144 320.677887 
L 232.354184 320.738545 
L 232.319474 320.782037 
L 232.273323 320.825337 
L 232.250247 320.851279 
L 232.256016 320.894771 
L 232.284861 320.920713 
L 232.256016 320.958291 
L 232.198231 320.964204 
L 232.120351 320.949707 
L 232.062565 320.909268 
L 231.987473 320.857193 
L 231.898055 320.851279 
L 231.817194 320.839834 
L 231.733449 320.851279 
L 231.672779 320.912129 
L 231.612206 320.978511 
L 231.539998 321.030586 
L 231.462022 321.076938 
L 231.372604 321.137597 
L 231.28309 321.20703 
L 231.216651 321.270741 
L 231.147424 321.308319 
L 231.086754 321.337123 
L 231.000125 321.337123 
L 230.953973 321.334262 
L 230.930898 321.282186 
L 230.936667 321.209892 
L 230.942435 321.137597 
L 230.916379 321.076938 
L 230.881766 321.027724 
L 230.829846 320.984424 
L 230.754754 320.990146 
L 230.626107 320.960961 
L 230.499768 320.960961 
L 230.416792 320.989765 
L 230.330162 321.018759 
L 230.22911 321.022383 
L 230.138923 321.015135 
L 230.09556 321.01151 
L 230.034217 321.029632 
L 229.998161 321.065684 
L 229.897109 321.094678 
L 229.846631 321.094678 
L 229.810479 321.058435 
L 229.763559 321.029632 
L 229.695005 321.040314 
L 229.669814 321.119857 
L 229.626451 321.206649 
L 229.586742 321.289817 
L 229.554244 321.340366 
L 229.500112 321.383857 
L 229.445981 321.41266 
L 229.377427 321.434406 
L 229.207821 321.477706 
L 229.139267 321.492204 
L 229.077924 321.524822 
L 229.023793 321.571747 
L 228.987737 321.658539 
L 228.998506 321.766885 
L 229.038215 321.962215 
L 229.041868 322.049006 
L 229.016581 322.135607 
L 228.955239 322.193596 
L 228.897453 322.229648 
L 228.803613 322.258642 
L 228.691792 322.283821 
L 228.601605 322.305567 
L 228.500553 322.327312 
L 228.428345 322.374237 
L 228.338158 322.439283 
L 228.273161 322.486399 
L 228.193743 322.482775 
L 228.107209 322.47915 
L 228.024137 322.489833 
L 227.944814 322.526075 
L 227.854531 322.573 
L 227.775112 322.620116 
L 227.681367 322.648919 
L 227.587527 322.659792 
L 227.464841 322.656168 
L 227.363789 322.656168 
L 227.230239 322.630988 
L 227.08592 322.576624 
L 226.995636 322.562318 
L 226.862182 322.544197 
L 226.775553 322.518827 
L 226.638349 322.475526 
L 226.512106 322.428411 
L 226.38942 322.403231 
L 225.927427 322.381486 
L 225.866084 322.377862 
L 225.819164 322.424786 
L 225.779454 322.464653 
L 225.700132 322.507954 
L 225.609848 322.583873 
L 225.584177 322.622214 
L 225.551871 322.670855 
L 225.51495 322.696225 
L 225.475625 322.724075 
L 225.417936 322.73552 
L 225.278905 322.741433 
L 225.130933 322.727127 
L 225.040746 322.698133 
L 224.957673 322.607717 
L 224.892773 322.586162 
L 224.845853 322.592266 
L 224.827392 322.613058 
L 224.739609 322.617827 
L 224.65644 322.576052 
L 224.580194 322.518254 
L 224.561734 322.421162 
L 224.545581 322.289162 
L 224.51789 322.208284 
L 224.510967 322.148197 
L 224.490199 322.104134 
L 224.494814 322.023255 
L 224.515583 321.949244 
L 224.510967 321.875041 
L 224.490199 321.812666 
L 224.446259 321.764024 
L 224.370014 321.734076 
L 224.310017 321.692302 
L 224.247617 321.692302 
L 224.206081 321.708515 
L 224.180697 321.759446 
L 224.13445 321.789585 
L 223.945037 321.803319 
L 223.836486 321.74781 
L 223.797257 321.683146 
L 223.774182 321.641371 
L 223.776489 321.59292 
L 223.811103 321.572128 
L 223.871195 321.548857 
L 223.880426 321.509562 
L 223.85735 321.430972 
L 223.781104 321.375464 
L 223.711781 321.343036 
L 223.582462 321.322244 
L 223.529388 321.317666 
L 223.409298 321.269025 
L 223.343148 321.22725 
L 223.296901 321.187955 
L 223.264595 321.12558 
L 223.226712 321.102499 
L 219.648258 321.324533 
L 211.348913 320.908314 
L 200.947378 320.786424 
L 200.885459 320.632488 
L 200.445003 320.78547 
L 196.520125 320.605973 
L 191.520981 323.472774 
L 182.739837 323.084023 
L 181.696626 315.734759 
L 177.226106 319.218067 
L 169.154633 324.773888 
L 157.49038 332.733937 
L 156.538606 332.534602 
L 154.609579 332.451816 
L 153.409358 331.915042 
L 153.07178 332.075845 
L 147.115478 333.65908 
L 147.564011 347.903619 
L 147.939759 358.524266 
L 148.129556 358.546394 
L 166.030096 356.649182 
L 166.152781 356.805598 
L 166.275755 356.559529 
L 172.242826 355.907732 
L 172.324552 361.028258 
L 177.945873 365.532276 
L 186.533471 370.909744 
L 186.548951 371.147611 
L 186.563758 371.241842 
L 192.597075 371.669697 
L 198.360215 372.078477 
L 202.674301 375.055341 
L 202.839773 374.879277 
L 204.701592 376.182299 
L 205.896429 375.40556 
L 206.131704 375.342993 
L 206.872048 374.819572 
L 206.891854 374.732017 
L 210.496942 372.243667 
L 212.340204 370.008444 
L 212.621054 369.975254 
L 214.009823 368.496169 
L 215.159374 368.493689 
L 218.332658 370.107444 
L 218.429576 370.188132 
L 218.696292 370.410167 
L 219.593357 369.058503 
L 220.595321 369.83963 
L 221.477098 370.420849 
L 221.796407 369.87015 
L 223.033934 370.6549 
L 224.63923 372.329505 
L 225.274963 372.557835 
L 225.90339 372.907672 
L 226.841703 373.678307 
L 230.200362 370.554374 
L 231.629609 367.934788 
L 232.173905 368.199169 
L 232.755507 367.037303 
L 232.747816 366.949367 
L 232.783871 366.807257 
L 232.879347 366.631385 
L 232.997994 366.613263 
L 233.03405 366.458183 
L 233.124333 366.397524 
L 233.246826 366.391038 
L 233.451815 365.936096 
L 233.534406 365.881732 
L 233.745837 365.866281 
L 233.799968 365.775865 
L 233.83612 365.618114 
L 234.017937 365.324739 
L 234.056589 365.123115 
L 234.112066 365.059785 
L 234.221676 365.037849 
L 234.310613 364.968034 
L 234.456374 364.733982 
L 234.569829 364.597023 
L 234.887023 364.361826 
L 234.906349 364.286861 
L 234.929521 364.217046 
L 235.035284 364.176989 
L 235.0998 364.151237 
L 235.122971 364.103359 
L 235.095858 364.037359 
L 235.11653 363.972885 
L 235.229985 363.950758 
L 235.248061 363.919856 
L 235.153931 363.871977 
L 235.092012 363.886284 
L 235.057206 363.861677 
L 235.043072 363.803498 
L 235.08432 363.599203 
L 235.214505 363.506307 
L 235.263541 363.47655 
L 235.269982 363.417036 
L 235.181045 363.351226 
L 235.191333 363.304683 
L 235.306038 363.250319 
L 235.367958 363.172874 
L 235.380842 363.112024 
L 235.428531 363.080932 
L 235.625828 363.127475 
L 235.98177 362.891134 
L 236.078495 362.720412 
L 236.079745 362.624846 
L 236.333769 362.350736 
L 236.589044 361.977245 
L 236.969503 361.68387 
L 237.251891 361.594789 
L 237.478802 361.455159 
L 237.485244 361.398315 
L 237.433708 361.338801 
L 237.454284 361.232934 
L 237.572931 361.03131 
L 237.726384 360.982096 
L 237.779266 360.939559 
L 237.802437 360.864593 
L 237.914643 360.710848 
L 237.976562 360.692726 
L 238.0655 360.568547 
L 238.185397 360.487097 
L 238.414903 360.223478 
L 238.482015 360.103305 
L 238.656044 359.948224 
L 238.720559 359.82023 
L 238.742481 359.675641 
L 238.791421 359.604491 
L 238.996505 359.532196 
L 239.138324 359.409352 
L 239.269855 359.22852 
L 239.432346 359.07859 
L 239.489074 358.985503 
L 239.49167 358.742486 
L 239.532918 358.633948 
L 239.648969 358.50729 
L 239.568973 358.318637 
L 239.754732 358.292694 
L 239.81396 357.92836 
L 239.875879 357.677712 
L 239.912031 357.426875 
L 240.02289 357.127014 
L 240.046062 356.915089 
L 240.159614 356.532633 
L 240.177593 356.033818 
L 240.203457 355.91231 
L 240.275665 355.834865 
L 240.314316 355.731478 
L 240.242109 355.250785 
L 240.31172 355.067282 
L 240.296241 354.883779 
L 240.306528 354.826935 
L 240.383928 354.803664 
L 240.409696 354.731178 
L 240.412292 354.537375 
L 240.443252 354.47271 
L 240.515459 354.446959 
L 240.569591 354.423687 
L 240.608338 354.348722 
L 240.561899 354.139277 
L 240.639298 353.878329 
L 240.605742 353.687006 
L 240.626318 353.436359 
L 240.721794 353.356243 
L 240.854575 352.821377 
L 240.833999 352.677932 
L 240.840441 352.614603 
L 241.136963 352.442736 
L 241.204074 352.332863 
L 241.213016 352.268198 
L 241.184652 352.172632 
L 241.219458 352.115788 
L 241.245322 352.044638 
L 241.2234 351.919314 
L 241.25561 351.841869 
L 241.554728 351.703575 
L 241.59088 351.529037 
L 241.548286 351.41287 
L 241.554728 351.364991 
L 241.620494 351.336569 
L 241.655299 351.291361 
L 241.696643 351.067801 
L 241.777216 350.956021 
L 241.784331 350.890784 
L 241.755294 350.813148 
L 241.763659 350.726738 
L 241.856538 350.561165 
L 241.884902 350.419056 
L 241.851346 350.384148 
L 241.820386 350.400934 
L 241.781735 350.437177 
L 241.728853 350.429356 
L 241.714623 350.381669 
L 241.761063 350.278281 
L 241.761063 350.174894 
L 241.678567 349.908796 
L 241.717219 349.810559 
L 241.670779 349.663109 
L 241.657895 349.425433 
L 241.62184 349.216179 
L 241.670779 348.970682 
L 241.776543 348.849173 
L 241.727507 348.719844 
L 241.789426 348.549312 
L 241.626935 348.197948 
L 241.485116 348.042868 
L 241.487712 347.978203 
L 241.547036 347.947301 
L 241.634724 347.993845 
L 241.722411 347.980874 
L 241.792022 347.921359 
L 241.755871 347.7947 
L 241.719815 347.719735 
L 247.256525 347.368562 
L 253.597421 346.855632 
L 255.322517 349.48056 
L 256.631868 351.454644 
L 261.263724 358.474862 
L 263.726472 362.136523 
L 272.352913 374.969884 
L 283.575653 391.750652 
L 283.779968 391.669964 
L 284.059376 391.572871 
L 284.350225 391.487033 
L 284.692417 391.446976 
L 284.994708 391.406918 
L 285.239983 391.315357 
L 285.29123 391.195375 
L 285.302672 390.995277 
L 285.331228 390.743485 
L 285.411031 390.577722 
L 285.525063 390.423214 
L 285.644864 390.331844 
L 285.827354 390.349011 
L 286.049745 390.486162 
L 286.266464 390.703618 
L 286.443281 390.903716 
L 286.540295 391.098092 
L 286.608656 391.161039 
L 286.688556 391.109537 
L 286.882487 390.983832 
L 287.093437 390.932329 
L 287.367172 390.726317 
L 287.612447 390.600612 
L 287.869067 390.554832 
L 288.131456 390.572 
L 288.308273 390.606335 
L 288.388076 390.720595 
L 288.51355 390.880826 
L 288.661811 391.017976 
L 288.821514 391.22971 
L 289.009772 391.315357 
L 289.203608 391.361137 
L 289.454555 391.475588 
L 289.6257 391.572871 
L 289.836649 391.641351 
L 290.099039 391.647074 
L 290.367101 391.515646 
L 290.612279 391.38975 
L 290.863227 391.406918 
L 291.14273 391.498478 
L 291.513383 391.738634 
L 291.827115 392.013125 
L 292.003836 392.224668 
L 292.083736 392.465015 
L 292.209209 392.733783 
L 292.397372 392.973939 
L 292.785235 393.328546 
L 293.423949 393.911863 
L 293.657782 394.066181 
L 293.90873 394.31225 
L 294.34784 394.712446 
L 294.513312 394.872677 
L 294.633016 395.055607 
L 294.769932 395.181503 
L 294.918193 395.273064 
L 295.226156 395.341543 
L 295.471431 395.335821 
L 295.842084 395.295954 
L 296.20139 395.210116 
L 296.731842 395.049885 
L 297.119608 394.884122 
L 297.38767 394.695278 
L 297.661405 394.455122 
L 297.90668 394.163464 
L 298.003598 394.037568 
L 298.020712 393.694597 
L 298.049268 393.414193 
L 298.054941 393.145425 
L 298.08917 392.756674 
L 298.157627 392.487714 
L 298.27166 392.287616 
L 298.431362 392.156189 
L 298.642312 392.070351 
L 298.899028 392.018848 
L 299.144207 392.00168 
L 299.412269 392.041738 
L 299.879935 392.139021 
L 300.142324 392.150466 
L 300.319045 392.093241 
L 300.419136 392.03716 
L 300.563551 391.875784 
L 300.727773 391.610068 
L 300.918723 391.095612 
L 301.018045 390.703618 
L 301.065927 390.415011 
L 301.063619 390.156353 
L 300.957375 389.794879 
L 300.823056 389.427683 
L 300.783827 389.230637 
L 300.775943 388.994868 
L 300.837959 388.76673 
L 301.066984 388.32495 
L 301.206207 388.156517 
L 301.70791 387.776922 
L 302.070871 387.605436 
L 303.008126 387.328084 
L 303.416853 387.229084 
L 303.607131 387.287454 
L 303.768084 387.273148 
L 303.874424 387.211726 
L 303.93144 387.131229 
L 303.933171 386.970426 
L 303.8925 386.756593 
L 303.660974 385.931022 
L 303.590305 385.473219 
L 303.628861 385.310699 
L 303.589344 385.129104 
L 303.586363 384.987185 
L 303.703953 384.826763 
L 303.820292 384.637729 
L 303.978841 384.473492 
L 304.202579 384.349694 
L 304.569 384.355035 
L 304.887925 384.50344 
L 305.111663 384.491041 
L 305.751146 384.270342 
L 305.980172 384.144828 
L 306.26554 384.037053 
L 306.420628 383.929279 
L 306.575619 383.726319 
L 306.727149 383.629036 
L 307.093571 383.493031 
L 307.340288 383.330511 
L 307.872278 383.1451 
L 308.150628 382.998413 
L 308.885298 382.694737 
L 309.03154 382.611569 
L 309.237682 382.542708 
L 309.745058 382.415668 
L 309.968795 382.318385 
L 310.324641 382.30961 
L 310.581934 382.22835 
L 310.773943 382.230067 
L 311.017102 382.154148 
L 311.254877 382.152431 
L 311.46275 382.175321 
L 311.594955 382.235408 
L 311.7411 382.272413 
L 312.433466 382.272413 
L 312.722488 382.214234 
L 313.196404 382.057055 
L 313.471196 381.873362 
L 314.147697 381.560721 
L 314.456045 381.346889 
L 314.646323 381.248079 
L 314.989861 380.981218 
L 315.627999 380.733051 
L 315.806931 380.632907 
L 316.085377 380.508155 
L 316.341132 380.347161 
L 316.714573 380.068092 
L 316.894274 379.99389 
L 317.232525 379.794364 
L 317.788551 379.575954 
L 318.139782 379.464365 
L 318.50255 379.393596 
L 318.680136 379.332937 
L 318.887048 379.300128 
L 319.120785 379.222874 
L 319.730751 378.990539 
L 319.834879 379.062452 
L 319.916798 379.042232 
L 320.007658 379.019723 
L 320.069097 378.99588 
L 320.091307 378.911186 
L 317.184066 355.245253 
L 317.083591 343.376902 
L 316.766205 335.934552 
L 309.684484 334.539779 
L 309.664005 333.28063 
L 304.601403 333.463751 
L 305.77153 325.92965 
L 304.032107 325.969517 
L 304.72005 321.642134 
L 304.026146 319.749119 
L 304.026146 318.426641 
L 303.830099 318.385247 
L 303.628861 318.791357 
L 302.700547 318.540137 
L 302.623148 318.111519 
L 302.499404 318.080427 
L 302.411717 317.682711 
L 301.71541 317.806699 
L 299.46842 318.859455 
L 299.012195 317.749664 
L 296.28427 318.819207 
L 294.429951 318.971808 
L 293.48808 318.375519 
L 292.718508 312.970964 
L 293.246267 312.49256 
L 300.414136 305.994238 
L 300.788346 305.64173 
L 301.142942 305.285407 
L 301.289857 305.068522 
L 301.299471 304.885401 
L 301.345911 304.7225 
L 301.457443 304.33165 
L 301.595128 303.862021 
L 301.719256 303.413755 
L 301.756946 303.281565 
L 301.897419 302.799727 
L 301.920302 302.720947 
L 302.293647 301.422885 
L 302.395949 301.052637 
L 302.5095 300.641949 
L 302.952456 299.039639 
L 303.037547 298.740923 
L 303.04947 298.699911 
L 303.09091 298.553605 
L 303.09716 298.531668 
L 303.117928 298.46109 
L 303.133215 298.399096 
L 303.140715 298.367622 
L 303.149657 298.330044 
L 303.199558 298.148068 
L 303.233306 298.026941 
L 303.278015 298.040102 
L 303.32657 298.0546 
L 303.352434 298.06223 
L 303.442525 298.085501 
L 303.519155 298.098472 
L 304.147486 296.018712 
L 304.94821 290.548157 
L 306.105838 282.24323 
L 306.072763 281.917808 
L 303.920191 278.405887 
L 303.553288 277.772402 
L 303.151003 277.081311 
L 303.13485 276.976588 
L 303.097736 276.852028 
L 302.920823 276.636097 
L 301.686854 274.654001 
L 299.240259 270.645364 
L 295.804105 265.087636 
L 294.866753 263.437829 
L 294.791085 263.338447 
L 294.675033 263.279124 
L 294.589557 263.275118 
L 294.53706 263.243072 
L 294.493217 263.177263 
L 294.468699 263.134725 
L 294.414471 263.068534 
L 294.357839 263.024852 
L 294.315246 263.000627 
L 294.204963 262.982887 
L 293.528751 262.960569 
L 289.452055 262.825708 
L 289.4185 262.871298 
L 289.381194 262.914026 
L 289.333504 262.928904 
L 289.232837 262.927569 
L 288.157993 262.899529 
L 283.570364 262.700194 
L 282.942515 262.685506 
L 282.110638 262.675396 
L 281.992952 262.669864 
L 281.939013 262.829142 
L 281.868825 262.965529 
L 281.776907 263.118893 
L 281.681239 263.255852 
L 281.522883 263.421043 
L 281.340008 263.575742 
L 281.218284 263.654713 
L 281.081273 263.723193 
L 280.937819 263.774314 
L 280.819845 263.799112 
L 280.678795 263.818759 
L 280.452365 263.848135 
L 280.215167 263.881898 
L 279.969123 263.909175 
L 279.983353 263.972504 
L 279.915665 263.979372 
L 279.872302 263.983568 
L 279.855379 264.226394 
L 279.828266 264.495926 
L 279.802402 264.575278 
L 279.780287 264.642995 
L 279.728463 264.735509 
L 279.71308 264.762978 
L 279.517225 264.998746 
L 279.356369 265.165844 
L 279.216377 265.31978 
L 279.039367 265.457503 
L 278.799284 265.601902 
L 278.544491 265.722456 
L 278.618718 265.896231 
L 278.791593 266.36586 
L 278.933412 266.67564 
L 278.933796 266.72886 
L 279.021099 266.918276 
L 279.122247 267.059813 
L 279.328774 267.348611 
L 279.417038 267.525628 
L 279.45569 269.021499 
L 279.679908 269.772486 
L 279.733463 270.148648 
L 279.746251 270.218463 
L 279.888166 270.812653 
L 279.986334 271.562496 
L 279.998064 271.663403 
L 279.988834 271.687057 
L 279.892781 271.930074 
L 279.848937 272.035941 
L 279.671928 272.477148 
L 279.551069 272.578437 
L 279.50463 272.831373 
L 279.464632 273.083165 
L 279.320217 273.130853 
L 279.413096 273.548979 
L 279.204166 273.698719 
L 279.405308 274.230534 
L 279.268681 274.376267 
L 279.088788 274.533256 
L 279.347331 274.928302 
L 278.921585 275.246665 
L 278.886972 275.272035 
L 278.821591 275.313619 
L 278.835436 275.350816 
L 278.841301 275.390683 
L 278.837648 275.426735 
L 278.817745 275.459735 
L 278.786401 275.487584 
L 278.759191 275.511047 
L 278.440843 275.720682 
L 278.352963 275.803277 
L 278.266526 275.891214 
L 278.138841 276.046295 
L 278.04 276.160173 
L 277.959235 276.241052 
L 277.880874 276.300757 
L 277.812032 276.333375 
L 277.734536 276.349398 
L 277.641849 276.350543 
L 277.538201 276.338144 
L 277.420611 276.31678 
L 277.310041 276.313156 
L 277.220815 276.318687 
L 277.139762 276.347109 
L 277.060632 276.387548 
L 276.997462 276.437525 
L 276.938138 276.510583 
L 276.897179 276.598329 
L 276.880065 276.696565 
L 276.864969 276.910398 
L 276.836798 277.10897 
L 276.806703 277.2156 
L 276.749207 277.302201 
L 276.652097 277.375258 
L 276.399418 277.499819 
L 275.318421 277.965252 
L 274.66788 278.267783 
L 274.140602 278.514806 
L 272.940861 279.070274 
L 272.638282 279.204753 
L 272.497713 279.255112 
L 272.424929 279.270372 
L 272.35974 279.273233 
L 272.318492 279.266748 
L 272.276764 279.251488 
L 271.785926 278.99569 
L 271.53719 278.884482 
L 271.272781 278.729783 
L 270.444943 278.231541 
L 270.30697 278.176032 
L 270.132268 278.106408 
L 269.993622 278.070165 
L 269.891128 278.03335 
L 269.829881 277.99024 
L 269.784114 277.940454 
L 269.752482 277.880558 
L 269.73056 277.79472 
L 269.655852 277.645744 
L 269.502303 277.684275 
L 269.337216 277.716512 
L 269.140016 277.748749 
L 268.92772 277.774882 
L 268.53428 277.814558 
L 268.366982 277.815512 
L 268.289006 277.815894 
L 268.16257 277.804258 
L 268.042 277.793385 
L 267.704807 277.750085 
L 267.680001 277.745888 
L 267.366461 277.694194 
L 267.08715 277.645744 
L 266.718036 277.589091 
L 266.345556 277.539877 
L 265.746455 277.473305 
L 265.617808 277.448125 
L 265.480701 277.411883 
L 265.363303 277.360952 
L 265.259463 277.310784 
L 265.158123 277.255276 
L 265.051013 277.198623 
L 264.960922 277.169247 
L 264.859582 277.137773 
L 264.758433 277.128045 
L 264.649786 277.122704 
L 264.144333 277.123848 
L 264.007994 277.12938 
L 263.748394 277.15475 
L 263.608978 277.173444 
L 263.479466 277.199386 
L 263.379953 277.2259 
L 262.996032 277.328334 
L 262.643071 277.438016 
L 262.50154 277.482079 
L 262.250496 277.569443 
L 261.999741 277.6652 
L 261.913496 277.707356 
L 261.888401 277.720327 
L 261.741102 277.796628 
L 261.373622 278.039263 
L 261.196709 278.164396 
L 260.814711 278.4345 
L 260.768367 278.469407 
L 259.669871 279.280672 
L 259.665448 279.283915 
L 259.203743 279.597129 
L 258.946354 279.72684 
L 258.750307 279.821834 
L 258.57974 279.907672 
" clip-path="url(#paa45881c49)" style="fill: #ffffff; stroke: #000000"/>
    <path d="M 179.587032 194.964622 
L 173.953981 199.717952 
L 172.566462 201.024979 
L 171.233555 202.359665 
L 170.443023 203.227202 
L 171.283072 204.136132 
L 171.983802 205.169622 
L 172.282343 205.001189 
L 172.462141 204.877391 
L 172.591653 204.758362 
L 172.728568 204.660125 
L 172.805968 204.550062 
L 172.925096 204.34901 
L 172.981631 204.27023 
L 173.124315 204.163409 
L 173.259212 204.022444 
L 173.418722 203.86145 
L 173.494679 203.660017 
L 173.495929 203.492728 
L 173.489007 203.417 
L 173.523235 203.312849 
L 173.57381 203.219191 
L 173.622941 203.149185 
L 173.689957 203.025578 
L 173.761395 202.922954 
L 173.844756 202.861913 
L 173.919175 202.835208 
L 174.100799 202.826243 
L 174.164834 202.739833 
L 174.190121 202.661052 
L 174.225792 202.591047 
L 174.300211 202.512266 
L 174.365785 202.430434 
L 174.41482 202.311215 
L 174.471067 202.223278 
L 174.563754 202.167007 
L 174.651538 202.131145 
L 174.763166 202.135723 
L 174.909023 202.214504 
L 175.127473 202.224041 
L 175.194969 202.266579 
L 175.326116 202.386943 
L 175.399573 202.452371 
L 175.422649 202.464769 
L 175.472934 202.469347 
L 175.528027 202.455995 
L 175.598697 202.491284 
L 175.626387 202.495671 
L 175.670519 202.469538 
L 175.690711 202.417272 
L 175.784744 202.433677 
L 175.880412 202.489376 
L 175.940697 202.579792 
L 176.109149 202.619469 
L 176.236642 202.618324 
L 176.321156 202.662578 
L 176.404325 202.714844 
L 176.491531 202.749942 
L 176.567104 202.765012 
L 176.641042 202.778555 
L 176.723922 202.789237 
L 176.77315 202.808312 
L 176.892182 202.927913 
L 176.976024 202.938023 
L 177.051116 202.983994 
L 177.093421 203.038549 
L 177.132553 203.128774 
L 177.222356 203.245323 
L 177.290429 203.29282 
L 177.513013 203.472508 
L 177.526185 203.591918 
L 177.467631 203.628543 
L 177.524262 203.781716 
L 177.587239 203.821964 
L 177.640986 203.965409 
L 177.54455 204.138993 
L 177.493206 204.292166 
L 177.405807 204.31849 
L 177.174666 204.301322 
L 176.865549 204.383727 
L 176.593449 204.386397 
L 176.102418 204.525455 
L 176.001655 204.559027 
L 175.926082 204.681299 
L 175.980983 204.77057 
L 176.076555 204.853356 
L 176.249237 204.976772 
L 176.358654 205.121171 
L 176.370384 205.206246 
L 176.37298 205.293992 
L 176.37048 205.371246 
L 176.385864 205.453841 
L 176.339521 205.515835 
L 176.240584 205.535673 
L 176.152127 205.572298 
L 176.023481 205.788037 
L 175.894257 206.064054 
L 175.664654 206.311649 
L 175.560622 206.420759 
L 175.385055 206.42362 
L 175.331404 206.441933 
L 175.261119 206.668354 
L 175.222564 206.87036 
L 175.290829 206.980805 
L 175.432264 207.156868 
L 175.950023 207.492209 
L 176.046268 207.596741 
L 175.954446 207.69307 
L 175.62706 207.857688 
L 175.504086 207.965844 
L 175.459858 208.108145 
L 175.409765 208.26437 
L 175.334961 208.369474 
L 175.246024 208.448826 
L 175.20343 208.598948 
L 175.116608 208.709392 
L 175.032574 208.936386 
L 175.813012 209.238727 
L 176.492301 209.482126 
L 177.155533 209.626143 
L 177.736462 209.716178 
L 178.379503 209.801634 
L 178.992738 209.877172 
L 179.555591 209.954807 
L 180.373142 209.900825 
L 181.141849 209.726097 
L 181.952573 209.50616 
L 182.925692 209.069531 
L 186.118302 215.833951 
L 191.968264 213.786427 
L 192.46016 213.55848 
L 194.258617 212.855371 
L 194.961366 214.912432 
L 195.040016 215.146102 
L 191.303205 216.221939 
L 185.433917 218.391162 
L 185.782359 219.666525 
L 185.4718 219.779068 
L 185.247197 219.83553 
L 184.683959 220.011403 
L 179.947012 221.544852 
L 179.490787 221.670748 
L 179.438002 221.657777 
L 179.247147 221.674372 
L 179.087252 221.704129 
L 178.829093 221.76784 
L 178.707177 221.755442 
L 178.613721 221.628974 
L 178.613913 221.502124 
L 178.622086 221.376037 
L 178.699293 221.211801 
L 178.847746 221.083425 
L 179.01889 220.966304 
L 179.078214 220.902021 
L 179.099847 220.847656 
L 178.995334 220.883518 
L 178.913127 220.91709 
L 176.30433 221.946002 
L 176.502012 222.716637 
L 176.826032 223.170434 
L 176.511915 223.425659 
L 176.292696 223.487463 
L 176.021269 223.554416 
L 175.909641 223.564526 
L 175.783686 223.567578 
L 175.360056 223.508255 
L 175.36371 224.247797 
L 175.386785 224.679276 
L 175.402361 225.079473 
L 175.341019 225.298264 
L 175.277657 225.544333 
L 175.156414 227.147407 
L 175.009979 229.591502 
L 174.514911 237.856944 
L 174.500873 238.091759 
L 170.313511 235.947524 
L 168.624663 235.070641 
L 166.778131 234.108491 
L 166.737749 234.072821 
L 166.718327 234.055844 
L 166.572566 233.959896 
L 166.552471 233.964474 
L 166.524107 233.974203 
L 164.545852 232.930221 
L 163.917714 232.66584 
L 163.896273 232.592782 
L 153.521659 227.276736 
L 153.123508 227.070343 
L 152.32413 226.510679 
L 152.261826 226.628754 
L 152.093854 227.049742 
L 151.756758 227.262048 
L 150.544806 228.901555 
L 150.26511 229.3523 
L 149.621204 230.177872 
L 148.88211 229.624311 
L 148.704716 229.552017 
L 147.862552 229.765467 
L 142.89754 228.172885 
L 142.324399 225.775524 
L 142.131622 225.165692 
L 141.970477 224.365109 
L 141.4082 221.57232 
L 141.397913 220.832015 
L 138.765944 219.478253 
L 133.520948 216.797245 
L 137.927722 208.400566 
L 143.317998 211.132124 
L 147.657083 202.874885 
L 147.749 202.526382 
L 147.44671 202.313122 
L 147.268258 202.189325 
L 146.703963 201.789319 
L 145.302022 200.800465 
L 144.776474 200.442425 
L 140.607091 197.551399 
L 132.316015 191.601487 
L 132.075837 192.023047 
L 123.156142 185.845377 
L 116.604777 198.300288 
L 116.15009 199.615327 
L 114.837568 205.98432 
L 114.839779 207.28677 
L 102.757472 201.21573 
L 105.528568 214.865507 
L 105.788169 216.144494 
L 106.676677 220.522044 
L 103.722899 223.463619 
L 96.028905 231.895396 
L 95.902182 233.732712 
L 96.244759 233.87444 
L 95.188472 236.413148 
L 94.933678 237.025269 
L 94.889354 237.131898 
L 99.139597 239.034261 
L 100.906614 239.826641 
L 102.694111 240.625317 
L 99.262956 247.226072 
L 93.161181 244.463613 
L 91.928077 249.384613 
L 91.691744 249.542364 
L 91.604345 249.600734 
L 91.202732 250.105653 
L 85.837455 260.000682 
L 84.015826 261.850969 
L 82.67042 266.979698 
L 79.790773 272.946587 
L 76.161649 274.511129 
L 72.21235 277.454802 
L 64.681905 284.875215 
L 65.203798 285.177556 
L 65.258699 285.947428 
L 60.539924 290.225215 
L 61.944461 291.933011 
L 56.759558 296.485289 
L 61.366801 302.885375 
L 57.909975 304.744818 
L 54.186529 306.491527 
L 51.790797 311.585157 
L 45.496437 325.244853 
L 44.758689 326.568857 
L 43.835375 327.607497 
L 48.015911 332.240463 
L 52.78228 334.546646 
L 53.430705 332.070504 
L 53.658 331.202586 
L 54.763996 326.979544 
L 60.235326 327.976219 
L 60.772411 328.810184 
L 67.079848 331.95262 
L 73.223159 331.117511 
L 73.980424 331.514083 
L 70.937132 335.534356 
L 68.553515 339.022051 
L 67.189745 341.27139 
L 64.667386 346.835031 
L 63.456684 349.134919 
L 66.37556 350.09516 
L 66.462574 349.855004 
L 66.522475 349.689623 
L 67.468961 350.055293 
L 67.410983 350.522634 
L 67.708851 350.58005 
L 67.698659 350.638229 
L 67.697794 350.854541 
L 67.070521 351.248824 
L 67.055714 354.834947 
L 67.132441 356.06968 
L 68.598705 361.868517 
L 68.6912 363.569064 
L 69.925458 365.148485 
L 71.196829 365.335802 
L 72.275327 365.500993 
L 73.590831 365.848351 
L 76.804497 366.357084 
L 77.423309 366.572252 
L 85.486513 374.175024 
L 85.294504 374.345174 
L 79.490982 380.044439 
L 76.792767 382.301598 
L 67.583377 393.300696 
L 70.47985 396.149375 
L 70.809351 396.209271 
L 71.137314 395.890907 
L 78.400081 402.545455 
L 82.755608 397.841338 
L 122.972402 355.69142 
L 123.399878 355.158461 
L 125.371018 353.137642 
L 125.760131 352.988856 
L 128.718235 348.539012 
L 147.939759 358.524266 
L 147.564011 347.903619 
L 147.115478 333.65908 
L 153.07178 332.075845 
L 153.409358 331.915042 
L 154.609579 332.451816 
L 156.538606 332.534602 
L 157.49038 332.733937 
L 169.154633 324.773888 
L 177.226106 319.218067 
L 181.696626 315.734759 
L 182.739837 323.084023 
L 191.520981 323.472774 
L 196.520125 320.605973 
L 200.445003 320.78547 
L 200.885459 320.632488 
L 200.947378 320.786424 
L 211.348913 320.908314 
L 219.648258 321.324533 
L 223.226712 321.102499 
L 223.264595 321.12558 
L 223.296901 321.187955 
L 223.343148 321.22725 
L 223.409298 321.269025 
L 223.529388 321.317666 
L 223.582462 321.322244 
L 223.711781 321.343036 
L 223.781104 321.375464 
L 223.85735 321.430972 
L 223.880426 321.509562 
L 223.871195 321.548857 
L 223.811103 321.572128 
L 223.776489 321.59292 
L 223.774182 321.641371 
L 223.797257 321.683146 
L 223.836486 321.74781 
L 223.945037 321.803319 
L 224.13445 321.789585 
L 224.180697 321.759446 
L 224.206081 321.708515 
L 224.247617 321.692302 
L 224.310017 321.692302 
L 224.370014 321.734076 
L 224.446259 321.764024 
L 224.490199 321.812666 
L 224.510967 321.875041 
L 224.515583 321.949244 
L 224.494814 322.023255 
L 224.490199 322.104134 
L 224.510967 322.148197 
L 224.51789 322.208284 
L 224.545581 322.289162 
L 224.561734 322.421162 
L 224.580194 322.518254 
L 224.65644 322.576052 
L 224.739609 322.617827 
L 224.827392 322.613058 
L 224.845853 322.592266 
L 224.892773 322.586162 
L 224.957673 322.607717 
L 225.040746 322.698133 
L 225.130933 322.727127 
L 225.278905 322.741433 
L 225.417936 322.73552 
L 225.475625 322.724075 
L 225.51495 322.696225 
L 225.551871 322.670855 
L 225.584177 322.622214 
L 225.609848 322.583873 
L 225.700132 322.507954 
L 225.779454 322.464653 
L 225.819164 322.424786 
L 225.866084 322.377862 
L 225.927427 322.381486 
L 226.38942 322.403231 
L 226.512106 322.428411 
L 226.638349 322.475526 
L 226.775553 322.518827 
L 226.862182 322.544197 
L 226.995636 322.562318 
L 227.08592 322.576624 
L 227.230239 322.630988 
L 227.363789 322.656168 
L 227.464841 322.656168 
L 227.587527 322.659792 
L 227.681367 322.648919 
L 227.775112 322.620116 
L 227.854531 322.573 
L 227.944814 322.526075 
L 228.024137 322.489833 
L 228.107209 322.47915 
L 228.193743 322.482775 
L 228.273161 322.486399 
L 228.338158 322.439283 
L 228.428345 322.374237 
L 228.500553 322.327312 
L 228.601605 322.305567 
L 228.691792 322.283821 
L 228.803613 322.258642 
L 228.897453 322.229648 
L 228.955239 322.193596 
L 229.016581 322.135607 
L 229.041868 322.049006 
L 229.038215 321.962215 
L 228.998506 321.766885 
L 228.987737 321.658539 
L 229.023793 321.571747 
L 229.077924 321.524822 
L 229.139267 321.492204 
L 229.207821 321.477706 
L 229.377427 321.434406 
L 229.445981 321.41266 
L 229.500112 321.383857 
L 229.554244 321.340366 
L 229.586742 321.289817 
L 229.626451 321.206649 
L 229.669814 321.119857 
L 229.695005 321.040314 
L 229.763559 321.029632 
L 229.810479 321.058435 
L 229.846631 321.094678 
L 229.897109 321.094678 
L 229.998161 321.065684 
L 230.034217 321.029632 
L 230.09556 321.01151 
L 230.138923 321.015135 
L 230.22911 321.022383 
L 230.330162 321.018759 
L 230.416792 320.989765 
L 230.499768 320.960961 
L 230.626107 320.960961 
L 230.754754 320.990146 
L 230.829846 320.984424 
L 230.881766 321.027724 
L 230.916379 321.076938 
L 230.942435 321.137597 
L 230.936667 321.209892 
L 230.930898 321.282186 
L 230.953973 321.334262 
L 231.000125 321.337123 
L 231.086754 321.337123 
L 231.147424 321.308319 
L 231.216651 321.270741 
L 231.28309 321.20703 
L 231.372604 321.137597 
L 231.462022 321.076938 
L 231.539998 321.030586 
L 231.612206 320.978511 
L 231.672779 320.912129 
L 231.733449 320.851279 
L 231.817194 320.839834 
L 231.898055 320.851279 
L 231.987473 320.857193 
L 232.062565 320.909268 
L 232.120351 320.949707 
L 232.198231 320.964204 
L 232.256016 320.958291 
L 232.284861 320.920713 
L 232.256016 320.894771 
L 232.250247 320.851279 
L 232.273323 320.825337 
L 232.319474 320.782037 
L 232.354184 320.738545 
L 232.380144 320.677887 
L 232.408988 320.654806 
L 232.457639 320.600632 
L 232.544269 320.571638 
L 232.609169 320.510216 
L 232.710221 320.387372 
L 232.78964 320.340257 
L 232.908672 320.286084 
L 232.995302 320.257089 
L 233.103565 320.300581 
L 233.201059 320.282459 
L 233.320091 320.239159 
L 233.406721 320.174113 
L 233.478929 320.076448 
L 233.525849 319.971535 
L 233.641323 319.902864 
L 233.419317 317.726583 
L 233.38528 315.562892 
L 233.738241 311.874526 
L 234.052839 310.314754 
L 234.554157 308.859512 
L 234.938751 307.9296 
L 235.516507 306.772312 
L 236.333 305.41073 
L 236.669616 304.985927 
L 237.312945 304.292356 
L 236.929698 304.056969 
L 236.727305 303.628732 
L 237.000559 303.440079 
L 237.022 303.41242 
L 238.31837 302.531913 
L 238.380578 302.502918 
L 240.011929 300.536845 
L 240.025102 300.422776 
L 241.297531 298.863194 
L 241.470694 298.766674 
L 246.459839 292.149895 
L 247.849569 290.647348 
L 247.901682 290.584018 
L 248.911048 289.355199 
L 248.934124 289.343372 
L 248.965564 289.327158 
L 249.38333 288.818234 
L 249.46621 288.722286 
L 249.601202 288.562055 
L 250.198957 287.873062 
L 250.525477 287.504721 
L 250.868151 287.164421 
L 251.152558 286.877722 
L 253.93346 283.740627 
L 253.976246 283.645633 
L 253.965862 283.527939 
L 254.033839 283.414442 
L 254.1821 283.188021 
L 254.17287 283.112865 
L 254.261038 282.866414 
L 254.788893 281.525242 
L 254.928116 281.110549 
L 254.983306 280.880885 
L 255.16493 280.062753 
L 255.262136 279.441666 
L 255.312037 278.923968 
L 255.338382 278.426298 
L 255.345401 277.876553 
L 255.331267 277.589091 
L 255.322902 277.396623 
L 255.246176 276.054878 
L 255.003593 270.038203 
L 254.894464 267.525055 
L 254.729954 266.061612 
L 254.4617 264.347521 
L 253.555308 260.153093 
L 253.020531 257.932367 
L 251.634069 252.298529 
L 251.535133 252.252367 
L 251.482059 252.005154 
L 251.454656 251.888032 
L 251.441676 251.832333 
L 251.482636 251.677825 
L 250.627299 248.147401 
L 251.720795 247.755216 
L 253.041202 246.021478 
L 254.464681 245.402109 
L 254.382185 247.032841 
L 254.636883 248.373632 
L 254.856678 249.530347 
L 255.746532 249.661202 
L 261.252379 249.819335 
L 263.89002 250.042705 
L 266.474107 250.145901 
L 266.365747 247.003275 
L 266.328153 243.159828 
L 266.163547 240.625889 
L 266.334788 239.774185 
L 273.112198 239.330306 
L 271.936206 232.303222 
L 272.635013 229.979109 
L 274.523658 229.550872 
L 274.499621 227.649845 
L 274.012052 226.0895 
L 273.19277 224.962924 
L 272.208306 217.377319 
L 271.694681 212.328706 
L 271.354508 208.575676 
L 270.867131 203.202404 
L 271.367103 202.839596 
L 274.902579 202.48518 
L 275.190447 202.375307 
L 275.575137 201.957562 
L 275.653595 201.666857 
L 275.252655 197.658792 
L 277.751939 197.230174 
L 278.862646 197.051631 
L 278.264795 192.23974 
L 274.391357 194.786841 
L 264.168562 201.180632 
L 259.753424 204.016912 
L 251.583495 209.31827 
L 250.897572 208.575676 
L 247.214797 194.815263 
L 238.624507 197.089018 
L 237.327272 192.023238 
L 234.934136 182.712479 
L 232.525424 172.998282 
L 231.9993 173.090987 
L 228.275373 158.359079 
L 214.841795 160.072597 
L 201.849347 162.494565 
L 202.568826 166.058371 
L 202.65661 168.594217 
L 202.388356 170.928822 
L 201.534269 173.759379 
L 200.41337 176.210151 
L 199.180169 178.134831 
L 197.61218 180.011251 
L 196.068131 181.324001 
L 195.332499 181.949474 
L 190.570169 185.938655 
L 189.968376 186.424117 
L 189.185246 187.080301 
L 184.356669 191.115834 
L 179.587032 194.964622 
" clip-path="url(#paa45881c49)" style="fill: #ffffff; stroke: #000000"/>
    <path d="M 279.347331 274.928302 
L 279.088788 274.533256 
L 279.268681 274.376267 
L 279.405308 274.230534 
L 279.204166 273.698719 
L 279.413096 273.548979 
L 279.320217 273.130853 
L 279.464632 273.083165 
L 279.50463 272.831373 
L 279.551069 272.578437 
L 279.671928 272.477148 
L 279.848937 272.035941 
L 279.892781 271.930074 
L 279.988834 271.687057 
L 279.998064 271.663403 
L 279.986334 271.562496 
L 279.888166 270.812653 
L 279.746251 270.218463 
L 279.733463 270.148648 
L 279.679908 269.772486 
L 279.45569 269.021499 
L 279.417038 267.525628 
L 279.328774 267.348611 
L 279.122247 267.059813 
L 279.021099 266.918276 
L 278.933796 266.72886 
L 278.933412 266.67564 
L 278.791593 266.36586 
L 278.618718 265.896231 
L 278.544491 265.722456 
L 278.799284 265.601902 
L 279.039367 265.457503 
L 279.216377 265.31978 
L 279.356369 265.165844 
L 279.517225 264.998746 
L 279.71308 264.762978 
L 279.728463 264.735509 
L 279.780287 264.642995 
L 279.802402 264.575278 
L 279.828266 264.495926 
L 279.855379 264.226394 
L 279.872302 263.983568 
L 279.915665 263.979372 
L 279.983353 263.972504 
L 279.969123 263.909175 
L 279.91278 263.694389 
L 279.92201 263.596725 
L 279.968162 263.490095 
L 279.868456 263.209118 
L 279.875378 263.068916 
L 279.932587 262.870153 
L 279.997198 262.500096 
L 280.077771 262.306102 
L 280.174015 262.169905 
L 280.222859 262.073957 
L 280.212667 261.976674 
L 279.886051 261.798322 
L 279.841149 261.681582 
L 279.894031 261.490068 
L 279.829708 261.365698 
L 279.767596 261.214432 
L 279.817497 261.090826 
L 279.930375 260.918196 
L 279.95547 260.671173 
L 280.05931 260.464589 
L 280.193341 259.904544 
L 280.16892 259.695671 
L 280.317854 259.249695 
L 280.295066 259.031285 
L 280.339199 258.662944 
L 280.446596 258.069517 
L 280.564474 257.697743 
L 280.75331 257.405703 
L 281.012719 257.229639 
L 281.209054 257.10031 
L 281.465193 256.971934 
L 281.989203 256.860917 
L 283.94669 255.14015 
L 284.203118 255.087694 
L 284.35109 254.933567 
L 284.515312 254.554925 
L 284.564155 254.442382 
L 282.483983 253.497782 
L 282.584169 253.262014 
L 283.742374 252.143067 
L 281.564996 251.238334 
L 277.210046 249.17307 
L 277.190624 248.797672 
L 276.90814 248.373822 
L 276.703921 248.526042 
L 275.395148 249.037255 
L 272.678857 250.04156 
L 272.684049 251.064559 
L 271.255378 250.956213 
L 271.119521 251.056929 
L 269.276835 251.272097 
L 269.120017 251.250351 
L 269.202512 251.972917 
L 267.882201 251.900622 
L 267.861529 250.889068 
L 266.489587 250.703276 
L 266.427667 251.415542 
L 264.137603 251.467044 
L 263.778488 251.228796 
L 263.89002 250.042705 
L 261.252379 249.819335 
L 255.746532 249.661202 
L 254.856678 249.530347 
L 254.636883 248.373632 
L 254.382185 247.032841 
L 254.464681 245.402109 
L 253.041202 246.021478 
L 251.720795 247.755216 
L 250.627299 248.147401 
L 251.482636 251.677825 
L 251.441676 251.832333 
L 251.454656 251.888032 
L 251.482059 252.005154 
L 251.535133 252.252367 
L 251.634069 252.298529 
L 253.020531 257.932367 
L 253.555308 260.153093 
L 254.4617 264.347521 
L 254.729954 266.061612 
L 254.894464 267.525055 
L 255.003593 270.038203 
L 255.246176 276.054878 
L 255.322902 277.396623 
L 255.331267 277.589091 
L 255.345401 277.876553 
L 255.338382 278.426298 
L 255.312037 278.923968 
L 255.262136 279.441666 
L 255.16493 280.062753 
L 254.983306 280.880885 
L 254.928116 281.110549 
L 254.788893 281.525242 
L 254.261038 282.866414 
L 254.17287 283.112865 
L 254.1821 283.188021 
L 254.033839 283.414442 
L 253.965862 283.527939 
L 253.976246 283.645633 
L 253.93346 283.740627 
L 253.999611 283.823795 
L 254.169986 283.994898 
L 254.240943 284.062234 
L 254.336419 284.153794 
L 254.597269 284.310592 
L 254.750049 284.41932 
L 254.943404 284.544262 
L 254.967441 284.581458 
L 255.000516 284.679505 
L 255.027053 284.818372 
L 255.328286 284.636013 
L 255.53116 284.487227 
L 255.62577 284.406349 
L 255.814605 284.215979 
L 255.967001 284.027135 
L 256.081129 283.874534 
L 256.193911 283.696754 
L 256.298425 283.524506 
L 256.479761 283.186685 
L 256.882623 282.434363 
L 257.039537 282.140033 
L 258.093517 280.142105 
L 258.296294 280.04425 
L 258.57974 279.907672 
L 258.750307 279.821834 
L 258.946354 279.72684 
L 259.203743 279.597129 
L 259.665448 279.283915 
L 259.669871 279.280672 
L 260.768367 278.469407 
L 260.814711 278.4345 
L 261.196709 278.164396 
L 261.373622 278.039263 
L 261.741102 277.796628 
L 261.888401 277.720327 
L 261.913496 277.707356 
L 261.999741 277.6652 
L 262.250496 277.569443 
L 262.50154 277.482079 
L 262.643071 277.438016 
L 262.996032 277.328334 
L 263.379953 277.2259 
L 263.479466 277.199386 
L 263.608978 277.173444 
L 263.748394 277.15475 
L 264.007994 277.12938 
L 264.144333 277.123848 
L 264.649786 277.122704 
L 264.758433 277.128045 
L 264.859582 277.137773 
L 264.960922 277.169247 
L 265.051013 277.198623 
L 265.158123 277.255276 
L 265.259463 277.310784 
L 265.363303 277.360952 
L 265.480701 277.411883 
L 265.617808 277.448125 
L 265.746455 277.473305 
L 266.345556 277.539877 
L 266.718036 277.589091 
L 267.08715 277.645744 
L 267.366461 277.694194 
L 267.680001 277.745888 
L 267.704807 277.750085 
L 268.042 277.793385 
L 268.16257 277.804258 
L 268.289006 277.815894 
L 268.366982 277.815512 
L 268.53428 277.814558 
L 268.92772 277.774882 
L 269.140016 277.748749 
L 269.337216 277.716512 
L 269.502303 277.684275 
L 269.655852 277.645744 
L 269.73056 277.79472 
L 269.752482 277.880558 
L 269.784114 277.940454 
L 269.829881 277.99024 
L 269.891128 278.03335 
L 269.993622 278.070165 
L 270.132268 278.106408 
L 270.30697 278.176032 
L 270.444943 278.231541 
L 271.272781 278.729783 
L 271.53719 278.884482 
L 271.785926 278.99569 
L 272.276764 279.251488 
L 272.318492 279.266748 
L 272.35974 279.273233 
L 272.424929 279.270372 
L 272.497713 279.255112 
L 272.638282 279.204753 
L 272.940861 279.070274 
L 274.140602 278.514806 
L 274.66788 278.267783 
L 275.318421 277.965252 
L 276.399418 277.499819 
L 276.652097 277.375258 
L 276.749207 277.302201 
L 276.806703 277.2156 
L 276.836798 277.10897 
L 276.864969 276.910398 
L 276.880065 276.696565 
L 276.897179 276.598329 
L 276.938138 276.510583 
L 276.997462 276.437525 
L 277.060632 276.387548 
L 277.139762 276.347109 
L 277.220815 276.318687 
L 277.310041 276.313156 
L 277.420611 276.31678 
L 277.538201 276.338144 
L 277.641849 276.350543 
L 277.734536 276.349398 
L 277.812032 276.333375 
L 277.880874 276.300757 
L 277.959235 276.241052 
L 278.04 276.160173 
L 278.138841 276.046295 
L 278.266526 275.891214 
L 278.352963 275.803277 
L 278.440843 275.720682 
L 278.759191 275.511047 
L 278.786401 275.487584 
L 278.817745 275.459735 
L 278.837648 275.426735 
L 278.841301 275.390683 
L 278.835436 275.350816 
L 278.821591 275.313619 
L 278.886972 275.272035 
L 278.921585 275.246665 
L 279.347331 274.928302 
" clip-path="url(#paa45881c49)" style="fill: #ffffff; stroke: #000000"/>
    <path d="M 368.260927 205.964864 
L 368.59687 204.905431 
L 368.643502 204.701137 
L 368.540431 203.896739 
L 368.530143 203.25219 
L 368.261889 202.555948 
L 368.127762 201.782452 
L 368.189681 200.709858 
L 368.024595 200.369558 
L 367.993635 199.998356 
L 368.303137 199.719859 
L 368.241217 199.080461 
L 368.849837 197.739671 
L 369.035596 197.72937 
L 369.850454 197.471665 
L 369.747287 196.770273 
L 369.829878 196.450764 
L 369.953621 196.234071 
L 369.437881 196.099973 
L 369.334714 195.996967 
L 369.695751 195.439974 
L 369.902086 195.316367 
L 370.108421 195.171968 
L 370.129189 194.974731 
L 370.098037 194.811067 
L 369.829878 194.599715 
L 369.757671 194.321218 
L 369.902086 193.929415 
L 370.242548 193.290017 
L 370.692715 192.919196 
L 370.758288 192.815618 
L 370.790017 192.720052 
L 370.789248 192.49611 
L 370.603585 191.805209 
L 370.180628 190.908106 
L 370.13938 190.206904 
L 370.180628 188.598299 
L 370.134188 186.427932 
L 369.902086 184.829627 
L 369.788631 184.092374 
L 369.403556 182.727549 
L 369.350482 182.543283 
L 369.257891 181.897208 
L 363.99655 182.295688 
L 361.370927 182.539659 
L 336.94181 184.81017 
L 337.973387 174.397251 
L 335.126238 173.737634 
L 328.792457 170.005967 
L 328.421131 169.428563 
L 327.513297 169.222552 
L 327.018133 168.459738 
L 326.337305 168.480339 
L 325.821565 167.944328 
L 324.579134 167.769791 
L 324.684897 167.555958 
L 324.718742 167.33545 
L 324.701339 167.132109 
L 324.613844 166.996485 
L 324.353089 166.873641 
L 324.084931 166.82252 
L 323.834945 166.709023 
L 323.349587 166.210781 
L 323.104409 165.872007 
L 322.952686 165.574244 
L 322.832212 165.381013 
L 322.658664 165.20762 
L 322.592129 164.962886 
L 322.641646 164.733794 
L 322.811252 164.543233 
L 322.91615 164.312424 
L 322.981339 164.09039 
L 322.984896 163.842986 
L 323.014317 163.634113 
L 322.964801 163.385755 
L 322.78558 163.250322 
L 322.549343 163.177264 
L 322.431946 163.03916 
L 322.356662 162.898767 
L 322.447907 162.637438 
L 322.658376 162.433334 
L 322.997011 162.477398 
L 323.278726 162.677877 
L 323.483714 162.889993 
L 323.70726 162.979836 
L 323.906479 162.987466 
L 324.058202 162.891137 
L 324.125602 162.784507 
L 324.102622 162.631906 
L 323.99782 162.489033 
L 323.836868 162.355508 
L 323.650628 162.201571 
L 323.591401 162.060225 
L 323.625245 161.951496 
L 323.765526 161.786687 
L 323.980033 161.745485 
L 324.186367 161.712485 
L 324.227615 161.547485 
L 324.103872 161.151677 
L 323.938785 160.970463 
L 323.748988 160.912665 
L 323.435352 160.821868 
L 323.313435 160.697116 
L 323.276514 160.526394 
L 323.315262 160.355481 
L 323.341607 160.068019 
L 323.286418 159.83988 
L 323.196038 159.535251 
L 323.14806 159.363193 
L 323.07143 159.201245 
L 322.761832 158.82165 
L 321.48671 156.895063 
L 321.314124 156.605121 
L 321.263261 156.364011 
L 321.317489 156.160671 
L 321.41508 156.044503 
L 322.338682 155.244302 
L 322.525979 155.026464 
L 322.849038 154.49236 
L 323.726393 152.1816 
L 323.860809 151.935531 
L 323.953207 151.710826 
L 323.951188 151.544109 
L 323.923305 151.362514 
L 323.923305 151.098705 
L 323.956284 150.843098 
L 323.906768 150.604087 
L 323.807735 150.422683 
L 323.849079 150.299076 
L 324.071855 150.010469 
L 324.125602 149.882666 
L 324.197232 149.667308 
L 324.439623 149.333875 
L 324.57298 149.217326 
L 324.634612 149.018563 
L 324.60394 148.93139 
L 324.513945 148.888852 
L 324.159061 148.707448 
L 324.035318 148.583841 
L 324.043106 148.455465 
L 324.165503 148.40072 
L 324.394721 148.393662 
L 324.675379 148.36791 
L 324.810275 148.307824 
L 324.922961 148.226755 
L 324.951325 147.932425 
L 325.006033 147.475958 
L 324.921903 147.099987 
L 324.880656 145.885665 
L 324.886809 145.697012 
L 324.961709 145.42748 
L 325.024013 145.264388 
L 325.106508 145.183319 
L 325.238136 145.194764 
L 325.355629 145.30292 
L 325.544465 145.500729 
L 325.689361 145.795058 
L 325.842525 145.986954 
L 326.067416 146.277658 
L 326.189717 146.325728 
L 326.279904 146.316762 
L 326.383168 146.263924 
L 326.446049 146.175034 
L 326.444991 146.037121 
L 326.43778 145.899399 
L 326.440857 145.70922 
L 326.496623 145.367394 
L 326.691035 144.750886 
L 326.95304 144.313684 
L 327.328019 143.761268 
L 327.394073 143.514055 
L 327.352729 143.192639 
L 327.171201 142.945234 
L 327.03092 142.714425 
L 326.329421 142.417807 
L 326.090107 142.384807 
L 325.867331 142.475414 
L 325.702244 142.722628 
L 325.4712 142.722628 
L 325.198907 142.607223 
L 325.025551 142.475414 
L 324.934787 142.277605 
L 324.910077 141.947796 
L 325.058626 141.642976 
L 325.240155 141.453369 
L 325.325246 141.261092 
L 325.553695 140.900953 
L 325.892042 140.530133 
L 326.329421 140.15092 
L 326.62652 139.936706 
L 327.047458 139.656302 
L 327.360998 139.48329 
L 327.682903 139.400886 
L 328.087207 139.359683 
L 328.285273 139.293684 
L 328.417862 139.185528 
L 328.444976 139.080805 
L 328.424016 138.94747 
L 328.004712 137.216593 
L 327.847894 137.010582 
L 327.633387 136.919975 
L 327.336288 136.87038 
L 327.129953 136.746773 
L 327.00621 136.573762 
L 327.047458 136.359357 
L 327.460031 135.667121 
L 327.517816 135.535121 
L 327.394073 135.403312 
L 327.261965 135.403312 
L 326.931887 135.782526 
L 326.7668 135.906132 
L 326.593541 135.86493 
L 326.428454 135.658919 
L 326.238657 135.32911 
L 326.18914 134.941694 
L 326.230388 134.645076 
L 326.378937 134.307065 
L 326.519314 134.059851 
L 326.758628 133.804435 
L 327.014383 133.680828 
L 327.270234 133.515829 
L 327.542622 133.161604 
L 327.699345 132.675188 
L 327.748861 132.296165 
L 327.666366 131.999356 
L 327.550795 131.752143 
L 327.369267 131.587334 
L 327.20418 131.422525 
L 327.129953 131.265918 
L 327.129953 131.076311 
L 327.228986 130.705491 
L 327.220717 130.573682 
L 327.237255 130.351075 
L 327.344557 130.233572 
L 328.330463 130.542589 
L 328.706211 130.689086 
L 328.806687 130.967583 
L 328.655349 131.088138 
L 328.508146 131.232918 
L 328.615447 131.348322 
L 328.875913 131.433588 
L 329.242624 131.587334 
L 329.539723 131.760345 
L 329.952296 131.818143 
L 330.356696 131.933547 
L 330.587741 131.933547 
L 330.710523 131.865258 
L 330.800806 131.803455 
L 330.851861 131.727536 
L 331.09877 131.378461 
L 331.325392 131.147652 
L 331.478268 131.018704 
L 331.771425 130.810022 
L 332.037083 130.666196 
L 332.284666 130.616791 
L 332.495615 130.511306 
L 332.710123 130.245017 
L 332.789637 130.026607 
L 332.788099 129.784353 
L 332.771562 129.561937 
L 332.614743 129.364128 
L 332.325913 129.199319 
L 331.96276 129.050915 
L 330.683697 128.779094 
L 330.452556 128.696499 
L 330.287565 128.589487 
L 330.188533 128.399881 
L 330.147285 127.971263 
L 330.159688 127.697916 
L 330.227953 127.593766 
L 330.398136 127.409309 
L 330.601971 127.241448 
L 330.836669 127.037917 
L 331.027428 126.834957 
L 331.179054 126.658703 
L 331.250781 126.390889 
L 331.391062 126.12727 
L 331.566917 125.925265 
L 331.723735 125.760456 
L 331.838729 125.69045 
L 332.086311 125.492641 
L 332.309087 125.336034 
L 332.540132 125.154821 
L 332.738198 124.940607 
L 332.8455 124.767405 
L 332.994049 124.652191 
L 333.159136 124.594393 
L 333.266438 124.734596 
L 333.225094 125.006416 
L 333.258169 125.196023 
L 333.39845 125.25363 
L 333.53873 125.196023 
L 333.695548 124.973416 
L 333.901883 124.676798 
L 334.165907 124.34718 
L 334.430027 124.124764 
L 334.710588 123.935157 
L 335.073741 123.803348 
L 335.238732 123.654944 
L 335.296517 123.383123 
L 335.263538 123.086505 
L 335.255269 122.765089 
L 335.346033 122.468471 
L 335.51112 122.13046 
L 335.458431 121.643281 
L 335.338822 121.440322 
L 335.097874 121.171363 
L 334.917499 121.144467 
L 334.765969 121.221721 
L 334.570884 121.475992 
L 334.356281 122.37424 
L 334.194463 122.680014 
L 333.893037 122.855314 
L 333.561229 122.795228 
L 333.209037 122.734569 
L 333.098562 122.665517 
L 333.0502 122.544008 
L 333.053277 122.304997 
L 333.132118 121.887824 
L 333.175962 121.692113 
L 333.264034 121.560304 
L 333.659493 121.32301 
L 333.811023 121.202455 
L 333.918324 121.042796 
L 333.932362 120.931588 
L 333.585747 119.558561 
L 333.469503 119.107244 
L 333.347299 118.694076 
L 333.181346 118.521828 
L 332.457252 118.554065 
L 332.264378 118.632082 
L 332.007373 119.104764 
L 331.859882 119.574584 
L 331.654893 119.72852 
L 331.48846 119.784601 
L 330.999833 119.816075 
L 330.733406 119.85785 
L 330.628508 119.824468 
L 330.530533 119.744543 
L 330.447653 119.632191 
L 330.389867 119.376775 
L 330.406405 118.849348 
L 330.558512 118.29369 
L 330.788018 117.648378 
L 330.956182 117.082991 
L 331.101366 116.548125 
L 323.923497 113.645082 
L 323.263246 115.292982 
L 316.454972 107.445285 
L 312.865172 106.848043 
L 312.576342 105.85957 
L 309.919375 104.291404 
L 309.47815 104.085393 
L 307.650655 103.130683 
L 304.953018 100.638709 
L 304.757067 100.999038 
L 304.005474 101.252547 
L 303.236959 100.804663 
L 303.008607 101.225651 
L 302.286532 100.788067 
L 302.152405 100.355444 
L 300.831997 99.588433 
L 299.594182 101.627182 
L 294.730319 98.919087 
L 284.600403 89.838184 
L 274.237135 80.353078 
L 272.696163 67.419191 
L 277.843665 64.807807 
L 276.596907 63.483993 
L 271.170864 56.898116 
L 266.223063 50.635944 
L 270.137941 50.635753 
L 265.372149 38.722385 
L 261.132386 39.277852 
L 259.942356 33.009385 
L 259.174803 32.447623 
L 255.873737 32.900085 
L 258.148418 29.454545 
L 256.683499 29.95336 
L 255.332228 32.072225 
L 254.166524 33.501905 
L 252.649974 35.115661 
L 252.320089 35.466643 
L 249.44198 37.554797 
L 245.361535 39.48024 
L 243.380299 40.418545 
L 232.940882 45.161193 
L 224.592309 48.831246 
L 221.325568 49.893731 
L 220.094868 50.16784 
L 218.045174 50.624308 
L 208.864244 52.455711 
L 201.973475 53.875663 
L 200.972858 49.760014 
L 198.82067 50.555638 
L 196.388787 51.463995 
L 193.747972 52.647225 
L 191.303205 53.14108 
L 190.148077 53.179993 
L 189.979913 53.195444 
L 188.78623 53.285097 
L 188.312506 53.248854 
L 188.268663 53.402409 
L 188.339428 53.568363 
L 188.255779 53.687582 
L 187.964545 53.712571 
L 186.577699 53.835987 
L 186.272716 53.901414 
L 186.155319 53.988397 
L 186.095707 54.143668 
L 186.098976 54.342622 
L 186.084746 54.480535 
L 186.027057 54.613679 
L 185.851778 54.859176 
L 185.73515 54.940436 
L 185.533911 55.036193 
L 184.915581 55.238008 
L 184.418974 55.506777 
L 183.99717 55.693904 
L 183.315766 55.625996 
L 183.253462 55.658042 
L 183.217791 55.745406 
L 183.202311 55.962481 
L 183.112893 57.212283 
L 183.081548 57.314335 
L 183.017513 57.409329 
L 182.958574 57.451867 
L 182.866656 57.523208 
L 182.740029 57.553156 
L 182.54879 57.58215 
L 180.582072 57.42459 
L 179.991144 57.42974 
L 178.196821 57.492688 
L 177.408403 57.397121 
L 177.152071 57.423064 
L 176.774592 57.642237 
L 176.493454 57.748867 
L 173.726013 58.426606 
L 171.395566 60.068592 
L 170.419178 60.776852 
L 169.612011 60.901603 
L 169.239628 60.866314 
L 168.872822 60.832742 
L 168.69062 60.902748 
L 168.333237 61.176476 
L 167.948739 61.435897 
L 167.529243 61.732134 
L 167.095133 62.069191 
L 166.808802 62.249833 
L 166.453726 62.46996 
L 166.345463 62.593376 
L 166.16903 62.827046 
L 165.940774 63.088375 
L 165.403977 63.69401 
L 164.86843 64.374229 
L 164.69642 64.648911 
L 164.486817 64.939616 
L 164.16818 65.457315 
L 163.275153 66.940596 
L 163.096317 67.178463 
L 163.093529 67.295203 
L 163.04007 67.439602 
L 162.932865 67.600405 
L 162.86008 67.653052 
L 162.777297 67.715619 
L 162.680956 67.893208 
L 162.379242 68.255254 
L 162.329148 68.303323 
L 162.107911 68.385728 
L 161.874751 68.488543 
L 161.522367 68.65812 
L 161.444679 68.686352 
L 161.404008 68.701039 
L 161.293629 68.787259 
L 161.147676 68.840288 
L 161.035182 68.889883 
L 160.792119 68.98545 
L 159.642471 69.386027 
L 159.414888 69.460802 
L 159.061735 69.58479 
L 158.891936 69.725183 
L 158.747041 69.90487 
L 158.715889 70.028096 
L 158.62849 70.155136 
L 158.520899 70.363627 
L 158.382734 70.711939 
L 158.338794 70.903453 
L 158.303508 71.139985 
L 158.276682 71.251574 
L 158.196398 71.425349 
L 157.94247 71.782244 
L 157.804113 71.970325 
L 157.713733 72.055972 
L 157.660947 72.129984 
L 157.48413 72.368804 
L 157.383271 72.496035 
L 157.29866 72.589694 
L 157.074249 72.706243 
L 156.763401 72.832902 
L 156.711962 72.869526 
L 156.622448 72.938006 
L 156.489763 73.020601 
L 156.326022 73.082214 
L 156.214105 73.135052 
L 155.295022 73.604491 
L 155.131858 73.687849 
L 154.993115 73.792953 
L 154.559101 74.181895 
L 154.400937 74.357004 
L 151.962227 76.352453 
L 151.723009 76.493609 
L 151.552827 76.498568 
L 150.499905 76.520505 
L 147.535935 76.605961 
L 147.474497 76.604435 
L 147.381233 76.613019 
L 147.431326 78.21285 
L 147.188359 78.217046 
L 146.823571 78.289722 
L 146.694059 78.320815 
L 146.547144 78.334358 
L 146.172069 78.345231 
L 146.240912 80.705587 
L 146.430324 86.106136 
L 146.554067 90.234374 
L 148.039561 92.695065 
L 148.648181 93.930561 
L 149.14325 96.082425 
L 149.14325 97.698851 
L 148.596549 99.953912 
L 146.904817 102.538401 
L 146.942892 104.982305 
L 146.946064 105.184883 
L 147.60247 129.478388 
L 147.89505 130.512069 
L 148.735772 131.949189 
L 150.621917 134.047452 
L 151.329281 134.788521 
L 152.072894 135.75582 
L 153.063223 137.053883 
L 153.669247 138.612129 
L 154.341421 139.187817 
L 154.470356 139.78544 
L 156.641774 138.925152 
L 157.096556 139.923353 
L 156.954352 141.19471 
L 158.07054 141.624664 
L 157.936413 142.150183 
L 159.749869 142.863784 
L 159.352776 145.846942 
L 156.190933 145.280029 
L 155.677308 147.874055 
L 155.425495 147.811108 
L 153.545504 157.119195 
L 151.97088 156.887623 
L 151.53552 155.973925 
L 151.213134 155.828954 
L 150.948533 155.709925 
L 148.421174 160.765215 
L 139.776753 177.47445 
L 132.536772 191.182978 
L 132.316015 191.601487 
L 140.607091 197.551399 
L 144.776474 200.442425 
L 144.796377 200.429263 
L 146.283409 199.444796 
L 149.579764 197.221399 
L 154.856489 192.5087 
L 172.870964 191.396048 
L 173.699091 193.050815 
L 176.094919 195.32972 
L 178.365561 193.472947 
L 179.587032 194.964622 
L 184.356669 191.115834 
L 189.185246 187.080301 
L 189.968376 186.424117 
L 190.570169 185.938655 
L 195.332499 181.949474 
L 196.068131 181.324001 
L 197.61218 180.011251 
L 199.180169 178.134831 
L 200.41337 176.210151 
L 201.534269 173.759379 
L 202.388356 170.928822 
L 202.65661 168.594217 
L 202.568826 166.058371 
L 201.849347 162.494565 
L 214.841795 160.072597 
L 228.275373 158.359079 
L 231.9993 173.090987 
L 232.525424 172.998282 
L 234.934136 182.712479 
L 237.327272 192.023238 
L 238.624507 197.089018 
L 247.214797 194.815263 
L 250.897572 208.575676 
L 251.583495 209.31827 
L 259.753424 204.016912 
L 264.168562 201.180632 
L 274.391357 194.786841 
L 278.264795 192.23974 
L 278.862646 197.051631 
L 277.751939 197.230174 
L 275.252655 197.658792 
L 275.653595 201.666857 
L 275.575137 201.957562 
L 275.190447 202.375307 
L 274.902579 202.48518 
L 271.367103 202.839596 
L 270.867131 203.202404 
L 271.354508 208.575676 
L 271.694681 212.328706 
L 272.208306 217.377319 
L 273.19277 224.962924 
L 274.012052 226.0895 
L 274.499621 227.649845 
L 274.523658 229.550872 
L 272.635013 229.979109 
L 271.936206 232.303222 
L 273.112198 239.330306 
L 266.334788 239.774185 
L 266.163547 240.625889 
L 266.328153 243.159828 
L 266.365747 247.003275 
L 266.474107 250.145901 
L 263.89002 250.042705 
L 263.778488 251.228796 
L 264.137603 251.467044 
L 266.427667 251.415542 
L 266.489587 250.703276 
L 267.861529 250.889068 
L 267.882201 251.900622 
L 269.202512 251.972917 
L 269.120017 251.250351 
L 269.276835 251.272097 
L 271.119521 251.056929 
L 271.255378 250.956213 
L 272.684049 251.064559 
L 272.678857 250.04156 
L 275.395148 249.037255 
L 276.703921 248.526042 
L 276.90814 248.373822 
L 277.190624 248.797672 
L 277.210046 249.17307 
L 281.564996 251.238334 
L 283.742374 252.143067 
L 282.584169 253.262014 
L 282.483983 253.497782 
L 284.564155 254.442382 
L 284.515312 254.554925 
L 284.35109 254.933567 
L 284.203118 255.087694 
L 283.94669 255.14015 
L 281.989203 256.860917 
L 281.465193 256.971934 
L 281.209054 257.10031 
L 281.012719 257.229639 
L 280.75331 257.405703 
L 280.564474 257.697743 
L 280.446596 258.069517 
L 280.339199 258.662944 
L 280.295066 259.031285 
L 280.317854 259.249695 
L 280.16892 259.695671 
L 280.193341 259.904544 
L 280.05931 260.464589 
L 279.95547 260.671173 
L 279.930375 260.918196 
L 279.817497 261.090826 
L 279.767596 261.214432 
L 279.829708 261.365698 
L 279.894031 261.490068 
L 279.841149 261.681582 
L 279.886051 261.798322 
L 280.212667 261.976674 
L 280.222859 262.073957 
L 280.174015 262.169905 
L 280.077771 262.306102 
L 279.997198 262.500096 
L 279.932587 262.870153 
L 279.875378 263.068916 
L 279.868456 263.209118 
L 279.968162 263.490095 
L 279.92201 263.596725 
L 279.91278 263.694389 
L 279.969123 263.909175 
L 280.215167 263.881898 
L 280.452365 263.848135 
L 280.678795 263.818759 
L 280.819845 263.799112 
L 280.937819 263.774314 
L 281.081273 263.723193 
L 281.218284 263.654713 
L 281.340008 263.575742 
L 281.522883 263.421043 
L 281.681239 263.255852 
L 281.776907 263.118893 
L 281.868825 262.965529 
L 281.939013 262.829142 
L 281.992952 262.669864 
L 282.110638 262.675396 
L 282.942515 262.685506 
L 283.570364 262.700194 
L 288.157993 262.899529 
L 289.232837 262.927569 
L 289.333504 262.928904 
L 289.381194 262.914026 
L 289.4185 262.871298 
L 289.452055 262.825708 
L 293.528751 262.960569 
L 294.204963 262.982887 
L 294.315246 263.000627 
L 294.357839 263.024852 
L 294.414471 263.068534 
L 294.468699 263.134725 
L 294.493217 263.177263 
L 294.53706 263.243072 
L 294.589557 263.275118 
L 294.675033 263.279124 
L 294.791085 263.338447 
L 294.866753 263.437829 
L 295.804105 265.087636 
L 299.240259 270.645364 
L 301.686854 274.654001 
L 302.920823 276.636097 
L 303.097736 276.852028 
L 303.13485 276.976588 
L 303.151003 277.081311 
L 303.553288 277.772402 
L 303.920191 278.405887 
L 306.072763 281.917808 
L 306.105838 282.24323 
L 304.94821 290.548157 
L 304.147486 296.018712 
L 303.519155 298.098472 
L 312.673164 296.821393 
L 313.523885 296.702364 
L 325.959538 294.815834 
L 326.403936 294.723702 
L 334.509638 293.510142 
L 336.200505 291.165047 
L 337.138145 288.486518 
L 336.74009 285.507937 
L 336.169641 284.077112 
L 334.225519 283.618737 
L 333.595169 282.916772 
L 334.075143 281.547369 
L 334.769815 280.507203 
L 336.007919 277.254704 
L 337.959445 276.072427 
L 338.251736 275.509902 
L 338.271062 271.692398 
L 338.610659 270.861485 
L 338.276927 267.946616 
L 343.757583 267.592391 
L 344.353992 262.242009 
L 376.699399 266.659808 
L 388.164625 219.00004 
L 387.740802 218.674237 
L 382.382159 217.724105 
L 381.715273 217.489863 
L 381.252895 217.275649 
L 379.5028 216.286413 
L 370.789248 208.182156 
L 370.394751 207.300313 
L 369.17953 207.060157 
L 368.095167 206.193574 
L 368.260927 205.964864 
" clip-path="url(#paa45881c49)" style="fill: #ffffff; stroke: #000000"/>
   </g>
   <g id="text_1">
    <!-- 1 -->
    <g transform="translate(157.464772 216.878829) scale(0.13 -0.13)">
     <defs>
      <path id="DejaVuSans-31" d="M 794 531 
L 1825 531 
L 1825 4091 
L 703 3866 
L 703 4441 
L 1819 4666 
L 2450 4666 
L 2450 531 
L 3481 531 
L 3481 0 
L 794 0 
L 794 531 
z
" transform="scale(0.015625)"/>
     </defs>
     <use xlink:href="#DejaVuSans-31"/>
    </g>
   </g>
   <g id="text_2">
    <!-- 2 -->
    <g transform="translate(245.354383 338.382074) scale(0.13 -0.13)">
     <defs>
      <path id="DejaVuSans-32" d="M 1228 531 
L 3431 531 
L 3431 0 
L 469 0 
L 469 531 
Q 828 903 1448 1529 
Q 2069 2156 2228 2338 
Q 2531 2678 2651 2914 
Q 2772 3150 2772 3378 
Q 2772 3750 2511 3984 
Q 2250 4219 1831 4219 
Q 1534 4219 1204 4116 
Q 875 4013 500 3803 
L 500 4441 
Q 881 4594 1212 4672 
Q 1544 4750 1819 4750 
Q 2544 4750 2975 4387 
Q 3406 4025 3406 3419 
Q 3406 3131 3298 2873 
Q 3191 2616 2906 2266 
Q 2828 2175 2409 1742 
Q 1991 1309 1228 531 
z
" transform="scale(0.015625)"/>
     </defs>
     <use xlink:href="#DejaVuSans-32"/>
    </g>
   </g>
   <g id="text_3">
    <!-- 3 -->
    <g transform="translate(156.503077 276.260582) scale(0.13 -0.13)">
     <defs>
      <path id="DejaVuSans-33" d="M 2597 2516 
Q 3050 2419 3304 2112 
Q 3559 1806 3559 1356 
Q 3559 666 3084 287 
Q 2609 -91 1734 -91 
Q 1441 -91 1130 -33 
Q 819 25 488 141 
L 488 750 
Q 750 597 1062 519 
Q 1375 441 1716 441 
Q 2309 441 2620 675 
Q 2931 909 2931 1356 
Q 2931 1769 2642 2001 
Q 2353 2234 1838 2234 
L 1294 2234 
L 1294 2753 
L 1863 2753 
Q 2328 2753 2575 2939 
Q 2822 3125 2822 3475 
Q 2822 3834 2567 4026 
Q 2313 4219 1838 4219 
Q 1578 4219 1281 4162 
Q 984 4106 628 3988 
L 628 4550 
Q 988 4650 1302 4700 
Q 1616 4750 1894 4750 
Q 2613 4750 3031 4423 
Q 3450 4097 3450 3541 
Q 3450 3153 3228 2886 
Q 3006 2619 2597 2516 
z
" transform="scale(0.015625)"/>
     </defs>
     <use xlink:href="#DejaVuSans-33"/>
    </g>
   </g>
   <g id="text_4">
    <!-- 4 -->
    <g transform="translate(262.486662 267.044589) scale(0.13 -0.13)">
     <defs>
      <path id="DejaVuSans-34" d="M 2419 4116 
L 825 1625 
L 2419 1625 
L 2419 4116 
z
M 2253 4666 
L 3047 4666 
L 3047 1625 
L 3713 1625 
L 3713 1100 
L 3047 1100 
L 3047 0 
L 2419 0 
L 2419 1100 
L 313 1100 
L 313 1709 
L 2253 4666 
z
" transform="scale(0.015625)"/>
     </defs>
     <use xlink:href="#DejaVuSans-34"/>
    </g>
   </g>
   <g id="text_5">
    <!-- 5 -->
    <g transform="translate(256.032166 160.638715) scale(0.13 -0.13)">
     <defs>
      <path id="DejaVuSans-35" d="M 691 4666 
L 3169 4666 
L 3169 4134 
L 1269 4134 
L 1269 2991 
Q 1406 3038 1543 3061 
Q 1681 3084 1819 3084 
Q 2600 3084 3056 2656 
Q 3513 2228 3513 1497 
Q 3513 744 3044 326 
Q 2575 -91 1722 -91 
Q 1428 -91 1123 -41 
Q 819 9 494 109 
L 494 744 
Q 775 591 1075 516 
Q 1375 441 1709 441 
Q 2250 441 2565 725 
Q 2881 1009 2881 1497 
Q 2881 1984 2565 2268 
Q 2250 2553 1709 2553 
Q 1456 2553 1204 2497 
Q 953 2441 691 2322 
L 691 4666 
z
" transform="scale(0.015625)"/>
     </defs>
     <use xlink:href="#DejaVuSans-35"/>
    </g>
   </g>
  </g>
 </g>
 <defs>
  <clipPath id="paa45881c49">
   <rect x="26.618913" y="10.8" width="378.762174" height="410.4"/>
  </clipPath>
 </defs>
</svg>
