<?xml version="1.0" encoding="utf-8" standalone="no"?>
<!DOCTYPE svg PUBLIC "-//W3C//DTD SVG 1.1//EN"
  "http://www.w3.org/Graphics/SVG/1.1/DTD/svg11.dtd">
<svg xmlns:xlink="http://www.w3.org/1999/xlink" width="432pt" height="432pt" viewBox="0 0 432 432" xmlns="http://www.w3.org/2000/svg" version="1.1">
 <metadata>
  <rdf:RDF xmlns:dc="http://purl.org/dc/elements/1.1/" xmlns:cc="http://creativecommons.org/ns#" xmlns:rdf="http://www.w3.org/1999/02/22-rdf-syntax-ns#">
   <cc:Work>
    <dc:type rdf:resource="http://purl.org/dc/dcmitype/StillImage"/>
    <dc:date>2025-04-20T13:46:47.326805</dc:date>
    <dc:format>image/svg+xml</dc:format>
    <dc:creator>
     <cc:Agent>
      <dc:title>Matplotlib v3.10.1, https://matplotlib.org/</dc:title>
     </cc:Agent>
    </dc:creator>
   </cc:Work>
  </rdf:RDF>
 </metadata>
 <defs>
  <style type="text/css">*{stroke-linejoin: round; stroke-linecap: butt}</style>
 </defs>
 <g id="figure_1">
  <g id="patch_1">
   <path d="M 0 432 
L 432 432 
L 432 0 
L 0 0 
z
" style="fill: #ffffff"/>
  </g>
  <g id="axes_1">
   <g id="PatchCollection_1">
    <path d="M 350.17945 337.262051 
L 334.729829 316.127468 
L 319.225643 294.953155 
L 313.815858 286.411692 
L 302.894494 271.465537 
L 298.595417 265.533477 
L 294.745853 260.84165 
L 275.762591 239.337133 
L 264.09442 224.356121 
L 259.249303 218.0575 
L 256.61751 215.076664 
L 256.259254 215.350273 
L 256.157836 215.442101 
L 255.783209 215.718708 
L 255.397105 216.041416 
L 255.049574 216.385488 
L 252.038828 218.72578 
L 251.428249 219.182669 
L 250.835169 219.591582 
L 245.779501 222.750825 
L 241.042388 225.686309 
L 240.629377 225.890579 
L 240.261336 226.11134 
L 239.046764 226.841462 
L 237.643844 227.663413 
L 237.282765 227.887172 
L 236.501713 228.382666 
L 236.080799 228.649903 
L 235.79442 228.839181 
L 235.019766 229.351541 
L 234.651349 229.620277 
L 234.304382 229.87627 
L 234.046979 230.099654 
L 233.795786 230.340655 
L 233.533679 230.61239 
L 233.163569 231.008935 
L 232.86891 231.35638 
L 232.773325 231.471446 
L 232.71556 231.54116 
L 232.619975 231.656225 
L 232.263788 232.094374 
L 232.107239 232.287399 
L 230.79219 233.910311 
L 230.336278 234.470272 
L 230.185374 234.655426 
L 229.657962 235.29747 
L 228.84624 236.292206 
L 228.591848 236.602171 
L 228.371324 236.872406 
L 228.192573 237.094666 
L 228.081746 237.23222 
L 227.396844 238.069163 
L 227.328919 238.151995 
L 225.403479 240.499782 
L 225.251633 240.683812 
L 225.026971 240.958545 
L 224.355992 241.759132 
L 224.047975 242.126442 
L 223.808447 242.4008 
L 222.9288 243.407905 
L 222.483802 243.824315 
L 221.606976 244.423631 
L 218.377024 246.631615 
L 217.958556 246.913844 
L 215.334478 248.683305 
L 215.233248 248.751145 
L 213.634642 249.820468 
L 213.167065 250.133806 
L 212.768166 250.405916 
L 212.555733 250.55209 
L 212.525628 250.572704 
L 211.336081 251.404025 
L 210.964841 251.633781 
L 210.743942 251.770586 
L 210.256043 252.10079 
L 210.104763 252.197865 
L 209.081173 252.854526 
L 208.458175 253.246198 
L 208.08957 253.49507 
L 208.057771 253.515684 
L 207.648523 253.782921 
L 207.377385 253.965827 
L 206.361322 254.643477 
L 203.2898 256.691794 
L 202.614494 257.12507 
L 202.586082 257.145684 
L 202.260189 257.342083 
L 202.03816 257.487882 
L 201.698155 257.660668 
L 208.238781 270.641713 
L 226.611653 306.606261 
L 243.065106 338.950554 
L 248.971821 350.445116 
L 249.353974 351.521935 
L 256.378359 364.953122 
L 283.192272 355.540609 
L 286.059076 354.560491 
L 290.222866 352.968313 
L 290.527121 352.896725 
L 313.559584 344.860126 
L 350.17945 337.262051 
" clip-path="url(#p65bd453fa2)" style="fill: #ffffff; stroke: #000000"/>
    <path d="M 159.16894 337.67996 
L 159.302534 338.302514 
L 161.54333 347.072983 
L 163.986022 356.915024 
L 166.570021 366.009702 
L 167.919316 370.083847 
L 171.253509 382.079151 
L 174.168106 394.458632 
L 176.126286 402.545455 
L 189.611328 399.755396 
L 207.578152 396.156879 
L 211.589344 395.259968 
L 213.997791 394.721371 
L 220.390711 392.633699 
L 236.728634 385.422424 
L 257.158282 376.103613 
L 261.035504 374.25994 
L 269.020822 370.476644 
L 274.6532 366.373639 
L 275.298777 365.683995 
L 278.266622 362.513133 
L 280.547873 359.703959 
L 283.192272 355.540609 
L 256.378359 364.953122 
L 249.353974 351.521935 
L 248.971821 350.445116 
L 243.065106 338.950554 
L 226.611653 306.606261 
L 175.489929 332.861824 
L 172.282367 334.282715 
L 169.300409 335.207362 
L 161.271439 337.20508 
L 159.16894 337.67996 
" clip-path="url(#p65bd453fa2)" style="fill: #ffffff; stroke: #000000"/>
    <path d="M 192.404186 244.316436 
L 191.068439 245.00533 
L 190.096781 245.498575 
L 188.963494 246.057037 
L 187.376742 246.832137 
L 185.476515 247.731672 
L 183.278243 248.728657 
L 181.940991 249.314854 
L 180.422352 249.976762 
L 178.911052 250.625177 
L 177.257691 251.317445 
L 174.432282 252.438865 
L 172.571381 253.153246 
L 170.757143 253.825649 
L 169.79527 254.164099 
L 169.681998 254.207577 
L 168.331951 254.686954 
L 167.295001 255.054264 
L 165.503155 255.649832 
L 164.983457 255.833487 
L 163.098471 256.444421 
L 160.686074 257.193659 
L 158.094547 257.964636 
L 155.693439 258.631042 
L 153.108122 259.316563 
L 151.647061 259.67975 
L 150.38432 259.979595 
L 141.58841 262.078136 
L 141.941397 263.437184 
L 143.314212 269.27367 
L 145.17135 276.625497 
L 149.047256 292.56189 
L 151.36896 301.389705 
L 154.679634 314.64211 
L 157.707691 330.866729 
L 159.16894 337.67996 
L 161.271439 337.20508 
L 169.300409 335.207362 
L 172.282367 334.282715 
L 175.489929 332.861824 
L 226.611653 306.606261 
L 208.238781 270.641713 
L 201.698155 257.660668 
L 194.392471 243.269977 
L 192.404186 244.316436 
" clip-path="url(#p65bd453fa2)" style="fill: #ffffff; stroke: #000000"/>
    <path d="M 153.738834 210.863091 
L 171.170342 197.546969 
L 185.373592 186.821509 
L 196.996416 177.986948 
L 206.885723 170.470205 
L 207.561217 169.853649 
L 208.745872 169.05756 
L 210.892588 167.38405 
L 212.442085 166.176049 
L 213.194724 165.589102 
L 213.675285 165.21467 
L 214.017359 164.912951 
L 214.345886 164.53777 
L 215.299293 163.372497 
L 216.037444 162.614263 
L 216.324388 162.405871 
L 217.374884 161.760829 
L 217.786014 161.496216 
L 218.025729 161.286699 
L 218.386056 161.058067 
L 217.824963 160.172774 
L 209.830614 147.743445 
L 205.935704 141.520909 
L 199.272774 130.877157 
L 195.679297 120.992388 
L 194.30667 119.963919 
L 194.568965 119.257784 
L 195.417002 119.822617 
L 193.539542 115.727857 
L 191.984965 113.246639 
L 190.854501 113.973013 
L 190.249002 113.105337 
L 191.460188 112.338857 
L 184.334008 101.991952 
L 174.745004 88.499671 
L 170.48544 82.167317 
L 166.528814 76.743119 
L 161.224399 69.643911 
L 152.498484 59.523389 
L 145.715697 52.013393 
L 144.674984 50.704944 
L 143.575754 49.070038 
L 142.847952 47.711365 
L 141.494141 44.898068 
L 140.005797 39.731362 
L 139.650739 37.87682 
L 139.00742 37.926669 
L 136.781113 37.651187 
L 132.549209 37.244896 
L 129.98346 36.826612 
L 125.042194 35.491177 
L 117.946872 33.29781 
L 115.795076 32.7371 
L 107.109427 29.941794 
L 105.567269 29.584228 
L 103.948906 29.454545 
L 100.446874 29.631454 
L 99.311329 29.699669 
L 98.510897 29.810237 
L 97.754494 30.009259 
L 97.059055 30.283992 
L 95.943455 30.843203 
L 94.684854 31.66178 
L 83.599978 39.717869 
L 81.82055 40.930368 
L 82.3267 41.687851 
L 82.510345 41.792797 
L 82.72353 42.105011 
L 82.776214 42.181846 
L 83.305885 43.043151 
L 83.492163 43.350493 
L 84.036133 44.230913 
L 84.159942 44.436307 
L 84.717648 45.384942 
L 84.834684 45.617697 
L 85.090205 46.158917 
L 85.346478 46.830195 
L 85.526924 47.360172 
L 85.75121 48.000341 
L 85.971357 48.713223 
L 86.165727 49.336151 
L 86.305718 49.797912 
L 86.483529 50.433584 
L 86.588146 50.890848 
L 86.667925 51.453432 
L 86.701982 51.991279 
L 86.72569 52.611209 
L 86.726255 52.981518 
L 86.734158 53.661042 
L 86.762758 54.324074 
L 86.801143 54.83606 
L 86.869821 55.529077 
L 86.939064 56.05568 
L 87.01715 56.57816 
L 87.091285 57.027178 
L 87.219234 57.653105 
L 87.358472 58.272285 
L 87.603644 59.184564 
L 87.778821 59.778632 
L 88.033778 60.521498 
L 88.391658 61.516984 
L 88.761769 62.41502 
L 89.055486 63.04432 
L 89.511586 63.953975 
L 89.846887 64.624504 
L 90.394808 65.716315 
L 90.860692 66.688188 
L 90.890798 66.751155 
L 91.266741 67.646568 
L 91.491028 68.248507 
L 91.755204 69.09332 
L 92.128137 70.369911 
L 92.194746 70.667882 
L 92.247995 70.951985 
L 92.272832 71.163376 
L 92.887739 71.019825 
L 93.749135 74.284764 
L 96.111106 83.096462 
L 98.270993 91.808462 
L 101.117476 102.921097 
L 103.398726 112.158576 
L 105.377039 119.904325 
L 105.901817 123.25322 
L 105.78083 129.163542 
L 105.094423 134.772145 
L 105.013703 138.242102 
L 105.195277 141.449696 
L 106.911295 147.865632 
L 109.959485 158.620326 
L 111.776357 163.826387 
L 115.16173 170.863377 
L 121.673191 184.398761 
L 122.991063 188.439174 
L 125.852786 187.459805 
L 140.484287 181.933659 
L 141.864064 181.4198 
L 142.254684 181.240642 
L 142.374353 181.184421 
L 153.738834 210.863091 
" clip-path="url(#p65bd453fa2)" style="fill: #ffffff; stroke: #000000"/>
    <path d="M 194.392471 243.269977 
L 188.273512 231.245812 
L 183.88186 222.566795 
L 177.23323 209.491299 
L 171.170342 197.546969 
L 153.738834 210.863091 
L 142.374353 181.184421 
L 142.254684 181.240642 
L 141.864064 181.4198 
L 140.484287 181.933659 
L 125.852786 187.459805 
L 122.991063 188.439174 
L 123.187313 189.040738 
L 124.479407 194.005798 
L 128.375446 209.911832 
L 131.38337 221.640649 
L 134.573056 234.501381 
L 137.924184 247.868101 
L 139.222863 252.898753 
L 140.986486 259.411014 
L 141.58841 262.078136 
L 150.38432 259.979595 
L 151.647061 259.67975 
L 153.108122 259.316563 
L 155.693439 258.631042 
L 158.094547 257.964636 
L 160.686074 257.193659 
L 163.098471 256.444421 
L 164.983457 255.833487 
L 165.503155 255.649832 
L 167.295001 255.054264 
L 168.331951 254.686954 
L 169.681998 254.207577 
L 169.79527 254.164099 
L 170.757143 253.825649 
L 172.571381 253.153246 
L 174.432282 252.438865 
L 177.257691 251.317445 
L 178.911052 250.625177 
L 180.422352 249.976762 
L 181.940991 249.314854 
L 183.278243 248.728657 
L 185.476515 247.731672 
L 187.376742 246.832137 
L 188.963494 246.057037 
L 190.096781 245.498575 
L 191.068439 245.00533 
L 192.404186 244.316436 
L 194.392471 243.269977 
" clip-path="url(#p65bd453fa2)" style="fill: #ffffff; stroke: #000000"/>
    <path d="M 218.386056 161.058067 
L 218.025729 161.286699 
L 217.786014 161.496216 
L 217.374884 161.760829 
L 216.324388 162.405871 
L 216.037444 162.614263 
L 215.299293 163.372497 
L 214.345886 164.53777 
L 214.017359 164.912951 
L 213.675285 165.21467 
L 213.194724 165.589102 
L 212.442085 166.176049 
L 210.892588 167.38405 
L 208.745872 169.05756 
L 207.561217 169.853649 
L 206.885723 170.470205 
L 196.996416 177.986948 
L 185.373592 186.821509 
L 171.170342 197.546969 
L 177.23323 209.491299 
L 183.88186 222.566795 
L 188.273512 231.245812 
L 194.392471 243.269977 
L 201.698155 257.660668 
L 202.03816 257.487882 
L 202.260189 257.342083 
L 202.586082 257.145684 
L 202.614494 257.12507 
L 203.2898 256.691794 
L 206.361322 254.643477 
L 207.377385 253.965827 
L 207.648523 253.782921 
L 208.057771 253.515684 
L 208.08957 253.49507 
L 208.458175 253.246198 
L 209.081173 252.854526 
L 210.104763 252.197865 
L 210.256043 252.10079 
L 210.743942 251.770586 
L 210.964841 251.633781 
L 211.336081 251.404025 
L 212.525628 250.572704 
L 212.555733 250.55209 
L 212.768166 250.405916 
L 213.167065 250.133806 
L 213.634642 249.820468 
L 215.233248 248.751145 
L 215.334478 248.683305 
L 217.958556 246.913844 
L 218.377024 246.631615 
L 221.606976 244.423631 
L 222.483802 243.824315 
L 222.9288 243.407905 
L 223.808447 242.4008 
L 224.047975 242.126442 
L 224.355992 241.759132 
L 225.026971 240.958545 
L 225.251633 240.683812 
L 225.403479 240.499782 
L 227.328919 238.151995 
L 227.396844 238.069163 
L 228.081746 237.23222 
L 228.192573 237.094666 
L 228.371324 236.872406 
L 228.591848 236.602171 
L 228.84624 236.292206 
L 229.657962 235.29747 
L 230.185374 234.655426 
L 230.336278 234.470272 
L 230.79219 233.910311 
L 232.107239 232.287399 
L 232.263788 232.094374 
L 232.619975 231.656225 
L 232.71556 231.54116 
L 232.773325 231.471446 
L 232.86891 231.35638 
L 233.163569 231.008935 
L 233.533679 230.61239 
L 233.795786 230.340655 
L 234.046979 230.099654 
L 234.304382 229.87627 
L 234.651349 229.620277 
L 235.019766 229.351541 
L 235.79442 228.839181 
L 236.080799 228.649903 
L 236.501713 228.382666 
L 237.282765 227.887172 
L 237.643844 227.663413 
L 239.046764 226.841462 
L 240.261336 226.11134 
L 240.629377 225.890579 
L 241.042388 225.686309 
L 245.779501 222.750825 
L 250.835169 219.591582 
L 251.428249 219.182669 
L 252.038828 218.72578 
L 255.049574 216.385488 
L 255.397105 216.041416 
L 255.783209 215.718708 
L 256.157836 215.442101 
L 256.259254 215.350273 
L 256.61751 215.076664 
L 255.214967 213.472868 
L 255.164352 213.414773 
L 255.120887 213.360051 
L 248.206952 205.481246 
L 239.405208 193.148241 
L 233.288319 184.288193 
L 225.314479 172.482166 
L 218.386056 161.058067 
" clip-path="url(#p65bd453fa2)" style="fill: #ffffff; stroke: #000000"/>
   </g>
   <g id="text_1">
    <!-- 1 -->
    <g transform="translate(265.385641 298.477669) scale(0.13 -0.13)">
     <defs>
      <path id="DejaVuSans-31" d="M 794 531 
L 1825 531 
L 1825 4091 
L 703 3866 
L 703 4441 
L 1819 4666 
L 2450 4666 
L 2450 531 
L 3481 531 
L 3481 0 
L 794 0 
L 794 531 
z
" transform="scale(0.015625)"/>
     </defs>
     <use xlink:href="#DejaVuSans-31"/>
    </g>
   </g>
   <g id="text_2">
    <!-- 2 -->
    <g transform="translate(205.56228 361.555218) scale(0.13 -0.13)">
     <defs>
      <path id="DejaVuSans-32" d="M 1228 531 
L 3431 531 
L 3431 0 
L 469 0 
L 469 531 
Q 828 903 1448 1529 
Q 2069 2156 2228 2338 
Q 2531 2678 2651 2914 
Q 2772 3150 2772 3378 
Q 2772 3750 2511 3984 
Q 2250 4219 1831 4219 
Q 1534 4219 1204 4116 
Q 875 4013 500 3803 
L 500 4441 
Q 881 4594 1212 4672 
Q 1544 4750 1819 4750 
Q 2544 4750 2975 4387 
Q 3406 4025 3406 3419 
Q 3406 3131 3298 2873 
Q 3191 2616 2906 2266 
Q 2828 2175 2409 1742 
Q 1991 1309 1228 531 
z
" transform="scale(0.015625)"/>
     </defs>
     <use xlink:href="#DejaVuSans-32"/>
    </g>
   </g>
   <g id="text_3">
    <!-- 3 -->
    <g transform="translate(176.940673 293.962928) scale(0.13 -0.13)">
     <defs>
      <path id="DejaVuSans-33" d="M 2597 2516 
Q 3050 2419 3304 2112 
Q 3559 1806 3559 1356 
Q 3559 666 3084 287 
Q 2609 -91 1734 -91 
Q 1441 -91 1130 -33 
Q 819 25 488 141 
L 488 750 
Q 750 597 1062 519 
Q 1375 441 1716 441 
Q 2309 441 2620 675 
Q 2931 909 2931 1356 
Q 2931 1769 2642 2001 
Q 2353 2234 1838 2234 
L 1294 2234 
L 1294 2753 
L 1863 2753 
Q 2328 2753 2575 2939 
Q 2822 3125 2822 3475 
Q 2822 3834 2567 4026 
Q 2313 4219 1838 4219 
Q 1578 4219 1281 4162 
Q 984 4106 628 3988 
L 628 4550 
Q 988 4650 1302 4700 
Q 1616 4750 1894 4750 
Q 2613 4750 3031 4423 
Q 3450 4097 3450 3541 
Q 3450 3153 3228 2886 
Q 3006 2619 2597 2516 
z
" transform="scale(0.015625)"/>
     </defs>
     <use xlink:href="#DejaVuSans-33"/>
    </g>
   </g>
   <g id="text_4">
    <!-- 4 -->
    <g transform="translate(141.168161 122.946475) scale(0.13 -0.13)">
     <defs>
      <path id="DejaVuSans-34" d="M 2419 4116 
L 825 1625 
L 2419 1625 
L 2419 4116 
z
M 2253 4666 
L 3047 4666 
L 3047 1625 
L 3713 1625 
L 3713 1100 
L 3047 1100 
L 3047 0 
L 2419 0 
L 2419 1100 
L 313 1100 
L 313 1709 
L 2253 4666 
z
" transform="scale(0.015625)"/>
     </defs>
     <use xlink:href="#DejaVuSans-34"/>
    </g>
   </g>
   <g id="text_5">
    <!-- 5 -->
    <g transform="translate(151.456339 228.694908) scale(0.13 -0.13)">
     <defs>
      <path id="DejaVuSans-35" d="M 691 4666 
L 3169 4666 
L 3169 4134 
L 1269 4134 
L 1269 2991 
Q 1406 3038 1543 3061 
Q 1681 3084 1819 3084 
Q 2600 3084 3056 2656 
Q 3513 2228 3513 1497 
Q 3513 744 3044 326 
Q 2575 -91 1722 -91 
Q 1428 -91 1123 -41 
Q 819 9 494 109 
L 494 744 
Q 775 591 1075 516 
Q 1375 441 1709 441 
Q 2250 441 2565 725 
Q 2881 1009 2881 1497 
Q 2881 1984 2565 2268 
Q 2250 2553 1709 2553 
Q 1456 2553 1204 2497 
Q 953 2441 691 2322 
L 691 4666 
z
" transform="scale(0.015625)"/>
     </defs>
     <use xlink:href="#DejaVuSans-35"/>
    </g>
   </g>
   <g id="text_6">
    <!-- 6 -->
    <g transform="translate(207.773017 212.6937) scale(0.13 -0.13)">
     <defs>
      <path id="DejaVuSans-36" d="M 2113 2584 
Q 1688 2584 1439 2293 
Q 1191 2003 1191 1497 
Q 1191 994 1439 701 
Q 1688 409 2113 409 
Q 2538 409 2786 701 
Q 3034 994 3034 1497 
Q 3034 2003 2786 2293 
Q 2538 2584 2113 2584 
z
M 3366 4563 
L 3366 3988 
Q 3128 4100 2886 4159 
Q 2644 4219 2406 4219 
Q 1781 4219 1451 3797 
Q 1122 3375 1075 2522 
Q 1259 2794 1537 2939 
Q 1816 3084 2150 3084 
Q 2853 3084 3261 2657 
Q 3669 2231 3669 1497 
Q 3669 778 3244 343 
Q 2819 -91 2113 -91 
Q 1303 -91 875 529 
Q 447 1150 447 2328 
Q 447 3434 972 4092 
Q 1497 4750 2381 4750 
Q 2619 4750 2861 4703 
Q 3103 4656 3366 4563 
z
" transform="scale(0.015625)"/>
     </defs>
     <use xlink:href="#DejaVuSans-36"/>
    </g>
   </g>
  </g>
 </g>
 <defs>
  <clipPath id="p65bd453fa2">
   <rect x="68.402605" y="10.8" width="295.194789" height="410.4"/>
  </clipPath>
 </defs>
</svg>
