<?xml version="1.0" encoding="utf-8" standalone="no"?>
<!DOCTYPE svg PUBLIC "-//W3C//DTD SVG 1.1//EN"
  "http://www.w3.org/Graphics/SVG/1.1/DTD/svg11.dtd">
<svg xmlns:xlink="http://www.w3.org/1999/xlink" width="432pt" height="432pt" viewBox="0 0 432 432" xmlns="http://www.w3.org/2000/svg" version="1.1">
 <metadata>
  <rdf:RDF xmlns:dc="http://purl.org/dc/elements/1.1/" xmlns:cc="http://creativecommons.org/ns#" xmlns:rdf="http://www.w3.org/1999/02/22-rdf-syntax-ns#">
   <cc:Work>
    <dc:type rdf:resource="http://purl.org/dc/dcmitype/StillImage"/>
    <dc:date>2025-04-20T13:46:47.407493</dc:date>
    <dc:format>image/svg+xml</dc:format>
    <dc:creator>
     <cc:Agent>
      <dc:title>Matplotlib v3.10.1, https://matplotlib.org/</dc:title>
     </cc:Agent>
    </dc:creator>
   </cc:Work>
  </rdf:RDF>
 </metadata>
 <defs>
  <style type="text/css">*{stroke-linejoin: round; stroke-linecap: butt}</style>
 </defs>
 <g id="figure_1">
  <g id="patch_1">
   <path d="M 0 432 
L 432 432 
L 432 0 
L 0 0 
z
" style="fill: #ffffff"/>
  </g>
  <g id="axes_1">
   <g id="PatchCollection_1">
    <path d="M 196.07067 378.133996 
L 196.433736 376.958569 
L 197.313278 374.096556 
L 197.583513 373.217145 
L 201.388436 360.835505 
L 203.455516 354.398529 
L 203.686022 353.662807 
L 209.499022 335.514742 
L 210.720389 331.700295 
L 210.850197 331.317123 
L 211.552729 329.102106 
L 213.571033 322.801752 
L 213.740176 322.287454 
L 213.917185 321.775511 
L 214.102062 321.266708 
L 214.294806 320.761047 
L 214.495024 320.258526 
L 214.703109 319.758361 
L 214.918667 319.262122 
L 215.141699 318.769023 
L 215.372599 318.279066 
L 217.572633 313.702986 
L 217.737056 313.354362 
L 217.795272 313.230303 
L 218.011224 312.754478 
L 218.220096 312.275513 
L 218.339675 311.989705 
L 218.421887 311.793407 
L 218.616204 311.308946 
L 218.708642 311.068678 
L 218.803834 310.821344 
L 218.983598 310.330601 
L 219.156674 309.837502 
L 219.321883 309.342048 
L 224.938599 292.09538 
L 225.261543 291.104472 
L 225.698954 289.761014 
L 225.947948 288.99624 
L 233.850843 264.732341 
L 235.231519 260.420085 
L 235.901402 258.061378 
L 236.895017 254.045923 
L 232.76951 252.988274 
L 169.786296 237.292353 
L 167.749111 236.785121 
L 162.059624 250.66019 
L 150.550451 264.159153 
L 137.212963 274.103567 
L 135.124248 275.660596 
L 121.5181 286.211961 
L 114.988407 291.276428 
L 116.698321 293.050169 
L 137.673582 312.96805 
L 135.490855 314.700176 
L 138.937038 321.389198 
L 139.153777 321.696992 
L 139.971169 323.079709 
L 140.372784 323.776171 
L 140.700449 324.322663 
L 142.891829 327.978501 
L 143.211627 328.532059 
L 145.57805 332.410106 
L 146.192471 333.395517 
L 146.736088 334.254514 
L 147.601862 335.677276 
L 148.28866 336.805592 
L 150.099666 339.746123 
L 151.31828 341.740502 
L 151.8084 342.465231 
L 152.446029 343.314806 
L 152.948736 343.988497 
L 156.191555 349.316788 
L 156.822103 350.343814 
L 157.426689 351.339434 
L 159.367503 354.595611 
L 160.121171 355.879394 
L 161.264261 357.79604 
L 161.312643 357.874559 
L 162.013995 359.014653 
L 162.742095 360.221488 
L 164.153453 362.532298 
L 164.785968 363.564821 
L 164.081862 364.070482 
L 162.810539 365.040975 
L 160.951543 366.423693 
L 159.08232 367.755373 
L 159.005223 367.811121 
L 158.077692 368.480102 
L 157.051429 369.323394 
L 156.307988 369.962538 
L 154.77469 371.294218 
L 154.570145 374.166438 
L 156.902347 372.994936 
L 158.356187 372.419393 
L 159.937474 372.002458 
L 161.610806 371.770827 
L 163.984704 371.627923 
L 171.305827 371.257314 
L 174.689073 371.528989 
L 177.91301 372.278059 
L 196.07067 378.133996 
" clip-path="url(#pc39c91cb1c)" style="fill: #ffffff; stroke: #000000"/>
    <path d="M 45.486121 205.14673 
L 45.447179 205.367368 
L 45.427905 205.519695 
L 45.422791 205.672806 
L 45.432232 205.825918 
L 45.456226 205.978245 
L 45.494382 206.126645 
L 45.546698 206.27112 
L 45.612388 206.410098 
L 45.690666 206.54201 
L 45.781137 206.66607 
L 45.883016 206.780708 
L 45.995123 206.885923 
L 46.116669 206.97936 
L 46.24687 207.06102 
L 46.383757 207.130116 
L 46.526938 207.185865 
L 46.674447 207.228265 
L 75.746527 214.049984 
L 135.137229 228.700034 
L 167.749111 236.785121 
L 167.763665 236.705817 
L 169.392941 227.866949 
L 170.94394 219.412822 
L 167.684601 202.608215 
L 166.875076 198.80162 
L 166.642603 197.707068 
L 166.236661 196.642352 
L 165.610046 195.63574 
L 156.245838 181.35944 
L 148.405093 169.405728 
L 147.976729 168.671577 
L 147.723802 167.949988 
L 147.616023 166.992843 
L 147.435079 165.381636 
L 145.886834 146.446027 
L 145.595751 142.898544 
L 144.051046 134.084017 
L 140.181613 122.324246 
L 134.140468 103.966536 
L 116.555533 110.668121 
L 111.521376 112.780278 
L 105.482197 116.017611 
L 99.4796 119.323255 
L 63.230365 139.288247 
L 35.812342 170.839482 
L 29.454545 175.405354 
L 32.61948 179.683062 
L 36.200583 184.577143 
L 45.808279 197.130739 
L 45.984109 197.396133 
L 46.157578 197.690579 
L 46.321214 198.004654 
L 46.426633 198.266907 
L 46.524972 198.605323 
L 46.584368 198.923325 
L 46.620164 199.335549 
L 46.601283 199.815299 
L 45.748096 203.659583 
L 45.650544 204.213141 
L 45.486121 205.14673 
" clip-path="url(#pc39c91cb1c)" style="fill: #ffffff; stroke: #000000"/>
    <path d="M 233.536159 229.12325 
L 233.562907 228.333351 
L 233.581394 227.793141 
L 233.616403 226.643625 
L 233.647871 225.654287 
L 233.700581 223.981835 
L 233.711202 223.755701 
L 233.785939 221.292564 
L 233.788692 221.203053 
L 233.901979 217.624163 
L 233.945248 216.357653 
L 233.976323 215.259175 
L 234.115964 210.753762 
L 234.119111 210.656399 
L 234.186374 208.496345 
L 234.248524 206.493328 
L 234.272126 205.730125 
L 234.297694 204.83501 
L 234.327982 204.054533 
L 234.368498 202.629415 
L 234.46841 199.17537 
L 234.578156 195.879934 
L 234.627719 194.275008 
L 234.648173 193.614664 
L 234.662334 193.149833 
L 234.689475 192.325385 
L 234.7768 189.478291 
L 234.811809 188.348404 
L 234.831477 187.684134 
L 234.855471 186.982176 
L 234.907787 185.270465 
L 234.95027 183.937999 
L 234.991572 182.639297 
L 235.02304 181.746538 
L 235.168188 176.88622 
L 235.188249 176.232158 
L 235.210671 175.519992 
L 235.32671 171.609752 
L 235.366833 170.485362 
L 235.389254 169.752781 
L 235.409708 169.097149 
L 235.465171 167.31163 
L 235.519061 165.584215 
L 235.543056 164.808448 
L 235.567444 164.024045 
L 235.713772 159.316054 
L 235.773562 157.391556 
L 235.786542 156.969125 
L 235.860887 154.573514 
L 235.875441 154.103972 
L 235.901009 153.281879 
L 235.908482 153.041611 
L 229.768998 152.935611 
L 229.761131 151.676168 
L 229.967249 144.25378 
L 230.028612 141.872303 
L 230.204048 133.923053 
L 230.53368 123.198947 
L 230.742551 107.601174 
L 231.332191 94.151678 
L 191.743372 89.483731 
L 175.550127 87.568656 
L 134.140468 103.966536 
L 140.181613 122.324246 
L 144.051046 134.084017 
L 145.595751 142.898544 
L 145.886834 146.446027 
L 147.435079 165.381636 
L 147.616023 166.992843 
L 147.723802 167.949988 
L 147.976729 168.671577 
L 148.405093 169.405728 
L 156.245838 181.35944 
L 165.610046 195.63574 
L 166.236661 196.642352 
L 166.642603 197.707068 
L 166.875076 198.80162 
L 167.684601 202.608215 
L 170.94394 219.412822 
L 169.392941 227.866949 
L 167.763665 236.705817 
L 167.749111 236.785121 
L 169.786296 237.292353 
L 232.76951 252.988274 
L 232.577946 252.462983 
L 232.695559 252.040551 
L 232.762429 251.644031 
L 232.78013 251.172918 
L 232.793898 250.801524 
L 232.859588 249.042701 
L 232.924098 246.969803 
L 232.932359 246.732676 
L 232.939046 246.547372 
L 233.058232 243.198542 
L 233.07672 242.654406 
L 233.146737 240.586219 
L 233.20692 238.810123 
L 233.245469 237.680236 
L 233.261203 237.220116 
L 233.298966 236.103577 
L 233.354429 234.47117 
L 233.402811 233.051549 
L 233.536159 229.12325 
" clip-path="url(#pc39c91cb1c)" style="fill: #ffffff; stroke: #000000"/>
    <path d="M 225.947948 288.99624 
L 225.698954 289.761014 
L 225.261543 291.104472 
L 224.938599 292.09538 
L 219.321883 309.342048 
L 219.156674 309.837502 
L 218.983598 310.330601 
L 218.803834 310.821344 
L 218.708642 311.068678 
L 218.616204 311.308946 
L 218.421887 311.793407 
L 218.339675 311.989705 
L 218.220096 312.275513 
L 218.011224 312.754478 
L 217.795272 313.230303 
L 217.737056 313.354362 
L 217.572633 313.702986 
L 215.372599 318.279066 
L 215.141699 318.769023 
L 214.918667 319.262122 
L 214.703109 319.758361 
L 214.495024 320.258526 
L 214.294806 320.761047 
L 214.102062 321.266708 
L 213.917185 321.775511 
L 213.740176 322.287454 
L 213.571033 322.801752 
L 211.552729 329.102106 
L 210.850197 331.317123 
L 210.720389 331.700295 
L 209.499022 335.514742 
L 203.686022 353.662807 
L 203.455516 354.398529 
L 201.388436 360.835505 
L 197.583513 373.217145 
L 197.313278 374.096556 
L 196.433736 376.958569 
L 196.07067 378.133996 
L 200.569077 379.308638 
L 215.4021 383.903562 
L 225.731996 386.701189 
L 231.095784 387.57746 
L 239.942731 388.428604 
L 244.596907 389.005718 
L 245.941788 388.901288 
L 270.331764 386.909264 
L 282.746047 383.805414 
L 321.698811 370.406169 
L 334.920259 365.647926 
L 344.26834 361.824843 
L 358.870071 356.67479 
L 365.365148 353.442954 
L 398.943896 335.77935 
L 379.233665 307.856472 
L 374.157812 295.679766 
L 357.350147 302.517189 
L 346.153297 307.072853 
L 332.505059 312.372877 
L 258.436709 259.575222 
L 245.18576 256.229533 
L 240.788051 256.187133 
L 239.775162 256.045014 
L 238.960524 255.680686 
L 236.895017 254.045923 
L 235.901402 258.061378 
L 235.231519 260.420085 
L 233.850843 264.732341 
L 225.947948 288.99624 
" clip-path="url(#pc39c91cb1c)" style="fill: #ffffff; stroke: #000000"/>
    <path d="M 234.831477 187.684134 
L 234.811809 188.348404 
L 234.7768 189.478291 
L 234.689475 192.325385 
L 234.662334 193.149833 
L 234.648173 193.614664 
L 234.627719 194.275008 
L 234.578156 195.879934 
L 234.46841 199.17537 
L 234.368498 202.629415 
L 234.327982 204.054533 
L 234.297694 204.83501 
L 234.272126 205.730125 
L 234.248524 206.493328 
L 234.186374 208.496345 
L 234.119111 210.656399 
L 234.115964 210.753762 
L 233.976323 215.259175 
L 233.945248 216.357653 
L 233.901979 217.624163 
L 233.788692 221.203053 
L 233.785939 221.292564 
L 233.711202 223.755701 
L 233.700581 223.981835 
L 233.647871 225.654287 
L 233.616403 226.643625 
L 233.581394 227.793141 
L 233.562907 228.333351 
L 233.536159 229.12325 
L 233.402811 233.051549 
L 233.354429 234.47117 
L 233.298966 236.103577 
L 233.261203 237.220116 
L 233.245469 237.680236 
L 233.20692 238.810123 
L 233.146737 240.586219 
L 233.07672 242.654406 
L 233.058232 243.198542 
L 232.939046 246.547372 
L 232.932359 246.732676 
L 232.924098 246.969803 
L 232.859588 249.042701 
L 232.793898 250.801524 
L 232.78013 251.172918 
L 232.762429 251.644031 
L 232.695559 252.040551 
L 232.577946 252.462983 
L 232.76951 252.988274 
L 236.895017 254.045923 
L 238.960524 255.680686 
L 239.775162 256.045014 
L 240.788051 256.187133 
L 245.18576 256.229533 
L 258.436709 259.575222 
L 332.505059 312.372877 
L 346.153297 307.072853 
L 357.350147 302.517189 
L 374.157812 295.679766 
L 367.76894 269.886319 
L 375.826817 237.651184 
L 391.059096 191.843279 
L 395.289629 160.552726 
L 402.135972 115.930455 
L 402.233524 105.911448 
L 402.545455 97.333262 
L 402.301968 90.95596 
L 401.712722 86.463111 
L 400.677412 81.06965 
L 398.775147 75.050394 
L 388.628162 62.433197 
L 377.371916 53.594329 
L 369.448566 49.512918 
L 361.496502 46.08871 
L 354.671006 43.976553 
L 346.835768 42.994282 
L 341.359873 43.285587 
L 335.889092 44.396629 
L 330.447813 46.355674 
L 326.045384 48.851004 
L 297.567663 75.325995 
L 276.67658 87.365292 
L 246.908655 96.008649 
L 231.332191 94.151678 
L 230.742551 107.601174 
L 230.53368 123.198947 
L 230.204048 133.923053 
L 230.028612 141.872303 
L 229.967249 144.25378 
L 229.761131 151.676168 
L 229.768998 152.935611 
L 235.908482 153.041611 
L 235.901009 153.281879 
L 235.875441 154.103972 
L 235.860887 154.573514 
L 235.786542 156.969125 
L 235.773562 157.391556 
L 235.713772 159.316054 
L 235.567444 164.024045 
L 235.543056 164.808448 
L 235.519061 165.584215 
L 235.465171 167.31163 
L 235.409708 169.097149 
L 235.389254 169.752781 
L 235.366833 170.485362 
L 235.32671 171.609752 
L 235.210671 175.519992 
L 235.188249 176.232158 
L 235.168188 176.88622 
L 235.02304 181.746538 
L 234.991572 182.639297 
L 234.95027 183.937999 
L 234.907787 185.270465 
L 234.855471 186.982176 
L 234.831477 187.684134 
" clip-path="url(#pc39c91cb1c)" style="fill: #ffffff; stroke: #000000"/>
    <path d="M 36.75246 211.45415 
L 37.152896 211.991219 
L 37.286637 212.171028 
L 37.383009 212.299799 
L 37.559232 212.53614 
L 38.4431 213.723346 
L 39.553935 215.213634 
L 39.906774 215.687102 
L 41.081332 217.263761 
L 41.821233 218.257025 
L 41.990375 218.483944 
L 42.312927 218.916583 
L 43.230624 220.148544 
L 43.562615 220.594531 
L 57.133756 238.700982 
L 66.994378 251.934551 
L 71.578931 258.058237 
L 82.938236 273.223371 
L 103.232206 300.29589 
L 114.988407 291.276428 
L 121.5181 286.211961 
L 135.124248 275.660596 
L 137.212963 274.103567 
L 150.550451 264.159153 
L 162.059624 250.66019 
L 167.749111 236.785121 
L 135.137229 228.700034 
L 75.746527 214.049984 
L 46.674447 207.228265 
L 46.526938 207.185865 
L 46.383757 207.130116 
L 46.24687 207.06102 
L 46.116669 206.97936 
L 45.995123 206.885923 
L 45.883016 206.780708 
L 45.781137 206.66607 
L 45.690666 206.54201 
L 45.612388 206.410098 
L 45.546698 206.27112 
L 45.494382 206.126645 
L 45.456226 205.978245 
L 45.432232 205.825918 
L 45.422791 205.672806 
L 45.427905 205.519695 
L 45.447179 205.367368 
L 45.486121 205.14673 
L 45.650544 204.213141 
L 37.10648 210.76554 
L 36.75246 211.45415 
" clip-path="url(#pc39c91cb1c)" style="fill: #ffffff; stroke: #000000"/>
   </g>
   <g id="text_1">
    <!-- 1 -->
    <g transform="translate(176.146704 304.735328) scale(0.13 -0.13)">
     <defs>
      <path id="DejaVuSans-31" d="M 794 531 
L 1825 531 
L 1825 4091 
L 703 3866 
L 703 4441 
L 1819 4666 
L 2450 4666 
L 2450 531 
L 3481 531 
L 3481 0 
L 794 0 
L 794 531 
z
" transform="scale(0.015625)"/>
     </defs>
     <use xlink:href="#DejaVuSans-31"/>
    </g>
   </g>
   <g id="text_2">
    <!-- 2 -->
    <g transform="translate(102.021799 179.157795) scale(0.13 -0.13)">
     <defs>
      <path id="DejaVuSans-32" d="M 1228 531 
L 3431 531 
L 3431 0 
L 469 0 
L 469 531 
Q 828 903 1448 1529 
Q 2069 2156 2228 2338 
Q 2531 2678 2651 2914 
Q 2772 3150 2772 3378 
Q 2772 3750 2511 3984 
Q 2250 4219 1831 4219 
Q 1534 4219 1204 4116 
Q 875 4013 500 3803 
L 500 4441 
Q 881 4594 1212 4672 
Q 1544 4750 1819 4750 
Q 2544 4750 2975 4387 
Q 3406 4025 3406 3419 
Q 3406 3131 3298 2873 
Q 3191 2616 2906 2266 
Q 2828 2175 2409 1742 
Q 1991 1309 1228 531 
z
" transform="scale(0.015625)"/>
     </defs>
     <use xlink:href="#DejaVuSans-32"/>
    </g>
   </g>
   <g id="text_3">
    <!-- 3 -->
    <g transform="translate(188.850393 166.355987) scale(0.13 -0.13)">
     <defs>
      <path id="DejaVuSans-33" d="M 2597 2516 
Q 3050 2419 3304 2112 
Q 3559 1806 3559 1356 
Q 3559 666 3084 287 
Q 2609 -91 1734 -91 
Q 1441 -91 1130 -33 
Q 819 25 488 141 
L 488 750 
Q 750 597 1062 519 
Q 1375 441 1716 441 
Q 2309 441 2620 675 
Q 2931 909 2931 1356 
Q 2931 1769 2642 2001 
Q 2353 2234 1838 2234 
L 1294 2234 
L 1294 2753 
L 1863 2753 
Q 2328 2753 2575 2939 
Q 2822 3125 2822 3475 
Q 2822 3834 2567 4026 
Q 2313 4219 1838 4219 
Q 1578 4219 1281 4162 
Q 984 4106 628 3988 
L 628 4550 
Q 988 4650 1302 4700 
Q 1616 4750 1894 4750 
Q 2613 4750 3031 4423 
Q 3450 4097 3450 3541 
Q 3450 3153 3228 2886 
Q 3006 2619 2597 2516 
z
" transform="scale(0.015625)"/>
     </defs>
     <use xlink:href="#DejaVuSans-33"/>
    </g>
   </g>
   <g id="text_4">
    <!-- 4 -->
    <g transform="translate(279.165986 334.993468) scale(0.13 -0.13)">
     <defs>
      <path id="DejaVuSans-34" d="M 2419 4116 
L 825 1625 
L 2419 1625 
L 2419 4116 
z
M 2253 4666 
L 3047 4666 
L 3047 1625 
L 3713 1625 
L 3713 1100 
L 3047 1100 
L 3047 0 
L 2419 0 
L 2419 1100 
L 313 1100 
L 313 1709 
L 2253 4666 
z
" transform="scale(0.015625)"/>
     </defs>
     <use xlink:href="#DejaVuSans-34"/>
    </g>
   </g>
   <g id="text_5">
    <!-- 5 -->
    <g transform="translate(313.946855 175.587348) scale(0.13 -0.13)">
     <defs>
      <path id="DejaVuSans-35" d="M 691 4666 
L 3169 4666 
L 3169 4134 
L 1269 4134 
L 1269 2991 
Q 1406 3038 1543 3061 
Q 1681 3084 1819 3084 
Q 2600 3084 3056 2656 
Q 3513 2228 3513 1497 
Q 3513 744 3044 326 
Q 2575 -91 1722 -91 
Q 1428 -91 1123 -41 
Q 819 9 494 109 
L 494 744 
Q 775 591 1075 516 
Q 1375 441 1709 441 
Q 2250 441 2565 725 
Q 2881 1009 2881 1497 
Q 2881 1984 2565 2268 
Q 2250 2553 1709 2553 
Q 1456 2553 1204 2497 
Q 953 2441 691 2322 
L 691 4666 
z
" transform="scale(0.015625)"/>
     </defs>
     <use xlink:href="#DejaVuSans-35"/>
    </g>
   </g>
   <g id="text_6">
    <!-- 6 -->
    <g transform="translate(99.518124 251.730297) scale(0.13 -0.13)">
     <defs>
      <path id="DejaVuSans-36" d="M 2113 2584 
Q 1688 2584 1439 2293 
Q 1191 2003 1191 1497 
Q 1191 994 1439 701 
Q 1688 409 2113 409 
Q 2538 409 2786 701 
Q 3034 994 3034 1497 
Q 3034 2003 2786 2293 
Q 2538 2584 2113 2584 
z
M 3366 4563 
L 3366 3988 
Q 3128 4100 2886 4159 
Q 2644 4219 2406 4219 
Q 1781 4219 1451 3797 
Q 1122 3375 1075 2522 
Q 1259 2794 1537 2939 
Q 1816 3084 2150 3084 
Q 2853 3084 3261 2657 
Q 3669 2231 3669 1497 
Q 3669 778 3244 343 
Q 2819 -91 2113 -91 
Q 1303 -91 875 529 
Q 447 1150 447 2328 
Q 447 3434 972 4092 
Q 1497 4750 2381 4750 
Q 2619 4750 2861 4703 
Q 3103 4656 3366 4563 
z
" transform="scale(0.015625)"/>
     </defs>
     <use xlink:href="#DejaVuSans-36"/>
    </g>
   </g>
  </g>
 </g>
 <defs>
  <clipPath id="pc39c91cb1c">
   <rect x="10.8" y="25.69371" width="410.4" height="380.61258"/>
  </clipPath>
 </defs>
</svg>
